<?xml version="1.0" encoding="utf-8" standalone="no"?>
<!DOCTYPE svg PUBLIC "-//W3C//DTD SVG 1.1//EN"
  "http://www.w3.org/Graphics/SVG/1.1/DTD/svg11.dtd">
<svg xmlns:xlink="http://www.w3.org/1999/xlink" width="795.6pt" height="391.392pt" viewBox="0 0 795.6 391.392" xmlns="http://www.w3.org/2000/svg" version="1.1">
 <metadata>
  <rdf:RDF xmlns:dc="http://purl.org/dc/elements/1.1/" xmlns:cc="http://creativecommons.org/ns#" xmlns:rdf="http://www.w3.org/1999/02/22-rdf-syntax-ns#">
   <cc:Work>
    <dc:type rdf:resource="http://purl.org/dc/dcmitype/StillImage"/>
    <dc:date>2026-03-13T14:09:09.701509</dc:date>
    <dc:format>image/svg+xml</dc:format>
    <dc:creator>
     <cc:Agent>
      <dc:title>Matplotlib v3.6.2, https://matplotlib.org/</dc:title>
     </cc:Agent>
    </dc:creator>
   </cc:Work>
  </rdf:RDF>
 </metadata>
 <defs>
  <style type="text/css">*{stroke-linejoin: round; stroke-linecap: butt}</style>
 </defs>
 <g id="figure_1">
  <g id="patch_1">
   <path d="M 0 391.392 
L 795.6 391.392 
L 795.6 0 
L 0 0 
z
" style="fill: #ffffff"/>
  </g>
  <g id="axes_1">
   <g id="patch_2">
    <path d="M 46.26 116.52768 
L 171.252 116.52768 
Q 186.876 116.52768 186.876 108.98784 
L 186.876 71.28864 
Q 186.876 63.7488 171.252 63.7488 
L 46.26 63.7488 
Q 30.636 63.7488 30.636 71.28864 
L 30.636 108.98784 
Q 30.636 116.52768 46.26 116.52768 
z
" clip-path="url(#p2cc9af8de7)" style="fill: #eef2ff; stroke: #4338ca; stroke-width: 1.4; stroke-linejoin: miter"/>
   </g>
   <g id="patch_3">
    <path d="M 225.936 116.52768 
L 366.552 116.52768 
Q 382.176 116.52768 382.176 108.98784 
L 382.176 71.28864 
Q 382.176 63.7488 366.552 63.7488 
L 225.936 63.7488 
Q 210.312 63.7488 210.312 71.28864 
L 210.312 108.98784 
Q 210.312 116.52768 225.936 116.52768 
z
" clip-path="url(#p2cc9af8de7)" style="fill: #eef2ff; stroke: #4338ca; stroke-width: 1.4; stroke-linejoin: miter"/>
   </g>
   <g id="patch_4">
    <path d="M 421.236 116.52768 
L 577.476 116.52768 
Q 593.1 116.52768 593.1 108.98784 
L 593.1 71.28864 
Q 593.1 63.7488 577.476 63.7488 
L 421.236 63.7488 
Q 405.612 63.7488 405.612 71.28864 
L 405.612 108.98784 
Q 405.612 116.52768 421.236 116.52768 
z
" clip-path="url(#p2cc9af8de7)" style="fill: #ecfdf5; stroke: #047857; stroke-width: 1.4; stroke-linejoin: miter"/>
   </g>
   <g id="patch_5">
    <path d="M 624.348 116.52768 
L 749.34 116.52768 
Q 764.964 116.52768 764.964 108.98784 
L 764.964 71.28864 
Q 764.964 63.7488 749.34 63.7488 
L 624.348 63.7488 
Q 608.724 63.7488 608.724 71.28864 
L 608.724 108.98784 
Q 608.724 116.52768 624.348 116.52768 
z
" clip-path="url(#p2cc9af8de7)" style="fill: #f5f3ff; stroke: #6d28d9; stroke-width: 1.4; stroke-linejoin: miter"/>
   </g>
   <g id="patch_6">
    <path d="M 93.132 199.46592 
L 327.492 199.46592 
Q 343.116 199.46592 343.116 191.92608 
L 343.116 146.68704 
Q 343.116 139.1472 327.492 139.1472 
L 93.132 139.1472 
Q 77.508 139.1472 77.508 146.68704 
L 77.508 191.92608 
Q 77.508 199.46592 93.132 199.46592 
z
" clip-path="url(#p2cc9af8de7)" style="fill: #fff7ed; stroke: #c2410c; stroke-width: 1.4; stroke-linejoin: miter"/>
   </g>
   <g id="patch_7">
    <path d="M 382.176 199.46592 
L 538.416 199.46592 
Q 554.04 199.46592 554.04 191.92608 
L 554.04 146.68704 
Q 554.04 139.1472 538.416 139.1472 
L 382.176 139.1472 
Q 366.552 139.1472 366.552 146.68704 
L 366.552 191.92608 
Q 366.552 199.46592 382.176 199.46592 
z
" clip-path="url(#p2cc9af8de7)" style="fill: #fff7ed; stroke: #c2410c; stroke-width: 1.4; stroke-linejoin: miter"/>
   </g>
   <g id="patch_8">
    <path d="M 585.288 199.46592 
L 741.528 199.46592 
Q 757.152 199.46592 757.152 191.92608 
L 757.152 146.68704 
Q 757.152 139.1472 741.528 139.1472 
L 585.288 139.1472 
Q 569.664 139.1472 569.664 146.68704 
L 569.664 191.92608 
Q 569.664 199.46592 585.288 199.46592 
z
" clip-path="url(#p2cc9af8de7)" style="fill: #fef2f2; stroke: #b91c1c; stroke-width: 1.4; stroke-linejoin: miter"/>
   </g>
   <g id="patch_9">
    <path d="M 108.756 289.944 
L 327.492 289.944 
Q 343.116 289.944 343.116 282.40416 
L 343.116 240.93504 
Q 343.116 233.3952 327.492 233.3952 
L 108.756 233.3952 
Q 93.132 233.3952 93.132 240.93504 
L 93.132 282.40416 
Q 93.132 289.944 108.756 289.944 
z
" clip-path="url(#p2cc9af8de7)" style="fill: #f0fdfa; stroke: #0f766e; stroke-width: 1.4; stroke-linejoin: miter"/>
   </g>
   <g id="patch_10">
    <path d="M 389.988 289.944 
L 546.228 289.944 
Q 561.852 289.944 561.852 282.40416 
L 561.852 240.93504 
Q 561.852 233.3952 546.228 233.3952 
L 389.988 233.3952 
Q 374.364 233.3952 374.364 240.93504 
L 374.364 282.40416 
Q 374.364 289.944 389.988 289.944 
z
" clip-path="url(#p2cc9af8de7)" style="fill: #f0fdfa; stroke: #0f766e; stroke-width: 1.4; stroke-linejoin: miter"/>
   </g>
   <g id="patch_11">
    <path d="M 593.1 289.944 
L 733.716 289.944 
Q 749.34 289.944 749.34 282.40416 
L 749.34 240.93504 
Q 749.34 233.3952 733.716 233.3952 
L 593.1 233.3952 
Q 577.476 233.3952 577.476 240.93504 
L 577.476 282.40416 
Q 577.476 289.944 593.1 289.944 
z
" clip-path="url(#p2cc9af8de7)" style="fill: #f0fdfa; stroke: #0f766e; stroke-width: 1.4; stroke-linejoin: miter"/>
   </g>
   <g id="patch_12">
    <path d="M 46.26 365.3424 
L 374.364 365.3424 
Q 389.988 365.3424 389.988 357.80256 
L 389.988 316.33344 
Q 389.988 308.7936 374.364 308.7936 
L 46.26 308.7936 
Q 30.636 308.7936 30.636 316.33344 
L 30.636 357.80256 
Q 30.636 365.3424 46.26 365.3424 
z
" clip-path="url(#p2cc9af8de7)" style="fill: #ffffff; stroke: #64748b; stroke-width: 1.4; stroke-linejoin: miter"/>
   </g>
   <g id="patch_13">
    <path d="M 436.86 365.3424 
L 749.34 365.3424 
Q 764.964 365.3424 764.964 357.80256 
L 764.964 316.33344 
Q 764.964 308.7936 749.34 308.7936 
L 436.86 308.7936 
Q 421.236 308.7936 421.236 316.33344 
L 421.236 357.80256 
Q 421.236 365.3424 436.86 365.3424 
z
" clip-path="url(#p2cc9af8de7)" style="fill: #ffffff; stroke: #64748b; stroke-width: 1.4; stroke-linejoin: miter"/>
   </g>
   <g id="text_1">
    <!-- Figure 2. Training and Evaluation Pipeline in ChaoRec -->
    <g transform="translate(156.0925 30.66726) scale(0.16 -0.16)">
     <defs>
      <path id="DejaVuSans-Bold-46" d="M 588 4666 
L 3834 4666 
L 3834 3756 
L 1791 3756 
L 1791 2888 
L 3713 2888 
L 3713 1978 
L 1791 1978 
L 1791 0 
L 588 0 
L 588 4666 
z
" transform="scale(0.015625)"/>
      <path id="DejaVuSans-Bold-69" d="M 538 3500 
L 1656 3500 
L 1656 0 
L 538 0 
L 538 3500 
z
M 538 4863 
L 1656 4863 
L 1656 3950 
L 538 3950 
L 538 4863 
z
" transform="scale(0.015625)"/>
      <path id="DejaVuSans-Bold-67" d="M 2919 594 
Q 2688 288 2409 144 
Q 2131 0 1766 0 
Q 1125 0 706 504 
Q 288 1009 288 1791 
Q 288 2575 706 3076 
Q 1125 3578 1766 3578 
Q 2131 3578 2409 3434 
Q 2688 3291 2919 2981 
L 2919 3500 
L 4044 3500 
L 4044 353 
Q 4044 -491 3511 -936 
Q 2978 -1381 1966 -1381 
Q 1638 -1381 1331 -1331 
Q 1025 -1281 716 -1178 
L 716 -306 
Q 1009 -475 1290 -558 
Q 1572 -641 1856 -641 
Q 2406 -641 2662 -400 
Q 2919 -159 2919 353 
L 2919 594 
z
M 2181 2772 
Q 1834 2772 1640 2515 
Q 1447 2259 1447 1791 
Q 1447 1309 1634 1061 
Q 1822 813 2181 813 
Q 2531 813 2725 1069 
Q 2919 1325 2919 1791 
Q 2919 2259 2725 2515 
Q 2531 2772 2181 2772 
z
" transform="scale(0.015625)"/>
      <path id="DejaVuSans-Bold-75" d="M 500 1363 
L 500 3500 
L 1625 3500 
L 1625 3150 
Q 1625 2866 1622 2436 
Q 1619 2006 1619 1863 
Q 1619 1441 1641 1255 
Q 1663 1069 1716 984 
Q 1784 875 1895 815 
Q 2006 756 2150 756 
Q 2500 756 2700 1025 
Q 2900 1294 2900 1772 
L 2900 3500 
L 4019 3500 
L 4019 0 
L 2900 0 
L 2900 506 
Q 2647 200 2364 54 
Q 2081 -91 1741 -91 
Q 1134 -91 817 281 
Q 500 653 500 1363 
z
" transform="scale(0.015625)"/>
      <path id="DejaVuSans-Bold-72" d="M 3138 2547 
Q 2991 2616 2845 2648 
Q 2700 2681 2553 2681 
Q 2122 2681 1889 2404 
Q 1656 2128 1656 1613 
L 1656 0 
L 538 0 
L 538 3500 
L 1656 3500 
L 1656 2925 
Q 1872 3269 2151 3426 
Q 2431 3584 2822 3584 
Q 2878 3584 2943 3579 
Q 3009 3575 3134 3559 
L 3138 2547 
z
" transform="scale(0.015625)"/>
      <path id="DejaVuSans-Bold-65" d="M 4031 1759 
L 4031 1441 
L 1416 1441 
Q 1456 1047 1700 850 
Q 1944 653 2381 653 
Q 2734 653 3104 758 
Q 3475 863 3866 1075 
L 3866 213 
Q 3469 63 3072 -14 
Q 2675 -91 2278 -91 
Q 1328 -91 801 392 
Q 275 875 275 1747 
Q 275 2603 792 3093 
Q 1309 3584 2216 3584 
Q 3041 3584 3536 3087 
Q 4031 2591 4031 1759 
z
M 2881 2131 
Q 2881 2450 2695 2645 
Q 2509 2841 2209 2841 
Q 1884 2841 1681 2658 
Q 1478 2475 1428 2131 
L 2881 2131 
z
" transform="scale(0.015625)"/>
      <path id="DejaVuSans-Bold-20" transform="scale(0.015625)"/>
      <path id="DejaVuSans-Bold-32" d="M 1844 884 
L 3897 884 
L 3897 0 
L 506 0 
L 506 884 
L 2209 2388 
Q 2438 2594 2547 2791 
Q 2656 2988 2656 3200 
Q 2656 3528 2436 3728 
Q 2216 3928 1850 3928 
Q 1569 3928 1234 3808 
Q 900 3688 519 3450 
L 519 4475 
Q 925 4609 1322 4679 
Q 1719 4750 2100 4750 
Q 2938 4750 3402 4381 
Q 3866 4013 3866 3353 
Q 3866 2972 3669 2642 
Q 3472 2313 2841 1759 
L 1844 884 
z
" transform="scale(0.015625)"/>
      <path id="DejaVuSans-Bold-2e" d="M 653 1209 
L 1778 1209 
L 1778 0 
L 653 0 
L 653 1209 
z
" transform="scale(0.015625)"/>
      <path id="DejaVuSans-Bold-54" d="M 31 4666 
L 4331 4666 
L 4331 3756 
L 2784 3756 
L 2784 0 
L 1581 0 
L 1581 3756 
L 31 3756 
L 31 4666 
z
" transform="scale(0.015625)"/>
      <path id="DejaVuSans-Bold-61" d="M 2106 1575 
Q 1756 1575 1579 1456 
Q 1403 1338 1403 1106 
Q 1403 894 1545 773 
Q 1688 653 1941 653 
Q 2256 653 2472 879 
Q 2688 1106 2688 1447 
L 2688 1575 
L 2106 1575 
z
M 3816 1997 
L 3816 0 
L 2688 0 
L 2688 519 
Q 2463 200 2181 54 
Q 1900 -91 1497 -91 
Q 953 -91 614 226 
Q 275 544 275 1050 
Q 275 1666 698 1953 
Q 1122 2241 2028 2241 
L 2688 2241 
L 2688 2328 
Q 2688 2594 2478 2717 
Q 2269 2841 1825 2841 
Q 1466 2841 1156 2769 
Q 847 2697 581 2553 
L 581 3406 
Q 941 3494 1303 3539 
Q 1666 3584 2028 3584 
Q 2975 3584 3395 3211 
Q 3816 2838 3816 1997 
z
" transform="scale(0.015625)"/>
      <path id="DejaVuSans-Bold-6e" d="M 4056 2131 
L 4056 0 
L 2931 0 
L 2931 347 
L 2931 1631 
Q 2931 2084 2911 2256 
Q 2891 2428 2841 2509 
Q 2775 2619 2662 2680 
Q 2550 2741 2406 2741 
Q 2056 2741 1856 2470 
Q 1656 2200 1656 1722 
L 1656 0 
L 538 0 
L 538 3500 
L 1656 3500 
L 1656 2988 
Q 1909 3294 2193 3439 
Q 2478 3584 2822 3584 
Q 3428 3584 3742 3212 
Q 4056 2841 4056 2131 
z
" transform="scale(0.015625)"/>
      <path id="DejaVuSans-Bold-64" d="M 2919 2988 
L 2919 4863 
L 4044 4863 
L 4044 0 
L 2919 0 
L 2919 506 
Q 2688 197 2409 53 
Q 2131 -91 1766 -91 
Q 1119 -91 703 423 
Q 288 938 288 1747 
Q 288 2556 703 3070 
Q 1119 3584 1766 3584 
Q 2128 3584 2408 3439 
Q 2688 3294 2919 2988 
z
M 2181 722 
Q 2541 722 2730 984 
Q 2919 1247 2919 1747 
Q 2919 2247 2730 2509 
Q 2541 2772 2181 2772 
Q 1825 2772 1636 2509 
Q 1447 2247 1447 1747 
Q 1447 1247 1636 984 
Q 1825 722 2181 722 
z
" transform="scale(0.015625)"/>
      <path id="DejaVuSans-Bold-45" d="M 588 4666 
L 3834 4666 
L 3834 3756 
L 1791 3756 
L 1791 2888 
L 3713 2888 
L 3713 1978 
L 1791 1978 
L 1791 909 
L 3903 909 
L 3903 0 
L 588 0 
L 588 4666 
z
" transform="scale(0.015625)"/>
      <path id="DejaVuSans-Bold-76" d="M 97 3500 
L 1216 3500 
L 2088 1081 
L 2956 3500 
L 4078 3500 
L 2700 0 
L 1472 0 
L 97 3500 
z
" transform="scale(0.015625)"/>
      <path id="DejaVuSans-Bold-6c" d="M 538 4863 
L 1656 4863 
L 1656 0 
L 538 0 
L 538 4863 
z
" transform="scale(0.015625)"/>
      <path id="DejaVuSans-Bold-74" d="M 1759 4494 
L 1759 3500 
L 2913 3500 
L 2913 2700 
L 1759 2700 
L 1759 1216 
Q 1759 972 1856 886 
Q 1953 800 2241 800 
L 2816 800 
L 2816 0 
L 1856 0 
Q 1194 0 917 276 
Q 641 553 641 1216 
L 641 2700 
L 84 2700 
L 84 3500 
L 641 3500 
L 641 4494 
L 1759 4494 
z
" transform="scale(0.015625)"/>
      <path id="DejaVuSans-Bold-6f" d="M 2203 2784 
Q 1831 2784 1636 2517 
Q 1441 2250 1441 1747 
Q 1441 1244 1636 976 
Q 1831 709 2203 709 
Q 2569 709 2762 976 
Q 2956 1244 2956 1747 
Q 2956 2250 2762 2517 
Q 2569 2784 2203 2784 
z
M 2203 3584 
Q 3106 3584 3614 3096 
Q 4122 2609 4122 1747 
Q 4122 884 3614 396 
Q 3106 -91 2203 -91 
Q 1297 -91 786 396 
Q 275 884 275 1747 
Q 275 2609 786 3096 
Q 1297 3584 2203 3584 
z
" transform="scale(0.015625)"/>
      <path id="DejaVuSans-Bold-50" d="M 588 4666 
L 2584 4666 
Q 3475 4666 3951 4270 
Q 4428 3875 4428 3144 
Q 4428 2409 3951 2014 
Q 3475 1619 2584 1619 
L 1791 1619 
L 1791 0 
L 588 0 
L 588 4666 
z
M 1791 3794 
L 1791 2491 
L 2456 2491 
Q 2806 2491 2997 2661 
Q 3188 2831 3188 3144 
Q 3188 3456 2997 3625 
Q 2806 3794 2456 3794 
L 1791 3794 
z
" transform="scale(0.015625)"/>
      <path id="DejaVuSans-Bold-70" d="M 1656 506 
L 1656 -1331 
L 538 -1331 
L 538 3500 
L 1656 3500 
L 1656 2988 
Q 1888 3294 2169 3439 
Q 2450 3584 2816 3584 
Q 3463 3584 3878 3070 
Q 4294 2556 4294 1747 
Q 4294 938 3878 423 
Q 3463 -91 2816 -91 
Q 2450 -91 2169 54 
Q 1888 200 1656 506 
z
M 2400 2772 
Q 2041 2772 1848 2508 
Q 1656 2244 1656 1747 
Q 1656 1250 1848 986 
Q 2041 722 2400 722 
Q 2759 722 2948 984 
Q 3138 1247 3138 1747 
Q 3138 2247 2948 2509 
Q 2759 2772 2400 2772 
z
" transform="scale(0.015625)"/>
      <path id="DejaVuSans-Bold-43" d="M 4288 256 
Q 3956 84 3597 -3 
Q 3238 -91 2847 -91 
Q 1681 -91 1000 561 
Q 319 1213 319 2328 
Q 319 3447 1000 4098 
Q 1681 4750 2847 4750 
Q 3238 4750 3597 4662 
Q 3956 4575 4288 4403 
L 4288 3438 
Q 3953 3666 3628 3772 
Q 3303 3878 2944 3878 
Q 2300 3878 1931 3465 
Q 1563 3053 1563 2328 
Q 1563 1606 1931 1193 
Q 2300 781 2944 781 
Q 3303 781 3628 887 
Q 3953 994 4288 1222 
L 4288 256 
z
" transform="scale(0.015625)"/>
      <path id="DejaVuSans-Bold-68" d="M 4056 2131 
L 4056 0 
L 2931 0 
L 2931 347 
L 2931 1625 
Q 2931 2084 2911 2256 
Q 2891 2428 2841 2509 
Q 2775 2619 2662 2680 
Q 2550 2741 2406 2741 
Q 2056 2741 1856 2470 
Q 1656 2200 1656 1722 
L 1656 0 
L 538 0 
L 538 4863 
L 1656 4863 
L 1656 2988 
Q 1909 3294 2193 3439 
Q 2478 3584 2822 3584 
Q 3428 3584 3742 3212 
Q 4056 2841 4056 2131 
z
" transform="scale(0.015625)"/>
      <path id="DejaVuSans-Bold-52" d="M 2297 2597 
Q 2675 2597 2839 2737 
Q 3003 2878 3003 3200 
Q 3003 3519 2839 3656 
Q 2675 3794 2297 3794 
L 1791 3794 
L 1791 2597 
L 2297 2597 
z
M 1791 1766 
L 1791 0 
L 588 0 
L 588 4666 
L 2425 4666 
Q 3347 4666 3776 4356 
Q 4206 4047 4206 3378 
Q 4206 2916 3982 2619 
Q 3759 2322 3309 2181 
Q 3556 2125 3751 1926 
Q 3947 1728 4147 1325 
L 4800 0 
L 3519 0 
L 2950 1159 
Q 2778 1509 2601 1637 
Q 2425 1766 2131 1766 
L 1791 1766 
z
" transform="scale(0.015625)"/>
      <path id="DejaVuSans-Bold-63" d="M 3366 3391 
L 3366 2478 
Q 3138 2634 2908 2709 
Q 2678 2784 2431 2784 
Q 1963 2784 1702 2511 
Q 1441 2238 1441 1747 
Q 1441 1256 1702 982 
Q 1963 709 2431 709 
Q 2694 709 2930 787 
Q 3166 866 3366 1019 
L 3366 103 
Q 3103 6 2833 -42 
Q 2563 -91 2291 -91 
Q 1344 -91 809 395 
Q 275 881 275 1747 
Q 275 2613 809 3098 
Q 1344 3584 2291 3584 
Q 2566 3584 2833 3536 
Q 3100 3488 3366 3391 
z
" transform="scale(0.015625)"/>
     </defs>
     <use xlink:href="#DejaVuSans-Bold-46"/>
     <use xlink:href="#DejaVuSans-Bold-69" x="68.310547"/>
     <use xlink:href="#DejaVuSans-Bold-67" x="102.587891"/>
     <use xlink:href="#DejaVuSans-Bold-75" x="174.169922"/>
     <use xlink:href="#DejaVuSans-Bold-72" x="245.361328"/>
     <use xlink:href="#DejaVuSans-Bold-65" x="294.677734"/>
     <use xlink:href="#DejaVuSans-Bold-20" x="362.5"/>
     <use xlink:href="#DejaVuSans-Bold-32" x="397.314453"/>
     <use xlink:href="#DejaVuSans-Bold-2e" x="466.894531"/>
     <use xlink:href="#DejaVuSans-Bold-20" x="504.882812"/>
     <use xlink:href="#DejaVuSans-Bold-54" x="539.697266"/>
     <use xlink:href="#DejaVuSans-Bold-72" x="596.910156"/>
     <use xlink:href="#DejaVuSans-Bold-61" x="646.226562"/>
     <use xlink:href="#DejaVuSans-Bold-69" x="713.707031"/>
     <use xlink:href="#DejaVuSans-Bold-6e" x="747.984375"/>
     <use xlink:href="#DejaVuSans-Bold-69" x="819.175781"/>
     <use xlink:href="#DejaVuSans-Bold-6e" x="853.453125"/>
     <use xlink:href="#DejaVuSans-Bold-67" x="924.644531"/>
     <use xlink:href="#DejaVuSans-Bold-20" x="996.226562"/>
     <use xlink:href="#DejaVuSans-Bold-61" x="1031.041016"/>
     <use xlink:href="#DejaVuSans-Bold-6e" x="1098.521484"/>
     <use xlink:href="#DejaVuSans-Bold-64" x="1169.712891"/>
     <use xlink:href="#DejaVuSans-Bold-20" x="1241.294922"/>
     <use xlink:href="#DejaVuSans-Bold-45" x="1276.109375"/>
     <use xlink:href="#DejaVuSans-Bold-76" x="1344.419922"/>
     <use xlink:href="#DejaVuSans-Bold-61" x="1409.605469"/>
     <use xlink:href="#DejaVuSans-Bold-6c" x="1477.085938"/>
     <use xlink:href="#DejaVuSans-Bold-75" x="1511.363281"/>
     <use xlink:href="#DejaVuSans-Bold-61" x="1582.554688"/>
     <use xlink:href="#DejaVuSans-Bold-74" x="1650.035156"/>
     <use xlink:href="#DejaVuSans-Bold-69" x="1697.837891"/>
     <use xlink:href="#DejaVuSans-Bold-6f" x="1732.115234"/>
     <use xlink:href="#DejaVuSans-Bold-6e" x="1800.816406"/>
     <use xlink:href="#DejaVuSans-Bold-20" x="1872.007812"/>
     <use xlink:href="#DejaVuSans-Bold-50" x="1906.822266"/>
     <use xlink:href="#DejaVuSans-Bold-69" x="1980.113281"/>
     <use xlink:href="#DejaVuSans-Bold-70" x="2014.390625"/>
     <use xlink:href="#DejaVuSans-Bold-65" x="2085.972656"/>
     <use xlink:href="#DejaVuSans-Bold-6c" x="2153.794922"/>
     <use xlink:href="#DejaVuSans-Bold-69" x="2188.072266"/>
     <use xlink:href="#DejaVuSans-Bold-6e" x="2222.349609"/>
     <use xlink:href="#DejaVuSans-Bold-65" x="2293.541016"/>
     <use xlink:href="#DejaVuSans-Bold-20" x="2361.363281"/>
     <use xlink:href="#DejaVuSans-Bold-69" x="2396.177734"/>
     <use xlink:href="#DejaVuSans-Bold-6e" x="2430.455078"/>
     <use xlink:href="#DejaVuSans-Bold-20" x="2501.646484"/>
     <use xlink:href="#DejaVuSans-Bold-43" x="2536.460938"/>
     <use xlink:href="#DejaVuSans-Bold-68" x="2609.849609"/>
     <use xlink:href="#DejaVuSans-Bold-61" x="2681.041016"/>
     <use xlink:href="#DejaVuSans-Bold-6f" x="2748.521484"/>
     <use xlink:href="#DejaVuSans-Bold-52" x="2817.222656"/>
     <use xlink:href="#DejaVuSans-Bold-65" x="2894.224609"/>
     <use xlink:href="#DejaVuSans-Bold-63" x="2962.046875"/>
    </g>
   </g>
   <g id="text_2">
    <!-- Main loop and model-specific branches used in main.py + train_and_evaluate.py -->
    <g style="fill: #334155" transform="translate(195.633594 39.302917) scale(0.1 -0.1)">
     <defs>
      <path id="DejaVuSans-4d" d="M 628 4666 
L 1569 4666 
L 2759 1491 
L 3956 4666 
L 4897 4666 
L 4897 0 
L 4281 0 
L 4281 4097 
L 3078 897 
L 2444 897 
L 1241 4097 
L 1241 0 
L 628 0 
L 628 4666 
z
" transform="scale(0.015625)"/>
      <path id="DejaVuSans-61" d="M 2194 1759 
Q 1497 1759 1228 1600 
Q 959 1441 959 1056 
Q 959 750 1161 570 
Q 1363 391 1709 391 
Q 2188 391 2477 730 
Q 2766 1069 2766 1631 
L 2766 1759 
L 2194 1759 
z
M 3341 1997 
L 3341 0 
L 2766 0 
L 2766 531 
Q 2569 213 2275 61 
Q 1981 -91 1556 -91 
Q 1019 -91 701 211 
Q 384 513 384 1019 
Q 384 1609 779 1909 
Q 1175 2209 1959 2209 
L 2766 2209 
L 2766 2266 
Q 2766 2663 2505 2880 
Q 2244 3097 1772 3097 
Q 1472 3097 1187 3025 
Q 903 2953 641 2809 
L 641 3341 
Q 956 3463 1253 3523 
Q 1550 3584 1831 3584 
Q 2591 3584 2966 3190 
Q 3341 2797 3341 1997 
z
" transform="scale(0.015625)"/>
      <path id="DejaVuSans-69" d="M 603 3500 
L 1178 3500 
L 1178 0 
L 603 0 
L 603 3500 
z
M 603 4863 
L 1178 4863 
L 1178 4134 
L 603 4134 
L 603 4863 
z
" transform="scale(0.015625)"/>
      <path id="DejaVuSans-6e" d="M 3513 2113 
L 3513 0 
L 2938 0 
L 2938 2094 
Q 2938 2591 2744 2837 
Q 2550 3084 2163 3084 
Q 1697 3084 1428 2787 
Q 1159 2491 1159 1978 
L 1159 0 
L 581 0 
L 581 3500 
L 1159 3500 
L 1159 2956 
Q 1366 3272 1645 3428 
Q 1925 3584 2291 3584 
Q 2894 3584 3203 3211 
Q 3513 2838 3513 2113 
z
" transform="scale(0.015625)"/>
      <path id="DejaVuSans-20" transform="scale(0.015625)"/>
      <path id="DejaVuSans-6c" d="M 603 4863 
L 1178 4863 
L 1178 0 
L 603 0 
L 603 4863 
z
" transform="scale(0.015625)"/>
      <path id="DejaVuSans-6f" d="M 1959 3097 
Q 1497 3097 1228 2736 
Q 959 2375 959 1747 
Q 959 1119 1226 758 
Q 1494 397 1959 397 
Q 2419 397 2687 759 
Q 2956 1122 2956 1747 
Q 2956 2369 2687 2733 
Q 2419 3097 1959 3097 
z
M 1959 3584 
Q 2709 3584 3137 3096 
Q 3566 2609 3566 1747 
Q 3566 888 3137 398 
Q 2709 -91 1959 -91 
Q 1206 -91 779 398 
Q 353 888 353 1747 
Q 353 2609 779 3096 
Q 1206 3584 1959 3584 
z
" transform="scale(0.015625)"/>
      <path id="DejaVuSans-70" d="M 1159 525 
L 1159 -1331 
L 581 -1331 
L 581 3500 
L 1159 3500 
L 1159 2969 
Q 1341 3281 1617 3432 
Q 1894 3584 2278 3584 
Q 2916 3584 3314 3078 
Q 3713 2572 3713 1747 
Q 3713 922 3314 415 
Q 2916 -91 2278 -91 
Q 1894 -91 1617 61 
Q 1341 213 1159 525 
z
M 3116 1747 
Q 3116 2381 2855 2742 
Q 2594 3103 2138 3103 
Q 1681 3103 1420 2742 
Q 1159 2381 1159 1747 
Q 1159 1113 1420 752 
Q 1681 391 2138 391 
Q 2594 391 2855 752 
Q 3116 1113 3116 1747 
z
" transform="scale(0.015625)"/>
      <path id="DejaVuSans-64" d="M 2906 2969 
L 2906 4863 
L 3481 4863 
L 3481 0 
L 2906 0 
L 2906 525 
Q 2725 213 2448 61 
Q 2172 -91 1784 -91 
Q 1150 -91 751 415 
Q 353 922 353 1747 
Q 353 2572 751 3078 
Q 1150 3584 1784 3584 
Q 2172 3584 2448 3432 
Q 2725 3281 2906 2969 
z
M 947 1747 
Q 947 1113 1208 752 
Q 1469 391 1925 391 
Q 2381 391 2643 752 
Q 2906 1113 2906 1747 
Q 2906 2381 2643 2742 
Q 2381 3103 1925 3103 
Q 1469 3103 1208 2742 
Q 947 2381 947 1747 
z
" transform="scale(0.015625)"/>
      <path id="DejaVuSans-6d" d="M 3328 2828 
Q 3544 3216 3844 3400 
Q 4144 3584 4550 3584 
Q 5097 3584 5394 3201 
Q 5691 2819 5691 2113 
L 5691 0 
L 5113 0 
L 5113 2094 
Q 5113 2597 4934 2840 
Q 4756 3084 4391 3084 
Q 3944 3084 3684 2787 
Q 3425 2491 3425 1978 
L 3425 0 
L 2847 0 
L 2847 2094 
Q 2847 2600 2669 2842 
Q 2491 3084 2119 3084 
Q 1678 3084 1418 2786 
Q 1159 2488 1159 1978 
L 1159 0 
L 581 0 
L 581 3500 
L 1159 3500 
L 1159 2956 
Q 1356 3278 1631 3431 
Q 1906 3584 2284 3584 
Q 2666 3584 2933 3390 
Q 3200 3197 3328 2828 
z
" transform="scale(0.015625)"/>
      <path id="DejaVuSans-65" d="M 3597 1894 
L 3597 1613 
L 953 1613 
Q 991 1019 1311 708 
Q 1631 397 2203 397 
Q 2534 397 2845 478 
Q 3156 559 3463 722 
L 3463 178 
Q 3153 47 2828 -22 
Q 2503 -91 2169 -91 
Q 1331 -91 842 396 
Q 353 884 353 1716 
Q 353 2575 817 3079 
Q 1281 3584 2069 3584 
Q 2775 3584 3186 3129 
Q 3597 2675 3597 1894 
z
M 3022 2063 
Q 3016 2534 2758 2815 
Q 2500 3097 2075 3097 
Q 1594 3097 1305 2825 
Q 1016 2553 972 2059 
L 3022 2063 
z
" transform="scale(0.015625)"/>
      <path id="DejaVuSans-2d" d="M 313 2009 
L 1997 2009 
L 1997 1497 
L 313 1497 
L 313 2009 
z
" transform="scale(0.015625)"/>
      <path id="DejaVuSans-73" d="M 2834 3397 
L 2834 2853 
Q 2591 2978 2328 3040 
Q 2066 3103 1784 3103 
Q 1356 3103 1142 2972 
Q 928 2841 928 2578 
Q 928 2378 1081 2264 
Q 1234 2150 1697 2047 
L 1894 2003 
Q 2506 1872 2764 1633 
Q 3022 1394 3022 966 
Q 3022 478 2636 193 
Q 2250 -91 1575 -91 
Q 1294 -91 989 -36 
Q 684 19 347 128 
L 347 722 
Q 666 556 975 473 
Q 1284 391 1588 391 
Q 1994 391 2212 530 
Q 2431 669 2431 922 
Q 2431 1156 2273 1281 
Q 2116 1406 1581 1522 
L 1381 1569 
Q 847 1681 609 1914 
Q 372 2147 372 2553 
Q 372 3047 722 3315 
Q 1072 3584 1716 3584 
Q 2034 3584 2315 3537 
Q 2597 3491 2834 3397 
z
" transform="scale(0.015625)"/>
      <path id="DejaVuSans-63" d="M 3122 3366 
L 3122 2828 
Q 2878 2963 2633 3030 
Q 2388 3097 2138 3097 
Q 1578 3097 1268 2742 
Q 959 2388 959 1747 
Q 959 1106 1268 751 
Q 1578 397 2138 397 
Q 2388 397 2633 464 
Q 2878 531 3122 666 
L 3122 134 
Q 2881 22 2623 -34 
Q 2366 -91 2075 -91 
Q 1284 -91 818 406 
Q 353 903 353 1747 
Q 353 2603 823 3093 
Q 1294 3584 2113 3584 
Q 2378 3584 2631 3529 
Q 2884 3475 3122 3366 
z
" transform="scale(0.015625)"/>
      <path id="DejaVuSans-66" d="M 2375 4863 
L 2375 4384 
L 1825 4384 
Q 1516 4384 1395 4259 
Q 1275 4134 1275 3809 
L 1275 3500 
L 2222 3500 
L 2222 3053 
L 1275 3053 
L 1275 0 
L 697 0 
L 697 3053 
L 147 3053 
L 147 3500 
L 697 3500 
L 697 3744 
Q 697 4328 969 4595 
Q 1241 4863 1831 4863 
L 2375 4863 
z
" transform="scale(0.015625)"/>
      <path id="DejaVuSans-62" d="M 3116 1747 
Q 3116 2381 2855 2742 
Q 2594 3103 2138 3103 
Q 1681 3103 1420 2742 
Q 1159 2381 1159 1747 
Q 1159 1113 1420 752 
Q 1681 391 2138 391 
Q 2594 391 2855 752 
Q 3116 1113 3116 1747 
z
M 1159 2969 
Q 1341 3281 1617 3432 
Q 1894 3584 2278 3584 
Q 2916 3584 3314 3078 
Q 3713 2572 3713 1747 
Q 3713 922 3314 415 
Q 2916 -91 2278 -91 
Q 1894 -91 1617 61 
Q 1341 213 1159 525 
L 1159 0 
L 581 0 
L 581 4863 
L 1159 4863 
L 1159 2969 
z
" transform="scale(0.015625)"/>
      <path id="DejaVuSans-72" d="M 2631 2963 
Q 2534 3019 2420 3045 
Q 2306 3072 2169 3072 
Q 1681 3072 1420 2755 
Q 1159 2438 1159 1844 
L 1159 0 
L 581 0 
L 581 3500 
L 1159 3500 
L 1159 2956 
Q 1341 3275 1631 3429 
Q 1922 3584 2338 3584 
Q 2397 3584 2469 3576 
Q 2541 3569 2628 3553 
L 2631 2963 
z
" transform="scale(0.015625)"/>
      <path id="DejaVuSans-68" d="M 3513 2113 
L 3513 0 
L 2938 0 
L 2938 2094 
Q 2938 2591 2744 2837 
Q 2550 3084 2163 3084 
Q 1697 3084 1428 2787 
Q 1159 2491 1159 1978 
L 1159 0 
L 581 0 
L 581 4863 
L 1159 4863 
L 1159 2956 
Q 1366 3272 1645 3428 
Q 1925 3584 2291 3584 
Q 2894 3584 3203 3211 
Q 3513 2838 3513 2113 
z
" transform="scale(0.015625)"/>
      <path id="DejaVuSans-75" d="M 544 1381 
L 544 3500 
L 1119 3500 
L 1119 1403 
Q 1119 906 1312 657 
Q 1506 409 1894 409 
Q 2359 409 2629 706 
Q 2900 1003 2900 1516 
L 2900 3500 
L 3475 3500 
L 3475 0 
L 2900 0 
L 2900 538 
Q 2691 219 2414 64 
Q 2138 -91 1772 -91 
Q 1169 -91 856 284 
Q 544 659 544 1381 
z
M 1991 3584 
L 1991 3584 
z
" transform="scale(0.015625)"/>
      <path id="DejaVuSans-2e" d="M 684 794 
L 1344 794 
L 1344 0 
L 684 0 
L 684 794 
z
" transform="scale(0.015625)"/>
      <path id="DejaVuSans-79" d="M 2059 -325 
Q 1816 -950 1584 -1140 
Q 1353 -1331 966 -1331 
L 506 -1331 
L 506 -850 
L 844 -850 
Q 1081 -850 1212 -737 
Q 1344 -625 1503 -206 
L 1606 56 
L 191 3500 
L 800 3500 
L 1894 763 
L 2988 3500 
L 3597 3500 
L 2059 -325 
z
" transform="scale(0.015625)"/>
      <path id="DejaVuSans-2b" d="M 2944 4013 
L 2944 2272 
L 4684 2272 
L 4684 1741 
L 2944 1741 
L 2944 0 
L 2419 0 
L 2419 1741 
L 678 1741 
L 678 2272 
L 2419 2272 
L 2419 4013 
L 2944 4013 
z
" transform="scale(0.015625)"/>
      <path id="DejaVuSans-74" d="M 1172 4494 
L 1172 3500 
L 2356 3500 
L 2356 3053 
L 1172 3053 
L 1172 1153 
Q 1172 725 1289 603 
Q 1406 481 1766 481 
L 2356 481 
L 2356 0 
L 1766 0 
Q 1100 0 847 248 
Q 594 497 594 1153 
L 594 3053 
L 172 3053 
L 172 3500 
L 594 3500 
L 594 4494 
L 1172 4494 
z
" transform="scale(0.015625)"/>
      <path id="DejaVuSans-5f" d="M 3263 -1063 
L 3263 -1509 
L -63 -1509 
L -63 -1063 
L 3263 -1063 
z
" transform="scale(0.015625)"/>
      <path id="DejaVuSans-76" d="M 191 3500 
L 800 3500 
L 1894 563 
L 2988 3500 
L 3597 3500 
L 2284 0 
L 1503 0 
L 191 3500 
z
" transform="scale(0.015625)"/>
     </defs>
     <use xlink:href="#DejaVuSans-4d"/>
     <use xlink:href="#DejaVuSans-61" x="86.279297"/>
     <use xlink:href="#DejaVuSans-69" x="147.558594"/>
     <use xlink:href="#DejaVuSans-6e" x="175.341797"/>
     <use xlink:href="#DejaVuSans-20" x="238.720703"/>
     <use xlink:href="#DejaVuSans-6c" x="270.507812"/>
     <use xlink:href="#DejaVuSans-6f" x="298.291016"/>
     <use xlink:href="#DejaVuSans-6f" x="359.472656"/>
     <use xlink:href="#DejaVuSans-70" x="420.654297"/>
     <use xlink:href="#DejaVuSans-20" x="484.130859"/>
     <use xlink:href="#DejaVuSans-61" x="515.917969"/>
     <use xlink:href="#DejaVuSans-6e" x="577.197266"/>
     <use xlink:href="#DejaVuSans-64" x="640.576172"/>
     <use xlink:href="#DejaVuSans-20" x="704.052734"/>
     <use xlink:href="#DejaVuSans-6d" x="735.839844"/>
     <use xlink:href="#DejaVuSans-6f" x="833.251953"/>
     <use xlink:href="#DejaVuSans-64" x="894.433594"/>
     <use xlink:href="#DejaVuSans-65" x="957.910156"/>
     <use xlink:href="#DejaVuSans-6c" x="1019.433594"/>
     <use xlink:href="#DejaVuSans-2d" x="1047.216797"/>
     <use xlink:href="#DejaVuSans-73" x="1083.300781"/>
     <use xlink:href="#DejaVuSans-70" x="1135.400391"/>
     <use xlink:href="#DejaVuSans-65" x="1198.876953"/>
     <use xlink:href="#DejaVuSans-63" x="1260.400391"/>
     <use xlink:href="#DejaVuSans-69" x="1315.380859"/>
     <use xlink:href="#DejaVuSans-66" x="1343.164062"/>
     <use xlink:href="#DejaVuSans-69" x="1378.369141"/>
     <use xlink:href="#DejaVuSans-63" x="1406.152344"/>
     <use xlink:href="#DejaVuSans-20" x="1461.132812"/>
     <use xlink:href="#DejaVuSans-62" x="1492.919922"/>
     <use xlink:href="#DejaVuSans-72" x="1556.396484"/>
     <use xlink:href="#DejaVuSans-61" x="1597.509766"/>
     <use xlink:href="#DejaVuSans-6e" x="1658.789062"/>
     <use xlink:href="#DejaVuSans-63" x="1722.167969"/>
     <use xlink:href="#DejaVuSans-68" x="1777.148438"/>
     <use xlink:href="#DejaVuSans-65" x="1840.527344"/>
     <use xlink:href="#DejaVuSans-73" x="1902.050781"/>
     <use xlink:href="#DejaVuSans-20" x="1954.150391"/>
     <use xlink:href="#DejaVuSans-75" x="1985.9375"/>
     <use xlink:href="#DejaVuSans-73" x="2049.316406"/>
     <use xlink:href="#DejaVuSans-65" x="2101.416016"/>
     <use xlink:href="#DejaVuSans-64" x="2162.939453"/>
     <use xlink:href="#DejaVuSans-20" x="2226.416016"/>
     <use xlink:href="#DejaVuSans-69" x="2258.203125"/>
     <use xlink:href="#DejaVuSans-6e" x="2285.986328"/>
     <use xlink:href="#DejaVuSans-20" x="2349.365234"/>
     <use xlink:href="#DejaVuSans-6d" x="2381.152344"/>
     <use xlink:href="#DejaVuSans-61" x="2478.564453"/>
     <use xlink:href="#DejaVuSans-69" x="2539.84375"/>
     <use xlink:href="#DejaVuSans-6e" x="2567.626953"/>
     <use xlink:href="#DejaVuSans-2e" x="2631.005859"/>
     <use xlink:href="#DejaVuSans-70" x="2662.792969"/>
     <use xlink:href="#DejaVuSans-79" x="2726.269531"/>
     <use xlink:href="#DejaVuSans-20" x="2785.449219"/>
     <use xlink:href="#DejaVuSans-2b" x="2817.236328"/>
     <use xlink:href="#DejaVuSans-20" x="2901.025391"/>
     <use xlink:href="#DejaVuSans-74" x="2932.8125"/>
     <use xlink:href="#DejaVuSans-72" x="2972.021484"/>
     <use xlink:href="#DejaVuSans-61" x="3013.134766"/>
     <use xlink:href="#DejaVuSans-69" x="3074.414062"/>
     <use xlink:href="#DejaVuSans-6e" x="3102.197266"/>
     <use xlink:href="#DejaVuSans-5f" x="3165.576172"/>
     <use xlink:href="#DejaVuSans-61" x="3215.576172"/>
     <use xlink:href="#DejaVuSans-6e" x="3276.855469"/>
     <use xlink:href="#DejaVuSans-64" x="3340.234375"/>
     <use xlink:href="#DejaVuSans-5f" x="3403.710938"/>
     <use xlink:href="#DejaVuSans-65" x="3453.710938"/>
     <use xlink:href="#DejaVuSans-76" x="3515.234375"/>
     <use xlink:href="#DejaVuSans-61" x="3574.414062"/>
     <use xlink:href="#DejaVuSans-6c" x="3635.693359"/>
     <use xlink:href="#DejaVuSans-75" x="3663.476562"/>
     <use xlink:href="#DejaVuSans-61" x="3726.855469"/>
     <use xlink:href="#DejaVuSans-74" x="3788.134766"/>
     <use xlink:href="#DejaVuSans-65" x="3827.34375"/>
     <use xlink:href="#DejaVuSans-2e" x="3888.867188"/>
     <use xlink:href="#DejaVuSans-70" x="3920.654297"/>
     <use xlink:href="#DejaVuSans-79" x="3984.130859"/>
    </g>
   </g>
   <g id="text_3">
    <!-- 1) Parse CLI args -->
    <g transform="translate(66.702875 87.159646) scale(0.1 -0.1)">
     <defs>
      <path id="DejaVuSans-31" d="M 794 531 
L 1825 531 
L 1825 4091 
L 703 3866 
L 703 4441 
L 1819 4666 
L 2450 4666 
L 2450 531 
L 3481 531 
L 3481 0 
L 794 0 
L 794 531 
z
" transform="scale(0.015625)"/>
      <path id="DejaVuSans-29" d="M 513 4856 
L 1013 4856 
Q 1481 4119 1714 3412 
Q 1947 2706 1947 2009 
Q 1947 1309 1714 600 
Q 1481 -109 1013 -844 
L 513 -844 
Q 928 -128 1133 580 
Q 1338 1288 1338 2009 
Q 1338 2731 1133 3434 
Q 928 4138 513 4856 
z
" transform="scale(0.015625)"/>
      <path id="DejaVuSans-50" d="M 1259 4147 
L 1259 2394 
L 2053 2394 
Q 2494 2394 2734 2622 
Q 2975 2850 2975 3272 
Q 2975 3691 2734 3919 
Q 2494 4147 2053 4147 
L 1259 4147 
z
M 628 4666 
L 2053 4666 
Q 2838 4666 3239 4311 
Q 3641 3956 3641 3272 
Q 3641 2581 3239 2228 
Q 2838 1875 2053 1875 
L 1259 1875 
L 1259 0 
L 628 0 
L 628 4666 
z
" transform="scale(0.015625)"/>
      <path id="DejaVuSans-43" d="M 4122 4306 
L 4122 3641 
Q 3803 3938 3442 4084 
Q 3081 4231 2675 4231 
Q 1875 4231 1450 3742 
Q 1025 3253 1025 2328 
Q 1025 1406 1450 917 
Q 1875 428 2675 428 
Q 3081 428 3442 575 
Q 3803 722 4122 1019 
L 4122 359 
Q 3791 134 3420 21 
Q 3050 -91 2638 -91 
Q 1578 -91 968 557 
Q 359 1206 359 2328 
Q 359 3453 968 4101 
Q 1578 4750 2638 4750 
Q 3056 4750 3426 4639 
Q 3797 4528 4122 4306 
z
" transform="scale(0.015625)"/>
      <path id="DejaVuSans-4c" d="M 628 4666 
L 1259 4666 
L 1259 531 
L 3531 531 
L 3531 0 
L 628 0 
L 628 4666 
z
" transform="scale(0.015625)"/>
      <path id="DejaVuSans-49" d="M 628 4666 
L 1259 4666 
L 1259 0 
L 628 0 
L 628 4666 
z
" transform="scale(0.015625)"/>
      <path id="DejaVuSans-67" d="M 2906 1791 
Q 2906 2416 2648 2759 
Q 2391 3103 1925 3103 
Q 1463 3103 1205 2759 
Q 947 2416 947 1791 
Q 947 1169 1205 825 
Q 1463 481 1925 481 
Q 2391 481 2648 825 
Q 2906 1169 2906 1791 
z
M 3481 434 
Q 3481 -459 3084 -895 
Q 2688 -1331 1869 -1331 
Q 1566 -1331 1297 -1286 
Q 1028 -1241 775 -1147 
L 775 -588 
Q 1028 -725 1275 -790 
Q 1522 -856 1778 -856 
Q 2344 -856 2625 -561 
Q 2906 -266 2906 331 
L 2906 616 
Q 2728 306 2450 153 
Q 2172 0 1784 0 
Q 1141 0 747 490 
Q 353 981 353 1791 
Q 353 2603 747 3093 
Q 1141 3584 1784 3584 
Q 2172 3584 2450 3431 
Q 2728 3278 2906 2969 
L 2906 3500 
L 3481 3500 
L 3481 434 
z
" transform="scale(0.015625)"/>
     </defs>
     <use xlink:href="#DejaVuSans-31"/>
     <use xlink:href="#DejaVuSans-29" x="63.623047"/>
     <use xlink:href="#DejaVuSans-20" x="102.636719"/>
     <use xlink:href="#DejaVuSans-50" x="134.423828"/>
     <use xlink:href="#DejaVuSans-61" x="190.226562"/>
     <use xlink:href="#DejaVuSans-72" x="251.505859"/>
     <use xlink:href="#DejaVuSans-73" x="292.619141"/>
     <use xlink:href="#DejaVuSans-65" x="344.71875"/>
     <use xlink:href="#DejaVuSans-20" x="406.242188"/>
     <use xlink:href="#DejaVuSans-43" x="438.029297"/>
     <use xlink:href="#DejaVuSans-4c" x="507.853516"/>
     <use xlink:href="#DejaVuSans-49" x="563.566406"/>
     <use xlink:href="#DejaVuSans-20" x="593.058594"/>
     <use xlink:href="#DejaVuSans-61" x="624.845703"/>
     <use xlink:href="#DejaVuSans-72" x="686.125"/>
     <use xlink:href="#DejaVuSans-67" x="725.488281"/>
     <use xlink:href="#DejaVuSans-73" x="788.964844"/>
    </g>
    <!-- (arg_parser.py) -->
    <g transform="translate(70.851313 98.357459) scale(0.1 -0.1)">
     <defs>
      <path id="DejaVuSans-28" d="M 1984 4856 
Q 1566 4138 1362 3434 
Q 1159 2731 1159 2009 
Q 1159 1288 1364 580 
Q 1569 -128 1984 -844 
L 1484 -844 
Q 1016 -109 783 600 
Q 550 1309 550 2009 
Q 550 2706 781 3412 
Q 1013 4119 1484 4856 
L 1984 4856 
z
" transform="scale(0.015625)"/>
     </defs>
     <use xlink:href="#DejaVuSans-28"/>
     <use xlink:href="#DejaVuSans-61" x="39.013672"/>
     <use xlink:href="#DejaVuSans-72" x="100.292969"/>
     <use xlink:href="#DejaVuSans-67" x="139.65625"/>
     <use xlink:href="#DejaVuSans-5f" x="203.132812"/>
     <use xlink:href="#DejaVuSans-70" x="253.132812"/>
     <use xlink:href="#DejaVuSans-61" x="316.609375"/>
     <use xlink:href="#DejaVuSans-72" x="377.888672"/>
     <use xlink:href="#DejaVuSans-73" x="419.001953"/>
     <use xlink:href="#DejaVuSans-65" x="471.101562"/>
     <use xlink:href="#DejaVuSans-72" x="532.625"/>
     <use xlink:href="#DejaVuSans-2e" x="564.613281"/>
     <use xlink:href="#DejaVuSans-70" x="596.400391"/>
     <use xlink:href="#DejaVuSans-79" x="659.876953"/>
     <use xlink:href="#DejaVuSans-29" x="719.056641"/>
    </g>
   </g>
   <g id="text_4">
    <!-- 2) Load YAML search space -->
    <g transform="translate(228.297906 87.159646) scale(0.1 -0.1)">
     <defs>
      <path id="DejaVuSans-32" d="M 1228 531 
L 3431 531 
L 3431 0 
L 469 0 
L 469 531 
Q 828 903 1448 1529 
Q 2069 2156 2228 2338 
Q 2531 2678 2651 2914 
Q 2772 3150 2772 3378 
Q 2772 3750 2511 3984 
Q 2250 4219 1831 4219 
Q 1534 4219 1204 4116 
Q 875 4013 500 3803 
L 500 4441 
Q 881 4594 1212 4672 
Q 1544 4750 1819 4750 
Q 2544 4750 2975 4387 
Q 3406 4025 3406 3419 
Q 3406 3131 3298 2873 
Q 3191 2616 2906 2266 
Q 2828 2175 2409 1742 
Q 1991 1309 1228 531 
z
" transform="scale(0.015625)"/>
      <path id="DejaVuSans-59" d="M -13 4666 
L 666 4666 
L 1959 2747 
L 3244 4666 
L 3922 4666 
L 2272 2222 
L 2272 0 
L 1638 0 
L 1638 2222 
L -13 4666 
z
" transform="scale(0.015625)"/>
      <path id="DejaVuSans-41" d="M 2188 4044 
L 1331 1722 
L 3047 1722 
L 2188 4044 
z
M 1831 4666 
L 2547 4666 
L 4325 0 
L 3669 0 
L 3244 1197 
L 1141 1197 
L 716 0 
L 50 0 
L 1831 4666 
z
" transform="scale(0.015625)"/>
     </defs>
     <use xlink:href="#DejaVuSans-32"/>
     <use xlink:href="#DejaVuSans-29" x="63.623047"/>
     <use xlink:href="#DejaVuSans-20" x="102.636719"/>
     <use xlink:href="#DejaVuSans-4c" x="134.423828"/>
     <use xlink:href="#DejaVuSans-6f" x="188.386719"/>
     <use xlink:href="#DejaVuSans-61" x="249.568359"/>
     <use xlink:href="#DejaVuSans-64" x="310.847656"/>
     <use xlink:href="#DejaVuSans-20" x="374.324219"/>
     <use xlink:href="#DejaVuSans-59" x="406.111328"/>
     <use xlink:href="#DejaVuSans-41" x="459.445312"/>
     <use xlink:href="#DejaVuSans-4d" x="527.853516"/>
     <use xlink:href="#DejaVuSans-4c" x="614.132812"/>
     <use xlink:href="#DejaVuSans-20" x="669.845703"/>
     <use xlink:href="#DejaVuSans-73" x="701.632812"/>
     <use xlink:href="#DejaVuSans-65" x="753.732422"/>
     <use xlink:href="#DejaVuSans-61" x="815.255859"/>
     <use xlink:href="#DejaVuSans-72" x="876.535156"/>
     <use xlink:href="#DejaVuSans-63" x="915.398438"/>
     <use xlink:href="#DejaVuSans-68" x="970.378906"/>
     <use xlink:href="#DejaVuSans-20" x="1033.757812"/>
     <use xlink:href="#DejaVuSans-73" x="1065.544922"/>
     <use xlink:href="#DejaVuSans-70" x="1117.644531"/>
     <use xlink:href="#DejaVuSans-61" x="1181.121094"/>
     <use xlink:href="#DejaVuSans-63" x="1242.400391"/>
     <use xlink:href="#DejaVuSans-65" x="1297.380859"/>
    </g>
    <!-- (Model_YAML/{Model}.yaml) -->
    <g transform="translate(224.710406 98.357459) scale(0.1 -0.1)">
     <defs>
      <path id="DejaVuSans-2f" d="M 1625 4666 
L 2156 4666 
L 531 -594 
L 0 -594 
L 1625 4666 
z
" transform="scale(0.015625)"/>
      <path id="DejaVuSans-7b" d="M 3272 -594 
L 3272 -1044 
L 3078 -1044 
Q 2300 -1044 2036 -812 
Q 1772 -581 1772 109 
L 1772 856 
Q 1772 1328 1603 1509 
Q 1434 1691 991 1691 
L 800 1691 
L 800 2138 
L 991 2138 
Q 1438 2138 1605 2317 
Q 1772 2497 1772 2963 
L 1772 3713 
Q 1772 4403 2036 4633 
Q 2300 4863 3078 4863 
L 3272 4863 
L 3272 4416 
L 3059 4416 
Q 2619 4416 2484 4278 
Q 2350 4141 2350 3700 
L 2350 2925 
Q 2350 2434 2208 2212 
Q 2066 1991 1722 1913 
Q 2069 1828 2209 1606 
Q 2350 1384 2350 897 
L 2350 122 
Q 2350 -319 2484 -456 
Q 2619 -594 3059 -594 
L 3272 -594 
z
" transform="scale(0.015625)"/>
      <path id="DejaVuSans-7d" d="M 800 -594 
L 1019 -594 
Q 1456 -594 1589 -459 
Q 1722 -325 1722 122 
L 1722 897 
Q 1722 1384 1862 1606 
Q 2003 1828 2350 1913 
Q 2003 1991 1862 2212 
Q 1722 2434 1722 2925 
L 1722 3700 
Q 1722 4144 1589 4280 
Q 1456 4416 1019 4416 
L 800 4416 
L 800 4863 
L 997 4863 
Q 1775 4863 2036 4633 
Q 2297 4403 2297 3713 
L 2297 2963 
Q 2297 2497 2465 2317 
Q 2634 2138 3078 2138 
L 3272 2138 
L 3272 1691 
L 3078 1691 
Q 2634 1691 2465 1509 
Q 2297 1328 2297 856 
L 2297 109 
Q 2297 -581 2036 -812 
Q 1775 -1044 997 -1044 
L 800 -1044 
L 800 -594 
z
" transform="scale(0.015625)"/>
     </defs>
     <use xlink:href="#DejaVuSans-28"/>
     <use xlink:href="#DejaVuSans-4d" x="39.013672"/>
     <use xlink:href="#DejaVuSans-6f" x="125.292969"/>
     <use xlink:href="#DejaVuSans-64" x="186.474609"/>
     <use xlink:href="#DejaVuSans-65" x="249.951172"/>
     <use xlink:href="#DejaVuSans-6c" x="311.474609"/>
     <use xlink:href="#DejaVuSans-5f" x="339.257812"/>
     <use xlink:href="#DejaVuSans-59" x="389.257812"/>
     <use xlink:href="#DejaVuSans-41" x="442.591797"/>
     <use xlink:href="#DejaVuSans-4d" x="511"/>
     <use xlink:href="#DejaVuSans-4c" x="597.279297"/>
     <use xlink:href="#DejaVuSans-2f" x="652.992188"/>
     <use xlink:href="#DejaVuSans-7b" x="686.683594"/>
     <use xlink:href="#DejaVuSans-4d" x="750.306641"/>
     <use xlink:href="#DejaVuSans-6f" x="836.585938"/>
     <use xlink:href="#DejaVuSans-64" x="897.767578"/>
     <use xlink:href="#DejaVuSans-65" x="961.244141"/>
     <use xlink:href="#DejaVuSans-6c" x="1022.767578"/>
     <use xlink:href="#DejaVuSans-7d" x="1050.550781"/>
     <use xlink:href="#DejaVuSans-2e" x="1114.173828"/>
     <use xlink:href="#DejaVuSans-79" x="1145.960938"/>
     <use xlink:href="#DejaVuSans-61" x="1205.140625"/>
     <use xlink:href="#DejaVuSans-6d" x="1266.419922"/>
     <use xlink:href="#DejaVuSans-6c" x="1363.832031"/>
     <use xlink:href="#DejaVuSans-29" x="1391.615234"/>
    </g>
   </g>
   <g id="text_5">
    <!-- 3) Load data &amp; dataloaders -->
    <g transform="translate(431.023969 87.298709) scale(0.1 -0.1)">
     <defs>
      <path id="DejaVuSans-33" d="M 2597 2516 
Q 3050 2419 3304 2112 
Q 3559 1806 3559 1356 
Q 3559 666 3084 287 
Q 2609 -91 1734 -91 
Q 1441 -91 1130 -33 
Q 819 25 488 141 
L 488 750 
Q 750 597 1062 519 
Q 1375 441 1716 441 
Q 2309 441 2620 675 
Q 2931 909 2931 1356 
Q 2931 1769 2642 2001 
Q 2353 2234 1838 2234 
L 1294 2234 
L 1294 2753 
L 1863 2753 
Q 2328 2753 2575 2939 
Q 2822 3125 2822 3475 
Q 2822 3834 2567 4026 
Q 2313 4219 1838 4219 
Q 1578 4219 1281 4162 
Q 984 4106 628 3988 
L 628 4550 
Q 988 4650 1302 4700 
Q 1616 4750 1894 4750 
Q 2613 4750 3031 4423 
Q 3450 4097 3450 3541 
Q 3450 3153 3228 2886 
Q 3006 2619 2597 2516 
z
" transform="scale(0.015625)"/>
      <path id="DejaVuSans-26" d="M 1556 2509 
Q 1272 2256 1139 2004 
Q 1006 1753 1006 1478 
Q 1006 1022 1337 719 
Q 1669 416 2169 416 
Q 2466 416 2725 514 
Q 2984 613 3213 813 
L 1556 2509 
z
M 1997 2859 
L 3584 1234 
Q 3769 1513 3872 1830 
Q 3975 2147 3994 2503 
L 4575 2503 
Q 4538 2091 4375 1687 
Q 4213 1284 3922 891 
L 4794 0 
L 4006 0 
L 3559 459 
Q 3234 181 2878 45 
Q 2522 -91 2113 -91 
Q 1359 -91 881 339 
Q 403 769 403 1441 
Q 403 1841 612 2192 
Q 822 2544 1241 2853 
Q 1091 3050 1012 3245 
Q 934 3441 934 3628 
Q 934 4134 1281 4442 
Q 1628 4750 2203 4750 
Q 2463 4750 2720 4694 
Q 2978 4638 3244 4525 
L 3244 3956 
Q 2972 4103 2725 4179 
Q 2478 4256 2266 4256 
Q 1938 4256 1733 4082 
Q 1528 3909 1528 3634 
Q 1528 3475 1620 3314 
Q 1713 3153 1997 2859 
z
" transform="scale(0.015625)"/>
     </defs>
     <use xlink:href="#DejaVuSans-33"/>
     <use xlink:href="#DejaVuSans-29" x="63.623047"/>
     <use xlink:href="#DejaVuSans-20" x="102.636719"/>
     <use xlink:href="#DejaVuSans-4c" x="134.423828"/>
     <use xlink:href="#DejaVuSans-6f" x="188.386719"/>
     <use xlink:href="#DejaVuSans-61" x="249.568359"/>
     <use xlink:href="#DejaVuSans-64" x="310.847656"/>
     <use xlink:href="#DejaVuSans-20" x="374.324219"/>
     <use xlink:href="#DejaVuSans-64" x="406.111328"/>
     <use xlink:href="#DejaVuSans-61" x="469.587891"/>
     <use xlink:href="#DejaVuSans-74" x="530.867188"/>
     <use xlink:href="#DejaVuSans-61" x="570.076172"/>
     <use xlink:href="#DejaVuSans-20" x="631.355469"/>
     <use xlink:href="#DejaVuSans-26" x="663.142578"/>
     <use xlink:href="#DejaVuSans-20" x="741.121094"/>
     <use xlink:href="#DejaVuSans-64" x="772.908203"/>
     <use xlink:href="#DejaVuSans-61" x="836.384766"/>
     <use xlink:href="#DejaVuSans-74" x="897.664062"/>
     <use xlink:href="#DejaVuSans-61" x="936.873047"/>
     <use xlink:href="#DejaVuSans-6c" x="998.152344"/>
     <use xlink:href="#DejaVuSans-6f" x="1025.935547"/>
     <use xlink:href="#DejaVuSans-61" x="1087.117188"/>
     <use xlink:href="#DejaVuSans-64" x="1148.396484"/>
     <use xlink:href="#DejaVuSans-65" x="1211.873047"/>
     <use xlink:href="#DejaVuSans-72" x="1273.396484"/>
     <use xlink:href="#DejaVuSans-73" x="1314.509766"/>
    </g>
    <!-- (dataload.py) -->
    <g transform="translate(465.782562 98.496521) scale(0.1 -0.1)">
     <use xlink:href="#DejaVuSans-28"/>
     <use xlink:href="#DejaVuSans-64" x="39.013672"/>
     <use xlink:href="#DejaVuSans-61" x="102.490234"/>
     <use xlink:href="#DejaVuSans-74" x="163.769531"/>
     <use xlink:href="#DejaVuSans-61" x="202.978516"/>
     <use xlink:href="#DejaVuSans-6c" x="264.257812"/>
     <use xlink:href="#DejaVuSans-6f" x="292.041016"/>
     <use xlink:href="#DejaVuSans-61" x="353.222656"/>
     <use xlink:href="#DejaVuSans-64" x="414.501953"/>
     <use xlink:href="#DejaVuSans-2e" x="477.978516"/>
     <use xlink:href="#DejaVuSans-70" x="509.765625"/>
     <use xlink:href="#DejaVuSans-79" x="573.242188"/>
     <use xlink:href="#DejaVuSans-29" x="632.421875"/>
    </g>
   </g>
   <g id="text_6">
    <!-- 4) Build model instance -->
    <g transform="translate(627.642438 87.159646) scale(0.1 -0.1)">
     <defs>
      <path id="DejaVuSans-34" d="M 2419 4116 
L 825 1625 
L 2419 1625 
L 2419 4116 
z
M 2253 4666 
L 3047 4666 
L 3047 1625 
L 3713 1625 
L 3713 1100 
L 3047 1100 
L 3047 0 
L 2419 0 
L 2419 1100 
L 313 1100 
L 313 1709 
L 2253 4666 
z
" transform="scale(0.015625)"/>
      <path id="DejaVuSans-42" d="M 1259 2228 
L 1259 519 
L 2272 519 
Q 2781 519 3026 730 
Q 3272 941 3272 1375 
Q 3272 1813 3026 2020 
Q 2781 2228 2272 2228 
L 1259 2228 
z
M 1259 4147 
L 1259 2741 
L 2194 2741 
Q 2656 2741 2882 2914 
Q 3109 3088 3109 3444 
Q 3109 3797 2882 3972 
Q 2656 4147 2194 4147 
L 1259 4147 
z
M 628 4666 
L 2241 4666 
Q 2963 4666 3353 4366 
Q 3744 4066 3744 3513 
Q 3744 3084 3544 2831 
Q 3344 2578 2956 2516 
Q 3422 2416 3680 2098 
Q 3938 1781 3938 1306 
Q 3938 681 3513 340 
Q 3088 0 2303 0 
L 628 0 
L 628 4666 
z
" transform="scale(0.015625)"/>
     </defs>
     <use xlink:href="#DejaVuSans-34"/>
     <use xlink:href="#DejaVuSans-29" x="63.623047"/>
     <use xlink:href="#DejaVuSans-20" x="102.636719"/>
     <use xlink:href="#DejaVuSans-42" x="134.423828"/>
     <use xlink:href="#DejaVuSans-75" x="203.027344"/>
     <use xlink:href="#DejaVuSans-69" x="266.40625"/>
     <use xlink:href="#DejaVuSans-6c" x="294.189453"/>
     <use xlink:href="#DejaVuSans-64" x="321.972656"/>
     <use xlink:href="#DejaVuSans-20" x="385.449219"/>
     <use xlink:href="#DejaVuSans-6d" x="417.236328"/>
     <use xlink:href="#DejaVuSans-6f" x="514.648438"/>
     <use xlink:href="#DejaVuSans-64" x="575.830078"/>
     <use xlink:href="#DejaVuSans-65" x="639.306641"/>
     <use xlink:href="#DejaVuSans-6c" x="700.830078"/>
     <use xlink:href="#DejaVuSans-20" x="728.613281"/>
     <use xlink:href="#DejaVuSans-69" x="760.400391"/>
     <use xlink:href="#DejaVuSans-6e" x="788.183594"/>
     <use xlink:href="#DejaVuSans-73" x="851.5625"/>
     <use xlink:href="#DejaVuSans-74" x="903.662109"/>
     <use xlink:href="#DejaVuSans-61" x="942.871094"/>
     <use xlink:href="#DejaVuSans-6e" x="1004.150391"/>
     <use xlink:href="#DejaVuSans-63" x="1067.529297"/>
     <use xlink:href="#DejaVuSans-65" x="1122.509766"/>
    </g>
    <!-- (model_constructors) -->
    <g transform="translate(633.677594 98.357459) scale(0.1 -0.1)">
     <use xlink:href="#DejaVuSans-28"/>
     <use xlink:href="#DejaVuSans-6d" x="39.013672"/>
     <use xlink:href="#DejaVuSans-6f" x="136.425781"/>
     <use xlink:href="#DejaVuSans-64" x="197.607422"/>
     <use xlink:href="#DejaVuSans-65" x="261.083984"/>
     <use xlink:href="#DejaVuSans-6c" x="322.607422"/>
     <use xlink:href="#DejaVuSans-5f" x="350.390625"/>
     <use xlink:href="#DejaVuSans-63" x="400.390625"/>
     <use xlink:href="#DejaVuSans-6f" x="455.371094"/>
     <use xlink:href="#DejaVuSans-6e" x="516.552734"/>
     <use xlink:href="#DejaVuSans-73" x="579.931641"/>
     <use xlink:href="#DejaVuSans-74" x="632.03125"/>
     <use xlink:href="#DejaVuSans-72" x="671.240234"/>
     <use xlink:href="#DejaVuSans-75" x="712.353516"/>
     <use xlink:href="#DejaVuSans-63" x="775.732422"/>
     <use xlink:href="#DejaVuSans-74" x="830.712891"/>
     <use xlink:href="#DejaVuSans-6f" x="869.921875"/>
     <use xlink:href="#DejaVuSans-72" x="931.103516"/>
     <use xlink:href="#DejaVuSans-73" x="972.216797"/>
     <use xlink:href="#DejaVuSans-29" x="1024.316406"/>
    </g>
   </g>
   <g id="text_7">
    <!-- 5) Hyperparameter combination loop -->
    <g transform="translate(117.25575 166.467029) scale(0.1 -0.1)">
     <defs>
      <path id="DejaVuSans-35" d="M 691 4666 
L 3169 4666 
L 3169 4134 
L 1269 4134 
L 1269 2991 
Q 1406 3038 1543 3061 
Q 1681 3084 1819 3084 
Q 2600 3084 3056 2656 
Q 3513 2228 3513 1497 
Q 3513 744 3044 326 
Q 2575 -91 1722 -91 
Q 1428 -91 1123 -41 
Q 819 9 494 109 
L 494 744 
Q 775 591 1075 516 
Q 1375 441 1709 441 
Q 2250 441 2565 725 
Q 2881 1009 2881 1497 
Q 2881 1984 2565 2268 
Q 2250 2553 1709 2553 
Q 1456 2553 1204 2497 
Q 953 2441 691 2322 
L 691 4666 
z
" transform="scale(0.015625)"/>
      <path id="DejaVuSans-48" d="M 628 4666 
L 1259 4666 
L 1259 2753 
L 3553 2753 
L 3553 4666 
L 4184 4666 
L 4184 0 
L 3553 0 
L 3553 2222 
L 1259 2222 
L 1259 0 
L 628 0 
L 628 4666 
z
" transform="scale(0.015625)"/>
     </defs>
     <use xlink:href="#DejaVuSans-35"/>
     <use xlink:href="#DejaVuSans-29" x="63.623047"/>
     <use xlink:href="#DejaVuSans-20" x="102.636719"/>
     <use xlink:href="#DejaVuSans-48" x="134.423828"/>
     <use xlink:href="#DejaVuSans-79" x="209.619141"/>
     <use xlink:href="#DejaVuSans-70" x="268.798828"/>
     <use xlink:href="#DejaVuSans-65" x="332.275391"/>
     <use xlink:href="#DejaVuSans-72" x="393.798828"/>
     <use xlink:href="#DejaVuSans-70" x="434.912109"/>
     <use xlink:href="#DejaVuSans-61" x="498.388672"/>
     <use xlink:href="#DejaVuSans-72" x="559.667969"/>
     <use xlink:href="#DejaVuSans-61" x="600.78125"/>
     <use xlink:href="#DejaVuSans-6d" x="662.060547"/>
     <use xlink:href="#DejaVuSans-65" x="759.472656"/>
     <use xlink:href="#DejaVuSans-74" x="820.996094"/>
     <use xlink:href="#DejaVuSans-65" x="860.205078"/>
     <use xlink:href="#DejaVuSans-72" x="921.728516"/>
     <use xlink:href="#DejaVuSans-20" x="962.841797"/>
     <use xlink:href="#DejaVuSans-63" x="994.628906"/>
     <use xlink:href="#DejaVuSans-6f" x="1049.609375"/>
     <use xlink:href="#DejaVuSans-6d" x="1110.791016"/>
     <use xlink:href="#DejaVuSans-62" x="1208.203125"/>
     <use xlink:href="#DejaVuSans-69" x="1271.679688"/>
     <use xlink:href="#DejaVuSans-6e" x="1299.462891"/>
     <use xlink:href="#DejaVuSans-61" x="1362.841797"/>
     <use xlink:href="#DejaVuSans-74" x="1424.121094"/>
     <use xlink:href="#DejaVuSans-69" x="1463.330078"/>
     <use xlink:href="#DejaVuSans-6f" x="1491.113281"/>
     <use xlink:href="#DejaVuSans-6e" x="1552.294922"/>
     <use xlink:href="#DejaVuSans-20" x="1615.673828"/>
     <use xlink:href="#DejaVuSans-6c" x="1647.460938"/>
     <use xlink:href="#DejaVuSans-6f" x="1675.244141"/>
     <use xlink:href="#DejaVuSans-6f" x="1736.425781"/>
     <use xlink:href="#DejaVuSans-70" x="1797.607422"/>
    </g>
    <!-- (cartesian product of YAML values) -->
    <g transform="translate(123.4245 177.664841) scale(0.1 -0.1)">
     <use xlink:href="#DejaVuSans-28"/>
     <use xlink:href="#DejaVuSans-63" x="39.013672"/>
     <use xlink:href="#DejaVuSans-61" x="93.994141"/>
     <use xlink:href="#DejaVuSans-72" x="155.273438"/>
     <use xlink:href="#DejaVuSans-74" x="196.386719"/>
     <use xlink:href="#DejaVuSans-65" x="235.595703"/>
     <use xlink:href="#DejaVuSans-73" x="297.119141"/>
     <use xlink:href="#DejaVuSans-69" x="349.21875"/>
     <use xlink:href="#DejaVuSans-61" x="377.001953"/>
     <use xlink:href="#DejaVuSans-6e" x="438.28125"/>
     <use xlink:href="#DejaVuSans-20" x="501.660156"/>
     <use xlink:href="#DejaVuSans-70" x="533.447266"/>
     <use xlink:href="#DejaVuSans-72" x="596.923828"/>
     <use xlink:href="#DejaVuSans-6f" x="635.787109"/>
     <use xlink:href="#DejaVuSans-64" x="696.96875"/>
     <use xlink:href="#DejaVuSans-75" x="760.445312"/>
     <use xlink:href="#DejaVuSans-63" x="823.824219"/>
     <use xlink:href="#DejaVuSans-74" x="878.804688"/>
     <use xlink:href="#DejaVuSans-20" x="918.013672"/>
     <use xlink:href="#DejaVuSans-6f" x="949.800781"/>
     <use xlink:href="#DejaVuSans-66" x="1010.982422"/>
     <use xlink:href="#DejaVuSans-20" x="1046.1875"/>
     <use xlink:href="#DejaVuSans-59" x="1077.974609"/>
     <use xlink:href="#DejaVuSans-41" x="1131.308594"/>
     <use xlink:href="#DejaVuSans-4d" x="1199.716797"/>
     <use xlink:href="#DejaVuSans-4c" x="1285.996094"/>
     <use xlink:href="#DejaVuSans-20" x="1341.708984"/>
     <use xlink:href="#DejaVuSans-76" x="1373.496094"/>
     <use xlink:href="#DejaVuSans-61" x="1432.675781"/>
     <use xlink:href="#DejaVuSans-6c" x="1493.955078"/>
     <use xlink:href="#DejaVuSans-75" x="1521.738281"/>
     <use xlink:href="#DejaVuSans-65" x="1585.117188"/>
     <use xlink:href="#DejaVuSans-73" x="1646.640625"/>
     <use xlink:href="#DejaVuSans-29" x="1698.740234"/>
    </g>
   </g>
   <g id="text_8">
    <!-- 6) Train by branch -->
    <g transform="translate(419.429672 161.58681) scale(0.09 -0.09)">
     <defs>
      <path id="DejaVuSans-36" d="M 2113 2584 
Q 1688 2584 1439 2293 
Q 1191 2003 1191 1497 
Q 1191 994 1439 701 
Q 1688 409 2113 409 
Q 2538 409 2786 701 
Q 3034 994 3034 1497 
Q 3034 2003 2786 2293 
Q 2538 2584 2113 2584 
z
M 3366 4563 
L 3366 3988 
Q 3128 4100 2886 4159 
Q 2644 4219 2406 4219 
Q 1781 4219 1451 3797 
Q 1122 3375 1075 2522 
Q 1259 2794 1537 2939 
Q 1816 3084 2150 3084 
Q 2853 3084 3261 2657 
Q 3669 2231 3669 1497 
Q 3669 778 3244 343 
Q 2819 -91 2113 -91 
Q 1303 -91 875 529 
Q 447 1150 447 2328 
Q 447 3434 972 4092 
Q 1497 4750 2381 4750 
Q 2619 4750 2861 4703 
Q 3103 4656 3366 4563 
z
" transform="scale(0.015625)"/>
      <path id="DejaVuSans-54" d="M -19 4666 
L 3928 4666 
L 3928 4134 
L 2272 4134 
L 2272 0 
L 1638 0 
L 1638 4134 
L -19 4134 
L -19 4666 
z
" transform="scale(0.015625)"/>
     </defs>
     <use xlink:href="#DejaVuSans-36"/>
     <use xlink:href="#DejaVuSans-29" x="63.623047"/>
     <use xlink:href="#DejaVuSans-20" x="102.636719"/>
     <use xlink:href="#DejaVuSans-54" x="134.423828"/>
     <use xlink:href="#DejaVuSans-72" x="180.757812"/>
     <use xlink:href="#DejaVuSans-61" x="221.871094"/>
     <use xlink:href="#DejaVuSans-69" x="283.150391"/>
     <use xlink:href="#DejaVuSans-6e" x="310.933594"/>
     <use xlink:href="#DejaVuSans-20" x="374.3125"/>
     <use xlink:href="#DejaVuSans-62" x="406.099609"/>
     <use xlink:href="#DejaVuSans-79" x="469.576172"/>
     <use xlink:href="#DejaVuSans-20" x="528.755859"/>
     <use xlink:href="#DejaVuSans-62" x="560.542969"/>
     <use xlink:href="#DejaVuSans-72" x="624.019531"/>
     <use xlink:href="#DejaVuSans-61" x="665.132812"/>
     <use xlink:href="#DejaVuSans-6e" x="726.412109"/>
     <use xlink:href="#DejaVuSans-63" x="789.791016"/>
     <use xlink:href="#DejaVuSans-68" x="844.771484"/>
    </g>
    <!-- standard / LightGT / -->
    <g transform="translate(415.710844 171.664841) scale(0.09 -0.09)">
     <defs>
      <path id="DejaVuSans-47" d="M 3809 666 
L 3809 1919 
L 2778 1919 
L 2778 2438 
L 4434 2438 
L 4434 434 
Q 4069 175 3628 42 
Q 3188 -91 2688 -91 
Q 1594 -91 976 548 
Q 359 1188 359 2328 
Q 359 3472 976 4111 
Q 1594 4750 2688 4750 
Q 3144 4750 3555 4637 
Q 3966 4525 4313 4306 
L 4313 3634 
Q 3963 3931 3569 4081 
Q 3175 4231 2741 4231 
Q 1884 4231 1454 3753 
Q 1025 3275 1025 2328 
Q 1025 1384 1454 906 
Q 1884 428 2741 428 
Q 3075 428 3337 486 
Q 3600 544 3809 666 
z
" transform="scale(0.015625)"/>
     </defs>
     <use xlink:href="#DejaVuSans-73"/>
     <use xlink:href="#DejaVuSans-74" x="52.099609"/>
     <use xlink:href="#DejaVuSans-61" x="91.308594"/>
     <use xlink:href="#DejaVuSans-6e" x="152.587891"/>
     <use xlink:href="#DejaVuSans-64" x="215.966797"/>
     <use xlink:href="#DejaVuSans-61" x="279.443359"/>
     <use xlink:href="#DejaVuSans-72" x="340.722656"/>
     <use xlink:href="#DejaVuSans-64" x="380.085938"/>
     <use xlink:href="#DejaVuSans-20" x="443.5625"/>
     <use xlink:href="#DejaVuSans-2f" x="475.349609"/>
     <use xlink:href="#DejaVuSans-20" x="509.041016"/>
     <use xlink:href="#DejaVuSans-4c" x="540.828125"/>
     <use xlink:href="#DejaVuSans-69" x="596.541016"/>
     <use xlink:href="#DejaVuSans-67" x="624.324219"/>
     <use xlink:href="#DejaVuSans-68" x="687.800781"/>
     <use xlink:href="#DejaVuSans-74" x="751.179688"/>
     <use xlink:href="#DejaVuSans-47" x="790.388672"/>
     <use xlink:href="#DejaVuSans-54" x="864.253906"/>
     <use xlink:href="#DejaVuSans-20" x="925.337891"/>
     <use xlink:href="#DejaVuSans-2f" x="957.125"/>
    </g>
    <!-- DiffMM / DiffRec / CF_Diff / MHRec -->
    <g transform="translate(384.169359 181.742872) scale(0.09 -0.09)">
     <defs>
      <path id="DejaVuSans-44" d="M 1259 4147 
L 1259 519 
L 2022 519 
Q 2988 519 3436 956 
Q 3884 1394 3884 2338 
Q 3884 3275 3436 3711 
Q 2988 4147 2022 4147 
L 1259 4147 
z
M 628 4666 
L 1925 4666 
Q 3281 4666 3915 4102 
Q 4550 3538 4550 2338 
Q 4550 1131 3912 565 
Q 3275 0 1925 0 
L 628 0 
L 628 4666 
z
" transform="scale(0.015625)"/>
      <path id="DejaVuSans-52" d="M 2841 2188 
Q 3044 2119 3236 1894 
Q 3428 1669 3622 1275 
L 4263 0 
L 3584 0 
L 2988 1197 
Q 2756 1666 2539 1819 
Q 2322 1972 1947 1972 
L 1259 1972 
L 1259 0 
L 628 0 
L 628 4666 
L 2053 4666 
Q 2853 4666 3247 4331 
Q 3641 3997 3641 3322 
Q 3641 2881 3436 2590 
Q 3231 2300 2841 2188 
z
M 1259 4147 
L 1259 2491 
L 2053 2491 
Q 2509 2491 2742 2702 
Q 2975 2913 2975 3322 
Q 2975 3731 2742 3939 
Q 2509 4147 2053 4147 
L 1259 4147 
z
" transform="scale(0.015625)"/>
      <path id="DejaVuSans-46" d="M 628 4666 
L 3309 4666 
L 3309 4134 
L 1259 4134 
L 1259 2759 
L 3109 2759 
L 3109 2228 
L 1259 2228 
L 1259 0 
L 628 0 
L 628 4666 
z
" transform="scale(0.015625)"/>
     </defs>
     <use xlink:href="#DejaVuSans-44"/>
     <use xlink:href="#DejaVuSans-69" x="77.001953"/>
     <use xlink:href="#DejaVuSans-66" x="104.785156"/>
     <use xlink:href="#DejaVuSans-66" x="139.990234"/>
     <use xlink:href="#DejaVuSans-4d" x="175.195312"/>
     <use xlink:href="#DejaVuSans-4d" x="261.474609"/>
     <use xlink:href="#DejaVuSans-20" x="347.753906"/>
     <use xlink:href="#DejaVuSans-2f" x="379.541016"/>
     <use xlink:href="#DejaVuSans-20" x="413.232422"/>
     <use xlink:href="#DejaVuSans-44" x="445.019531"/>
     <use xlink:href="#DejaVuSans-69" x="522.021484"/>
     <use xlink:href="#DejaVuSans-66" x="549.804688"/>
     <use xlink:href="#DejaVuSans-66" x="585.009766"/>
     <use xlink:href="#DejaVuSans-52" x="620.214844"/>
     <use xlink:href="#DejaVuSans-65" x="685.197266"/>
     <use xlink:href="#DejaVuSans-63" x="746.720703"/>
     <use xlink:href="#DejaVuSans-20" x="801.701172"/>
     <use xlink:href="#DejaVuSans-2f" x="833.488281"/>
     <use xlink:href="#DejaVuSans-20" x="867.179688"/>
     <use xlink:href="#DejaVuSans-43" x="898.966797"/>
     <use xlink:href="#DejaVuSans-46" x="968.791016"/>
     <use xlink:href="#DejaVuSans-5f" x="1026.310547"/>
     <use xlink:href="#DejaVuSans-44" x="1076.310547"/>
     <use xlink:href="#DejaVuSans-69" x="1153.3125"/>
     <use xlink:href="#DejaVuSans-66" x="1181.095703"/>
     <use xlink:href="#DejaVuSans-66" x="1216.300781"/>
     <use xlink:href="#DejaVuSans-20" x="1251.505859"/>
     <use xlink:href="#DejaVuSans-2f" x="1283.292969"/>
     <use xlink:href="#DejaVuSans-20" x="1316.984375"/>
     <use xlink:href="#DejaVuSans-4d" x="1348.771484"/>
     <use xlink:href="#DejaVuSans-48" x="1435.050781"/>
     <use xlink:href="#DejaVuSans-52" x="1510.246094"/>
     <use xlink:href="#DejaVuSans-65" x="1575.228516"/>
     <use xlink:href="#DejaVuSans-63" x="1636.751953"/>
    </g>
   </g>
   <g id="text_9">
    <!-- 7) Evaluate on val/test -->
    <g transform="translate(606.740813 166.467029) scale(0.1 -0.1)">
     <defs>
      <path id="DejaVuSans-37" d="M 525 4666 
L 3525 4666 
L 3525 4397 
L 1831 0 
L 1172 0 
L 2766 4134 
L 525 4134 
L 525 4666 
z
" transform="scale(0.015625)"/>
      <path id="DejaVuSans-45" d="M 628 4666 
L 3578 4666 
L 3578 4134 
L 1259 4134 
L 1259 2753 
L 3481 2753 
L 3481 2222 
L 1259 2222 
L 1259 531 
L 3634 531 
L 3634 0 
L 628 0 
L 628 4666 
z
" transform="scale(0.015625)"/>
     </defs>
     <use xlink:href="#DejaVuSans-37"/>
     <use xlink:href="#DejaVuSans-29" x="63.623047"/>
     <use xlink:href="#DejaVuSans-20" x="102.636719"/>
     <use xlink:href="#DejaVuSans-45" x="134.423828"/>
     <use xlink:href="#DejaVuSans-76" x="197.607422"/>
     <use xlink:href="#DejaVuSans-61" x="256.787109"/>
     <use xlink:href="#DejaVuSans-6c" x="318.066406"/>
     <use xlink:href="#DejaVuSans-75" x="345.849609"/>
     <use xlink:href="#DejaVuSans-61" x="409.228516"/>
     <use xlink:href="#DejaVuSans-74" x="470.507812"/>
     <use xlink:href="#DejaVuSans-65" x="509.716797"/>
     <use xlink:href="#DejaVuSans-20" x="571.240234"/>
     <use xlink:href="#DejaVuSans-6f" x="603.027344"/>
     <use xlink:href="#DejaVuSans-6e" x="664.208984"/>
     <use xlink:href="#DejaVuSans-20" x="727.587891"/>
     <use xlink:href="#DejaVuSans-76" x="759.375"/>
     <use xlink:href="#DejaVuSans-61" x="818.554688"/>
     <use xlink:href="#DejaVuSans-6c" x="879.833984"/>
     <use xlink:href="#DejaVuSans-2f" x="907.617188"/>
     <use xlink:href="#DejaVuSans-74" x="941.308594"/>
     <use xlink:href="#DejaVuSans-65" x="980.517578"/>
     <use xlink:href="#DejaVuSans-73" x="1042.041016"/>
     <use xlink:href="#DejaVuSans-74" x="1094.140625"/>
    </g>
    <!-- Recall, Precision, NDCG -->
    <g transform="translate(604.871281 177.664841) scale(0.1 -0.1)">
     <defs>
      <path id="DejaVuSans-2c" d="M 750 794 
L 1409 794 
L 1409 256 
L 897 -744 
L 494 -744 
L 750 256 
L 750 794 
z
" transform="scale(0.015625)"/>
      <path id="DejaVuSans-4e" d="M 628 4666 
L 1478 4666 
L 3547 763 
L 3547 4666 
L 4159 4666 
L 4159 0 
L 3309 0 
L 1241 3903 
L 1241 0 
L 628 0 
L 628 4666 
z
" transform="scale(0.015625)"/>
     </defs>
     <use xlink:href="#DejaVuSans-52"/>
     <use xlink:href="#DejaVuSans-65" x="64.982422"/>
     <use xlink:href="#DejaVuSans-63" x="126.505859"/>
     <use xlink:href="#DejaVuSans-61" x="181.486328"/>
     <use xlink:href="#DejaVuSans-6c" x="242.765625"/>
     <use xlink:href="#DejaVuSans-6c" x="270.548828"/>
     <use xlink:href="#DejaVuSans-2c" x="298.332031"/>
     <use xlink:href="#DejaVuSans-20" x="330.119141"/>
     <use xlink:href="#DejaVuSans-50" x="361.90625"/>
     <use xlink:href="#DejaVuSans-72" x="420.458984"/>
     <use xlink:href="#DejaVuSans-65" x="459.322266"/>
     <use xlink:href="#DejaVuSans-63" x="520.845703"/>
     <use xlink:href="#DejaVuSans-69" x="575.826172"/>
     <use xlink:href="#DejaVuSans-73" x="603.609375"/>
     <use xlink:href="#DejaVuSans-69" x="655.708984"/>
     <use xlink:href="#DejaVuSans-6f" x="683.492188"/>
     <use xlink:href="#DejaVuSans-6e" x="744.673828"/>
     <use xlink:href="#DejaVuSans-2c" x="808.052734"/>
     <use xlink:href="#DejaVuSans-20" x="839.839844"/>
     <use xlink:href="#DejaVuSans-4e" x="871.626953"/>
     <use xlink:href="#DejaVuSans-44" x="946.431641"/>
     <use xlink:href="#DejaVuSans-43" x="1023.433594"/>
     <use xlink:href="#DejaVuSans-47" x="1093.257812"/>
    </g>
   </g>
   <g id="text_10">
    <!-- 8) Select best config -->
    <g transform="translate(166.682594 258.830069) scale(0.1 -0.1)">
     <defs>
      <path id="DejaVuSans-38" d="M 2034 2216 
Q 1584 2216 1326 1975 
Q 1069 1734 1069 1313 
Q 1069 891 1326 650 
Q 1584 409 2034 409 
Q 2484 409 2743 651 
Q 3003 894 3003 1313 
Q 3003 1734 2745 1975 
Q 2488 2216 2034 2216 
z
M 1403 2484 
Q 997 2584 770 2862 
Q 544 3141 544 3541 
Q 544 4100 942 4425 
Q 1341 4750 2034 4750 
Q 2731 4750 3128 4425 
Q 3525 4100 3525 3541 
Q 3525 3141 3298 2862 
Q 3072 2584 2669 2484 
Q 3125 2378 3379 2068 
Q 3634 1759 3634 1313 
Q 3634 634 3220 271 
Q 2806 -91 2034 -91 
Q 1263 -91 848 271 
Q 434 634 434 1313 
Q 434 1759 690 2068 
Q 947 2378 1403 2484 
z
M 1172 3481 
Q 1172 3119 1398 2916 
Q 1625 2713 2034 2713 
Q 2441 2713 2670 2916 
Q 2900 3119 2900 3481 
Q 2900 3844 2670 4047 
Q 2441 4250 2034 4250 
Q 1625 4250 1398 4047 
Q 1172 3844 1172 3481 
z
" transform="scale(0.015625)"/>
      <path id="DejaVuSans-53" d="M 3425 4513 
L 3425 3897 
Q 3066 4069 2747 4153 
Q 2428 4238 2131 4238 
Q 1616 4238 1336 4038 
Q 1056 3838 1056 3469 
Q 1056 3159 1242 3001 
Q 1428 2844 1947 2747 
L 2328 2669 
Q 3034 2534 3370 2195 
Q 3706 1856 3706 1288 
Q 3706 609 3251 259 
Q 2797 -91 1919 -91 
Q 1588 -91 1214 -16 
Q 841 59 441 206 
L 441 856 
Q 825 641 1194 531 
Q 1563 422 1919 422 
Q 2459 422 2753 634 
Q 3047 847 3047 1241 
Q 3047 1584 2836 1778 
Q 2625 1972 2144 2069 
L 1759 2144 
Q 1053 2284 737 2584 
Q 422 2884 422 3419 
Q 422 4038 858 4394 
Q 1294 4750 2059 4750 
Q 2388 4750 2728 4690 
Q 3069 4631 3425 4513 
z
" transform="scale(0.015625)"/>
     </defs>
     <use xlink:href="#DejaVuSans-38"/>
     <use xlink:href="#DejaVuSans-29" x="63.623047"/>
     <use xlink:href="#DejaVuSans-20" x="102.636719"/>
     <use xlink:href="#DejaVuSans-53" x="134.423828"/>
     <use xlink:href="#DejaVuSans-65" x="197.900391"/>
     <use xlink:href="#DejaVuSans-6c" x="259.423828"/>
     <use xlink:href="#DejaVuSans-65" x="287.207031"/>
     <use xlink:href="#DejaVuSans-63" x="348.730469"/>
     <use xlink:href="#DejaVuSans-74" x="403.710938"/>
     <use xlink:href="#DejaVuSans-20" x="442.919922"/>
     <use xlink:href="#DejaVuSans-62" x="474.707031"/>
     <use xlink:href="#DejaVuSans-65" x="538.183594"/>
     <use xlink:href="#DejaVuSans-73" x="599.707031"/>
     <use xlink:href="#DejaVuSans-74" x="651.806641"/>
     <use xlink:href="#DejaVuSans-20" x="691.015625"/>
     <use xlink:href="#DejaVuSans-63" x="722.802734"/>
     <use xlink:href="#DejaVuSans-6f" x="777.783203"/>
     <use xlink:href="#DejaVuSans-6e" x="838.964844"/>
     <use xlink:href="#DejaVuSans-66" x="902.34375"/>
     <use xlink:href="#DejaVuSans-69" x="937.548828"/>
     <use xlink:href="#DejaVuSans-67" x="965.332031"/>
    </g>
    <!-- by Recall@20 -->
    <g transform="translate(184.121656 270.027881) scale(0.1 -0.1)">
     <defs>
      <path id="DejaVuSans-40" d="M 2381 1678 
Q 2381 1231 2603 976 
Q 2825 722 3213 722 
Q 3597 722 3817 978 
Q 4038 1234 4038 1678 
Q 4038 2116 3813 2373 
Q 3588 2631 3206 2631 
Q 2828 2631 2604 2375 
Q 2381 2119 2381 1678 
z
M 4084 744 
Q 3897 503 3655 389 
Q 3413 275 3091 275 
Q 2553 275 2217 664 
Q 1881 1053 1881 1678 
Q 1881 2303 2218 2693 
Q 2556 3084 3091 3084 
Q 3413 3084 3656 2967 
Q 3900 2850 4084 2613 
L 4084 3022 
L 4531 3022 
L 4531 722 
Q 4988 791 5245 1139 
Q 5503 1488 5503 2041 
Q 5503 2375 5404 2669 
Q 5306 2963 5106 3213 
Q 4781 3622 4314 3839 
Q 3847 4056 3297 4056 
Q 2913 4056 2559 3954 
Q 2206 3853 1906 3653 
Q 1416 3334 1139 2817 
Q 863 2300 863 1697 
Q 863 1200 1042 765 
Q 1222 331 1563 0 
Q 1891 -325 2322 -495 
Q 2753 -666 3244 -666 
Q 3647 -666 4036 -530 
Q 4425 -394 4750 -141 
L 5031 -488 
Q 4641 -791 4180 -952 
Q 3719 -1113 3244 -1113 
Q 2666 -1113 2153 -908 
Q 1641 -703 1241 -313 
Q 841 78 631 592 
Q 422 1106 422 1697 
Q 422 2266 634 2781 
Q 847 3297 1241 3688 
Q 1644 4084 2172 4295 
Q 2700 4506 3291 4506 
Q 3953 4506 4520 4234 
Q 5088 3963 5472 3463 
Q 5706 3156 5829 2797 
Q 5953 2438 5953 2053 
Q 5953 1231 5456 756 
Q 4959 281 4084 263 
L 4084 744 
z
" transform="scale(0.015625)"/>
      <path id="DejaVuSans-30" d="M 2034 4250 
Q 1547 4250 1301 3770 
Q 1056 3291 1056 2328 
Q 1056 1369 1301 889 
Q 1547 409 2034 409 
Q 2525 409 2770 889 
Q 3016 1369 3016 2328 
Q 3016 3291 2770 3770 
Q 2525 4250 2034 4250 
z
M 2034 4750 
Q 2819 4750 3233 4129 
Q 3647 3509 3647 2328 
Q 3647 1150 3233 529 
Q 2819 -91 2034 -91 
Q 1250 -91 836 529 
Q 422 1150 422 2328 
Q 422 3509 836 4129 
Q 1250 4750 2034 4750 
z
" transform="scale(0.015625)"/>
     </defs>
     <use xlink:href="#DejaVuSans-62"/>
     <use xlink:href="#DejaVuSans-79" x="63.476562"/>
     <use xlink:href="#DejaVuSans-20" x="122.65625"/>
     <use xlink:href="#DejaVuSans-52" x="154.443359"/>
     <use xlink:href="#DejaVuSans-65" x="219.425781"/>
     <use xlink:href="#DejaVuSans-63" x="280.949219"/>
     <use xlink:href="#DejaVuSans-61" x="335.929688"/>
     <use xlink:href="#DejaVuSans-6c" x="397.208984"/>
     <use xlink:href="#DejaVuSans-6c" x="424.992188"/>
     <use xlink:href="#DejaVuSans-40" x="452.775391"/>
     <use xlink:href="#DejaVuSans-32" x="552.775391"/>
     <use xlink:href="#DejaVuSans-30" x="616.398438"/>
    </g>
   </g>
   <g id="text_11">
    <!-- 9) Save best metrics -->
    <g transform="translate(416.413469 258.830069) scale(0.1 -0.1)">
     <defs>
      <path id="DejaVuSans-39" d="M 703 97 
L 703 672 
Q 941 559 1184 500 
Q 1428 441 1663 441 
Q 2288 441 2617 861 
Q 2947 1281 2994 2138 
Q 2813 1869 2534 1725 
Q 2256 1581 1919 1581 
Q 1219 1581 811 2004 
Q 403 2428 403 3163 
Q 403 3881 828 4315 
Q 1253 4750 1959 4750 
Q 2769 4750 3195 4129 
Q 3622 3509 3622 2328 
Q 3622 1225 3098 567 
Q 2575 -91 1691 -91 
Q 1453 -91 1209 -44 
Q 966 3 703 97 
z
M 1959 2075 
Q 2384 2075 2632 2365 
Q 2881 2656 2881 3163 
Q 2881 3666 2632 3958 
Q 2384 4250 1959 4250 
Q 1534 4250 1286 3958 
Q 1038 3666 1038 3163 
Q 1038 2656 1286 2365 
Q 1534 2075 1959 2075 
z
" transform="scale(0.015625)"/>
     </defs>
     <use xlink:href="#DejaVuSans-39"/>
     <use xlink:href="#DejaVuSans-29" x="63.623047"/>
     <use xlink:href="#DejaVuSans-20" x="102.636719"/>
     <use xlink:href="#DejaVuSans-53" x="134.423828"/>
     <use xlink:href="#DejaVuSans-61" x="197.900391"/>
     <use xlink:href="#DejaVuSans-76" x="259.179688"/>
     <use xlink:href="#DejaVuSans-65" x="318.359375"/>
     <use xlink:href="#DejaVuSans-20" x="379.882812"/>
     <use xlink:href="#DejaVuSans-62" x="411.669922"/>
     <use xlink:href="#DejaVuSans-65" x="475.146484"/>
     <use xlink:href="#DejaVuSans-73" x="536.669922"/>
     <use xlink:href="#DejaVuSans-74" x="588.769531"/>
     <use xlink:href="#DejaVuSans-20" x="627.978516"/>
     <use xlink:href="#DejaVuSans-6d" x="659.765625"/>
     <use xlink:href="#DejaVuSans-65" x="757.177734"/>
     <use xlink:href="#DejaVuSans-74" x="818.701172"/>
     <use xlink:href="#DejaVuSans-72" x="857.910156"/>
     <use xlink:href="#DejaVuSans-69" x="899.023438"/>
     <use xlink:href="#DejaVuSans-63" x="926.806641"/>
     <use xlink:href="#DejaVuSans-73" x="981.787109"/>
    </g>
    <!-- and parameters -->
    <g transform="translate(428.110344 270.027881) scale(0.1 -0.1)">
     <use xlink:href="#DejaVuSans-61"/>
     <use xlink:href="#DejaVuSans-6e" x="61.279297"/>
     <use xlink:href="#DejaVuSans-64" x="124.658203"/>
     <use xlink:href="#DejaVuSans-20" x="188.134766"/>
     <use xlink:href="#DejaVuSans-70" x="219.921875"/>
     <use xlink:href="#DejaVuSans-61" x="283.398438"/>
     <use xlink:href="#DejaVuSans-72" x="344.677734"/>
     <use xlink:href="#DejaVuSans-61" x="385.791016"/>
     <use xlink:href="#DejaVuSans-6d" x="447.070312"/>
     <use xlink:href="#DejaVuSans-65" x="544.482422"/>
     <use xlink:href="#DejaVuSans-74" x="606.005859"/>
     <use xlink:href="#DejaVuSans-65" x="645.214844"/>
     <use xlink:href="#DejaVuSans-72" x="706.738281"/>
     <use xlink:href="#DejaVuSans-73" x="747.851562"/>
    </g>
   </g>
   <g id="text_12">
    <!-- 10) Write log file -->
    <g transform="translate(621.890031 258.691006) scale(0.1 -0.1)">
     <defs>
      <path id="DejaVuSans-57" d="M 213 4666 
L 850 4666 
L 1831 722 
L 2809 4666 
L 3519 4666 
L 4500 722 
L 5478 4666 
L 6119 4666 
L 4947 0 
L 4153 0 
L 3169 4050 
L 2175 0 
L 1381 0 
L 213 4666 
z
" transform="scale(0.015625)"/>
     </defs>
     <use xlink:href="#DejaVuSans-31"/>
     <use xlink:href="#DejaVuSans-30" x="63.623047"/>
     <use xlink:href="#DejaVuSans-29" x="127.246094"/>
     <use xlink:href="#DejaVuSans-20" x="166.259766"/>
     <use xlink:href="#DejaVuSans-57" x="198.046875"/>
     <use xlink:href="#DejaVuSans-72" x="292.423828"/>
     <use xlink:href="#DejaVuSans-69" x="333.537109"/>
     <use xlink:href="#DejaVuSans-74" x="361.320312"/>
     <use xlink:href="#DejaVuSans-65" x="400.529297"/>
     <use xlink:href="#DejaVuSans-20" x="462.052734"/>
     <use xlink:href="#DejaVuSans-6c" x="493.839844"/>
     <use xlink:href="#DejaVuSans-6f" x="521.623047"/>
     <use xlink:href="#DejaVuSans-67" x="582.804688"/>
     <use xlink:href="#DejaVuSans-20" x="646.28125"/>
     <use xlink:href="#DejaVuSans-66" x="678.068359"/>
     <use xlink:href="#DejaVuSans-69" x="713.273438"/>
     <use xlink:href="#DejaVuSans-6c" x="741.056641"/>
     <use xlink:href="#DejaVuSans-65" x="768.839844"/>
    </g>
    <!-- log/{Model}_{Dataset}.log -->
    <g transform="translate(595.071281 269.888819) scale(0.1 -0.1)">
     <use xlink:href="#DejaVuSans-6c"/>
     <use xlink:href="#DejaVuSans-6f" x="27.783203"/>
     <use xlink:href="#DejaVuSans-67" x="88.964844"/>
     <use xlink:href="#DejaVuSans-2f" x="152.441406"/>
     <use xlink:href="#DejaVuSans-7b" x="186.132812"/>
     <use xlink:href="#DejaVuSans-4d" x="249.755859"/>
     <use xlink:href="#DejaVuSans-6f" x="336.035156"/>
     <use xlink:href="#DejaVuSans-64" x="397.216797"/>
     <use xlink:href="#DejaVuSans-65" x="460.693359"/>
     <use xlink:href="#DejaVuSans-6c" x="522.216797"/>
     <use xlink:href="#DejaVuSans-7d" x="550"/>
     <use xlink:href="#DejaVuSans-5f" x="613.623047"/>
     <use xlink:href="#DejaVuSans-7b" x="663.623047"/>
     <use xlink:href="#DejaVuSans-44" x="727.246094"/>
     <use xlink:href="#DejaVuSans-61" x="804.248047"/>
     <use xlink:href="#DejaVuSans-74" x="865.527344"/>
     <use xlink:href="#DejaVuSans-61" x="904.736328"/>
     <use xlink:href="#DejaVuSans-73" x="966.015625"/>
     <use xlink:href="#DejaVuSans-65" x="1018.115234"/>
     <use xlink:href="#DejaVuSans-74" x="1079.638672"/>
     <use xlink:href="#DejaVuSans-7d" x="1118.847656"/>
     <use xlink:href="#DejaVuSans-2e" x="1182.470703"/>
     <use xlink:href="#DejaVuSans-6c" x="1214.257812"/>
     <use xlink:href="#DejaVuSans-6f" x="1242.041016"/>
     <use xlink:href="#DejaVuSans-67" x="1303.222656"/>
    </g>
   </g>
   <g id="text_13">
    <!-- Reusable preprocessing scripts: -->
    <g transform="translate(138.905438 329.34825) scale(0.09 -0.09)">
     <defs>
      <path id="DejaVuSans-3a" d="M 750 794 
L 1409 794 
L 1409 0 
L 750 0 
L 750 794 
z
M 750 3309 
L 1409 3309 
L 1409 2516 
L 750 2516 
L 750 3309 
z
" transform="scale(0.015625)"/>
     </defs>
     <use xlink:href="#DejaVuSans-52"/>
     <use xlink:href="#DejaVuSans-65" x="64.982422"/>
     <use xlink:href="#DejaVuSans-75" x="126.505859"/>
     <use xlink:href="#DejaVuSans-73" x="189.884766"/>
     <use xlink:href="#DejaVuSans-61" x="241.984375"/>
     <use xlink:href="#DejaVuSans-62" x="303.263672"/>
     <use xlink:href="#DejaVuSans-6c" x="366.740234"/>
     <use xlink:href="#DejaVuSans-65" x="394.523438"/>
     <use xlink:href="#DejaVuSans-20" x="456.046875"/>
     <use xlink:href="#DejaVuSans-70" x="487.833984"/>
     <use xlink:href="#DejaVuSans-72" x="551.310547"/>
     <use xlink:href="#DejaVuSans-65" x="590.173828"/>
     <use xlink:href="#DejaVuSans-70" x="651.697266"/>
     <use xlink:href="#DejaVuSans-72" x="715.173828"/>
     <use xlink:href="#DejaVuSans-6f" x="754.037109"/>
     <use xlink:href="#DejaVuSans-63" x="815.21875"/>
     <use xlink:href="#DejaVuSans-65" x="870.199219"/>
     <use xlink:href="#DejaVuSans-73" x="931.722656"/>
     <use xlink:href="#DejaVuSans-73" x="983.822266"/>
     <use xlink:href="#DejaVuSans-69" x="1035.921875"/>
     <use xlink:href="#DejaVuSans-6e" x="1063.705078"/>
     <use xlink:href="#DejaVuSans-67" x="1127.083984"/>
     <use xlink:href="#DejaVuSans-20" x="1190.560547"/>
     <use xlink:href="#DejaVuSans-73" x="1222.347656"/>
     <use xlink:href="#DejaVuSans-63" x="1274.447266"/>
     <use xlink:href="#DejaVuSans-72" x="1329.427734"/>
     <use xlink:href="#DejaVuSans-69" x="1370.541016"/>
     <use xlink:href="#DejaVuSans-70" x="1398.324219"/>
     <use xlink:href="#DejaVuSans-74" x="1461.800781"/>
     <use xlink:href="#DejaVuSans-73" x="1501.009766"/>
     <use xlink:href="#DejaVuSans-3a" x="1553.109375"/>
    </g>
    <!-- - dualgnn-gen-u-u-matrix.py -->
    <g transform="translate(146.686922 339.426281) scale(0.09 -0.09)">
     <defs>
      <path id="DejaVuSans-78" d="M 3513 3500 
L 2247 1797 
L 3578 0 
L 2900 0 
L 1881 1375 
L 863 0 
L 184 0 
L 1544 1831 
L 300 3500 
L 978 3500 
L 1906 2253 
L 2834 3500 
L 3513 3500 
z
" transform="scale(0.015625)"/>
     </defs>
     <use xlink:href="#DejaVuSans-2d"/>
     <use xlink:href="#DejaVuSans-20" x="36.083984"/>
     <use xlink:href="#DejaVuSans-64" x="67.871094"/>
     <use xlink:href="#DejaVuSans-75" x="131.347656"/>
     <use xlink:href="#DejaVuSans-61" x="194.726562"/>
     <use xlink:href="#DejaVuSans-6c" x="256.005859"/>
     <use xlink:href="#DejaVuSans-67" x="283.789062"/>
     <use xlink:href="#DejaVuSans-6e" x="347.265625"/>
     <use xlink:href="#DejaVuSans-6e" x="410.644531"/>
     <use xlink:href="#DejaVuSans-2d" x="474.023438"/>
     <use xlink:href="#DejaVuSans-67" x="510.107422"/>
     <use xlink:href="#DejaVuSans-65" x="573.583984"/>
     <use xlink:href="#DejaVuSans-6e" x="635.107422"/>
     <use xlink:href="#DejaVuSans-2d" x="698.486328"/>
     <use xlink:href="#DejaVuSans-75" x="734.570312"/>
     <use xlink:href="#DejaVuSans-2d" x="797.949219"/>
     <use xlink:href="#DejaVuSans-75" x="834.033203"/>
     <use xlink:href="#DejaVuSans-2d" x="897.412109"/>
     <use xlink:href="#DejaVuSans-6d" x="933.496094"/>
     <use xlink:href="#DejaVuSans-61" x="1030.908203"/>
     <use xlink:href="#DejaVuSans-74" x="1092.1875"/>
     <use xlink:href="#DejaVuSans-72" x="1131.396484"/>
     <use xlink:href="#DejaVuSans-69" x="1172.509766"/>
     <use xlink:href="#DejaVuSans-78" x="1200.292969"/>
     <use xlink:href="#DejaVuSans-2e" x="1259.472656"/>
     <use xlink:href="#DejaVuSans-70" x="1291.259766"/>
     <use xlink:href="#DejaVuSans-79" x="1354.736328"/>
    </g>
    <!-- - gen_hypergraph_u_i.py -->
    <g transform="translate(154.893094 349.504312) scale(0.09 -0.09)">
     <use xlink:href="#DejaVuSans-2d"/>
     <use xlink:href="#DejaVuSans-20" x="36.083984"/>
     <use xlink:href="#DejaVuSans-67" x="67.871094"/>
     <use xlink:href="#DejaVuSans-65" x="131.347656"/>
     <use xlink:href="#DejaVuSans-6e" x="192.871094"/>
     <use xlink:href="#DejaVuSans-5f" x="256.25"/>
     <use xlink:href="#DejaVuSans-68" x="306.25"/>
     <use xlink:href="#DejaVuSans-79" x="369.628906"/>
     <use xlink:href="#DejaVuSans-70" x="428.808594"/>
     <use xlink:href="#DejaVuSans-65" x="492.285156"/>
     <use xlink:href="#DejaVuSans-72" x="553.808594"/>
     <use xlink:href="#DejaVuSans-67" x="593.171875"/>
     <use xlink:href="#DejaVuSans-72" x="656.648438"/>
     <use xlink:href="#DejaVuSans-61" x="697.761719"/>
     <use xlink:href="#DejaVuSans-70" x="759.041016"/>
     <use xlink:href="#DejaVuSans-68" x="822.517578"/>
     <use xlink:href="#DejaVuSans-5f" x="885.896484"/>
     <use xlink:href="#DejaVuSans-75" x="935.896484"/>
     <use xlink:href="#DejaVuSans-5f" x="999.275391"/>
     <use xlink:href="#DejaVuSans-69" x="1049.275391"/>
     <use xlink:href="#DejaVuSans-2e" x="1077.058594"/>
     <use xlink:href="#DejaVuSans-70" x="1108.845703"/>
     <use xlink:href="#DejaVuSans-79" x="1172.322266"/>
    </g>
   </g>
   <g id="text_14">
    <!-- Outputs consumed by README and experiments: -->
    <g transform="translate(481.755234 324.434391) scale(0.09 -0.09)">
     <defs>
      <path id="DejaVuSans-4f" d="M 2522 4238 
Q 1834 4238 1429 3725 
Q 1025 3213 1025 2328 
Q 1025 1447 1429 934 
Q 1834 422 2522 422 
Q 3209 422 3611 934 
Q 4013 1447 4013 2328 
Q 4013 3213 3611 3725 
Q 3209 4238 2522 4238 
z
M 2522 4750 
Q 3503 4750 4090 4092 
Q 4678 3434 4678 2328 
Q 4678 1225 4090 567 
Q 3503 -91 2522 -91 
Q 1538 -91 948 565 
Q 359 1222 359 2328 
Q 359 3434 948 4092 
Q 1538 4750 2522 4750 
z
" transform="scale(0.015625)"/>
     </defs>
     <use xlink:href="#DejaVuSans-4f"/>
     <use xlink:href="#DejaVuSans-75" x="78.710938"/>
     <use xlink:href="#DejaVuSans-74" x="142.089844"/>
     <use xlink:href="#DejaVuSans-70" x="181.298828"/>
     <use xlink:href="#DejaVuSans-75" x="244.775391"/>
     <use xlink:href="#DejaVuSans-74" x="308.154297"/>
     <use xlink:href="#DejaVuSans-73" x="347.363281"/>
     <use xlink:href="#DejaVuSans-20" x="399.462891"/>
     <use xlink:href="#DejaVuSans-63" x="431.25"/>
     <use xlink:href="#DejaVuSans-6f" x="486.230469"/>
     <use xlink:href="#DejaVuSans-6e" x="547.412109"/>
     <use xlink:href="#DejaVuSans-73" x="610.791016"/>
     <use xlink:href="#DejaVuSans-75" x="662.890625"/>
     <use xlink:href="#DejaVuSans-6d" x="726.269531"/>
     <use xlink:href="#DejaVuSans-65" x="823.681641"/>
     <use xlink:href="#DejaVuSans-64" x="885.205078"/>
     <use xlink:href="#DejaVuSans-20" x="948.681641"/>
     <use xlink:href="#DejaVuSans-62" x="980.46875"/>
     <use xlink:href="#DejaVuSans-79" x="1043.945312"/>
     <use xlink:href="#DejaVuSans-20" x="1103.125"/>
     <use xlink:href="#DejaVuSans-52" x="1134.912109"/>
     <use xlink:href="#DejaVuSans-45" x="1204.394531"/>
     <use xlink:href="#DejaVuSans-41" x="1267.578125"/>
     <use xlink:href="#DejaVuSans-44" x="1335.986328"/>
     <use xlink:href="#DejaVuSans-4d" x="1412.988281"/>
     <use xlink:href="#DejaVuSans-45" x="1499.267578"/>
     <use xlink:href="#DejaVuSans-20" x="1562.451172"/>
     <use xlink:href="#DejaVuSans-61" x="1594.238281"/>
     <use xlink:href="#DejaVuSans-6e" x="1655.517578"/>
     <use xlink:href="#DejaVuSans-64" x="1718.896484"/>
     <use xlink:href="#DejaVuSans-20" x="1782.373047"/>
     <use xlink:href="#DejaVuSans-65" x="1814.160156"/>
     <use xlink:href="#DejaVuSans-78" x="1873.933594"/>
     <use xlink:href="#DejaVuSans-70" x="1933.113281"/>
     <use xlink:href="#DejaVuSans-65" x="1996.589844"/>
     <use xlink:href="#DejaVuSans-72" x="2058.113281"/>
     <use xlink:href="#DejaVuSans-69" x="2099.226562"/>
     <use xlink:href="#DejaVuSans-6d" x="2127.009766"/>
     <use xlink:href="#DejaVuSans-65" x="2224.421875"/>
     <use xlink:href="#DejaVuSans-6e" x="2285.945312"/>
     <use xlink:href="#DejaVuSans-74" x="2349.324219"/>
     <use xlink:href="#DejaVuSans-73" x="2388.533203"/>
     <use xlink:href="#DejaVuSans-3a" x="2440.632812"/>
    </g>
    <!-- - final top-k metrics -->
    <g transform="translate(549.053438 334.512422) scale(0.09 -0.09)">
     <defs>
      <path id="DejaVuSans-6b" d="M 581 4863 
L 1159 4863 
L 1159 1991 
L 2875 3500 
L 3609 3500 
L 1753 1863 
L 3688 0 
L 2938 0 
L 1159 1709 
L 1159 0 
L 581 0 
L 581 4863 
z
" transform="scale(0.015625)"/>
     </defs>
     <use xlink:href="#DejaVuSans-2d"/>
     <use xlink:href="#DejaVuSans-20" x="36.083984"/>
     <use xlink:href="#DejaVuSans-66" x="67.871094"/>
     <use xlink:href="#DejaVuSans-69" x="103.076172"/>
     <use xlink:href="#DejaVuSans-6e" x="130.859375"/>
     <use xlink:href="#DejaVuSans-61" x="194.238281"/>
     <use xlink:href="#DejaVuSans-6c" x="255.517578"/>
     <use xlink:href="#DejaVuSans-20" x="283.300781"/>
     <use xlink:href="#DejaVuSans-74" x="315.087891"/>
     <use xlink:href="#DejaVuSans-6f" x="354.296875"/>
     <use xlink:href="#DejaVuSans-70" x="415.478516"/>
     <use xlink:href="#DejaVuSans-2d" x="478.955078"/>
     <use xlink:href="#DejaVuSans-6b" x="515.039062"/>
     <use xlink:href="#DejaVuSans-20" x="572.949219"/>
     <use xlink:href="#DejaVuSans-6d" x="604.736328"/>
     <use xlink:href="#DejaVuSans-65" x="702.148438"/>
     <use xlink:href="#DejaVuSans-74" x="763.671875"/>
     <use xlink:href="#DejaVuSans-72" x="802.880859"/>
     <use xlink:href="#DejaVuSans-69" x="843.994141"/>
     <use xlink:href="#DejaVuSans-63" x="871.777344"/>
     <use xlink:href="#DejaVuSans-73" x="926.757812"/>
    </g>
    <!-- - selected hyperparameters -->
    <g transform="translate(530.5275 344.590453) scale(0.09 -0.09)">
     <use xlink:href="#DejaVuSans-2d"/>
     <use xlink:href="#DejaVuSans-20" x="36.083984"/>
     <use xlink:href="#DejaVuSans-73" x="67.871094"/>
     <use xlink:href="#DejaVuSans-65" x="119.970703"/>
     <use xlink:href="#DejaVuSans-6c" x="181.494141"/>
     <use xlink:href="#DejaVuSans-65" x="209.277344"/>
     <use xlink:href="#DejaVuSans-63" x="270.800781"/>
     <use xlink:href="#DejaVuSans-74" x="325.78125"/>
     <use xlink:href="#DejaVuSans-65" x="364.990234"/>
     <use xlink:href="#DejaVuSans-64" x="426.513672"/>
     <use xlink:href="#DejaVuSans-20" x="489.990234"/>
     <use xlink:href="#DejaVuSans-68" x="521.777344"/>
     <use xlink:href="#DejaVuSans-79" x="585.15625"/>
     <use xlink:href="#DejaVuSans-70" x="644.335938"/>
     <use xlink:href="#DejaVuSans-65" x="707.8125"/>
     <use xlink:href="#DejaVuSans-72" x="769.335938"/>
     <use xlink:href="#DejaVuSans-70" x="810.449219"/>
     <use xlink:href="#DejaVuSans-61" x="873.925781"/>
     <use xlink:href="#DejaVuSans-72" x="935.205078"/>
     <use xlink:href="#DejaVuSans-61" x="976.318359"/>
     <use xlink:href="#DejaVuSans-6d" x="1037.597656"/>
     <use xlink:href="#DejaVuSans-65" x="1135.009766"/>
     <use xlink:href="#DejaVuSans-74" x="1196.533203"/>
     <use xlink:href="#DejaVuSans-65" x="1235.742188"/>
     <use xlink:href="#DejaVuSans-72" x="1297.265625"/>
     <use xlink:href="#DejaVuSans-73" x="1338.378906"/>
    </g>
    <!-- - per-run logs -->
    <g transform="translate(563.045625 354.668484) scale(0.09 -0.09)">
     <use xlink:href="#DejaVuSans-2d"/>
     <use xlink:href="#DejaVuSans-20" x="36.083984"/>
     <use xlink:href="#DejaVuSans-70" x="67.871094"/>
     <use xlink:href="#DejaVuSans-65" x="131.347656"/>
     <use xlink:href="#DejaVuSans-72" x="192.871094"/>
     <use xlink:href="#DejaVuSans-2d" x="227.609375"/>
     <use xlink:href="#DejaVuSans-72" x="263.693359"/>
     <use xlink:href="#DejaVuSans-75" x="304.806641"/>
     <use xlink:href="#DejaVuSans-6e" x="368.185547"/>
     <use xlink:href="#DejaVuSans-20" x="431.564453"/>
     <use xlink:href="#DejaVuSans-6c" x="463.351562"/>
     <use xlink:href="#DejaVuSans-6f" x="491.134766"/>
     <use xlink:href="#DejaVuSans-67" x="552.316406"/>
     <use xlink:href="#DejaVuSans-73" x="615.792969"/>
    </g>
   </g>
   <g id="patch_14">
    <path d="M 183.064408 90.13824 
Q 198.593428 90.13824 212.445396 90.13824 
" style="fill: none; stroke: #334155; stroke-width: 1.5; stroke-linecap: round"/>
    <path d="M 208.445396 88.13824 
L 212.445396 90.13824 
L 208.445396 92.13824 
L 208.445396 88.13824 
z
" style="fill: #334155; stroke: #334155; stroke-width: 1.5; stroke-linecap: round"/>
   </g>
   <g id="patch_15">
    <path d="M 378.364408 90.13824 
Q 393.893428 90.13824 407.745396 90.13824 
" style="fill: none; stroke: #334155; stroke-width: 1.5; stroke-linecap: round"/>
    <path d="M 403.745396 88.13824 
L 407.745396 90.13824 
L 403.745396 92.13824 
L 403.745396 88.13824 
z
" style="fill: #334155; stroke: #334155; stroke-width: 1.5; stroke-linecap: round"/>
   </g>
   <g id="patch_16">
    <path d="M 589.289361 90.13824 
Q 600.912088 90.13824 610.857764 90.13824 
" style="fill: none; stroke: #334155; stroke-width: 1.5; stroke-linecap: round"/>
    <path d="M 606.857764 88.13824 
L 610.857764 90.13824 
L 606.857764 92.13824 
L 606.857764 88.13824 
z
" style="fill: #334155; stroke: #334155; stroke-width: 1.5; stroke-linecap: round"/>
   </g>
   <g id="patch_17">
    <path d="M 682.854618 113.037789 
Q 472.014965 127.837372 262.848246 142.519526 
" style="fill: none; stroke: #334155; stroke-width: 1.5; stroke-linecap: round"/>
    <path d="M 266.978471 144.234532 
L 262.848246 142.519526 
L 266.698386 140.24435 
L 266.978471 144.234532 
z
" style="fill: #334155; stroke: #334155; stroke-width: 1.5; stroke-linecap: round"/>
   </g>
   <g id="patch_18">
    <path d="M 210.312 116.759618 
Q 210.312 127.837921 210.312 137.239172 
" style="fill: none; stroke: #334155; stroke-width: 1.5; stroke-linecap: round"/>
    <path d="M 212.312 133.239172 
L 210.312 137.239172 
L 208.312 133.239172 
L 212.312 133.239172 
z
" style="fill: #334155; stroke: #334155; stroke-width: 1.5; stroke-linecap: round"/>
   </g>
   <g id="patch_19">
    <path d="M 339.304408 169.30656 
Q 354.833428 169.30656 368.685396 169.30656 
" style="fill: none; stroke: #334155; stroke-width: 1.5; stroke-linecap: round"/>
    <path d="M 364.685396 167.30656 
L 368.685396 169.30656 
L 364.685396 171.30656 
L 364.685396 167.30656 
z
" style="fill: #334155; stroke: #334155; stroke-width: 1.5; stroke-linecap: round"/>
   </g>
   <g id="patch_20">
    <path d="M 550.229361 169.30656 
Q 561.852088 169.30656 571.797764 169.30656 
" style="fill: none; stroke: #334155; stroke-width: 1.5; stroke-linecap: round"/>
    <path d="M 567.797764 167.30656 
L 571.797764 169.30656 
L 567.797764 171.30656 
L 567.797764 167.30656 
z
" style="fill: #334155; stroke: #334155; stroke-width: 1.5; stroke-linecap: round"/>
   </g>
   <g id="patch_21">
    <path d="M 210.312 199.697628 
Q 210.312 216.430394 210.312 231.486109 
" style="fill: none; stroke: #334155; stroke-width: 1.5; stroke-linecap: round"/>
    <path d="M 212.312 227.486109 
L 210.312 231.486109 
L 208.312 227.486109 
L 212.312 227.486109 
z
" style="fill: #334155; stroke: #334155; stroke-width: 1.5; stroke-linecap: round"/>
   </g>
   <g id="patch_22">
    <path d="M 659.426784 196.087367 
Q 452.484342 216.430526 247.210906 236.609616 
" style="fill: none; stroke: #334155; stroke-width: 1.5; stroke-linecap: round"/>
    <path d="M 251.387382 238.208695 
L 247.210906 236.609616 
L 250.996054 234.227883 
L 251.387382 238.208695 
z
" style="fill: #334155; stroke: #334155; stroke-width: 1.5; stroke-linecap: round"/>
   </g>
   <g id="patch_23">
    <path d="M 339.306315 263.55456 
Q 358.740799 263.55456 376.498232 263.55456 
" style="fill: none; stroke: #334155; stroke-width: 1.5; stroke-linecap: round"/>
    <path d="M 372.498232 261.55456 
L 376.498232 263.55456 
L 372.498232 265.55456 
L 372.498232 261.55456 
z
" style="fill: #334155; stroke: #334155; stroke-width: 1.5; stroke-linecap: round"/>
   </g>
   <g id="patch_24">
    <path d="M 558.041361 263.55456 
Q 569.664088 263.55456 579.609764 263.55456 
" style="fill: none; stroke: #334155; stroke-width: 1.5; stroke-linecap: round"/>
    <path d="M 575.609764 261.55456 
L 579.609764 263.55456 
L 575.609764 265.55456 
L 575.609764 261.55456 
z
" style="fill: #334155; stroke: #334155; stroke-width: 1.5; stroke-linecap: round"/>
   </g>
  </g>
 </g>
 <defs>
  <clipPath id="p2cc9af8de7">
   <rect x="7.2" y="7.2" width="781.2" height="376.992"/>
  </clipPath>
 </defs>
</svg>
