<?xml version="1.0" encoding="utf-8" standalone="no"?>
<!DOCTYPE svg PUBLIC "-//W3C//DTD SVG 1.1//EN"
  "http://www.w3.org/Graphics/SVG/1.1/DTD/svg11.dtd">
<svg xmlns:xlink="http://www.w3.org/1999/xlink" width="795.6pt" height="457.92pt" viewBox="0 0 795.6 457.92" xmlns="http://www.w3.org/2000/svg" version="1.1">
 <metadata>
  <rdf:RDF xmlns:dc="http://purl.org/dc/elements/1.1/" xmlns:cc="http://creativecommons.org/ns#" xmlns:rdf="http://www.w3.org/1999/02/22-rdf-syntax-ns#">
   <cc:Work>
    <dc:type rdf:resource="http://purl.org/dc/dcmitype/StillImage"/>
    <dc:date>2026-03-13T14:09:09.154104</dc:date>
    <dc:format>image/svg+xml</dc:format>
    <dc:creator>
     <cc:Agent>
      <dc:title>Matplotlib v3.6.2, https://matplotlib.org/</dc:title>
     </cc:Agent>
    </dc:creator>
   </cc:Work>
  </rdf:RDF>
 </metadata>
 <defs>
  <style type="text/css">*{stroke-linejoin: round; stroke-linecap: butt}</style>
 </defs>
 <g id="figure_1">
  <g id="patch_1">
   <path d="M 0 457.92 
L 795.6 457.92 
L 795.6 0 
L 0 0 
z
" style="fill: #ffffff"/>
  </g>
  <g id="axes_1">
   <g id="patch_2">
    <path d="M 38.448 180.1728 
L 194.688 180.1728 
Q 210.312 180.1728 210.312 171.3024 
L 210.312 47.1168 
Q 210.312 38.2464 194.688 38.2464 
L 38.448 38.2464 
Q 22.824 38.2464 22.824 47.1168 
L 22.824 171.3024 
Q 22.824 180.1728 38.448 180.1728 
z
" clip-path="url(#p283f2dba8b)" style="fill: #e6f4ea; stroke: #2f855a; stroke-width: 1.4; stroke-linejoin: miter"/>
   </g>
   <g id="patch_3">
    <path d="M 241.56 180.1728 
L 366.552 180.1728 
Q 382.176 180.1728 382.176 171.3024 
L 382.176 47.1168 
Q 382.176 38.2464 366.552 38.2464 
L 241.56 38.2464 
Q 225.936 38.2464 225.936 47.1168 
L 225.936 171.3024 
Q 225.936 180.1728 241.56 180.1728 
z
" clip-path="url(#p283f2dba8b)" style="fill: #eaf2ff; stroke: #2c5282; stroke-width: 1.4; stroke-linejoin: miter"/>
   </g>
   <g id="patch_4">
    <path d="M 38.448 379.7568 
L 366.552 379.7568 
Q 382.176 379.7568 382.176 370.8864 
L 382.176 211.2192 
Q 382.176 202.3488 366.552 202.3488 
L 38.448 202.3488 
Q 22.824 202.3488 22.824 211.2192 
L 22.824 370.8864 
Q 22.824 379.7568 38.448 379.7568 
z
" clip-path="url(#p283f2dba8b)" style="fill: #fff7e6; stroke: #b7791f; stroke-width: 1.4; stroke-linejoin: miter"/>
   </g>
   <g id="patch_5">
    <path d="M 421.236 379.7568 
L 639.972 379.7568 
Q 655.596 379.7568 655.596 370.8864 
L 655.596 47.1168 
Q 655.596 38.2464 639.972 38.2464 
L 421.236 38.2464 
Q 405.612 38.2464 405.612 47.1168 
L 405.612 370.8864 
Q 405.612 379.7568 421.236 379.7568 
z
" clip-path="url(#p283f2dba8b)" style="fill: #f5eeff; stroke: #6b46c1; stroke-width: 1.4; stroke-linejoin: miter"/>
   </g>
   <g id="patch_6">
    <path d="M 671.22 379.7568 
L 757.152 379.7568 
Q 772.776 379.7568 772.776 370.8864 
L 772.776 47.1168 
Q 772.776 38.2464 757.152 38.2464 
L 671.22 38.2464 
Q 655.596 38.2464 655.596 47.1168 
L 655.596 370.8864 
Q 655.596 379.7568 671.22 379.7568 
z
" clip-path="url(#p283f2dba8b)" style="fill: #ffeded; stroke: #c53030; stroke-width: 1.4; stroke-linejoin: miter"/>
   </g>
   <g id="patch_7">
    <path d="M 54.072 126.9504 
L 179.064 126.9504 
Q 194.688 126.9504 194.688 118.08 
L 194.688 64.8576 
Q 194.688 55.9872 179.064 55.9872 
L 54.072 55.9872 
Q 38.448 55.9872 38.448 64.8576 
L 38.448 118.08 
Q 38.448 126.9504 54.072 126.9504 
z
" clip-path="url(#p283f2dba8b)" style="fill: #ffffff; stroke: #2f855a; stroke-width: 1.4; stroke-linejoin: miter"/>
   </g>
   <g id="patch_8">
    <path d="M 54.072 171.3024 
L 179.064 171.3024 
Q 194.688 171.3024 194.688 162.432 
L 194.688 135.8208 
Q 194.688 126.9504 179.064 126.9504 
L 54.072 126.9504 
Q 38.448 126.9504 38.448 135.8208 
L 38.448 162.432 
Q 38.448 171.3024 54.072 171.3024 
z
" clip-path="url(#p283f2dba8b)" style="fill: #ffffff; stroke: #2f855a; stroke-width: 1.4; stroke-linejoin: miter"/>
   </g>
   <g id="patch_9">
    <path d="M 257.184 122.5152 
L 350.928 122.5152 
Q 366.552 122.5152 366.552 113.6448 
L 366.552 78.1632 
Q 366.552 69.2928 350.928 69.2928 
L 257.184 69.2928 
Q 241.56 69.2928 241.56 78.1632 
L 241.56 113.6448 
Q 241.56 122.5152 257.184 122.5152 
z
" clip-path="url(#p283f2dba8b)" style="fill: #ffffff; stroke: #2c5282; stroke-width: 1.4; stroke-linejoin: miter"/>
   </g>
   <g id="patch_10">
    <path d="M 257.184 171.3024 
L 350.928 171.3024 
Q 366.552 171.3024 366.552 162.432 
L 366.552 135.8208 
Q 366.552 126.9504 350.928 126.9504 
L 257.184 126.9504 
Q 241.56 126.9504 241.56 135.8208 
L 241.56 162.432 
Q 241.56 171.3024 257.184 171.3024 
z
" clip-path="url(#p283f2dba8b)" style="fill: #ffffff; stroke: #2c5282; stroke-width: 1.4; stroke-linejoin: miter"/>
   </g>
   <g id="patch_11">
    <path d="M 61.884 268.8768 
L 171.252 268.8768 
Q 186.876 268.8768 186.876 260.0064 
L 186.876 228.96 
Q 186.876 220.0896 171.252 220.0896 
L 61.884 220.0896 
Q 46.26 220.0896 46.26 228.96 
L 46.26 260.0064 
Q 46.26 268.8768 61.884 268.8768 
z
" clip-path="url(#p283f2dba8b)" style="fill: #ffffff; stroke: #b7791f; stroke-width: 1.4; stroke-linejoin: miter"/>
   </g>
   <g id="patch_12">
    <path d="M 202.5 268.8768 
L 343.116 268.8768 
Q 358.74 268.8768 358.74 260.0064 
L 358.74 228.96 
Q 358.74 220.0896 343.116 220.0896 
L 202.5 220.0896 
Q 186.876 220.0896 186.876 228.96 
L 186.876 260.0064 
Q 186.876 268.8768 202.5 268.8768 
z
" clip-path="url(#p283f2dba8b)" style="fill: #ffffff; stroke: #b7791f; stroke-width: 1.4; stroke-linejoin: miter"/>
   </g>
   <g id="patch_13">
    <path d="M 61.884 326.5344 
L 343.116 326.5344 
Q 358.74 326.5344 358.74 317.664 
L 358.74 282.1824 
Q 358.74 273.312 343.116 273.312 
L 61.884 273.312 
Q 46.26 273.312 46.26 282.1824 
L 46.26 317.664 
Q 46.26 326.5344 61.884 326.5344 
z
" clip-path="url(#p283f2dba8b)" style="fill: #ffffff; stroke: #b7791f; stroke-width: 1.4; stroke-linejoin: miter"/>
   </g>
   <g id="patch_14">
    <path d="M 61.884 366.4512 
L 343.116 366.4512 
Q 358.74 366.4512 358.74 357.5808 
L 358.74 335.4048 
Q 358.74 326.5344 343.116 326.5344 
L 61.884 326.5344 
Q 46.26 326.5344 46.26 335.4048 
L 46.26 357.5808 
Q 46.26 366.4512 61.884 366.4512 
z
" clip-path="url(#p283f2dba8b)" style="fill: #ffffff; stroke: #b7791f; stroke-width: 1.4; stroke-linejoin: miter"/>
   </g>
   <g id="patch_15">
    <path d="M 436.86 126.9504 
L 624.348 126.9504 
Q 639.972 126.9504 639.972 118.08 
L 639.972 55.9872 
Q 639.972 47.1168 624.348 47.1168 
L 436.86 47.1168 
Q 421.236 47.1168 421.236 55.9872 
L 421.236 118.08 
Q 421.236 126.9504 436.86 126.9504 
z
" clip-path="url(#p283f2dba8b)" style="fill: #ffffff; stroke: #6b46c1; stroke-width: 1.4; stroke-linejoin: miter"/>
   </g>
   <g id="patch_16">
    <path d="M 436.86 220.0896 
L 624.348 220.0896 
Q 639.972 220.0896 639.972 211.2192 
L 639.972 140.256 
Q 639.972 131.3856 624.348 131.3856 
L 436.86 131.3856 
Q 421.236 131.3856 421.236 140.256 
L 421.236 211.2192 
Q 421.236 220.0896 436.86 220.0896 
z
" clip-path="url(#p283f2dba8b)" style="fill: #ffffff; stroke: #6b46c1; stroke-width: 1.4; stroke-linejoin: miter"/>
   </g>
   <g id="patch_17">
    <path d="M 436.86 295.488 
L 624.348 295.488 
Q 639.972 295.488 639.972 286.6176 
L 639.972 233.3952 
Q 639.972 224.5248 624.348 224.5248 
L 436.86 224.5248 
Q 421.236 224.5248 421.236 233.3952 
L 421.236 286.6176 
Q 421.236 295.488 436.86 295.488 
z
" clip-path="url(#p283f2dba8b)" style="fill: #ffffff; stroke: #6b46c1; stroke-width: 1.4; stroke-linejoin: miter"/>
   </g>
   <g id="patch_18">
    <path d="M 436.86 357.5808 
L 624.348 357.5808 
Q 639.972 357.5808 639.972 348.7104 
L 639.972 313.2288 
Q 639.972 304.3584 624.348 304.3584 
L 436.86 304.3584 
Q 421.236 304.3584 421.236 313.2288 
L 421.236 348.7104 
Q 421.236 357.5808 436.86 357.5808 
z
" clip-path="url(#p283f2dba8b)" style="fill: #ffffff; stroke: #6b46c1; stroke-width: 1.4; stroke-linejoin: miter"/>
   </g>
   <g id="patch_19">
    <path d="M 686.844 153.5616 
L 741.528 153.5616 
Q 757.152 153.5616 757.152 144.6912 
L 757.152 91.4688 
Q 757.152 82.5984 741.528 82.5984 
L 686.844 82.5984 
Q 671.22 82.5984 671.22 91.4688 
L 671.22 144.6912 
Q 671.22 153.5616 686.844 153.5616 
z
" clip-path="url(#p283f2dba8b)" style="fill: #ffffff; stroke: #c53030; stroke-width: 1.4; stroke-linejoin: miter"/>
   </g>
   <g id="patch_20">
    <path d="M 686.844 237.8304 
L 741.528 237.8304 
Q 757.152 237.8304 757.152 228.96 
L 757.152 175.7376 
Q 757.152 166.8672 741.528 166.8672 
L 686.844 166.8672 
Q 671.22 166.8672 671.22 175.7376 
L 671.22 228.96 
Q 671.22 237.8304 686.844 237.8304 
z
" clip-path="url(#p283f2dba8b)" style="fill: #ffffff; stroke: #c53030; stroke-width: 1.4; stroke-linejoin: miter"/>
   </g>
   <g id="patch_21">
    <path d="M 686.844 322.0992 
L 741.528 322.0992 
Q 757.152 322.0992 757.152 313.2288 
L 757.152 260.0064 
Q 757.152 251.136 741.528 251.136 
L 686.844 251.136 
Q 671.22 251.136 671.22 260.0064 
L 671.22 313.2288 
Q 671.22 322.0992 686.844 322.0992 
z
" clip-path="url(#p283f2dba8b)" style="fill: #ffffff; stroke: #c53030; stroke-width: 1.4; stroke-linejoin: miter"/>
   </g>
   <g id="text_1">
    <!-- Data Layer -->
    <g style="fill: #14532d" transform="translate(79.908 68.0751) scale(0.12 -0.12)">
     <defs>
      <path id="DejaVuSans-Bold-44" d="M 1791 3756 
L 1791 909 
L 2222 909 
Q 2959 909 3348 1275 
Q 3738 1641 3738 2338 
Q 3738 3031 3350 3393 
Q 2963 3756 2222 3756 
L 1791 3756 
z
M 588 4666 
L 1856 4666 
Q 2919 4666 3439 4514 
Q 3959 4363 4331 4000 
Q 4659 3684 4818 3271 
Q 4978 2859 4978 2338 
Q 4978 1809 4818 1395 
Q 4659 981 4331 666 
Q 3956 303 3431 151 
Q 2906 0 1856 0 
L 588 0 
L 588 4666 
z
" transform="scale(0.015625)"/>
      <path id="DejaVuSans-Bold-61" d="M 2106 1575 
Q 1756 1575 1579 1456 
Q 1403 1338 1403 1106 
Q 1403 894 1545 773 
Q 1688 653 1941 653 
Q 2256 653 2472 879 
Q 2688 1106 2688 1447 
L 2688 1575 
L 2106 1575 
z
M 3816 1997 
L 3816 0 
L 2688 0 
L 2688 519 
Q 2463 200 2181 54 
Q 1900 -91 1497 -91 
Q 953 -91 614 226 
Q 275 544 275 1050 
Q 275 1666 698 1953 
Q 1122 2241 2028 2241 
L 2688 2241 
L 2688 2328 
Q 2688 2594 2478 2717 
Q 2269 2841 1825 2841 
Q 1466 2841 1156 2769 
Q 847 2697 581 2553 
L 581 3406 
Q 941 3494 1303 3539 
Q 1666 3584 2028 3584 
Q 2975 3584 3395 3211 
Q 3816 2838 3816 1997 
z
" transform="scale(0.015625)"/>
      <path id="DejaVuSans-Bold-74" d="M 1759 4494 
L 1759 3500 
L 2913 3500 
L 2913 2700 
L 1759 2700 
L 1759 1216 
Q 1759 972 1856 886 
Q 1953 800 2241 800 
L 2816 800 
L 2816 0 
L 1856 0 
Q 1194 0 917 276 
Q 641 553 641 1216 
L 641 2700 
L 84 2700 
L 84 3500 
L 641 3500 
L 641 4494 
L 1759 4494 
z
" transform="scale(0.015625)"/>
      <path id="DejaVuSans-Bold-20" transform="scale(0.015625)"/>
      <path id="DejaVuSans-Bold-4c" d="M 588 4666 
L 1791 4666 
L 1791 909 
L 3903 909 
L 3903 0 
L 588 0 
L 588 4666 
z
" transform="scale(0.015625)"/>
      <path id="DejaVuSans-Bold-79" d="M 78 3500 
L 1197 3500 
L 2138 1125 
L 2938 3500 
L 4056 3500 
L 2584 -331 
Q 2363 -916 2067 -1148 
Q 1772 -1381 1288 -1381 
L 641 -1381 
L 641 -647 
L 991 -647 
Q 1275 -647 1404 -556 
Q 1534 -466 1606 -231 
L 1638 -134 
L 78 3500 
z
" transform="scale(0.015625)"/>
      <path id="DejaVuSans-Bold-65" d="M 4031 1759 
L 4031 1441 
L 1416 1441 
Q 1456 1047 1700 850 
Q 1944 653 2381 653 
Q 2734 653 3104 758 
Q 3475 863 3866 1075 
L 3866 213 
Q 3469 63 3072 -14 
Q 2675 -91 2278 -91 
Q 1328 -91 801 392 
Q 275 875 275 1747 
Q 275 2603 792 3093 
Q 1309 3584 2216 3584 
Q 3041 3584 3536 3087 
Q 4031 2591 4031 1759 
z
M 2881 2131 
Q 2881 2450 2695 2645 
Q 2509 2841 2209 2841 
Q 1884 2841 1681 2658 
Q 1478 2475 1428 2131 
L 2881 2131 
z
" transform="scale(0.015625)"/>
      <path id="DejaVuSans-Bold-72" d="M 3138 2547 
Q 2991 2616 2845 2648 
Q 2700 2681 2553 2681 
Q 2122 2681 1889 2404 
Q 1656 2128 1656 1613 
L 1656 0 
L 538 0 
L 538 3500 
L 1656 3500 
L 1656 2925 
Q 1872 3269 2151 3426 
Q 2431 3584 2822 3584 
Q 2878 3584 2943 3579 
Q 3009 3575 3134 3559 
L 3138 2547 
z
" transform="scale(0.015625)"/>
     </defs>
     <use xlink:href="#DejaVuSans-Bold-44"/>
     <use xlink:href="#DejaVuSans-Bold-61" x="83.007812"/>
     <use xlink:href="#DejaVuSans-Bold-74" x="150.488281"/>
     <use xlink:href="#DejaVuSans-Bold-61" x="198.291016"/>
     <use xlink:href="#DejaVuSans-Bold-20" x="265.771484"/>
     <use xlink:href="#DejaVuSans-Bold-4c" x="300.585938"/>
     <use xlink:href="#DejaVuSans-Bold-61" x="364.306641"/>
     <use xlink:href="#DejaVuSans-Bold-79" x="428.662109"/>
     <use xlink:href="#DejaVuSans-Bold-65" x="493.847656"/>
     <use xlink:href="#DejaVuSans-Bold-72" x="561.669922"/>
    </g>
   </g>
   <g id="text_2">
    <!-- Config Layer -->
    <g style="fill: #1e3a8a" transform="translate(261.584437 68.121975) scale(0.12 -0.12)">
     <defs>
      <path id="DejaVuSans-Bold-43" d="M 4288 256 
Q 3956 84 3597 -3 
Q 3238 -91 2847 -91 
Q 1681 -91 1000 561 
Q 319 1213 319 2328 
Q 319 3447 1000 4098 
Q 1681 4750 2847 4750 
Q 3238 4750 3597 4662 
Q 3956 4575 4288 4403 
L 4288 3438 
Q 3953 3666 3628 3772 
Q 3303 3878 2944 3878 
Q 2300 3878 1931 3465 
Q 1563 3053 1563 2328 
Q 1563 1606 1931 1193 
Q 2300 781 2944 781 
Q 3303 781 3628 887 
Q 3953 994 4288 1222 
L 4288 256 
z
" transform="scale(0.015625)"/>
      <path id="DejaVuSans-Bold-6f" d="M 2203 2784 
Q 1831 2784 1636 2517 
Q 1441 2250 1441 1747 
Q 1441 1244 1636 976 
Q 1831 709 2203 709 
Q 2569 709 2762 976 
Q 2956 1244 2956 1747 
Q 2956 2250 2762 2517 
Q 2569 2784 2203 2784 
z
M 2203 3584 
Q 3106 3584 3614 3096 
Q 4122 2609 4122 1747 
Q 4122 884 3614 396 
Q 3106 -91 2203 -91 
Q 1297 -91 786 396 
Q 275 884 275 1747 
Q 275 2609 786 3096 
Q 1297 3584 2203 3584 
z
" transform="scale(0.015625)"/>
      <path id="DejaVuSans-Bold-6e" d="M 4056 2131 
L 4056 0 
L 2931 0 
L 2931 347 
L 2931 1631 
Q 2931 2084 2911 2256 
Q 2891 2428 2841 2509 
Q 2775 2619 2662 2680 
Q 2550 2741 2406 2741 
Q 2056 2741 1856 2470 
Q 1656 2200 1656 1722 
L 1656 0 
L 538 0 
L 538 3500 
L 1656 3500 
L 1656 2988 
Q 1909 3294 2193 3439 
Q 2478 3584 2822 3584 
Q 3428 3584 3742 3212 
Q 4056 2841 4056 2131 
z
" transform="scale(0.015625)"/>
      <path id="DejaVuSans-Bold-66" d="M 2841 4863 
L 2841 4128 
L 2222 4128 
Q 1984 4128 1890 4042 
Q 1797 3956 1797 3744 
L 1797 3500 
L 2753 3500 
L 2753 2700 
L 1797 2700 
L 1797 0 
L 678 0 
L 678 2700 
L 122 2700 
L 122 3500 
L 678 3500 
L 678 3744 
Q 678 4316 997 4589 
Q 1316 4863 1984 4863 
L 2841 4863 
z
" transform="scale(0.015625)"/>
      <path id="DejaVuSans-Bold-69" d="M 538 3500 
L 1656 3500 
L 1656 0 
L 538 0 
L 538 3500 
z
M 538 4863 
L 1656 4863 
L 1656 3950 
L 538 3950 
L 538 4863 
z
" transform="scale(0.015625)"/>
      <path id="DejaVuSans-Bold-67" d="M 2919 594 
Q 2688 288 2409 144 
Q 2131 0 1766 0 
Q 1125 0 706 504 
Q 288 1009 288 1791 
Q 288 2575 706 3076 
Q 1125 3578 1766 3578 
Q 2131 3578 2409 3434 
Q 2688 3291 2919 2981 
L 2919 3500 
L 4044 3500 
L 4044 353 
Q 4044 -491 3511 -936 
Q 2978 -1381 1966 -1381 
Q 1638 -1381 1331 -1331 
Q 1025 -1281 716 -1178 
L 716 -306 
Q 1009 -475 1290 -558 
Q 1572 -641 1856 -641 
Q 2406 -641 2662 -400 
Q 2919 -159 2919 353 
L 2919 594 
z
M 2181 2772 
Q 1834 2772 1640 2515 
Q 1447 2259 1447 1791 
Q 1447 1309 1634 1061 
Q 1822 813 2181 813 
Q 2531 813 2725 1069 
Q 2919 1325 2919 1791 
Q 2919 2259 2725 2515 
Q 2531 2772 2181 2772 
z
" transform="scale(0.015625)"/>
     </defs>
     <use xlink:href="#DejaVuSans-Bold-43"/>
     <use xlink:href="#DejaVuSans-Bold-6f" x="73.388672"/>
     <use xlink:href="#DejaVuSans-Bold-6e" x="142.089844"/>
     <use xlink:href="#DejaVuSans-Bold-66" x="213.28125"/>
     <use xlink:href="#DejaVuSans-Bold-69" x="256.787109"/>
     <use xlink:href="#DejaVuSans-Bold-67" x="291.064453"/>
     <use xlink:href="#DejaVuSans-Bold-20" x="362.646484"/>
     <use xlink:href="#DejaVuSans-Bold-4c" x="397.460938"/>
     <use xlink:href="#DejaVuSans-Bold-61" x="461.181641"/>
     <use xlink:href="#DejaVuSans-Bold-79" x="525.537109"/>
     <use xlink:href="#DejaVuSans-Bold-65" x="590.722656"/>
     <use xlink:href="#DejaVuSans-Bold-72" x="658.544922"/>
    </g>
   </g>
   <g id="text_3">
    <!-- Training Orchestration -->
    <g style="fill: #7c2d12" transform="translate(126.297188 223.353975) scale(0.12 -0.12)">
     <defs>
      <path id="DejaVuSans-Bold-54" d="M 31 4666 
L 4331 4666 
L 4331 3756 
L 2784 3756 
L 2784 0 
L 1581 0 
L 1581 3756 
L 31 3756 
L 31 4666 
z
" transform="scale(0.015625)"/>
      <path id="DejaVuSans-Bold-4f" d="M 2719 3878 
Q 2169 3878 1866 3472 
Q 1563 3066 1563 2328 
Q 1563 1594 1866 1187 
Q 2169 781 2719 781 
Q 3272 781 3575 1187 
Q 3878 1594 3878 2328 
Q 3878 3066 3575 3472 
Q 3272 3878 2719 3878 
z
M 2719 4750 
Q 3844 4750 4481 4106 
Q 5119 3463 5119 2328 
Q 5119 1197 4481 553 
Q 3844 -91 2719 -91 
Q 1597 -91 958 553 
Q 319 1197 319 2328 
Q 319 3463 958 4106 
Q 1597 4750 2719 4750 
z
" transform="scale(0.015625)"/>
      <path id="DejaVuSans-Bold-63" d="M 3366 3391 
L 3366 2478 
Q 3138 2634 2908 2709 
Q 2678 2784 2431 2784 
Q 1963 2784 1702 2511 
Q 1441 2238 1441 1747 
Q 1441 1256 1702 982 
Q 1963 709 2431 709 
Q 2694 709 2930 787 
Q 3166 866 3366 1019 
L 3366 103 
Q 3103 6 2833 -42 
Q 2563 -91 2291 -91 
Q 1344 -91 809 395 
Q 275 881 275 1747 
Q 275 2613 809 3098 
Q 1344 3584 2291 3584 
Q 2566 3584 2833 3536 
Q 3100 3488 3366 3391 
z
" transform="scale(0.015625)"/>
      <path id="DejaVuSans-Bold-68" d="M 4056 2131 
L 4056 0 
L 2931 0 
L 2931 347 
L 2931 1625 
Q 2931 2084 2911 2256 
Q 2891 2428 2841 2509 
Q 2775 2619 2662 2680 
Q 2550 2741 2406 2741 
Q 2056 2741 1856 2470 
Q 1656 2200 1656 1722 
L 1656 0 
L 538 0 
L 538 4863 
L 1656 4863 
L 1656 2988 
Q 1909 3294 2193 3439 
Q 2478 3584 2822 3584 
Q 3428 3584 3742 3212 
Q 4056 2841 4056 2131 
z
" transform="scale(0.015625)"/>
      <path id="DejaVuSans-Bold-73" d="M 3272 3391 
L 3272 2541 
Q 2913 2691 2578 2766 
Q 2244 2841 1947 2841 
Q 1628 2841 1473 2761 
Q 1319 2681 1319 2516 
Q 1319 2381 1436 2309 
Q 1553 2238 1856 2203 
L 2053 2175 
Q 2913 2066 3209 1816 
Q 3506 1566 3506 1031 
Q 3506 472 3093 190 
Q 2681 -91 1863 -91 
Q 1516 -91 1145 -36 
Q 775 19 384 128 
L 384 978 
Q 719 816 1070 734 
Q 1422 653 1784 653 
Q 2113 653 2278 743 
Q 2444 834 2444 1013 
Q 2444 1163 2330 1236 
Q 2216 1309 1875 1350 
L 1678 1375 
Q 931 1469 631 1722 
Q 331 1975 331 2491 
Q 331 3047 712 3315 
Q 1094 3584 1881 3584 
Q 2191 3584 2531 3537 
Q 2872 3491 3272 3391 
z
" transform="scale(0.015625)"/>
     </defs>
     <use xlink:href="#DejaVuSans-Bold-54"/>
     <use xlink:href="#DejaVuSans-Bold-72" x="57.212891"/>
     <use xlink:href="#DejaVuSans-Bold-61" x="106.529297"/>
     <use xlink:href="#DejaVuSans-Bold-69" x="174.009766"/>
     <use xlink:href="#DejaVuSans-Bold-6e" x="208.287109"/>
     <use xlink:href="#DejaVuSans-Bold-69" x="279.478516"/>
     <use xlink:href="#DejaVuSans-Bold-6e" x="313.755859"/>
     <use xlink:href="#DejaVuSans-Bold-67" x="384.947266"/>
     <use xlink:href="#DejaVuSans-Bold-20" x="456.529297"/>
     <use xlink:href="#DejaVuSans-Bold-4f" x="491.34375"/>
     <use xlink:href="#DejaVuSans-Bold-72" x="576.353516"/>
     <use xlink:href="#DejaVuSans-Bold-63" x="625.669922"/>
     <use xlink:href="#DejaVuSans-Bold-68" x="684.947266"/>
     <use xlink:href="#DejaVuSans-Bold-65" x="756.138672"/>
     <use xlink:href="#DejaVuSans-Bold-73" x="823.960938"/>
     <use xlink:href="#DejaVuSans-Bold-74" x="883.482422"/>
     <use xlink:href="#DejaVuSans-Bold-72" x="931.285156"/>
     <use xlink:href="#DejaVuSans-Bold-61" x="980.601562"/>
     <use xlink:href="#DejaVuSans-Bold-74" x="1048.082031"/>
     <use xlink:href="#DejaVuSans-Bold-69" x="1095.884766"/>
     <use xlink:href="#DejaVuSans-Bold-6f" x="1130.162109"/>
     <use xlink:href="#DejaVuSans-Bold-6e" x="1198.863281"/>
    </g>
   </g>
   <g id="text_4">
    <!-- Model Zoo -->
    <g style="fill: #4c1d95" transform="translate(495.405563 63.73365) scale(0.12 -0.12)">
     <defs>
      <path id="DejaVuSans-Bold-4d" d="M 588 4666 
L 2119 4666 
L 3181 2169 
L 4250 4666 
L 5778 4666 
L 5778 0 
L 4641 0 
L 4641 3413 
L 3566 897 
L 2803 897 
L 1728 3413 
L 1728 0 
L 588 0 
L 588 4666 
z
" transform="scale(0.015625)"/>
      <path id="DejaVuSans-Bold-64" d="M 2919 2988 
L 2919 4863 
L 4044 4863 
L 4044 0 
L 2919 0 
L 2919 506 
Q 2688 197 2409 53 
Q 2131 -91 1766 -91 
Q 1119 -91 703 423 
Q 288 938 288 1747 
Q 288 2556 703 3070 
Q 1119 3584 1766 3584 
Q 2128 3584 2408 3439 
Q 2688 3294 2919 2988 
z
M 2181 722 
Q 2541 722 2730 984 
Q 2919 1247 2919 1747 
Q 2919 2247 2730 2509 
Q 2541 2772 2181 2772 
Q 1825 2772 1636 2509 
Q 1447 2247 1447 1747 
Q 1447 1247 1636 984 
Q 1825 722 2181 722 
z
" transform="scale(0.015625)"/>
      <path id="DejaVuSans-Bold-6c" d="M 538 4863 
L 1656 4863 
L 1656 0 
L 538 0 
L 538 4863 
z
" transform="scale(0.015625)"/>
      <path id="DejaVuSans-Bold-5a" d="M 359 4666 
L 4281 4666 
L 4281 3938 
L 1778 909 
L 4353 909 
L 4353 0 
L 288 0 
L 288 728 
L 2791 3756 
L 359 3756 
L 359 4666 
z
" transform="scale(0.015625)"/>
     </defs>
     <use xlink:href="#DejaVuSans-Bold-4d"/>
     <use xlink:href="#DejaVuSans-Bold-6f" x="99.511719"/>
     <use xlink:href="#DejaVuSans-Bold-64" x="168.212891"/>
     <use xlink:href="#DejaVuSans-Bold-65" x="239.794922"/>
     <use xlink:href="#DejaVuSans-Bold-6c" x="307.617188"/>
     <use xlink:href="#DejaVuSans-Bold-20" x="341.894531"/>
     <use xlink:href="#DejaVuSans-Bold-5a" x="376.708984"/>
     <use xlink:href="#DejaVuSans-Bold-6f" x="449.21875"/>
     <use xlink:href="#DejaVuSans-Bold-6f" x="517.919922"/>
    </g>
   </g>
   <g id="text_5">
    <!-- Outputs -->
    <g style="fill: #7f1d1d" transform="translate(686.941313 63.73365) scale(0.12 -0.12)">
     <defs>
      <path id="DejaVuSans-Bold-75" d="M 500 1363 
L 500 3500 
L 1625 3500 
L 1625 3150 
Q 1625 2866 1622 2436 
Q 1619 2006 1619 1863 
Q 1619 1441 1641 1255 
Q 1663 1069 1716 984 
Q 1784 875 1895 815 
Q 2006 756 2150 756 
Q 2500 756 2700 1025 
Q 2900 1294 2900 1772 
L 2900 3500 
L 4019 3500 
L 4019 0 
L 2900 0 
L 2900 506 
Q 2647 200 2364 54 
Q 2081 -91 1741 -91 
Q 1134 -91 817 281 
Q 500 653 500 1363 
z
" transform="scale(0.015625)"/>
      <path id="DejaVuSans-Bold-70" d="M 1656 506 
L 1656 -1331 
L 538 -1331 
L 538 3500 
L 1656 3500 
L 1656 2988 
Q 1888 3294 2169 3439 
Q 2450 3584 2816 3584 
Q 3463 3584 3878 3070 
Q 4294 2556 4294 1747 
Q 4294 938 3878 423 
Q 3463 -91 2816 -91 
Q 2450 -91 2169 54 
Q 1888 200 1656 506 
z
M 2400 2772 
Q 2041 2772 1848 2508 
Q 1656 2244 1656 1747 
Q 1656 1250 1848 986 
Q 2041 722 2400 722 
Q 2759 722 2948 984 
Q 3138 1247 3138 1747 
Q 3138 2247 2948 2509 
Q 2759 2772 2400 2772 
z
" transform="scale(0.015625)"/>
     </defs>
     <use xlink:href="#DejaVuSans-Bold-4f"/>
     <use xlink:href="#DejaVuSans-Bold-75" x="85.009766"/>
     <use xlink:href="#DejaVuSans-Bold-74" x="156.201172"/>
     <use xlink:href="#DejaVuSans-Bold-70" x="204.003906"/>
     <use xlink:href="#DejaVuSans-Bold-75" x="275.585938"/>
     <use xlink:href="#DejaVuSans-Bold-74" x="346.777344"/>
     <use xlink:href="#DejaVuSans-Bold-73" x="394.580078"/>
    </g>
   </g>
   <g id="text_6">
    <!-- Data/* -->
    <g transform="translate(100.445344 83.030362) scale(0.1 -0.1)">
     <defs>
      <path id="DejaVuSans-44" d="M 1259 4147 
L 1259 519 
L 2022 519 
Q 2988 519 3436 956 
Q 3884 1394 3884 2338 
Q 3884 3275 3436 3711 
Q 2988 4147 2022 4147 
L 1259 4147 
z
M 628 4666 
L 1925 4666 
Q 3281 4666 3915 4102 
Q 4550 3538 4550 2338 
Q 4550 1131 3912 565 
Q 3275 0 1925 0 
L 628 0 
L 628 4666 
z
" transform="scale(0.015625)"/>
      <path id="DejaVuSans-61" d="M 2194 1759 
Q 1497 1759 1228 1600 
Q 959 1441 959 1056 
Q 959 750 1161 570 
Q 1363 391 1709 391 
Q 2188 391 2477 730 
Q 2766 1069 2766 1631 
L 2766 1759 
L 2194 1759 
z
M 3341 1997 
L 3341 0 
L 2766 0 
L 2766 531 
Q 2569 213 2275 61 
Q 1981 -91 1556 -91 
Q 1019 -91 701 211 
Q 384 513 384 1019 
Q 384 1609 779 1909 
Q 1175 2209 1959 2209 
L 2766 2209 
L 2766 2266 
Q 2766 2663 2505 2880 
Q 2244 3097 1772 3097 
Q 1472 3097 1187 3025 
Q 903 2953 641 2809 
L 641 3341 
Q 956 3463 1253 3523 
Q 1550 3584 1831 3584 
Q 2591 3584 2966 3190 
Q 3341 2797 3341 1997 
z
" transform="scale(0.015625)"/>
      <path id="DejaVuSans-74" d="M 1172 4494 
L 1172 3500 
L 2356 3500 
L 2356 3053 
L 1172 3053 
L 1172 1153 
Q 1172 725 1289 603 
Q 1406 481 1766 481 
L 2356 481 
L 2356 0 
L 1766 0 
Q 1100 0 847 248 
Q 594 497 594 1153 
L 594 3053 
L 172 3053 
L 172 3500 
L 594 3500 
L 594 4494 
L 1172 4494 
z
" transform="scale(0.015625)"/>
      <path id="DejaVuSans-2f" d="M 1625 4666 
L 2156 4666 
L 531 -594 
L 0 -594 
L 1625 4666 
z
" transform="scale(0.015625)"/>
      <path id="DejaVuSans-2a" d="M 3009 3897 
L 1888 3291 
L 3009 2681 
L 2828 2375 
L 1778 3009 
L 1778 1831 
L 1422 1831 
L 1422 3009 
L 372 2375 
L 191 2681 
L 1313 3291 
L 191 3897 
L 372 4206 
L 1422 3572 
L 1422 4750 
L 1778 4750 
L 1778 3572 
L 2828 4206 
L 3009 3897 
z
" transform="scale(0.015625)"/>
     </defs>
     <use xlink:href="#DejaVuSans-44"/>
     <use xlink:href="#DejaVuSans-61" x="77.001953"/>
     <use xlink:href="#DejaVuSans-74" x="138.28125"/>
     <use xlink:href="#DejaVuSans-61" x="177.490234"/>
     <use xlink:href="#DejaVuSans-2f" x="238.769531"/>
     <use xlink:href="#DejaVuSans-2a" x="272.460938"/>
    </g>
    <!-- (baby, beauty, -->
    <g transform="translate(80.075031 94.228175) scale(0.1 -0.1)">
     <defs>
      <path id="DejaVuSans-28" d="M 1984 4856 
Q 1566 4138 1362 3434 
Q 1159 2731 1159 2009 
Q 1159 1288 1364 580 
Q 1569 -128 1984 -844 
L 1484 -844 
Q 1016 -109 783 600 
Q 550 1309 550 2009 
Q 550 2706 781 3412 
Q 1013 4119 1484 4856 
L 1984 4856 
z
" transform="scale(0.015625)"/>
      <path id="DejaVuSans-62" d="M 3116 1747 
Q 3116 2381 2855 2742 
Q 2594 3103 2138 3103 
Q 1681 3103 1420 2742 
Q 1159 2381 1159 1747 
Q 1159 1113 1420 752 
Q 1681 391 2138 391 
Q 2594 391 2855 752 
Q 3116 1113 3116 1747 
z
M 1159 2969 
Q 1341 3281 1617 3432 
Q 1894 3584 2278 3584 
Q 2916 3584 3314 3078 
Q 3713 2572 3713 1747 
Q 3713 922 3314 415 
Q 2916 -91 2278 -91 
Q 1894 -91 1617 61 
Q 1341 213 1159 525 
L 1159 0 
L 581 0 
L 581 4863 
L 1159 4863 
L 1159 2969 
z
" transform="scale(0.015625)"/>
      <path id="DejaVuSans-79" d="M 2059 -325 
Q 1816 -950 1584 -1140 
Q 1353 -1331 966 -1331 
L 506 -1331 
L 506 -850 
L 844 -850 
Q 1081 -850 1212 -737 
Q 1344 -625 1503 -206 
L 1606 56 
L 191 3500 
L 800 3500 
L 1894 763 
L 2988 3500 
L 3597 3500 
L 2059 -325 
z
" transform="scale(0.015625)"/>
      <path id="DejaVuSans-2c" d="M 750 794 
L 1409 794 
L 1409 256 
L 897 -744 
L 494 -744 
L 750 256 
L 750 794 
z
" transform="scale(0.015625)"/>
      <path id="DejaVuSans-20" transform="scale(0.015625)"/>
      <path id="DejaVuSans-65" d="M 3597 1894 
L 3597 1613 
L 953 1613 
Q 991 1019 1311 708 
Q 1631 397 2203 397 
Q 2534 397 2845 478 
Q 3156 559 3463 722 
L 3463 178 
Q 3153 47 2828 -22 
Q 2503 -91 2169 -91 
Q 1331 -91 842 396 
Q 353 884 353 1716 
Q 353 2575 817 3079 
Q 1281 3584 2069 3584 
Q 2775 3584 3186 3129 
Q 3597 2675 3597 1894 
z
M 3022 2063 
Q 3016 2534 2758 2815 
Q 2500 3097 2075 3097 
Q 1594 3097 1305 2825 
Q 1016 2553 972 2059 
L 3022 2063 
z
" transform="scale(0.015625)"/>
      <path id="DejaVuSans-75" d="M 544 1381 
L 544 3500 
L 1119 3500 
L 1119 1403 
Q 1119 906 1312 657 
Q 1506 409 1894 409 
Q 2359 409 2629 706 
Q 2900 1003 2900 1516 
L 2900 3500 
L 3475 3500 
L 3475 0 
L 2900 0 
L 2900 538 
Q 2691 219 2414 64 
Q 2138 -91 1772 -91 
Q 1169 -91 856 284 
Q 544 659 544 1381 
z
M 1991 3584 
L 1991 3584 
z
" transform="scale(0.015625)"/>
     </defs>
     <use xlink:href="#DejaVuSans-28"/>
     <use xlink:href="#DejaVuSans-62" x="39.013672"/>
     <use xlink:href="#DejaVuSans-61" x="102.490234"/>
     <use xlink:href="#DejaVuSans-62" x="163.769531"/>
     <use xlink:href="#DejaVuSans-79" x="227.246094"/>
     <use xlink:href="#DejaVuSans-2c" x="286.425781"/>
     <use xlink:href="#DejaVuSans-20" x="318.212891"/>
     <use xlink:href="#DejaVuSans-62" x="350"/>
     <use xlink:href="#DejaVuSans-65" x="413.476562"/>
     <use xlink:href="#DejaVuSans-61" x="475"/>
     <use xlink:href="#DejaVuSans-75" x="536.279297"/>
     <use xlink:href="#DejaVuSans-74" x="599.658203"/>
     <use xlink:href="#DejaVuSans-79" x="638.867188"/>
     <use xlink:href="#DejaVuSans-2c" x="698.046875"/>
    </g>
    <!-- clothing, ...) -->
    <g transform="translate(86.613313 105.425987) scale(0.1 -0.1)">
     <defs>
      <path id="DejaVuSans-63" d="M 3122 3366 
L 3122 2828 
Q 2878 2963 2633 3030 
Q 2388 3097 2138 3097 
Q 1578 3097 1268 2742 
Q 959 2388 959 1747 
Q 959 1106 1268 751 
Q 1578 397 2138 397 
Q 2388 397 2633 464 
Q 2878 531 3122 666 
L 3122 134 
Q 2881 22 2623 -34 
Q 2366 -91 2075 -91 
Q 1284 -91 818 406 
Q 353 903 353 1747 
Q 353 2603 823 3093 
Q 1294 3584 2113 3584 
Q 2378 3584 2631 3529 
Q 2884 3475 3122 3366 
z
" transform="scale(0.015625)"/>
      <path id="DejaVuSans-6c" d="M 603 4863 
L 1178 4863 
L 1178 0 
L 603 0 
L 603 4863 
z
" transform="scale(0.015625)"/>
      <path id="DejaVuSans-6f" d="M 1959 3097 
Q 1497 3097 1228 2736 
Q 959 2375 959 1747 
Q 959 1119 1226 758 
Q 1494 397 1959 397 
Q 2419 397 2687 759 
Q 2956 1122 2956 1747 
Q 2956 2369 2687 2733 
Q 2419 3097 1959 3097 
z
M 1959 3584 
Q 2709 3584 3137 3096 
Q 3566 2609 3566 1747 
Q 3566 888 3137 398 
Q 2709 -91 1959 -91 
Q 1206 -91 779 398 
Q 353 888 353 1747 
Q 353 2609 779 3096 
Q 1206 3584 1959 3584 
z
" transform="scale(0.015625)"/>
      <path id="DejaVuSans-68" d="M 3513 2113 
L 3513 0 
L 2938 0 
L 2938 2094 
Q 2938 2591 2744 2837 
Q 2550 3084 2163 3084 
Q 1697 3084 1428 2787 
Q 1159 2491 1159 1978 
L 1159 0 
L 581 0 
L 581 4863 
L 1159 4863 
L 1159 2956 
Q 1366 3272 1645 3428 
Q 1925 3584 2291 3584 
Q 2894 3584 3203 3211 
Q 3513 2838 3513 2113 
z
" transform="scale(0.015625)"/>
      <path id="DejaVuSans-69" d="M 603 3500 
L 1178 3500 
L 1178 0 
L 603 0 
L 603 3500 
z
M 603 4863 
L 1178 4863 
L 1178 4134 
L 603 4134 
L 603 4863 
z
" transform="scale(0.015625)"/>
      <path id="DejaVuSans-6e" d="M 3513 2113 
L 3513 0 
L 2938 0 
L 2938 2094 
Q 2938 2591 2744 2837 
Q 2550 3084 2163 3084 
Q 1697 3084 1428 2787 
Q 1159 2491 1159 1978 
L 1159 0 
L 581 0 
L 581 3500 
L 1159 3500 
L 1159 2956 
Q 1366 3272 1645 3428 
Q 1925 3584 2291 3584 
Q 2894 3584 3203 3211 
Q 3513 2838 3513 2113 
z
" transform="scale(0.015625)"/>
      <path id="DejaVuSans-67" d="M 2906 1791 
Q 2906 2416 2648 2759 
Q 2391 3103 1925 3103 
Q 1463 3103 1205 2759 
Q 947 2416 947 1791 
Q 947 1169 1205 825 
Q 1463 481 1925 481 
Q 2391 481 2648 825 
Q 2906 1169 2906 1791 
z
M 3481 434 
Q 3481 -459 3084 -895 
Q 2688 -1331 1869 -1331 
Q 1566 -1331 1297 -1286 
Q 1028 -1241 775 -1147 
L 775 -588 
Q 1028 -725 1275 -790 
Q 1522 -856 1778 -856 
Q 2344 -856 2625 -561 
Q 2906 -266 2906 331 
L 2906 616 
Q 2728 306 2450 153 
Q 2172 0 1784 0 
Q 1141 0 747 490 
Q 353 981 353 1791 
Q 353 2603 747 3093 
Q 1141 3584 1784 3584 
Q 2172 3584 2450 3431 
Q 2728 3278 2906 2969 
L 2906 3500 
L 3481 3500 
L 3481 434 
z
" transform="scale(0.015625)"/>
      <path id="DejaVuSans-2e" d="M 684 794 
L 1344 794 
L 1344 0 
L 684 0 
L 684 794 
z
" transform="scale(0.015625)"/>
      <path id="DejaVuSans-29" d="M 513 4856 
L 1013 4856 
Q 1481 4119 1714 3412 
Q 1947 2706 1947 2009 
Q 1947 1309 1714 600 
Q 1481 -109 1013 -844 
L 513 -844 
Q 928 -128 1133 580 
Q 1338 1288 1338 2009 
Q 1338 2731 1133 3434 
Q 928 4138 513 4856 
z
" transform="scale(0.015625)"/>
     </defs>
     <use xlink:href="#DejaVuSans-63"/>
     <use xlink:href="#DejaVuSans-6c" x="54.980469"/>
     <use xlink:href="#DejaVuSans-6f" x="82.763672"/>
     <use xlink:href="#DejaVuSans-74" x="143.945312"/>
     <use xlink:href="#DejaVuSans-68" x="183.154297"/>
     <use xlink:href="#DejaVuSans-69" x="246.533203"/>
     <use xlink:href="#DejaVuSans-6e" x="274.316406"/>
     <use xlink:href="#DejaVuSans-67" x="337.695312"/>
     <use xlink:href="#DejaVuSans-2c" x="401.171875"/>
     <use xlink:href="#DejaVuSans-20" x="432.958984"/>
     <use xlink:href="#DejaVuSans-2e" x="464.746094"/>
     <use xlink:href="#DejaVuSans-2e" x="496.533203"/>
     <use xlink:href="#DejaVuSans-2e" x="528.320312"/>
     <use xlink:href="#DejaVuSans-29" x="560.107422"/>
    </g>
   </g>
   <g id="text_7">
    <!-- train.npy / val.npy / test.npy -->
    <g transform="translate(52.622297 146.445666) scale(0.09 -0.09)">
     <defs>
      <path id="DejaVuSans-72" d="M 2631 2963 
Q 2534 3019 2420 3045 
Q 2306 3072 2169 3072 
Q 1681 3072 1420 2755 
Q 1159 2438 1159 1844 
L 1159 0 
L 581 0 
L 581 3500 
L 1159 3500 
L 1159 2956 
Q 1341 3275 1631 3429 
Q 1922 3584 2338 3584 
Q 2397 3584 2469 3576 
Q 2541 3569 2628 3553 
L 2631 2963 
z
" transform="scale(0.015625)"/>
      <path id="DejaVuSans-70" d="M 1159 525 
L 1159 -1331 
L 581 -1331 
L 581 3500 
L 1159 3500 
L 1159 2969 
Q 1341 3281 1617 3432 
Q 1894 3584 2278 3584 
Q 2916 3584 3314 3078 
Q 3713 2572 3713 1747 
Q 3713 922 3314 415 
Q 2916 -91 2278 -91 
Q 1894 -91 1617 61 
Q 1341 213 1159 525 
z
M 3116 1747 
Q 3116 2381 2855 2742 
Q 2594 3103 2138 3103 
Q 1681 3103 1420 2742 
Q 1159 2381 1159 1747 
Q 1159 1113 1420 752 
Q 1681 391 2138 391 
Q 2594 391 2855 752 
Q 3116 1113 3116 1747 
z
" transform="scale(0.015625)"/>
      <path id="DejaVuSans-76" d="M 191 3500 
L 800 3500 
L 1894 563 
L 2988 3500 
L 3597 3500 
L 2284 0 
L 1503 0 
L 191 3500 
z
" transform="scale(0.015625)"/>
      <path id="DejaVuSans-73" d="M 2834 3397 
L 2834 2853 
Q 2591 2978 2328 3040 
Q 2066 3103 1784 3103 
Q 1356 3103 1142 2972 
Q 928 2841 928 2578 
Q 928 2378 1081 2264 
Q 1234 2150 1697 2047 
L 1894 2003 
Q 2506 1872 2764 1633 
Q 3022 1394 3022 966 
Q 3022 478 2636 193 
Q 2250 -91 1575 -91 
Q 1294 -91 989 -36 
Q 684 19 347 128 
L 347 722 
Q 666 556 975 473 
Q 1284 391 1588 391 
Q 1994 391 2212 530 
Q 2431 669 2431 922 
Q 2431 1156 2273 1281 
Q 2116 1406 1581 1522 
L 1381 1569 
Q 847 1681 609 1914 
Q 372 2147 372 2553 
Q 372 3047 722 3315 
Q 1072 3584 1716 3584 
Q 2034 3584 2315 3537 
Q 2597 3491 2834 3397 
z
" transform="scale(0.015625)"/>
     </defs>
     <use xlink:href="#DejaVuSans-74"/>
     <use xlink:href="#DejaVuSans-72" x="39.208984"/>
     <use xlink:href="#DejaVuSans-61" x="80.322266"/>
     <use xlink:href="#DejaVuSans-69" x="141.601562"/>
     <use xlink:href="#DejaVuSans-6e" x="169.384766"/>
     <use xlink:href="#DejaVuSans-2e" x="232.763672"/>
     <use xlink:href="#DejaVuSans-6e" x="264.550781"/>
     <use xlink:href="#DejaVuSans-70" x="327.929688"/>
     <use xlink:href="#DejaVuSans-79" x="391.40625"/>
     <use xlink:href="#DejaVuSans-20" x="450.585938"/>
     <use xlink:href="#DejaVuSans-2f" x="482.373047"/>
     <use xlink:href="#DejaVuSans-20" x="516.064453"/>
     <use xlink:href="#DejaVuSans-76" x="547.851562"/>
     <use xlink:href="#DejaVuSans-61" x="607.03125"/>
     <use xlink:href="#DejaVuSans-6c" x="668.310547"/>
     <use xlink:href="#DejaVuSans-2e" x="696.09375"/>
     <use xlink:href="#DejaVuSans-6e" x="727.880859"/>
     <use xlink:href="#DejaVuSans-70" x="791.259766"/>
     <use xlink:href="#DejaVuSans-79" x="854.736328"/>
     <use xlink:href="#DejaVuSans-20" x="913.916016"/>
     <use xlink:href="#DejaVuSans-2f" x="945.703125"/>
     <use xlink:href="#DejaVuSans-20" x="979.394531"/>
     <use xlink:href="#DejaVuSans-74" x="1011.181641"/>
     <use xlink:href="#DejaVuSans-65" x="1050.390625"/>
     <use xlink:href="#DejaVuSans-73" x="1111.914062"/>
     <use xlink:href="#DejaVuSans-74" x="1164.013672"/>
     <use xlink:href="#DejaVuSans-2e" x="1203.222656"/>
     <use xlink:href="#DejaVuSans-6e" x="1235.009766"/>
     <use xlink:href="#DejaVuSans-70" x="1298.388672"/>
     <use xlink:href="#DejaVuSans-79" x="1361.865234"/>
    </g>
    <!-- v_feat.npy / t_feat.npy -->
    <g transform="translate(65.909953 156.523697) scale(0.09 -0.09)">
     <defs>
      <path id="DejaVuSans-5f" d="M 3263 -1063 
L 3263 -1509 
L -63 -1509 
L -63 -1063 
L 3263 -1063 
z
" transform="scale(0.015625)"/>
      <path id="DejaVuSans-66" d="M 2375 4863 
L 2375 4384 
L 1825 4384 
Q 1516 4384 1395 4259 
Q 1275 4134 1275 3809 
L 1275 3500 
L 2222 3500 
L 2222 3053 
L 1275 3053 
L 1275 0 
L 697 0 
L 697 3053 
L 147 3053 
L 147 3500 
L 697 3500 
L 697 3744 
Q 697 4328 969 4595 
Q 1241 4863 1831 4863 
L 2375 4863 
z
" transform="scale(0.015625)"/>
     </defs>
     <use xlink:href="#DejaVuSans-76"/>
     <use xlink:href="#DejaVuSans-5f" x="59.179688"/>
     <use xlink:href="#DejaVuSans-66" x="109.179688"/>
     <use xlink:href="#DejaVuSans-65" x="144.384766"/>
     <use xlink:href="#DejaVuSans-61" x="205.908203"/>
     <use xlink:href="#DejaVuSans-74" x="267.1875"/>
     <use xlink:href="#DejaVuSans-2e" x="306.396484"/>
     <use xlink:href="#DejaVuSans-6e" x="338.183594"/>
     <use xlink:href="#DejaVuSans-70" x="401.5625"/>
     <use xlink:href="#DejaVuSans-79" x="465.039062"/>
     <use xlink:href="#DejaVuSans-20" x="524.21875"/>
     <use xlink:href="#DejaVuSans-2f" x="556.005859"/>
     <use xlink:href="#DejaVuSans-20" x="589.697266"/>
     <use xlink:href="#DejaVuSans-74" x="621.484375"/>
     <use xlink:href="#DejaVuSans-5f" x="660.693359"/>
     <use xlink:href="#DejaVuSans-66" x="710.693359"/>
     <use xlink:href="#DejaVuSans-65" x="745.898438"/>
     <use xlink:href="#DejaVuSans-61" x="807.421875"/>
     <use xlink:href="#DejaVuSans-74" x="868.701172"/>
     <use xlink:href="#DejaVuSans-2e" x="907.910156"/>
     <use xlink:href="#DejaVuSans-6e" x="939.697266"/>
     <use xlink:href="#DejaVuSans-70" x="1003.076172"/>
     <use xlink:href="#DejaVuSans-79" x="1066.552734"/>
    </g>
   </g>
   <g id="text_8">
    <!-- arg_parser.py -->
    <g transform="translate(270.052875 92.786344) scale(0.1 -0.1)">
     <use xlink:href="#DejaVuSans-61"/>
     <use xlink:href="#DejaVuSans-72" x="61.279297"/>
     <use xlink:href="#DejaVuSans-67" x="100.642578"/>
     <use xlink:href="#DejaVuSans-5f" x="164.119141"/>
     <use xlink:href="#DejaVuSans-70" x="214.119141"/>
     <use xlink:href="#DejaVuSans-61" x="277.595703"/>
     <use xlink:href="#DejaVuSans-72" x="338.875"/>
     <use xlink:href="#DejaVuSans-73" x="379.988281"/>
     <use xlink:href="#DejaVuSans-65" x="432.087891"/>
     <use xlink:href="#DejaVuSans-72" x="493.611328"/>
     <use xlink:href="#DejaVuSans-2e" x="525.599609"/>
     <use xlink:href="#DejaVuSans-70" x="557.386719"/>
     <use xlink:href="#DejaVuSans-79" x="620.863281"/>
    </g>
    <!-- (CLI args) -->
    <g transform="translate(280.002094 104.262281) scale(0.1 -0.1)">
     <defs>
      <path id="DejaVuSans-43" d="M 4122 4306 
L 4122 3641 
Q 3803 3938 3442 4084 
Q 3081 4231 2675 4231 
Q 1875 4231 1450 3742 
Q 1025 3253 1025 2328 
Q 1025 1406 1450 917 
Q 1875 428 2675 428 
Q 3081 428 3442 575 
Q 3803 722 4122 1019 
L 4122 359 
Q 3791 134 3420 21 
Q 3050 -91 2638 -91 
Q 1578 -91 968 557 
Q 359 1206 359 2328 
Q 359 3453 968 4101 
Q 1578 4750 2638 4750 
Q 3056 4750 3426 4639 
Q 3797 4528 4122 4306 
z
" transform="scale(0.015625)"/>
      <path id="DejaVuSans-4c" d="M 628 4666 
L 1259 4666 
L 1259 531 
L 3531 531 
L 3531 0 
L 628 0 
L 628 4666 
z
" transform="scale(0.015625)"/>
      <path id="DejaVuSans-49" d="M 628 4666 
L 1259 4666 
L 1259 0 
L 628 0 
L 628 4666 
z
" transform="scale(0.015625)"/>
     </defs>
     <use xlink:href="#DejaVuSans-28"/>
     <use xlink:href="#DejaVuSans-43" x="39.013672"/>
     <use xlink:href="#DejaVuSans-4c" x="108.837891"/>
     <use xlink:href="#DejaVuSans-49" x="164.550781"/>
     <use xlink:href="#DejaVuSans-20" x="194.042969"/>
     <use xlink:href="#DejaVuSans-61" x="225.830078"/>
     <use xlink:href="#DejaVuSans-72" x="287.109375"/>
     <use xlink:href="#DejaVuSans-67" x="326.472656"/>
     <use xlink:href="#DejaVuSans-73" x="389.949219"/>
     <use xlink:href="#DejaVuSans-29" x="442.048828"/>
    </g>
   </g>
   <g id="text_9">
    <!-- Model_YAML/*.yaml -->
    <g transform="translate(260.175375 146.445666) scale(0.09 -0.09)">
     <defs>
      <path id="DejaVuSans-4d" d="M 628 4666 
L 1569 4666 
L 2759 1491 
L 3956 4666 
L 4897 4666 
L 4897 0 
L 4281 0 
L 4281 4097 
L 3078 897 
L 2444 897 
L 1241 4097 
L 1241 0 
L 628 0 
L 628 4666 
z
" transform="scale(0.015625)"/>
      <path id="DejaVuSans-64" d="M 2906 2969 
L 2906 4863 
L 3481 4863 
L 3481 0 
L 2906 0 
L 2906 525 
Q 2725 213 2448 61 
Q 2172 -91 1784 -91 
Q 1150 -91 751 415 
Q 353 922 353 1747 
Q 353 2572 751 3078 
Q 1150 3584 1784 3584 
Q 2172 3584 2448 3432 
Q 2725 3281 2906 2969 
z
M 947 1747 
Q 947 1113 1208 752 
Q 1469 391 1925 391 
Q 2381 391 2643 752 
Q 2906 1113 2906 1747 
Q 2906 2381 2643 2742 
Q 2381 3103 1925 3103 
Q 1469 3103 1208 2742 
Q 947 2381 947 1747 
z
" transform="scale(0.015625)"/>
      <path id="DejaVuSans-59" d="M -13 4666 
L 666 4666 
L 1959 2747 
L 3244 4666 
L 3922 4666 
L 2272 2222 
L 2272 0 
L 1638 0 
L 1638 2222 
L -13 4666 
z
" transform="scale(0.015625)"/>
      <path id="DejaVuSans-41" d="M 2188 4044 
L 1331 1722 
L 3047 1722 
L 2188 4044 
z
M 1831 4666 
L 2547 4666 
L 4325 0 
L 3669 0 
L 3244 1197 
L 1141 1197 
L 716 0 
L 50 0 
L 1831 4666 
z
" transform="scale(0.015625)"/>
      <path id="DejaVuSans-6d" d="M 3328 2828 
Q 3544 3216 3844 3400 
Q 4144 3584 4550 3584 
Q 5097 3584 5394 3201 
Q 5691 2819 5691 2113 
L 5691 0 
L 5113 0 
L 5113 2094 
Q 5113 2597 4934 2840 
Q 4756 3084 4391 3084 
Q 3944 3084 3684 2787 
Q 3425 2491 3425 1978 
L 3425 0 
L 2847 0 
L 2847 2094 
Q 2847 2600 2669 2842 
Q 2491 3084 2119 3084 
Q 1678 3084 1418 2786 
Q 1159 2488 1159 1978 
L 1159 0 
L 581 0 
L 581 3500 
L 1159 3500 
L 1159 2956 
Q 1356 3278 1631 3431 
Q 1906 3584 2284 3584 
Q 2666 3584 2933 3390 
Q 3200 3197 3328 2828 
z
" transform="scale(0.015625)"/>
     </defs>
     <use xlink:href="#DejaVuSans-4d"/>
     <use xlink:href="#DejaVuSans-6f" x="86.279297"/>
     <use xlink:href="#DejaVuSans-64" x="147.460938"/>
     <use xlink:href="#DejaVuSans-65" x="210.9375"/>
     <use xlink:href="#DejaVuSans-6c" x="272.460938"/>
     <use xlink:href="#DejaVuSans-5f" x="300.244141"/>
     <use xlink:href="#DejaVuSans-59" x="350.244141"/>
     <use xlink:href="#DejaVuSans-41" x="403.578125"/>
     <use xlink:href="#DejaVuSans-4d" x="471.986328"/>
     <use xlink:href="#DejaVuSans-4c" x="558.265625"/>
     <use xlink:href="#DejaVuSans-2f" x="613.978516"/>
     <use xlink:href="#DejaVuSans-2a" x="647.669922"/>
     <use xlink:href="#DejaVuSans-2e" x="697.669922"/>
     <use xlink:href="#DejaVuSans-79" x="729.457031"/>
     <use xlink:href="#DejaVuSans-61" x="788.636719"/>
     <use xlink:href="#DejaVuSans-6d" x="849.916016"/>
     <use xlink:href="#DejaVuSans-6c" x="947.328125"/>
    </g>
    <!-- (grid search space) -->
    <g transform="translate(260.723109 156.774009) scale(0.09 -0.09)">
     <use xlink:href="#DejaVuSans-28"/>
     <use xlink:href="#DejaVuSans-67" x="39.013672"/>
     <use xlink:href="#DejaVuSans-72" x="102.490234"/>
     <use xlink:href="#DejaVuSans-69" x="143.603516"/>
     <use xlink:href="#DejaVuSans-64" x="171.386719"/>
     <use xlink:href="#DejaVuSans-20" x="234.863281"/>
     <use xlink:href="#DejaVuSans-73" x="266.650391"/>
     <use xlink:href="#DejaVuSans-65" x="318.75"/>
     <use xlink:href="#DejaVuSans-61" x="380.273438"/>
     <use xlink:href="#DejaVuSans-72" x="441.552734"/>
     <use xlink:href="#DejaVuSans-63" x="480.416016"/>
     <use xlink:href="#DejaVuSans-68" x="535.396484"/>
     <use xlink:href="#DejaVuSans-20" x="598.775391"/>
     <use xlink:href="#DejaVuSans-73" x="630.5625"/>
     <use xlink:href="#DejaVuSans-70" x="682.662109"/>
     <use xlink:href="#DejaVuSans-61" x="746.138672"/>
     <use xlink:href="#DejaVuSans-63" x="807.417969"/>
     <use xlink:href="#DejaVuSans-65" x="862.398438"/>
     <use xlink:href="#DejaVuSans-29" x="923.921875"/>
    </g>
   </g>
   <g id="text_10">
    <!-- main.py -->
    <g transform="translate(96.353156 241.643669) scale(0.1 -0.1)">
     <use xlink:href="#DejaVuSans-6d"/>
     <use xlink:href="#DejaVuSans-61" x="97.412109"/>
     <use xlink:href="#DejaVuSans-69" x="158.691406"/>
     <use xlink:href="#DejaVuSans-6e" x="186.474609"/>
     <use xlink:href="#DejaVuSans-2e" x="249.853516"/>
     <use xlink:href="#DejaVuSans-70" x="281.640625"/>
     <use xlink:href="#DejaVuSans-79" x="345.117188"/>
    </g>
    <!-- (entrypoint) -->
    <g transform="translate(86.694563 252.841481) scale(0.1 -0.1)">
     <use xlink:href="#DejaVuSans-28"/>
     <use xlink:href="#DejaVuSans-65" x="39.013672"/>
     <use xlink:href="#DejaVuSans-6e" x="100.537109"/>
     <use xlink:href="#DejaVuSans-74" x="163.916016"/>
     <use xlink:href="#DejaVuSans-72" x="203.125"/>
     <use xlink:href="#DejaVuSans-79" x="244.238281"/>
     <use xlink:href="#DejaVuSans-70" x="303.417969"/>
     <use xlink:href="#DejaVuSans-6f" x="366.894531"/>
     <use xlink:href="#DejaVuSans-69" x="428.076172"/>
     <use xlink:href="#DejaVuSans-6e" x="455.859375"/>
     <use xlink:href="#DejaVuSans-74" x="519.238281"/>
     <use xlink:href="#DejaVuSans-29" x="558.447266"/>
    </g>
   </g>
   <g id="text_11">
    <!-- dataload.py -->
    <g transform="translate(243.136125 241.643669) scale(0.1 -0.1)">
     <use xlink:href="#DejaVuSans-64"/>
     <use xlink:href="#DejaVuSans-61" x="63.476562"/>
     <use xlink:href="#DejaVuSans-74" x="124.755859"/>
     <use xlink:href="#DejaVuSans-61" x="163.964844"/>
     <use xlink:href="#DejaVuSans-6c" x="225.244141"/>
     <use xlink:href="#DejaVuSans-6f" x="253.027344"/>
     <use xlink:href="#DejaVuSans-61" x="314.208984"/>
     <use xlink:href="#DejaVuSans-64" x="375.488281"/>
     <use xlink:href="#DejaVuSans-2e" x="438.964844"/>
     <use xlink:href="#DejaVuSans-70" x="470.751953"/>
     <use xlink:href="#DejaVuSans-79" x="534.228516"/>
    </g>
    <!-- (dataset &amp; dataloader) -->
    <g transform="translate(215.843937 252.841481) scale(0.1 -0.1)">
     <defs>
      <path id="DejaVuSans-26" d="M 1556 2509 
Q 1272 2256 1139 2004 
Q 1006 1753 1006 1478 
Q 1006 1022 1337 719 
Q 1669 416 2169 416 
Q 2466 416 2725 514 
Q 2984 613 3213 813 
L 1556 2509 
z
M 1997 2859 
L 3584 1234 
Q 3769 1513 3872 1830 
Q 3975 2147 3994 2503 
L 4575 2503 
Q 4538 2091 4375 1687 
Q 4213 1284 3922 891 
L 4794 0 
L 4006 0 
L 3559 459 
Q 3234 181 2878 45 
Q 2522 -91 2113 -91 
Q 1359 -91 881 339 
Q 403 769 403 1441 
Q 403 1841 612 2192 
Q 822 2544 1241 2853 
Q 1091 3050 1012 3245 
Q 934 3441 934 3628 
Q 934 4134 1281 4442 
Q 1628 4750 2203 4750 
Q 2463 4750 2720 4694 
Q 2978 4638 3244 4525 
L 3244 3956 
Q 2972 4103 2725 4179 
Q 2478 4256 2266 4256 
Q 1938 4256 1733 4082 
Q 1528 3909 1528 3634 
Q 1528 3475 1620 3314 
Q 1713 3153 1997 2859 
z
" transform="scale(0.015625)"/>
     </defs>
     <use xlink:href="#DejaVuSans-28"/>
     <use xlink:href="#DejaVuSans-64" x="39.013672"/>
     <use xlink:href="#DejaVuSans-61" x="102.490234"/>
     <use xlink:href="#DejaVuSans-74" x="163.769531"/>
     <use xlink:href="#DejaVuSans-61" x="202.978516"/>
     <use xlink:href="#DejaVuSans-73" x="264.257812"/>
     <use xlink:href="#DejaVuSans-65" x="316.357422"/>
     <use xlink:href="#DejaVuSans-74" x="377.880859"/>
     <use xlink:href="#DejaVuSans-20" x="417.089844"/>
     <use xlink:href="#DejaVuSans-26" x="448.876953"/>
     <use xlink:href="#DejaVuSans-20" x="526.855469"/>
     <use xlink:href="#DejaVuSans-64" x="558.642578"/>
     <use xlink:href="#DejaVuSans-61" x="622.119141"/>
     <use xlink:href="#DejaVuSans-74" x="683.398438"/>
     <use xlink:href="#DejaVuSans-61" x="722.607422"/>
     <use xlink:href="#DejaVuSans-6c" x="783.886719"/>
     <use xlink:href="#DejaVuSans-6f" x="811.669922"/>
     <use xlink:href="#DejaVuSans-61" x="872.851562"/>
     <use xlink:href="#DejaVuSans-64" x="934.130859"/>
     <use xlink:href="#DejaVuSans-65" x="997.607422"/>
     <use xlink:href="#DejaVuSans-72" x="1059.130859"/>
     <use xlink:href="#DejaVuSans-29" x="1100.244141"/>
    </g>
   </g>
   <g id="text_12">
    <!-- train_and_evaluate.py -->
    <g transform="translate(146.974219 296.944606) scale(0.1 -0.1)">
     <use xlink:href="#DejaVuSans-74"/>
     <use xlink:href="#DejaVuSans-72" x="39.208984"/>
     <use xlink:href="#DejaVuSans-61" x="80.322266"/>
     <use xlink:href="#DejaVuSans-69" x="141.601562"/>
     <use xlink:href="#DejaVuSans-6e" x="169.384766"/>
     <use xlink:href="#DejaVuSans-5f" x="232.763672"/>
     <use xlink:href="#DejaVuSans-61" x="282.763672"/>
     <use xlink:href="#DejaVuSans-6e" x="344.042969"/>
     <use xlink:href="#DejaVuSans-64" x="407.421875"/>
     <use xlink:href="#DejaVuSans-5f" x="470.898438"/>
     <use xlink:href="#DejaVuSans-65" x="520.898438"/>
     <use xlink:href="#DejaVuSans-76" x="582.421875"/>
     <use xlink:href="#DejaVuSans-61" x="641.601562"/>
     <use xlink:href="#DejaVuSans-6c" x="702.880859"/>
     <use xlink:href="#DejaVuSans-75" x="730.664062"/>
     <use xlink:href="#DejaVuSans-61" x="794.042969"/>
     <use xlink:href="#DejaVuSans-74" x="855.322266"/>
     <use xlink:href="#DejaVuSans-65" x="894.53125"/>
     <use xlink:href="#DejaVuSans-2e" x="956.054688"/>
     <use xlink:href="#DejaVuSans-70" x="987.841797"/>
     <use xlink:href="#DejaVuSans-79" x="1051.318359"/>
    </g>
    <!-- (train loop / model-specific branches) -->
    <g transform="translate(108.910937 308.420544) scale(0.1 -0.1)">
     <defs>
      <path id="DejaVuSans-2d" d="M 313 2009 
L 1997 2009 
L 1997 1497 
L 313 1497 
L 313 2009 
z
" transform="scale(0.015625)"/>
     </defs>
     <use xlink:href="#DejaVuSans-28"/>
     <use xlink:href="#DejaVuSans-74" x="39.013672"/>
     <use xlink:href="#DejaVuSans-72" x="78.222656"/>
     <use xlink:href="#DejaVuSans-61" x="119.335938"/>
     <use xlink:href="#DejaVuSans-69" x="180.615234"/>
     <use xlink:href="#DejaVuSans-6e" x="208.398438"/>
     <use xlink:href="#DejaVuSans-20" x="271.777344"/>
     <use xlink:href="#DejaVuSans-6c" x="303.564453"/>
     <use xlink:href="#DejaVuSans-6f" x="331.347656"/>
     <use xlink:href="#DejaVuSans-6f" x="392.529297"/>
     <use xlink:href="#DejaVuSans-70" x="453.710938"/>
     <use xlink:href="#DejaVuSans-20" x="517.1875"/>
     <use xlink:href="#DejaVuSans-2f" x="548.974609"/>
     <use xlink:href="#DejaVuSans-20" x="582.666016"/>
     <use xlink:href="#DejaVuSans-6d" x="614.453125"/>
     <use xlink:href="#DejaVuSans-6f" x="711.865234"/>
     <use xlink:href="#DejaVuSans-64" x="773.046875"/>
     <use xlink:href="#DejaVuSans-65" x="836.523438"/>
     <use xlink:href="#DejaVuSans-6c" x="898.046875"/>
     <use xlink:href="#DejaVuSans-2d" x="925.830078"/>
     <use xlink:href="#DejaVuSans-73" x="961.914062"/>
     <use xlink:href="#DejaVuSans-70" x="1014.013672"/>
     <use xlink:href="#DejaVuSans-65" x="1077.490234"/>
     <use xlink:href="#DejaVuSans-63" x="1139.013672"/>
     <use xlink:href="#DejaVuSans-69" x="1193.994141"/>
     <use xlink:href="#DejaVuSans-66" x="1221.777344"/>
     <use xlink:href="#DejaVuSans-69" x="1256.982422"/>
     <use xlink:href="#DejaVuSans-63" x="1284.765625"/>
     <use xlink:href="#DejaVuSans-20" x="1339.746094"/>
     <use xlink:href="#DejaVuSans-62" x="1371.533203"/>
     <use xlink:href="#DejaVuSans-72" x="1435.009766"/>
     <use xlink:href="#DejaVuSans-61" x="1476.123047"/>
     <use xlink:href="#DejaVuSans-6e" x="1537.402344"/>
     <use xlink:href="#DejaVuSans-63" x="1600.78125"/>
     <use xlink:href="#DejaVuSans-68" x="1655.761719"/>
     <use xlink:href="#DejaVuSans-65" x="1719.140625"/>
     <use xlink:href="#DejaVuSans-73" x="1780.664062"/>
     <use xlink:href="#DejaVuSans-29" x="1832.763672"/>
    </g>
   </g>
   <g id="text_13">
    <!-- metrics.py + utils.py -->
    <g transform="translate(155.672578 343.937222) scale(0.09 -0.09)">
     <defs>
      <path id="DejaVuSans-2b" d="M 2944 4013 
L 2944 2272 
L 4684 2272 
L 4684 1741 
L 2944 1741 
L 2944 0 
L 2419 0 
L 2419 1741 
L 678 1741 
L 678 2272 
L 2419 2272 
L 2419 4013 
L 2944 4013 
z
" transform="scale(0.015625)"/>
     </defs>
     <use xlink:href="#DejaVuSans-6d"/>
     <use xlink:href="#DejaVuSans-65" x="97.412109"/>
     <use xlink:href="#DejaVuSans-74" x="158.935547"/>
     <use xlink:href="#DejaVuSans-72" x="198.144531"/>
     <use xlink:href="#DejaVuSans-69" x="239.257812"/>
     <use xlink:href="#DejaVuSans-63" x="267.041016"/>
     <use xlink:href="#DejaVuSans-73" x="322.021484"/>
     <use xlink:href="#DejaVuSans-2e" x="374.121094"/>
     <use xlink:href="#DejaVuSans-70" x="405.908203"/>
     <use xlink:href="#DejaVuSans-79" x="469.384766"/>
     <use xlink:href="#DejaVuSans-20" x="528.564453"/>
     <use xlink:href="#DejaVuSans-2b" x="560.351562"/>
     <use xlink:href="#DejaVuSans-20" x="644.140625"/>
     <use xlink:href="#DejaVuSans-75" x="675.927734"/>
     <use xlink:href="#DejaVuSans-74" x="739.306641"/>
     <use xlink:href="#DejaVuSans-69" x="778.515625"/>
     <use xlink:href="#DejaVuSans-6c" x="806.298828"/>
     <use xlink:href="#DejaVuSans-73" x="834.082031"/>
     <use xlink:href="#DejaVuSans-2e" x="886.181641"/>
     <use xlink:href="#DejaVuSans-70" x="917.96875"/>
     <use xlink:href="#DejaVuSans-79" x="981.445312"/>
    </g>
    <!-- Recall / Precision / NDCG -->
    <g transform="translate(146.785078 354.015253) scale(0.09 -0.09)">
     <defs>
      <path id="DejaVuSans-52" d="M 2841 2188 
Q 3044 2119 3236 1894 
Q 3428 1669 3622 1275 
L 4263 0 
L 3584 0 
L 2988 1197 
Q 2756 1666 2539 1819 
Q 2322 1972 1947 1972 
L 1259 1972 
L 1259 0 
L 628 0 
L 628 4666 
L 2053 4666 
Q 2853 4666 3247 4331 
Q 3641 3997 3641 3322 
Q 3641 2881 3436 2590 
Q 3231 2300 2841 2188 
z
M 1259 4147 
L 1259 2491 
L 2053 2491 
Q 2509 2491 2742 2702 
Q 2975 2913 2975 3322 
Q 2975 3731 2742 3939 
Q 2509 4147 2053 4147 
L 1259 4147 
z
" transform="scale(0.015625)"/>
      <path id="DejaVuSans-50" d="M 1259 4147 
L 1259 2394 
L 2053 2394 
Q 2494 2394 2734 2622 
Q 2975 2850 2975 3272 
Q 2975 3691 2734 3919 
Q 2494 4147 2053 4147 
L 1259 4147 
z
M 628 4666 
L 2053 4666 
Q 2838 4666 3239 4311 
Q 3641 3956 3641 3272 
Q 3641 2581 3239 2228 
Q 2838 1875 2053 1875 
L 1259 1875 
L 1259 0 
L 628 0 
L 628 4666 
z
" transform="scale(0.015625)"/>
      <path id="DejaVuSans-4e" d="M 628 4666 
L 1478 4666 
L 3547 763 
L 3547 4666 
L 4159 4666 
L 4159 0 
L 3309 0 
L 1241 3903 
L 1241 0 
L 628 0 
L 628 4666 
z
" transform="scale(0.015625)"/>
      <path id="DejaVuSans-47" d="M 3809 666 
L 3809 1919 
L 2778 1919 
L 2778 2438 
L 4434 2438 
L 4434 434 
Q 4069 175 3628 42 
Q 3188 -91 2688 -91 
Q 1594 -91 976 548 
Q 359 1188 359 2328 
Q 359 3472 976 4111 
Q 1594 4750 2688 4750 
Q 3144 4750 3555 4637 
Q 3966 4525 4313 4306 
L 4313 3634 
Q 3963 3931 3569 4081 
Q 3175 4231 2741 4231 
Q 1884 4231 1454 3753 
Q 1025 3275 1025 2328 
Q 1025 1384 1454 906 
Q 1884 428 2741 428 
Q 3075 428 3337 486 
Q 3600 544 3809 666 
z
" transform="scale(0.015625)"/>
     </defs>
     <use xlink:href="#DejaVuSans-52"/>
     <use xlink:href="#DejaVuSans-65" x="64.982422"/>
     <use xlink:href="#DejaVuSans-63" x="126.505859"/>
     <use xlink:href="#DejaVuSans-61" x="181.486328"/>
     <use xlink:href="#DejaVuSans-6c" x="242.765625"/>
     <use xlink:href="#DejaVuSans-6c" x="270.548828"/>
     <use xlink:href="#DejaVuSans-20" x="298.332031"/>
     <use xlink:href="#DejaVuSans-2f" x="330.119141"/>
     <use xlink:href="#DejaVuSans-20" x="363.810547"/>
     <use xlink:href="#DejaVuSans-50" x="395.597656"/>
     <use xlink:href="#DejaVuSans-72" x="454.150391"/>
     <use xlink:href="#DejaVuSans-65" x="493.013672"/>
     <use xlink:href="#DejaVuSans-63" x="554.537109"/>
     <use xlink:href="#DejaVuSans-69" x="609.517578"/>
     <use xlink:href="#DejaVuSans-73" x="637.300781"/>
     <use xlink:href="#DejaVuSans-69" x="689.400391"/>
     <use xlink:href="#DejaVuSans-6f" x="717.183594"/>
     <use xlink:href="#DejaVuSans-6e" x="778.365234"/>
     <use xlink:href="#DejaVuSans-20" x="841.744141"/>
     <use xlink:href="#DejaVuSans-2f" x="873.53125"/>
     <use xlink:href="#DejaVuSans-20" x="907.222656"/>
     <use xlink:href="#DejaVuSans-4e" x="939.009766"/>
     <use xlink:href="#DejaVuSans-44" x="1013.814453"/>
     <use xlink:href="#DejaVuSans-43" x="1090.816406"/>
     <use xlink:href="#DejaVuSans-47" x="1160.640625"/>
    </g>
   </g>
   <g id="text_14">
    <!-- General CF &amp; GNN models -->
    <g transform="translate(464.746969 84.194069) scale(0.1 -0.1)">
     <defs>
      <path id="DejaVuSans-46" d="M 628 4666 
L 3309 4666 
L 3309 4134 
L 1259 4134 
L 1259 2759 
L 3109 2759 
L 3109 2228 
L 1259 2228 
L 1259 0 
L 628 0 
L 628 4666 
z
" transform="scale(0.015625)"/>
     </defs>
     <use xlink:href="#DejaVuSans-47"/>
     <use xlink:href="#DejaVuSans-65" x="77.490234"/>
     <use xlink:href="#DejaVuSans-6e" x="139.013672"/>
     <use xlink:href="#DejaVuSans-65" x="202.392578"/>
     <use xlink:href="#DejaVuSans-72" x="263.916016"/>
     <use xlink:href="#DejaVuSans-61" x="305.029297"/>
     <use xlink:href="#DejaVuSans-6c" x="366.308594"/>
     <use xlink:href="#DejaVuSans-20" x="394.091797"/>
     <use xlink:href="#DejaVuSans-43" x="425.878906"/>
     <use xlink:href="#DejaVuSans-46" x="495.703125"/>
     <use xlink:href="#DejaVuSans-20" x="553.222656"/>
     <use xlink:href="#DejaVuSans-26" x="585.009766"/>
     <use xlink:href="#DejaVuSans-20" x="662.988281"/>
     <use xlink:href="#DejaVuSans-47" x="694.775391"/>
     <use xlink:href="#DejaVuSans-4e" x="772.265625"/>
     <use xlink:href="#DejaVuSans-4e" x="847.070312"/>
     <use xlink:href="#DejaVuSans-20" x="921.875"/>
     <use xlink:href="#DejaVuSans-6d" x="953.662109"/>
     <use xlink:href="#DejaVuSans-6f" x="1051.074219"/>
     <use xlink:href="#DejaVuSans-64" x="1112.255859"/>
     <use xlink:href="#DejaVuSans-65" x="1175.732422"/>
     <use xlink:href="#DejaVuSans-6c" x="1237.255859"/>
     <use xlink:href="#DejaVuSans-73" x="1265.039062"/>
    </g>
    <!-- (BPR, LightGCN, NCL, SimGCL, ...) -->
    <g transform="translate(446.115719 95.391881) scale(0.1 -0.1)">
     <defs>
      <path id="DejaVuSans-42" d="M 1259 2228 
L 1259 519 
L 2272 519 
Q 2781 519 3026 730 
Q 3272 941 3272 1375 
Q 3272 1813 3026 2020 
Q 2781 2228 2272 2228 
L 1259 2228 
z
M 1259 4147 
L 1259 2741 
L 2194 2741 
Q 2656 2741 2882 2914 
Q 3109 3088 3109 3444 
Q 3109 3797 2882 3972 
Q 2656 4147 2194 4147 
L 1259 4147 
z
M 628 4666 
L 2241 4666 
Q 2963 4666 3353 4366 
Q 3744 4066 3744 3513 
Q 3744 3084 3544 2831 
Q 3344 2578 2956 2516 
Q 3422 2416 3680 2098 
Q 3938 1781 3938 1306 
Q 3938 681 3513 340 
Q 3088 0 2303 0 
L 628 0 
L 628 4666 
z
" transform="scale(0.015625)"/>
      <path id="DejaVuSans-53" d="M 3425 4513 
L 3425 3897 
Q 3066 4069 2747 4153 
Q 2428 4238 2131 4238 
Q 1616 4238 1336 4038 
Q 1056 3838 1056 3469 
Q 1056 3159 1242 3001 
Q 1428 2844 1947 2747 
L 2328 2669 
Q 3034 2534 3370 2195 
Q 3706 1856 3706 1288 
Q 3706 609 3251 259 
Q 2797 -91 1919 -91 
Q 1588 -91 1214 -16 
Q 841 59 441 206 
L 441 856 
Q 825 641 1194 531 
Q 1563 422 1919 422 
Q 2459 422 2753 634 
Q 3047 847 3047 1241 
Q 3047 1584 2836 1778 
Q 2625 1972 2144 2069 
L 1759 2144 
Q 1053 2284 737 2584 
Q 422 2884 422 3419 
Q 422 4038 858 4394 
Q 1294 4750 2059 4750 
Q 2388 4750 2728 4690 
Q 3069 4631 3425 4513 
z
" transform="scale(0.015625)"/>
     </defs>
     <use xlink:href="#DejaVuSans-28"/>
     <use xlink:href="#DejaVuSans-42" x="39.013672"/>
     <use xlink:href="#DejaVuSans-50" x="107.617188"/>
     <use xlink:href="#DejaVuSans-52" x="167.919922"/>
     <use xlink:href="#DejaVuSans-2c" x="237.402344"/>
     <use xlink:href="#DejaVuSans-20" x="269.189453"/>
     <use xlink:href="#DejaVuSans-4c" x="300.976562"/>
     <use xlink:href="#DejaVuSans-69" x="356.689453"/>
     <use xlink:href="#DejaVuSans-67" x="384.472656"/>
     <use xlink:href="#DejaVuSans-68" x="447.949219"/>
     <use xlink:href="#DejaVuSans-74" x="511.328125"/>
     <use xlink:href="#DejaVuSans-47" x="550.537109"/>
     <use xlink:href="#DejaVuSans-43" x="628.027344"/>
     <use xlink:href="#DejaVuSans-4e" x="697.851562"/>
     <use xlink:href="#DejaVuSans-2c" x="772.65625"/>
     <use xlink:href="#DejaVuSans-20" x="804.443359"/>
     <use xlink:href="#DejaVuSans-4e" x="836.230469"/>
     <use xlink:href="#DejaVuSans-43" x="911.035156"/>
     <use xlink:href="#DejaVuSans-4c" x="980.859375"/>
     <use xlink:href="#DejaVuSans-2c" x="1036.572266"/>
     <use xlink:href="#DejaVuSans-20" x="1068.359375"/>
     <use xlink:href="#DejaVuSans-53" x="1100.146484"/>
     <use xlink:href="#DejaVuSans-69" x="1163.623047"/>
     <use xlink:href="#DejaVuSans-6d" x="1191.40625"/>
     <use xlink:href="#DejaVuSans-47" x="1288.818359"/>
     <use xlink:href="#DejaVuSans-43" x="1366.308594"/>
     <use xlink:href="#DejaVuSans-4c" x="1436.132812"/>
     <use xlink:href="#DejaVuSans-2c" x="1491.845703"/>
     <use xlink:href="#DejaVuSans-20" x="1523.632812"/>
     <use xlink:href="#DejaVuSans-2e" x="1555.419922"/>
     <use xlink:href="#DejaVuSans-2e" x="1587.207031"/>
     <use xlink:href="#DejaVuSans-2e" x="1618.994141"/>
     <use xlink:href="#DejaVuSans-29" x="1650.78125"/>
    </g>
   </g>
   <g id="text_15">
    <!-- Multimodal models -->
    <g transform="translate(483.062594 167.299162) scale(0.1 -0.1)">
     <use xlink:href="#DejaVuSans-4d"/>
     <use xlink:href="#DejaVuSans-75" x="86.279297"/>
     <use xlink:href="#DejaVuSans-6c" x="149.658203"/>
     <use xlink:href="#DejaVuSans-74" x="177.441406"/>
     <use xlink:href="#DejaVuSans-69" x="216.650391"/>
     <use xlink:href="#DejaVuSans-6d" x="244.433594"/>
     <use xlink:href="#DejaVuSans-6f" x="341.845703"/>
     <use xlink:href="#DejaVuSans-64" x="403.027344"/>
     <use xlink:href="#DejaVuSans-61" x="466.503906"/>
     <use xlink:href="#DejaVuSans-6c" x="527.783203"/>
     <use xlink:href="#DejaVuSans-20" x="555.566406"/>
     <use xlink:href="#DejaVuSans-6d" x="587.353516"/>
     <use xlink:href="#DejaVuSans-6f" x="684.765625"/>
     <use xlink:href="#DejaVuSans-64" x="745.947266"/>
     <use xlink:href="#DejaVuSans-65" x="809.423828"/>
     <use xlink:href="#DejaVuSans-6c" x="870.947266"/>
     <use xlink:href="#DejaVuSans-73" x="898.730469"/>
    </g>
    <!-- (MMGCN, LGMRec, COHESION, -->
    <g transform="translate(454.251656 178.496975) scale(0.1 -0.1)">
     <defs>
      <path id="DejaVuSans-4f" d="M 2522 4238 
Q 1834 4238 1429 3725 
Q 1025 3213 1025 2328 
Q 1025 1447 1429 934 
Q 1834 422 2522 422 
Q 3209 422 3611 934 
Q 4013 1447 4013 2328 
Q 4013 3213 3611 3725 
Q 3209 4238 2522 4238 
z
M 2522 4750 
Q 3503 4750 4090 4092 
Q 4678 3434 4678 2328 
Q 4678 1225 4090 567 
Q 3503 -91 2522 -91 
Q 1538 -91 948 565 
Q 359 1222 359 2328 
Q 359 3434 948 4092 
Q 1538 4750 2522 4750 
z
" transform="scale(0.015625)"/>
      <path id="DejaVuSans-48" d="M 628 4666 
L 1259 4666 
L 1259 2753 
L 3553 2753 
L 3553 4666 
L 4184 4666 
L 4184 0 
L 3553 0 
L 3553 2222 
L 1259 2222 
L 1259 0 
L 628 0 
L 628 4666 
z
" transform="scale(0.015625)"/>
      <path id="DejaVuSans-45" d="M 628 4666 
L 3578 4666 
L 3578 4134 
L 1259 4134 
L 1259 2753 
L 3481 2753 
L 3481 2222 
L 1259 2222 
L 1259 531 
L 3634 531 
L 3634 0 
L 628 0 
L 628 4666 
z
" transform="scale(0.015625)"/>
     </defs>
     <use xlink:href="#DejaVuSans-28"/>
     <use xlink:href="#DejaVuSans-4d" x="39.013672"/>
     <use xlink:href="#DejaVuSans-4d" x="125.292969"/>
     <use xlink:href="#DejaVuSans-47" x="211.572266"/>
     <use xlink:href="#DejaVuSans-43" x="289.0625"/>
     <use xlink:href="#DejaVuSans-4e" x="358.886719"/>
     <use xlink:href="#DejaVuSans-2c" x="433.691406"/>
     <use xlink:href="#DejaVuSans-20" x="465.478516"/>
     <use xlink:href="#DejaVuSans-4c" x="497.265625"/>
     <use xlink:href="#DejaVuSans-47" x="552.978516"/>
     <use xlink:href="#DejaVuSans-4d" x="630.46875"/>
     <use xlink:href="#DejaVuSans-52" x="716.748047"/>
     <use xlink:href="#DejaVuSans-65" x="781.730469"/>
     <use xlink:href="#DejaVuSans-63" x="843.253906"/>
     <use xlink:href="#DejaVuSans-2c" x="898.234375"/>
     <use xlink:href="#DejaVuSans-20" x="930.021484"/>
     <use xlink:href="#DejaVuSans-43" x="961.808594"/>
     <use xlink:href="#DejaVuSans-4f" x="1031.632812"/>
     <use xlink:href="#DejaVuSans-48" x="1110.34375"/>
     <use xlink:href="#DejaVuSans-45" x="1185.539062"/>
     <use xlink:href="#DejaVuSans-53" x="1248.722656"/>
     <use xlink:href="#DejaVuSans-49" x="1312.199219"/>
     <use xlink:href="#DejaVuSans-4f" x="1341.691406"/>
     <use xlink:href="#DejaVuSans-4e" x="1420.402344"/>
     <use xlink:href="#DejaVuSans-2c" x="1495.207031"/>
    </g>
    <!-- DDRec, Grade, GUME, ...) -->
    <g transform="translate(467.325094 189.694787) scale(0.1 -0.1)">
     <defs>
      <path id="DejaVuSans-55" d="M 556 4666 
L 1191 4666 
L 1191 1831 
Q 1191 1081 1462 751 
Q 1734 422 2344 422 
Q 2950 422 3222 751 
Q 3494 1081 3494 1831 
L 3494 4666 
L 4128 4666 
L 4128 1753 
Q 4128 841 3676 375 
Q 3225 -91 2344 -91 
Q 1459 -91 1007 375 
Q 556 841 556 1753 
L 556 4666 
z
" transform="scale(0.015625)"/>
     </defs>
     <use xlink:href="#DejaVuSans-44"/>
     <use xlink:href="#DejaVuSans-44" x="77.001953"/>
     <use xlink:href="#DejaVuSans-52" x="154.003906"/>
     <use xlink:href="#DejaVuSans-65" x="218.986328"/>
     <use xlink:href="#DejaVuSans-63" x="280.509766"/>
     <use xlink:href="#DejaVuSans-2c" x="335.490234"/>
     <use xlink:href="#DejaVuSans-20" x="367.277344"/>
     <use xlink:href="#DejaVuSans-47" x="399.064453"/>
     <use xlink:href="#DejaVuSans-72" x="476.554688"/>
     <use xlink:href="#DejaVuSans-61" x="517.667969"/>
     <use xlink:href="#DejaVuSans-64" x="578.947266"/>
     <use xlink:href="#DejaVuSans-65" x="642.423828"/>
     <use xlink:href="#DejaVuSans-2c" x="703.947266"/>
     <use xlink:href="#DejaVuSans-20" x="735.734375"/>
     <use xlink:href="#DejaVuSans-47" x="767.521484"/>
     <use xlink:href="#DejaVuSans-55" x="845.011719"/>
     <use xlink:href="#DejaVuSans-4d" x="918.205078"/>
     <use xlink:href="#DejaVuSans-45" x="1004.484375"/>
     <use xlink:href="#DejaVuSans-2c" x="1067.667969"/>
     <use xlink:href="#DejaVuSans-20" x="1099.455078"/>
     <use xlink:href="#DejaVuSans-2e" x="1131.242188"/>
     <use xlink:href="#DejaVuSans-2e" x="1163.029297"/>
     <use xlink:href="#DejaVuSans-2e" x="1194.816406"/>
     <use xlink:href="#DejaVuSans-29" x="1226.603516"/>
    </g>
   </g>
   <g id="text_16">
    <!-- Diffusion / Transformer variants -->
    <g transform="translate(451.737594 251.4289) scale(0.1 -0.1)">
     <defs>
      <path id="DejaVuSans-54" d="M -19 4666 
L 3928 4666 
L 3928 4134 
L 2272 4134 
L 2272 0 
L 1638 0 
L 1638 4134 
L -19 4134 
L -19 4666 
z
" transform="scale(0.015625)"/>
     </defs>
     <use xlink:href="#DejaVuSans-44"/>
     <use xlink:href="#DejaVuSans-69" x="77.001953"/>
     <use xlink:href="#DejaVuSans-66" x="104.785156"/>
     <use xlink:href="#DejaVuSans-66" x="139.990234"/>
     <use xlink:href="#DejaVuSans-75" x="175.195312"/>
     <use xlink:href="#DejaVuSans-73" x="238.574219"/>
     <use xlink:href="#DejaVuSans-69" x="290.673828"/>
     <use xlink:href="#DejaVuSans-6f" x="318.457031"/>
     <use xlink:href="#DejaVuSans-6e" x="379.638672"/>
     <use xlink:href="#DejaVuSans-20" x="443.017578"/>
     <use xlink:href="#DejaVuSans-2f" x="474.804688"/>
     <use xlink:href="#DejaVuSans-20" x="508.496094"/>
     <use xlink:href="#DejaVuSans-54" x="540.283203"/>
     <use xlink:href="#DejaVuSans-72" x="586.617188"/>
     <use xlink:href="#DejaVuSans-61" x="627.730469"/>
     <use xlink:href="#DejaVuSans-6e" x="689.009766"/>
     <use xlink:href="#DejaVuSans-73" x="752.388672"/>
     <use xlink:href="#DejaVuSans-66" x="804.488281"/>
     <use xlink:href="#DejaVuSans-6f" x="839.693359"/>
     <use xlink:href="#DejaVuSans-72" x="900.875"/>
     <use xlink:href="#DejaVuSans-6d" x="940.238281"/>
     <use xlink:href="#DejaVuSans-65" x="1037.650391"/>
     <use xlink:href="#DejaVuSans-72" x="1099.173828"/>
     <use xlink:href="#DejaVuSans-20" x="1140.287109"/>
     <use xlink:href="#DejaVuSans-76" x="1172.074219"/>
     <use xlink:href="#DejaVuSans-61" x="1231.253906"/>
     <use xlink:href="#DejaVuSans-72" x="1292.533203"/>
     <use xlink:href="#DejaVuSans-69" x="1333.646484"/>
     <use xlink:href="#DejaVuSans-61" x="1361.429688"/>
     <use xlink:href="#DejaVuSans-6e" x="1422.708984"/>
     <use xlink:href="#DejaVuSans-74" x="1486.087891"/>
     <use xlink:href="#DejaVuSans-73" x="1525.296875"/>
    </g>
    <!-- (DiffRec, CF_Diff, DiffMM, -->
    <g transform="translate(467.859469 262.626712) scale(0.1 -0.1)">
     <use xlink:href="#DejaVuSans-28"/>
     <use xlink:href="#DejaVuSans-44" x="39.013672"/>
     <use xlink:href="#DejaVuSans-69" x="116.015625"/>
     <use xlink:href="#DejaVuSans-66" x="143.798828"/>
     <use xlink:href="#DejaVuSans-66" x="179.003906"/>
     <use xlink:href="#DejaVuSans-52" x="214.208984"/>
     <use xlink:href="#DejaVuSans-65" x="279.191406"/>
     <use xlink:href="#DejaVuSans-63" x="340.714844"/>
     <use xlink:href="#DejaVuSans-2c" x="395.695312"/>
     <use xlink:href="#DejaVuSans-20" x="427.482422"/>
     <use xlink:href="#DejaVuSans-43" x="459.269531"/>
     <use xlink:href="#DejaVuSans-46" x="529.09375"/>
     <use xlink:href="#DejaVuSans-5f" x="586.613281"/>
     <use xlink:href="#DejaVuSans-44" x="636.613281"/>
     <use xlink:href="#DejaVuSans-69" x="713.615234"/>
     <use xlink:href="#DejaVuSans-66" x="741.398438"/>
     <use xlink:href="#DejaVuSans-66" x="776.603516"/>
     <use xlink:href="#DejaVuSans-2c" x="811.808594"/>
     <use xlink:href="#DejaVuSans-20" x="843.595703"/>
     <use xlink:href="#DejaVuSans-44" x="875.382812"/>
     <use xlink:href="#DejaVuSans-69" x="952.384766"/>
     <use xlink:href="#DejaVuSans-66" x="980.167969"/>
     <use xlink:href="#DejaVuSans-66" x="1015.373047"/>
     <use xlink:href="#DejaVuSans-4d" x="1050.578125"/>
     <use xlink:href="#DejaVuSans-4d" x="1136.857422"/>
     <use xlink:href="#DejaVuSans-2c" x="1223.136719"/>
    </g>
    <!-- GFormer, LightGT, ...) -->
    <g transform="translate(476.706344 274.10265) scale(0.1 -0.1)">
     <use xlink:href="#DejaVuSans-47"/>
     <use xlink:href="#DejaVuSans-46" x="77.490234"/>
     <use xlink:href="#DejaVuSans-6f" x="131.384766"/>
     <use xlink:href="#DejaVuSans-72" x="192.566406"/>
     <use xlink:href="#DejaVuSans-6d" x="231.929688"/>
     <use xlink:href="#DejaVuSans-65" x="329.341797"/>
     <use xlink:href="#DejaVuSans-72" x="390.865234"/>
     <use xlink:href="#DejaVuSans-2c" x="431.978516"/>
     <use xlink:href="#DejaVuSans-20" x="463.765625"/>
     <use xlink:href="#DejaVuSans-4c" x="495.552734"/>
     <use xlink:href="#DejaVuSans-69" x="551.265625"/>
     <use xlink:href="#DejaVuSans-67" x="579.048828"/>
     <use xlink:href="#DejaVuSans-68" x="642.525391"/>
     <use xlink:href="#DejaVuSans-74" x="705.904297"/>
     <use xlink:href="#DejaVuSans-47" x="745.113281"/>
     <use xlink:href="#DejaVuSans-54" x="818.978516"/>
     <use xlink:href="#DejaVuSans-2c" x="880.0625"/>
     <use xlink:href="#DejaVuSans-20" x="911.849609"/>
     <use xlink:href="#DejaVuSans-2e" x="943.636719"/>
     <use xlink:href="#DejaVuSans-2e" x="975.423828"/>
     <use xlink:href="#DejaVuSans-2e" x="1007.210938"/>
     <use xlink:href="#DejaVuSans-29" x="1038.998047"/>
    </g>
   </g>
   <g id="text_17">
    <!-- 54 models total -->
    <g transform="translate(491.456344 327.991006) scale(0.1 -0.1)">
     <defs>
      <path id="DejaVuSans-35" d="M 691 4666 
L 3169 4666 
L 3169 4134 
L 1269 4134 
L 1269 2991 
Q 1406 3038 1543 3061 
Q 1681 3084 1819 3084 
Q 2600 3084 3056 2656 
Q 3513 2228 3513 1497 
Q 3513 744 3044 326 
Q 2575 -91 1722 -91 
Q 1428 -91 1123 -41 
Q 819 9 494 109 
L 494 744 
Q 775 591 1075 516 
Q 1375 441 1709 441 
Q 2250 441 2565 725 
Q 2881 1009 2881 1497 
Q 2881 1984 2565 2268 
Q 2250 2553 1709 2553 
Q 1456 2553 1204 2497 
Q 953 2441 691 2322 
L 691 4666 
z
" transform="scale(0.015625)"/>
      <path id="DejaVuSans-34" d="M 2419 4116 
L 825 1625 
L 2419 1625 
L 2419 4116 
z
M 2253 4666 
L 3047 4666 
L 3047 1625 
L 3713 1625 
L 3713 1100 
L 3047 1100 
L 3047 0 
L 2419 0 
L 2419 1100 
L 313 1100 
L 313 1709 
L 2253 4666 
z
" transform="scale(0.015625)"/>
     </defs>
     <use xlink:href="#DejaVuSans-35"/>
     <use xlink:href="#DejaVuSans-34" x="63.623047"/>
     <use xlink:href="#DejaVuSans-20" x="127.246094"/>
     <use xlink:href="#DejaVuSans-6d" x="159.033203"/>
     <use xlink:href="#DejaVuSans-6f" x="256.445312"/>
     <use xlink:href="#DejaVuSans-64" x="317.626953"/>
     <use xlink:href="#DejaVuSans-65" x="381.103516"/>
     <use xlink:href="#DejaVuSans-6c" x="442.626953"/>
     <use xlink:href="#DejaVuSans-73" x="470.410156"/>
     <use xlink:href="#DejaVuSans-20" x="522.509766"/>
     <use xlink:href="#DejaVuSans-74" x="554.296875"/>
     <use xlink:href="#DejaVuSans-6f" x="593.505859"/>
     <use xlink:href="#DejaVuSans-74" x="654.6875"/>
     <use xlink:href="#DejaVuSans-61" x="693.896484"/>
     <use xlink:href="#DejaVuSans-6c" x="755.175781"/>
    </g>
    <!-- (aligned with Model_YAML) -->
    <g transform="translate(463.781344 339.188819) scale(0.1 -0.1)">
     <defs>
      <path id="DejaVuSans-77" d="M 269 3500 
L 844 3500 
L 1563 769 
L 2278 3500 
L 2956 3500 
L 3675 769 
L 4391 3500 
L 4966 3500 
L 4050 0 
L 3372 0 
L 2619 2869 
L 1863 0 
L 1184 0 
L 269 3500 
z
" transform="scale(0.015625)"/>
     </defs>
     <use xlink:href="#DejaVuSans-28"/>
     <use xlink:href="#DejaVuSans-61" x="39.013672"/>
     <use xlink:href="#DejaVuSans-6c" x="100.292969"/>
     <use xlink:href="#DejaVuSans-69" x="128.076172"/>
     <use xlink:href="#DejaVuSans-67" x="155.859375"/>
     <use xlink:href="#DejaVuSans-6e" x="219.335938"/>
     <use xlink:href="#DejaVuSans-65" x="282.714844"/>
     <use xlink:href="#DejaVuSans-64" x="344.238281"/>
     <use xlink:href="#DejaVuSans-20" x="407.714844"/>
     <use xlink:href="#DejaVuSans-77" x="439.501953"/>
     <use xlink:href="#DejaVuSans-69" x="521.289062"/>
     <use xlink:href="#DejaVuSans-74" x="549.072266"/>
     <use xlink:href="#DejaVuSans-68" x="588.28125"/>
     <use xlink:href="#DejaVuSans-20" x="651.660156"/>
     <use xlink:href="#DejaVuSans-4d" x="683.447266"/>
     <use xlink:href="#DejaVuSans-6f" x="769.726562"/>
     <use xlink:href="#DejaVuSans-64" x="830.908203"/>
     <use xlink:href="#DejaVuSans-65" x="894.384766"/>
     <use xlink:href="#DejaVuSans-6c" x="955.908203"/>
     <use xlink:href="#DejaVuSans-5f" x="983.691406"/>
     <use xlink:href="#DejaVuSans-59" x="1033.691406"/>
     <use xlink:href="#DejaVuSans-41" x="1087.025391"/>
     <use xlink:href="#DejaVuSans-4d" x="1155.433594"/>
     <use xlink:href="#DejaVuSans-4c" x="1241.712891"/>
     <use xlink:href="#DejaVuSans-29" x="1297.425781"/>
    </g>
   </g>
   <g id="text_18">
    <!-- log/*.log -->
    <g transform="translate(695.269125 115.524422) scale(0.09 -0.09)">
     <use xlink:href="#DejaVuSans-6c"/>
     <use xlink:href="#DejaVuSans-6f" x="27.783203"/>
     <use xlink:href="#DejaVuSans-67" x="88.964844"/>
     <use xlink:href="#DejaVuSans-2f" x="152.441406"/>
     <use xlink:href="#DejaVuSans-2a" x="186.132812"/>
     <use xlink:href="#DejaVuSans-2e" x="236.132812"/>
     <use xlink:href="#DejaVuSans-6c" x="267.919922"/>
     <use xlink:href="#DejaVuSans-6f" x="295.703125"/>
     <use xlink:href="#DejaVuSans-67" x="356.884766"/>
    </g>
    <!-- training traces -->
    <g transform="translate(681.364125 125.602453) scale(0.09 -0.09)">
     <use xlink:href="#DejaVuSans-74"/>
     <use xlink:href="#DejaVuSans-72" x="39.208984"/>
     <use xlink:href="#DejaVuSans-61" x="80.322266"/>
     <use xlink:href="#DejaVuSans-69" x="141.601562"/>
     <use xlink:href="#DejaVuSans-6e" x="169.384766"/>
     <use xlink:href="#DejaVuSans-69" x="232.763672"/>
     <use xlink:href="#DejaVuSans-6e" x="260.546875"/>
     <use xlink:href="#DejaVuSans-67" x="323.925781"/>
     <use xlink:href="#DejaVuSans-20" x="387.402344"/>
     <use xlink:href="#DejaVuSans-74" x="419.189453"/>
     <use xlink:href="#DejaVuSans-72" x="458.398438"/>
     <use xlink:href="#DejaVuSans-61" x="499.511719"/>
     <use xlink:href="#DejaVuSans-63" x="560.791016"/>
     <use xlink:href="#DejaVuSans-65" x="615.771484"/>
     <use xlink:href="#DejaVuSans-73" x="677.294922"/>
    </g>
   </g>
   <g id="text_19">
    <!-- Best metrics -->
    <g transform="translate(685.956234 199.793222) scale(0.09 -0.09)">
     <use xlink:href="#DejaVuSans-42"/>
     <use xlink:href="#DejaVuSans-65" x="68.603516"/>
     <use xlink:href="#DejaVuSans-73" x="130.126953"/>
     <use xlink:href="#DejaVuSans-74" x="182.226562"/>
     <use xlink:href="#DejaVuSans-20" x="221.435547"/>
     <use xlink:href="#DejaVuSans-6d" x="253.222656"/>
     <use xlink:href="#DejaVuSans-65" x="350.634766"/>
     <use xlink:href="#DejaVuSans-74" x="412.158203"/>
     <use xlink:href="#DejaVuSans-72" x="451.367188"/>
     <use xlink:href="#DejaVuSans-69" x="492.480469"/>
     <use xlink:href="#DejaVuSans-63" x="520.263672"/>
     <use xlink:href="#DejaVuSans-73" x="575.244141"/>
    </g>
    <!-- @K = [5,10,20] -->
    <g transform="translate(679.416469 209.871253) scale(0.09 -0.09)">
     <defs>
      <path id="DejaVuSans-40" d="M 2381 1678 
Q 2381 1231 2603 976 
Q 2825 722 3213 722 
Q 3597 722 3817 978 
Q 4038 1234 4038 1678 
Q 4038 2116 3813 2373 
Q 3588 2631 3206 2631 
Q 2828 2631 2604 2375 
Q 2381 2119 2381 1678 
z
M 4084 744 
Q 3897 503 3655 389 
Q 3413 275 3091 275 
Q 2553 275 2217 664 
Q 1881 1053 1881 1678 
Q 1881 2303 2218 2693 
Q 2556 3084 3091 3084 
Q 3413 3084 3656 2967 
Q 3900 2850 4084 2613 
L 4084 3022 
L 4531 3022 
L 4531 722 
Q 4988 791 5245 1139 
Q 5503 1488 5503 2041 
Q 5503 2375 5404 2669 
Q 5306 2963 5106 3213 
Q 4781 3622 4314 3839 
Q 3847 4056 3297 4056 
Q 2913 4056 2559 3954 
Q 2206 3853 1906 3653 
Q 1416 3334 1139 2817 
Q 863 2300 863 1697 
Q 863 1200 1042 765 
Q 1222 331 1563 0 
Q 1891 -325 2322 -495 
Q 2753 -666 3244 -666 
Q 3647 -666 4036 -530 
Q 4425 -394 4750 -141 
L 5031 -488 
Q 4641 -791 4180 -952 
Q 3719 -1113 3244 -1113 
Q 2666 -1113 2153 -908 
Q 1641 -703 1241 -313 
Q 841 78 631 592 
Q 422 1106 422 1697 
Q 422 2266 634 2781 
Q 847 3297 1241 3688 
Q 1644 4084 2172 4295 
Q 2700 4506 3291 4506 
Q 3953 4506 4520 4234 
Q 5088 3963 5472 3463 
Q 5706 3156 5829 2797 
Q 5953 2438 5953 2053 
Q 5953 1231 5456 756 
Q 4959 281 4084 263 
L 4084 744 
z
" transform="scale(0.015625)"/>
      <path id="DejaVuSans-4b" d="M 628 4666 
L 1259 4666 
L 1259 2694 
L 3353 4666 
L 4166 4666 
L 1850 2491 
L 4331 0 
L 3500 0 
L 1259 2247 
L 1259 0 
L 628 0 
L 628 4666 
z
" transform="scale(0.015625)"/>
      <path id="DejaVuSans-3d" d="M 678 2906 
L 4684 2906 
L 4684 2381 
L 678 2381 
L 678 2906 
z
M 678 1631 
L 4684 1631 
L 4684 1100 
L 678 1100 
L 678 1631 
z
" transform="scale(0.015625)"/>
      <path id="DejaVuSans-5b" d="M 550 4863 
L 1875 4863 
L 1875 4416 
L 1125 4416 
L 1125 -397 
L 1875 -397 
L 1875 -844 
L 550 -844 
L 550 4863 
z
" transform="scale(0.015625)"/>
      <path id="DejaVuSans-31" d="M 794 531 
L 1825 531 
L 1825 4091 
L 703 3866 
L 703 4441 
L 1819 4666 
L 2450 4666 
L 2450 531 
L 3481 531 
L 3481 0 
L 794 0 
L 794 531 
z
" transform="scale(0.015625)"/>
      <path id="DejaVuSans-30" d="M 2034 4250 
Q 1547 4250 1301 3770 
Q 1056 3291 1056 2328 
Q 1056 1369 1301 889 
Q 1547 409 2034 409 
Q 2525 409 2770 889 
Q 3016 1369 3016 2328 
Q 3016 3291 2770 3770 
Q 2525 4250 2034 4250 
z
M 2034 4750 
Q 2819 4750 3233 4129 
Q 3647 3509 3647 2328 
Q 3647 1150 3233 529 
Q 2819 -91 2034 -91 
Q 1250 -91 836 529 
Q 422 1150 422 2328 
Q 422 3509 836 4129 
Q 1250 4750 2034 4750 
z
" transform="scale(0.015625)"/>
      <path id="DejaVuSans-32" d="M 1228 531 
L 3431 531 
L 3431 0 
L 469 0 
L 469 531 
Q 828 903 1448 1529 
Q 2069 2156 2228 2338 
Q 2531 2678 2651 2914 
Q 2772 3150 2772 3378 
Q 2772 3750 2511 3984 
Q 2250 4219 1831 4219 
Q 1534 4219 1204 4116 
Q 875 4013 500 3803 
L 500 4441 
Q 881 4594 1212 4672 
Q 1544 4750 1819 4750 
Q 2544 4750 2975 4387 
Q 3406 4025 3406 3419 
Q 3406 3131 3298 2873 
Q 3191 2616 2906 2266 
Q 2828 2175 2409 1742 
Q 1991 1309 1228 531 
z
" transform="scale(0.015625)"/>
      <path id="DejaVuSans-5d" d="M 1947 4863 
L 1947 -844 
L 622 -844 
L 622 -397 
L 1369 -397 
L 1369 4416 
L 622 4416 
L 622 4863 
L 1947 4863 
z
" transform="scale(0.015625)"/>
     </defs>
     <use xlink:href="#DejaVuSans-40"/>
     <use xlink:href="#DejaVuSans-4b" x="100"/>
     <use xlink:href="#DejaVuSans-20" x="165.576172"/>
     <use xlink:href="#DejaVuSans-3d" x="197.363281"/>
     <use xlink:href="#DejaVuSans-20" x="281.152344"/>
     <use xlink:href="#DejaVuSans-5b" x="312.939453"/>
     <use xlink:href="#DejaVuSans-35" x="351.953125"/>
     <use xlink:href="#DejaVuSans-2c" x="415.576172"/>
     <use xlink:href="#DejaVuSans-31" x="447.363281"/>
     <use xlink:href="#DejaVuSans-30" x="510.986328"/>
     <use xlink:href="#DejaVuSans-2c" x="574.609375"/>
     <use xlink:href="#DejaVuSans-32" x="606.396484"/>
     <use xlink:href="#DejaVuSans-30" x="670.019531"/>
     <use xlink:href="#DejaVuSans-5d" x="733.642578"/>
    </g>
   </g>
   <g id="text_20">
    <!-- Best hyperparams -->
    <g transform="translate(672.850688 284.062022) scale(0.09 -0.09)">
     <use xlink:href="#DejaVuSans-42"/>
     <use xlink:href="#DejaVuSans-65" x="68.603516"/>
     <use xlink:href="#DejaVuSans-73" x="130.126953"/>
     <use xlink:href="#DejaVuSans-74" x="182.226562"/>
     <use xlink:href="#DejaVuSans-20" x="221.435547"/>
     <use xlink:href="#DejaVuSans-68" x="253.222656"/>
     <use xlink:href="#DejaVuSans-79" x="316.601562"/>
     <use xlink:href="#DejaVuSans-70" x="375.78125"/>
     <use xlink:href="#DejaVuSans-65" x="439.257812"/>
     <use xlink:href="#DejaVuSans-72" x="500.78125"/>
     <use xlink:href="#DejaVuSans-70" x="541.894531"/>
     <use xlink:href="#DejaVuSans-61" x="605.371094"/>
     <use xlink:href="#DejaVuSans-72" x="666.650391"/>
     <use xlink:href="#DejaVuSans-61" x="707.763672"/>
     <use xlink:href="#DejaVuSans-6d" x="769.042969"/>
     <use xlink:href="#DejaVuSans-73" x="866.455078"/>
    </g>
    <!-- (from YAML sweep) -->
    <g transform="translate(671.057719 294.140053) scale(0.09 -0.09)">
     <use xlink:href="#DejaVuSans-28"/>
     <use xlink:href="#DejaVuSans-66" x="39.013672"/>
     <use xlink:href="#DejaVuSans-72" x="74.21875"/>
     <use xlink:href="#DejaVuSans-6f" x="113.082031"/>
     <use xlink:href="#DejaVuSans-6d" x="174.263672"/>
     <use xlink:href="#DejaVuSans-20" x="271.675781"/>
     <use xlink:href="#DejaVuSans-59" x="303.462891"/>
     <use xlink:href="#DejaVuSans-41" x="356.796875"/>
     <use xlink:href="#DejaVuSans-4d" x="425.205078"/>
     <use xlink:href="#DejaVuSans-4c" x="511.484375"/>
     <use xlink:href="#DejaVuSans-20" x="567.197266"/>
     <use xlink:href="#DejaVuSans-73" x="598.984375"/>
     <use xlink:href="#DejaVuSans-77" x="651.083984"/>
     <use xlink:href="#DejaVuSans-65" x="732.871094"/>
     <use xlink:href="#DejaVuSans-65" x="794.394531"/>
     <use xlink:href="#DejaVuSans-70" x="855.917969"/>
     <use xlink:href="#DejaVuSans-29" x="919.394531"/>
    </g>
   </g>
   <g id="patch_22">
    <path d="M 190.839217 104.211879 
Q 218.124625 100.339111 243.749624 96.702015 
" style="fill: none; stroke: #334155; stroke-width: 1.5; stroke-linecap: round"/>
    <path d="M 239.508263 95.283969 
L 243.749624 96.702015 
L 240.070371 99.244276 
L 239.508263 95.283969 
z
" style="fill: #334155; stroke: #334155; stroke-width: 1.5; stroke-linecap: round"/>
   </g>
   <g id="patch_23">
    <path d="M 190.877361 149.1264 
Q 218.123567 149.1264 243.692722 149.1264 
" style="fill: none; stroke: #334155; stroke-width: 1.5; stroke-linecap: round"/>
    <path d="M 239.692722 147.1264 
L 243.692722 149.1264 
L 239.692722 151.1264 
L 239.692722 147.1264 
z
" style="fill: #334155; stroke: #334155; stroke-width: 1.5; stroke-linecap: round"/>
   </g>
   <g id="patch_24">
    <path d="M 300.61441 120.115349 
Q 210.311304 173.520412 121.451707 226.071786 
" style="fill: none; stroke: #334155; stroke-width: 1.5; stroke-linecap: round"/>
    <path d="M 125.912758 225.757106 
L 121.451707 226.071786 
L 123.876594 222.314137 
L 125.912758 225.757106 
z
" style="fill: #334155; stroke: #334155; stroke-width: 1.5; stroke-linecap: round"/>
   </g>
   <g id="patch_25">
    <path d="M 301.927058 170.25153 
Q 284.526588 197.912665 268.019092 224.154259 
" style="fill: none; stroke: #334155; stroke-width: 1.5; stroke-linecap: round"/>
    <path d="M 271.841862 221.83339 
L 268.019092 224.154259 
L 268.456059 219.703522 
L 271.841862 221.83339 
z
" style="fill: #334155; stroke: #334155; stroke-width: 1.5; stroke-linecap: round"/>
   </g>
   <g id="patch_26">
    <path d="M 183.065361 246.7008 
Q 186.877621 246.7008 189.012829 246.7008 
" style="fill: none; stroke: #334155; stroke-width: 1.5; stroke-linecap: round"/>
    <path d="M 185.012829 244.7008 
L 189.012829 246.7008 
L 185.012829 248.7008 
L 185.012829 244.7008 
z
" style="fill: #334155; stroke: #334155; stroke-width: 1.5; stroke-linecap: round"/>
   </g>
   <g id="patch_27">
    <path d="M 253.829665 266.618053 
Q 229.842508 282.18207 207.262204 296.833254 
" style="fill: none; stroke: #334155; stroke-width: 1.5; stroke-linecap: round"/>
    <path d="M 211.706361 296.333789 
L 207.262204 296.833254 
L 209.529126 292.978249 
L 211.706361 296.333789 
z
" style="fill: #334155; stroke: #334155; stroke-width: 1.5; stroke-linecap: round"/>
   </g>
   <g id="patch_28">
    <path d="M 179.064 268.439344 
Q 179.064 282.180863 179.064 294.245332 
" style="fill: none; stroke: #334155; stroke-width: 1.5; stroke-linecap: round"/>
    <path d="M 181.064 290.245332 
L 179.064 294.245332 
L 177.064 290.245332 
L 181.064 290.245332 
z
" style="fill: #334155; stroke: #334155; stroke-width: 1.5; stroke-linecap: round"/>
   </g>
   <g id="patch_29">
    <path d="M 353.295345 296.697502 
Q 389.989193 246.699174 425.690795 198.052863 
" style="fill: none; stroke: #334155; stroke-width: 1.5; stroke-linecap: round"/>
    <path d="M 421.711776 200.094286 
L 425.690795 198.052863 
L 424.936522 202.460932 
L 421.711776 200.094286 
z
" style="fill: #334155; stroke: #334155; stroke-width: 1.5; stroke-linecap: round"/>
   </g>
   <g id="patch_30">
    <path d="M 636.139428 122.138652 
Q 655.594759 120.297717 673.380498 118.614766 
" style="fill: none; stroke: #334155; stroke-width: 1.5; stroke-linecap: round"/>
    <path d="M 669.20988 117.000471 
L 673.380498 118.614766 
L 669.586691 120.982683 
L 669.20988 117.000471 
z
" style="fill: #334155; stroke: #334155; stroke-width: 1.5; stroke-linecap: round"/>
   </g>
   <g id="patch_31">
    <path d="M 636.162315 202.3488 
Q 655.596799 202.3488 673.354232 202.3488 
" style="fill: none; stroke: #334155; stroke-width: 1.5; stroke-linecap: round"/>
    <path d="M 669.354232 200.3488 
L 673.354232 202.3488 
L 669.354232 204.3488 
L 669.354232 200.3488 
z
" style="fill: #334155; stroke: #334155; stroke-width: 1.5; stroke-linecap: round"/>
   </g>
   <g id="patch_32">
    <path d="M 636.00783 274.404287 
Q 655.596379 279.964908 673.571621 285.067557 
" style="fill: none; stroke: #334155; stroke-width: 1.5; stroke-linecap: round"/>
    <path d="M 670.26982 282.05125 
L 673.571621 285.067557 
L 669.177495 285.899214 
L 670.26982 282.05125 
z
" style="fill: #334155; stroke: #334155; stroke-width: 1.5; stroke-linecap: round"/>
   </g>
   <g id="patch_33">
    <path d="M 354.600246 342.686714 
Q 514.980749 273.311676 673.822033 204.602451 
" style="fill: none; stroke: #334155; stroke-width: 1.5; stroke-linecap: round"/>
    <path d="M 669.356755 204.354881 
L 673.822033 204.602451 
L 670.944811 208.026131 
L 669.356755 204.354881 
z
" style="fill: #334155; stroke: #334155; stroke-width: 1.5; stroke-linecap: round"/>
   </g>
   <g id="text_21">
    <!-- Figure 1. ChaoRec System Architecture -->
    <g transform="translate(220.7425 32.6631) scale(0.16 -0.16)">
     <defs>
      <path id="DejaVuSans-Bold-46" d="M 588 4666 
L 3834 4666 
L 3834 3756 
L 1791 3756 
L 1791 2888 
L 3713 2888 
L 3713 1978 
L 1791 1978 
L 1791 0 
L 588 0 
L 588 4666 
z
" transform="scale(0.015625)"/>
      <path id="DejaVuSans-Bold-31" d="M 750 831 
L 1813 831 
L 1813 3847 
L 722 3622 
L 722 4441 
L 1806 4666 
L 2950 4666 
L 2950 831 
L 4013 831 
L 4013 0 
L 750 0 
L 750 831 
z
" transform="scale(0.015625)"/>
      <path id="DejaVuSans-Bold-2e" d="M 653 1209 
L 1778 1209 
L 1778 0 
L 653 0 
L 653 1209 
z
" transform="scale(0.015625)"/>
      <path id="DejaVuSans-Bold-52" d="M 2297 2597 
Q 2675 2597 2839 2737 
Q 3003 2878 3003 3200 
Q 3003 3519 2839 3656 
Q 2675 3794 2297 3794 
L 1791 3794 
L 1791 2597 
L 2297 2597 
z
M 1791 1766 
L 1791 0 
L 588 0 
L 588 4666 
L 2425 4666 
Q 3347 4666 3776 4356 
Q 4206 4047 4206 3378 
Q 4206 2916 3982 2619 
Q 3759 2322 3309 2181 
Q 3556 2125 3751 1926 
Q 3947 1728 4147 1325 
L 4800 0 
L 3519 0 
L 2950 1159 
Q 2778 1509 2601 1637 
Q 2425 1766 2131 1766 
L 1791 1766 
z
" transform="scale(0.015625)"/>
      <path id="DejaVuSans-Bold-53" d="M 3834 4519 
L 3834 3531 
Q 3450 3703 3084 3790 
Q 2719 3878 2394 3878 
Q 1963 3878 1756 3759 
Q 1550 3641 1550 3391 
Q 1550 3203 1689 3098 
Q 1828 2994 2194 2919 
L 2706 2816 
Q 3484 2659 3812 2340 
Q 4141 2022 4141 1434 
Q 4141 663 3683 286 
Q 3225 -91 2284 -91 
Q 1841 -91 1394 -6 
Q 947 78 500 244 
L 500 1259 
Q 947 1022 1364 901 
Q 1781 781 2169 781 
Q 2563 781 2772 912 
Q 2981 1044 2981 1288 
Q 2981 1506 2839 1625 
Q 2697 1744 2272 1838 
L 1806 1941 
Q 1106 2091 782 2419 
Q 459 2747 459 3303 
Q 459 4000 909 4375 
Q 1359 4750 2203 4750 
Q 2588 4750 2994 4692 
Q 3400 4634 3834 4519 
z
" transform="scale(0.015625)"/>
      <path id="DejaVuSans-Bold-6d" d="M 3781 2919 
Q 3994 3244 4286 3414 
Q 4578 3584 4928 3584 
Q 5531 3584 5847 3212 
Q 6163 2841 6163 2131 
L 6163 0 
L 5038 0 
L 5038 1825 
Q 5041 1866 5042 1909 
Q 5044 1953 5044 2034 
Q 5044 2406 4934 2573 
Q 4825 2741 4581 2741 
Q 4263 2741 4089 2478 
Q 3916 2216 3909 1719 
L 3909 0 
L 2784 0 
L 2784 1825 
Q 2784 2406 2684 2573 
Q 2584 2741 2328 2741 
Q 2006 2741 1831 2477 
Q 1656 2213 1656 1722 
L 1656 0 
L 531 0 
L 531 3500 
L 1656 3500 
L 1656 2988 
Q 1863 3284 2130 3434 
Q 2397 3584 2719 3584 
Q 3081 3584 3359 3409 
Q 3638 3234 3781 2919 
z
" transform="scale(0.015625)"/>
      <path id="DejaVuSans-Bold-41" d="M 3419 850 
L 1538 850 
L 1241 0 
L 31 0 
L 1759 4666 
L 3194 4666 
L 4922 0 
L 3713 0 
L 3419 850 
z
M 1838 1716 
L 3116 1716 
L 2478 3572 
L 1838 1716 
z
" transform="scale(0.015625)"/>
     </defs>
     <use xlink:href="#DejaVuSans-Bold-46"/>
     <use xlink:href="#DejaVuSans-Bold-69" x="68.310547"/>
     <use xlink:href="#DejaVuSans-Bold-67" x="102.587891"/>
     <use xlink:href="#DejaVuSans-Bold-75" x="174.169922"/>
     <use xlink:href="#DejaVuSans-Bold-72" x="245.361328"/>
     <use xlink:href="#DejaVuSans-Bold-65" x="294.677734"/>
     <use xlink:href="#DejaVuSans-Bold-20" x="362.5"/>
     <use xlink:href="#DejaVuSans-Bold-31" x="397.314453"/>
     <use xlink:href="#DejaVuSans-Bold-2e" x="466.894531"/>
     <use xlink:href="#DejaVuSans-Bold-20" x="504.882812"/>
     <use xlink:href="#DejaVuSans-Bold-43" x="539.697266"/>
     <use xlink:href="#DejaVuSans-Bold-68" x="613.085938"/>
     <use xlink:href="#DejaVuSans-Bold-61" x="684.277344"/>
     <use xlink:href="#DejaVuSans-Bold-6f" x="751.757812"/>
     <use xlink:href="#DejaVuSans-Bold-52" x="820.458984"/>
     <use xlink:href="#DejaVuSans-Bold-65" x="897.460938"/>
     <use xlink:href="#DejaVuSans-Bold-63" x="965.283203"/>
     <use xlink:href="#DejaVuSans-Bold-20" x="1024.560547"/>
     <use xlink:href="#DejaVuSans-Bold-53" x="1059.375"/>
     <use xlink:href="#DejaVuSans-Bold-79" x="1131.396484"/>
     <use xlink:href="#DejaVuSans-Bold-73" x="1196.582031"/>
     <use xlink:href="#DejaVuSans-Bold-74" x="1256.103516"/>
     <use xlink:href="#DejaVuSans-Bold-65" x="1303.90625"/>
     <use xlink:href="#DejaVuSans-Bold-6d" x="1371.728516"/>
     <use xlink:href="#DejaVuSans-Bold-20" x="1475.927734"/>
     <use xlink:href="#DejaVuSans-Bold-41" x="1510.742188"/>
     <use xlink:href="#DejaVuSans-Bold-72" x="1588.134766"/>
     <use xlink:href="#DejaVuSans-Bold-63" x="1637.451172"/>
     <use xlink:href="#DejaVuSans-Bold-68" x="1696.728516"/>
     <use xlink:href="#DejaVuSans-Bold-69" x="1767.919922"/>
     <use xlink:href="#DejaVuSans-Bold-74" x="1802.197266"/>
     <use xlink:href="#DejaVuSans-Bold-65" x="1850"/>
     <use xlink:href="#DejaVuSans-Bold-63" x="1917.822266"/>
     <use xlink:href="#DejaVuSans-Bold-74" x="1977.099609"/>
     <use xlink:href="#DejaVuSans-Bold-75" x="2024.902344"/>
     <use xlink:href="#DejaVuSans-Bold-72" x="2096.09375"/>
     <use xlink:href="#DejaVuSans-Bold-65" x="2145.410156"/>
    </g>
   </g>
   <g id="text_22">
    <!-- Unified data-model-training pipeline for 54 recommendation models -->
    <g style="fill: #334155" transform="translate(226.960156 41.409637) scale(0.1 -0.1)">
     <use xlink:href="#DejaVuSans-55"/>
     <use xlink:href="#DejaVuSans-6e" x="73.193359"/>
     <use xlink:href="#DejaVuSans-69" x="136.572266"/>
     <use xlink:href="#DejaVuSans-66" x="164.355469"/>
     <use xlink:href="#DejaVuSans-69" x="199.560547"/>
     <use xlink:href="#DejaVuSans-65" x="227.34375"/>
     <use xlink:href="#DejaVuSans-64" x="288.867188"/>
     <use xlink:href="#DejaVuSans-20" x="352.34375"/>
     <use xlink:href="#DejaVuSans-64" x="384.130859"/>
     <use xlink:href="#DejaVuSans-61" x="447.607422"/>
     <use xlink:href="#DejaVuSans-74" x="508.886719"/>
     <use xlink:href="#DejaVuSans-61" x="548.095703"/>
     <use xlink:href="#DejaVuSans-2d" x="609.375"/>
     <use xlink:href="#DejaVuSans-6d" x="645.458984"/>
     <use xlink:href="#DejaVuSans-6f" x="742.871094"/>
     <use xlink:href="#DejaVuSans-64" x="804.052734"/>
     <use xlink:href="#DejaVuSans-65" x="867.529297"/>
     <use xlink:href="#DejaVuSans-6c" x="929.052734"/>
     <use xlink:href="#DejaVuSans-2d" x="956.835938"/>
     <use xlink:href="#DejaVuSans-74" x="992.919922"/>
     <use xlink:href="#DejaVuSans-72" x="1032.128906"/>
     <use xlink:href="#DejaVuSans-61" x="1073.242188"/>
     <use xlink:href="#DejaVuSans-69" x="1134.521484"/>
     <use xlink:href="#DejaVuSans-6e" x="1162.304688"/>
     <use xlink:href="#DejaVuSans-69" x="1225.683594"/>
     <use xlink:href="#DejaVuSans-6e" x="1253.466797"/>
     <use xlink:href="#DejaVuSans-67" x="1316.845703"/>
     <use xlink:href="#DejaVuSans-20" x="1380.322266"/>
     <use xlink:href="#DejaVuSans-70" x="1412.109375"/>
     <use xlink:href="#DejaVuSans-69" x="1475.585938"/>
     <use xlink:href="#DejaVuSans-70" x="1503.369141"/>
     <use xlink:href="#DejaVuSans-65" x="1566.845703"/>
     <use xlink:href="#DejaVuSans-6c" x="1628.369141"/>
     <use xlink:href="#DejaVuSans-69" x="1656.152344"/>
     <use xlink:href="#DejaVuSans-6e" x="1683.935547"/>
     <use xlink:href="#DejaVuSans-65" x="1747.314453"/>
     <use xlink:href="#DejaVuSans-20" x="1808.837891"/>
     <use xlink:href="#DejaVuSans-66" x="1840.625"/>
     <use xlink:href="#DejaVuSans-6f" x="1875.830078"/>
     <use xlink:href="#DejaVuSans-72" x="1937.011719"/>
     <use xlink:href="#DejaVuSans-20" x="1978.125"/>
     <use xlink:href="#DejaVuSans-35" x="2009.912109"/>
     <use xlink:href="#DejaVuSans-34" x="2073.535156"/>
     <use xlink:href="#DejaVuSans-20" x="2137.158203"/>
     <use xlink:href="#DejaVuSans-72" x="2168.945312"/>
     <use xlink:href="#DejaVuSans-65" x="2207.808594"/>
     <use xlink:href="#DejaVuSans-63" x="2269.332031"/>
     <use xlink:href="#DejaVuSans-6f" x="2324.3125"/>
     <use xlink:href="#DejaVuSans-6d" x="2385.494141"/>
     <use xlink:href="#DejaVuSans-6d" x="2482.90625"/>
     <use xlink:href="#DejaVuSans-65" x="2580.318359"/>
     <use xlink:href="#DejaVuSans-6e" x="2641.841797"/>
     <use xlink:href="#DejaVuSans-64" x="2705.220703"/>
     <use xlink:href="#DejaVuSans-61" x="2768.697266"/>
     <use xlink:href="#DejaVuSans-74" x="2829.976562"/>
     <use xlink:href="#DejaVuSans-69" x="2869.185547"/>
     <use xlink:href="#DejaVuSans-6f" x="2896.96875"/>
     <use xlink:href="#DejaVuSans-6e" x="2958.150391"/>
     <use xlink:href="#DejaVuSans-20" x="3021.529297"/>
     <use xlink:href="#DejaVuSans-6d" x="3053.316406"/>
     <use xlink:href="#DejaVuSans-6f" x="3150.728516"/>
     <use xlink:href="#DejaVuSans-64" x="3211.910156"/>
     <use xlink:href="#DejaVuSans-65" x="3275.386719"/>
     <use xlink:href="#DejaVuSans-6c" x="3336.910156"/>
     <use xlink:href="#DejaVuSans-73" x="3364.693359"/>
    </g>
   </g>
  </g>
 </g>
 <defs>
  <clipPath id="p283f2dba8b">
   <rect x="7.2" y="7.2" width="781.2" height="443.52"/>
  </clipPath>
 </defs>
</svg>
