<?xml version="1.0" encoding="utf-8" standalone="no"?>
<!DOCTYPE svg PUBLIC "-//W3C//DTD SVG 1.1//EN"
  "http://www.w3.org/Graphics/SVG/1.1/DTD/svg11.dtd">
<svg xmlns:xlink="http://www.w3.org/1999/xlink" width="405pt" height="213.984pt" viewBox="0 0 405 213.984" xmlns="http://www.w3.org/2000/svg" version="1.1">
 <metadata>
  <rdf:RDF xmlns:dc="http://purl.org/dc/elements/1.1/" xmlns:cc="http://creativecommons.org/ns#" xmlns:rdf="http://www.w3.org/1999/02/22-rdf-syntax-ns#">
   <cc:Work>
    <dc:type rdf:resource="http://purl.org/dc/dcmitype/StillImage"/>
    <dc:date>2026-03-13T14:09:11.315325</dc:date>
    <dc:format>image/svg+xml</dc:format>
    <dc:creator>
     <cc:Agent>
      <dc:title>Matplotlib v3.6.2, https://matplotlib.org/</dc:title>
     </cc:Agent>
    </dc:creator>
   </cc:Work>
  </rdf:RDF>
 </metadata>
 <defs>
  <style type="text/css">*{stroke-linejoin: round; stroke-linecap: butt}</style>
 </defs>
 <g id="figure_1">
  <g id="patch_1">
   <path d="M 0 213.984 
L 405 213.984 
L 405 0 
L 0 0 
z
" style="fill: #ffffff"/>
  </g>
  <g id="axes_1">
   <g id="patch_2">
    <path d="M 22.824 69.07104 
L 77.508 69.07104 
Q 85.32 69.07104 85.32 65.07936 
L 85.32 37.1376 
Q 85.32 33.14592 77.508 33.14592 
L 22.824 33.14592 
Q 15.012 33.14592 15.012 37.1376 
L 15.012 65.07936 
Q 15.012 69.07104 22.824 69.07104 
z
" clip-path="url(#p72597413e4)" style="fill: #ffffff; stroke: #1d4ed8; stroke-width: 0.9; stroke-linejoin: miter"/>
   </g>
   <g id="patch_3">
    <path d="M 97.038 69.07104 
L 159.534 69.07104 
Q 167.346 69.07104 167.346 65.07936 
L 167.346 37.1376 
Q 167.346 33.14592 159.534 33.14592 
L 97.038 33.14592 
Q 89.226 33.14592 89.226 37.1376 
L 89.226 65.07936 
Q 89.226 69.07104 97.038 69.07104 
z
" clip-path="url(#p72597413e4)" style="fill: #ffffff; stroke: #1d4ed8; stroke-width: 0.9; stroke-linejoin: miter"/>
   </g>
   <g id="patch_4">
    <path d="M 179.064 69.07104 
L 241.56 69.07104 
Q 249.372 69.07104 249.372 65.07936 
L 249.372 37.1376 
Q 249.372 33.14592 241.56 33.14592 
L 179.064 33.14592 
Q 171.252 33.14592 171.252 37.1376 
L 171.252 65.07936 
Q 171.252 69.07104 179.064 69.07104 
z
" clip-path="url(#p72597413e4)" style="fill: #ffffff; stroke: #1d4ed8; stroke-width: 0.9; stroke-linejoin: miter"/>
   </g>
   <g id="patch_5">
    <path d="M 261.09 69.07104 
L 315.774 69.07104 
Q 323.586 69.07104 323.586 65.07936 
L 323.586 37.1376 
Q 323.586 33.14592 315.774 33.14592 
L 261.09 33.14592 
Q 253.278 33.14592 253.278 37.1376 
L 253.278 65.07936 
Q 253.278 69.07104 261.09 69.07104 
z
" clip-path="url(#p72597413e4)" style="fill: #ffffff; stroke: #1d4ed8; stroke-width: 0.9; stroke-linejoin: miter"/>
   </g>
   <g id="patch_6">
    <path d="M 335.304 69.07104 
L 382.176 69.07104 
Q 389.988 69.07104 389.988 65.07936 
L 389.988 37.1376 
Q 389.988 33.14592 382.176 33.14592 
L 335.304 33.14592 
Q 327.492 33.14592 327.492 37.1376 
L 327.492 65.07936 
Q 327.492 69.07104 335.304 69.07104 
z
" clip-path="url(#p72597413e4)" style="fill: #ffffff; stroke: #b45309; stroke-width: 0.9; stroke-linejoin: miter"/>
   </g>
   <g id="patch_7">
    <path d="M 38.448 124.95456 
L 140.004 124.95456 
Q 147.816 124.95456 147.816 120.96288 
L 147.816 93.02112 
Q 147.816 89.02944 140.004 89.02944 
L 38.448 89.02944 
Q 30.636 89.02944 30.636 93.02112 
L 30.636 120.96288 
Q 30.636 124.95456 38.448 124.95456 
z
" clip-path="url(#p72597413e4)" style="fill: #ffffff; stroke: #0f766e; stroke-width: 0.9; stroke-linejoin: miter"/>
   </g>
   <g id="patch_8">
    <path d="M 163.44 124.95456 
L 249.372 124.95456 
Q 257.184 124.95456 257.184 120.96288 
L 257.184 93.02112 
Q 257.184 89.02944 249.372 89.02944 
L 163.44 89.02944 
Q 155.628 89.02944 155.628 93.02112 
L 155.628 120.96288 
Q 155.628 124.95456 163.44 124.95456 
z
" clip-path="url(#p72597413e4)" style="fill: #ffffff; stroke: #0f766e; stroke-width: 0.9; stroke-linejoin: miter"/>
   </g>
   <g id="patch_9">
    <path d="M 272.808 124.95456 
L 366.552 124.95456 
Q 374.364 124.95456 374.364 120.96288 
L 374.364 93.02112 
Q 374.364 89.02944 366.552 89.02944 
L 272.808 89.02944 
Q 264.996 89.02944 264.996 93.02112 
L 264.996 120.96288 
Q 264.996 124.95456 272.808 124.95456 
z
" clip-path="url(#p72597413e4)" style="fill: #ffffff; stroke: #0f766e; stroke-width: 0.9; stroke-linejoin: miter"/>
   </g>
   <g id="patch_10">
    <path d="M 22.824 184.82976 
L 186.876 184.82976 
Q 194.688 184.82976 194.688 180.83808 
L 194.688 144.91296 
Q 194.688 140.92128 186.876 140.92128 
L 22.824 140.92128 
Q 15.012 140.92128 15.012 144.91296 
L 15.012 180.83808 
Q 15.012 184.82976 22.824 184.82976 
z
" clip-path="url(#p72597413e4)" style="fill: #f8fafc; stroke: #475569; stroke-width: 0.9; stroke-linejoin: miter"/>
   </g>
   <g id="patch_11">
    <path d="M 214.218 184.82976 
L 382.176 184.82976 
Q 389.988 184.82976 389.988 180.83808 
L 389.988 144.91296 
Q 389.988 140.92128 382.176 140.92128 
L 214.218 140.92128 
Q 206.406 140.92128 206.406 144.91296 
L 206.406 180.83808 
Q 206.406 184.82976 214.218 184.82976 
z
" clip-path="url(#p72597413e4)" style="fill: #f8fafc; stroke: #475569; stroke-width: 0.9; stroke-linejoin: miter"/>
   </g>
   <g id="text_1">
    <!-- 1) Parse args -->
    <g transform="translate(32.149203 52.783558) scale(0.07 -0.07)">
     <defs>
      <path id="TimesNewRomanPSMT-31" d="M 750 3822 
L 1781 4325 
L 1884 4325 
L 1884 747 
Q 1884 391 1914 303 
Q 1944 216 2037 169 
Q 2131 122 2419 116 
L 2419 0 
L 825 0 
L 825 116 
Q 1125 122 1212 167 
Q 1300 213 1334 289 
Q 1369 366 1369 747 
L 1369 3034 
Q 1369 3497 1338 3628 
Q 1316 3728 1258 3775 
Q 1200 3822 1119 3822 
Q 1003 3822 797 3725 
L 750 3822 
z
" transform="scale(0.015625)"/>
      <path id="TimesNewRomanPSMT-29" d="M 144 4313 
L 144 4444 
Q 619 4209 934 3891 
Q 1381 3434 1625 2820 
Q 1869 2206 1869 1541 
Q 1869 572 1392 -226 
Q 916 -1025 144 -1369 
L 144 -1253 
Q 528 -1038 776 -670 
Q 1025 -303 1145 264 
Q 1266 831 1266 1447 
Q 1266 2113 1163 2663 
Q 1084 3094 967 3353 
Q 850 3613 656 3853 
Q 463 4094 144 4313 
z
" transform="scale(0.015625)"/>
      <path id="TimesNewRomanPSMT-20" transform="scale(0.015625)"/>
      <path id="TimesNewRomanPSMT-50" d="M 1313 1984 
L 1313 750 
Q 1313 350 1400 253 
Q 1519 116 1759 116 
L 1922 116 
L 1922 0 
L 106 0 
L 106 116 
L 266 116 
Q 534 116 650 291 
Q 713 388 713 750 
L 713 3488 
Q 713 3888 628 3984 
Q 506 4122 266 4122 
L 106 4122 
L 106 4238 
L 1659 4238 
Q 2228 4238 2556 4120 
Q 2884 4003 3109 3725 
Q 3334 3447 3334 3066 
Q 3334 2547 2992 2222 
Q 2650 1897 2025 1897 
Q 1872 1897 1694 1919 
Q 1516 1941 1313 1984 
z
M 1313 2163 
Q 1478 2131 1606 2115 
Q 1734 2100 1825 2100 
Q 2150 2100 2386 2351 
Q 2622 2603 2622 3003 
Q 2622 3278 2509 3514 
Q 2397 3750 2190 3867 
Q 1984 3984 1722 3984 
Q 1563 3984 1313 3925 
L 1313 2163 
z
" transform="scale(0.015625)"/>
      <path id="TimesNewRomanPSMT-61" d="M 1822 413 
Q 1381 72 1269 19 
Q 1100 -59 909 -59 
Q 613 -59 420 144 
Q 228 347 228 678 
Q 228 888 322 1041 
Q 450 1253 767 1440 
Q 1084 1628 1822 1897 
L 1822 2009 
Q 1822 2438 1686 2597 
Q 1550 2756 1291 2756 
Q 1094 2756 978 2650 
Q 859 2544 859 2406 
L 866 2225 
Q 866 2081 792 2003 
Q 719 1925 600 1925 
Q 484 1925 411 2006 
Q 338 2088 338 2228 
Q 338 2497 613 2722 
Q 888 2947 1384 2947 
Q 1766 2947 2009 2819 
Q 2194 2722 2281 2516 
Q 2338 2381 2338 1966 
L 2338 994 
Q 2338 584 2353 492 
Q 2369 400 2405 369 
Q 2441 338 2488 338 
Q 2538 338 2575 359 
Q 2641 400 2828 588 
L 2828 413 
Q 2478 -56 2159 -56 
Q 2006 -56 1915 50 
Q 1825 156 1822 413 
z
M 1822 616 
L 1822 1706 
Q 1350 1519 1213 1441 
Q 966 1303 859 1153 
Q 753 1003 753 825 
Q 753 600 887 451 
Q 1022 303 1197 303 
Q 1434 303 1822 616 
z
" transform="scale(0.015625)"/>
      <path id="TimesNewRomanPSMT-72" d="M 1038 2947 
L 1038 2303 
Q 1397 2947 1775 2947 
Q 1947 2947 2059 2842 
Q 2172 2738 2172 2600 
Q 2172 2478 2090 2393 
Q 2009 2309 1897 2309 
Q 1788 2309 1652 2417 
Q 1516 2525 1450 2525 
Q 1394 2525 1328 2463 
Q 1188 2334 1038 2041 
L 1038 669 
Q 1038 431 1097 309 
Q 1138 225 1241 169 
Q 1344 113 1538 113 
L 1538 0 
L 72 0 
L 72 113 
Q 291 113 397 181 
Q 475 231 506 341 
Q 522 394 522 644 
L 522 1753 
Q 522 2253 501 2348 
Q 481 2444 426 2487 
Q 372 2531 291 2531 
Q 194 2531 72 2484 
L 41 2597 
L 906 2947 
L 1038 2947 
z
" transform="scale(0.015625)"/>
      <path id="TimesNewRomanPSMT-73" d="M 2050 2947 
L 2050 1972 
L 1947 1972 
Q 1828 2431 1642 2597 
Q 1456 2763 1169 2763 
Q 950 2763 815 2647 
Q 681 2531 681 2391 
Q 681 2216 781 2091 
Q 878 1963 1175 1819 
L 1631 1597 
Q 2266 1288 2266 781 
Q 2266 391 1970 151 
Q 1675 -88 1309 -88 
Q 1047 -88 709 6 
Q 606 38 541 38 
Q 469 38 428 -44 
L 325 -44 
L 325 978 
L 428 978 
Q 516 541 762 319 
Q 1009 97 1316 97 
Q 1531 97 1667 223 
Q 1803 350 1803 528 
Q 1803 744 1651 891 
Q 1500 1038 1047 1263 
Q 594 1488 453 1669 
Q 313 1847 313 2119 
Q 313 2472 555 2709 
Q 797 2947 1181 2947 
Q 1350 2947 1591 2875 
Q 1750 2828 1803 2828 
Q 1853 2828 1881 2850 
Q 1909 2872 1947 2947 
L 2050 2947 
z
" transform="scale(0.015625)"/>
      <path id="TimesNewRomanPSMT-65" d="M 681 1784 
Q 678 1147 991 784 
Q 1303 422 1725 422 
Q 2006 422 2214 576 
Q 2422 731 2563 1106 
L 2659 1044 
Q 2594 616 2278 264 
Q 1963 -88 1488 -88 
Q 972 -88 605 314 
Q 238 716 238 1394 
Q 238 2128 614 2539 
Q 991 2950 1559 2950 
Q 2041 2950 2350 2633 
Q 2659 2316 2659 1784 
L 681 1784 
z
M 681 1966 
L 2006 1966 
Q 1991 2241 1941 2353 
Q 1863 2528 1708 2628 
Q 1553 2728 1384 2728 
Q 1125 2728 920 2526 
Q 716 2325 681 1966 
z
" transform="scale(0.015625)"/>
      <path id="TimesNewRomanPSMT-67" d="M 966 1044 
Q 703 1172 562 1401 
Q 422 1631 422 1909 
Q 422 2334 742 2640 
Q 1063 2947 1563 2947 
Q 1972 2947 2272 2747 
L 2878 2747 
Q 3013 2747 3034 2739 
Q 3056 2731 3066 2713 
Q 3084 2684 3084 2613 
Q 3084 2531 3069 2500 
Q 3059 2484 3036 2475 
Q 3013 2466 2878 2466 
L 2506 2466 
Q 2681 2241 2681 1891 
Q 2681 1491 2375 1206 
Q 2069 922 1553 922 
Q 1341 922 1119 984 
Q 981 866 932 777 
Q 884 688 884 625 
Q 884 572 936 522 
Q 988 472 1138 450 
Q 1225 438 1575 428 
Q 2219 413 2409 384 
Q 2700 344 2873 169 
Q 3047 -6 3047 -263 
Q 3047 -616 2716 -925 
Q 2228 -1381 1444 -1381 
Q 841 -1381 425 -1109 
Q 191 -953 191 -784 
Q 191 -709 225 -634 
Q 278 -519 444 -313 
Q 466 -284 763 25 
Q 600 122 533 198 
Q 466 275 466 372 
Q 466 481 555 628 
Q 644 775 966 1044 
z
M 1509 2797 
Q 1278 2797 1122 2612 
Q 966 2428 966 2047 
Q 966 1553 1178 1281 
Q 1341 1075 1591 1075 
Q 1828 1075 1981 1253 
Q 2134 1431 2134 1813 
Q 2134 2309 1919 2591 
Q 1759 2797 1509 2797 
z
M 934 0 
Q 788 -159 713 -296 
Q 638 -434 638 -550 
Q 638 -700 819 -813 
Q 1131 -1006 1722 -1006 
Q 2284 -1006 2551 -807 
Q 2819 -609 2819 -384 
Q 2819 -222 2659 -153 
Q 2497 -84 2016 -72 
Q 1313 -53 934 0 
z
" transform="scale(0.015625)"/>
     </defs>
     <use xlink:href="#TimesNewRomanPSMT-31"/>
     <use xlink:href="#TimesNewRomanPSMT-29" x="50"/>
     <use xlink:href="#TimesNewRomanPSMT-20" x="83.300781"/>
     <use xlink:href="#TimesNewRomanPSMT-50" x="108.300781"/>
     <use xlink:href="#TimesNewRomanPSMT-61" x="163.916016"/>
     <use xlink:href="#TimesNewRomanPSMT-72" x="208.300781"/>
     <use xlink:href="#TimesNewRomanPSMT-73" x="241.601562"/>
     <use xlink:href="#TimesNewRomanPSMT-65" x="280.517578"/>
     <use xlink:href="#TimesNewRomanPSMT-20" x="324.902344"/>
     <use xlink:href="#TimesNewRomanPSMT-61" x="349.902344"/>
     <use xlink:href="#TimesNewRomanPSMT-72" x="394.287109"/>
     <use xlink:href="#TimesNewRomanPSMT-67" x="425.837891"/>
     <use xlink:href="#TimesNewRomanPSMT-73" x="475.837891"/>
    </g>
   </g>
   <g id="text_2">
    <!-- 2) Load YAML -->
    <g transform="translate(106.644516 49.125074) scale(0.07 -0.07)">
     <defs>
      <path id="TimesNewRomanPSMT-32" d="M 2934 816 
L 2638 0 
L 138 0 
L 138 116 
Q 1241 1122 1691 1759 
Q 2141 2397 2141 2925 
Q 2141 3328 1894 3587 
Q 1647 3847 1303 3847 
Q 991 3847 742 3664 
Q 494 3481 375 3128 
L 259 3128 
Q 338 3706 661 4015 
Q 984 4325 1469 4325 
Q 1984 4325 2329 3994 
Q 2675 3663 2675 3213 
Q 2675 2891 2525 2569 
Q 2294 2063 1775 1497 
Q 997 647 803 472 
L 1909 472 
Q 2247 472 2383 497 
Q 2519 522 2628 598 
Q 2738 675 2819 816 
L 2934 816 
z
" transform="scale(0.015625)"/>
      <path id="TimesNewRomanPSMT-4c" d="M 3669 1172 
L 3772 1150 
L 3409 0 
L 128 0 
L 128 116 
L 288 116 
Q 556 116 672 291 
Q 738 391 738 753 
L 738 3488 
Q 738 3884 650 3984 
Q 528 4122 288 4122 
L 128 4122 
L 128 4238 
L 2047 4238 
L 2047 4122 
Q 1709 4125 1573 4059 
Q 1438 3994 1388 3894 
Q 1338 3794 1338 3416 
L 1338 753 
Q 1338 494 1388 397 
Q 1425 331 1503 300 
Q 1581 269 1991 269 
L 2300 269 
Q 2788 269 2984 341 
Q 3181 413 3343 595 
Q 3506 778 3669 1172 
z
" transform="scale(0.015625)"/>
      <path id="TimesNewRomanPSMT-6f" d="M 1600 2947 
Q 2250 2947 2644 2453 
Q 2978 2031 2978 1484 
Q 2978 1100 2793 706 
Q 2609 313 2286 112 
Q 1963 -88 1566 -88 
Q 919 -88 538 428 
Q 216 863 216 1403 
Q 216 1797 411 2186 
Q 606 2575 925 2761 
Q 1244 2947 1600 2947 
z
M 1503 2744 
Q 1338 2744 1170 2645 
Q 1003 2547 900 2300 
Q 797 2053 797 1666 
Q 797 1041 1045 587 
Q 1294 134 1700 134 
Q 2003 134 2200 384 
Q 2397 634 2397 1244 
Q 2397 2006 2069 2444 
Q 1847 2744 1503 2744 
z
" transform="scale(0.015625)"/>
      <path id="TimesNewRomanPSMT-64" d="M 2222 322 
Q 2013 103 1813 7 
Q 1613 -88 1381 -88 
Q 913 -88 563 304 
Q 213 697 213 1313 
Q 213 1928 600 2439 
Q 988 2950 1597 2950 
Q 1975 2950 2222 2709 
L 2222 3238 
Q 2222 3728 2198 3840 
Q 2175 3953 2125 3993 
Q 2075 4034 2000 4034 
Q 1919 4034 1784 3984 
L 1744 4094 
L 2597 4444 
L 2738 4444 
L 2738 1134 
Q 2738 631 2761 520 
Q 2784 409 2836 365 
Q 2888 322 2956 322 
Q 3041 322 3181 375 
L 3216 266 
L 2366 -88 
L 2222 -88 
L 2222 322 
z
M 2222 541 
L 2222 2016 
Q 2203 2228 2109 2403 
Q 2016 2578 1861 2667 
Q 1706 2756 1559 2756 
Q 1284 2756 1069 2509 
Q 784 2184 784 1559 
Q 784 928 1059 592 
Q 1334 256 1672 256 
Q 1956 256 2222 541 
z
" transform="scale(0.015625)"/>
      <path id="TimesNewRomanPSMT-59" d="M 3050 4238 
L 4528 4238 
L 4528 4122 
L 4447 4122 
Q 4366 4122 4209 4050 
Q 4053 3978 3925 3843 
Q 3797 3709 3609 3406 
L 2588 1797 
L 2588 734 
Q 2588 344 2675 247 
Q 2794 116 3050 116 
L 3188 116 
L 3188 0 
L 1388 0 
L 1388 116 
L 1538 116 
Q 1806 116 1919 278 
Q 1988 378 1988 734 
L 1988 1738 
L 825 3513 
Q 619 3825 545 3903 
Q 472 3981 241 4091 
Q 178 4122 59 4122 
L 59 4238 
L 1872 4238 
L 1872 4122 
L 1778 4122 
Q 1631 4122 1507 4053 
Q 1384 3984 1384 3847 
Q 1384 3734 1575 3441 
L 2459 2075 
L 3291 3381 
Q 3478 3675 3478 3819 
Q 3478 3906 3433 3975 
Q 3388 4044 3303 4083 
Q 3219 4122 3050 4122 
L 3050 4238 
z
" transform="scale(0.015625)"/>
      <path id="TimesNewRomanPSMT-41" d="M 2928 1419 
L 1288 1419 
L 1000 750 
Q 894 503 894 381 
Q 894 284 986 211 
Q 1078 138 1384 116 
L 1384 0 
L 50 0 
L 50 116 
Q 316 163 394 238 
Q 553 388 747 847 
L 2238 4334 
L 2347 4334 
L 3822 809 
Q 4000 384 4145 257 
Q 4291 131 4550 116 
L 4550 0 
L 2878 0 
L 2878 116 
Q 3131 128 3220 200 
Q 3309 272 3309 375 
Q 3309 513 3184 809 
L 2928 1419 
z
M 2841 1650 
L 2122 3363 
L 1384 1650 
L 2841 1650 
z
" transform="scale(0.015625)"/>
      <path id="TimesNewRomanPSMT-4d" d="M 2619 0 
L 981 3566 
L 981 734 
Q 981 344 1066 247 
Q 1181 116 1431 116 
L 1581 116 
L 1581 0 
L 106 0 
L 106 116 
L 256 116 
Q 525 116 638 278 
Q 706 378 706 734 
L 706 3503 
Q 706 3784 644 3909 
Q 600 4000 483 4061 
Q 366 4122 106 4122 
L 106 4238 
L 1306 4238 
L 2844 922 
L 4356 4238 
L 5556 4238 
L 5556 4122 
L 5409 4122 
Q 5138 4122 5025 3959 
Q 4956 3859 4956 3503 
L 4956 734 
Q 4956 344 5044 247 
Q 5159 116 5409 116 
L 5556 116 
L 5556 0 
L 3756 0 
L 3756 116 
L 3906 116 
Q 4178 116 4288 278 
Q 4356 378 4356 734 
L 4356 3566 
L 2722 0 
L 2619 0 
z
" transform="scale(0.015625)"/>
     </defs>
     <use xlink:href="#TimesNewRomanPSMT-32"/>
     <use xlink:href="#TimesNewRomanPSMT-29" x="50"/>
     <use xlink:href="#TimesNewRomanPSMT-20" x="83.300781"/>
     <use xlink:href="#TimesNewRomanPSMT-4c" x="108.300781"/>
     <use xlink:href="#TimesNewRomanPSMT-6f" x="169.384766"/>
     <use xlink:href="#TimesNewRomanPSMT-61" x="219.384766"/>
     <use xlink:href="#TimesNewRomanPSMT-64" x="263.769531"/>
     <use xlink:href="#TimesNewRomanPSMT-20" x="313.769531"/>
     <use xlink:href="#TimesNewRomanPSMT-59" x="335.019531"/>
     <use xlink:href="#TimesNewRomanPSMT-41" x="396.111328"/>
     <use xlink:href="#TimesNewRomanPSMT-4d" x="468.328125"/>
     <use xlink:href="#TimesNewRomanPSMT-4c" x="557.244141"/>
    </g>
    <!-- search space -->
    <g transform="translate(110.699047 56.455168) scale(0.07 -0.07)">
     <defs>
      <path id="TimesNewRomanPSMT-63" d="M 2631 1088 
Q 2516 522 2178 217 
Q 1841 -88 1431 -88 
Q 944 -88 581 321 
Q 219 731 219 1428 
Q 219 2103 620 2525 
Q 1022 2947 1584 2947 
Q 2006 2947 2278 2723 
Q 2550 2500 2550 2259 
Q 2550 2141 2473 2067 
Q 2397 1994 2259 1994 
Q 2075 1994 1981 2113 
Q 1928 2178 1911 2362 
Q 1894 2547 1784 2644 
Q 1675 2738 1481 2738 
Q 1169 2738 978 2506 
Q 725 2200 725 1697 
Q 725 1184 976 792 
Q 1228 400 1656 400 
Q 1963 400 2206 609 
Q 2378 753 2541 1131 
L 2631 1088 
z
" transform="scale(0.015625)"/>
      <path id="TimesNewRomanPSMT-68" d="M 1041 4444 
L 1041 2350 
Q 1388 2731 1591 2839 
Q 1794 2947 1997 2947 
Q 2241 2947 2416 2812 
Q 2591 2678 2675 2391 
Q 2734 2191 2734 1659 
L 2734 647 
Q 2734 375 2778 275 
Q 2809 200 2884 156 
Q 2959 113 3159 113 
L 3159 0 
L 1753 0 
L 1753 113 
L 1819 113 
Q 2019 113 2097 173 
Q 2175 234 2206 353 
Q 2216 403 2216 647 
L 2216 1659 
Q 2216 2128 2167 2275 
Q 2119 2422 2012 2495 
Q 1906 2569 1756 2569 
Q 1603 2569 1437 2487 
Q 1272 2406 1041 2159 
L 1041 647 
Q 1041 353 1073 281 
Q 1106 209 1195 161 
Q 1284 113 1503 113 
L 1503 0 
L 84 0 
L 84 113 
Q 275 113 384 172 
Q 447 203 484 290 
Q 522 378 522 647 
L 522 3238 
Q 522 3728 498 3840 
Q 475 3953 426 3993 
Q 378 4034 297 4034 
Q 231 4034 84 3984 
L 41 4094 
L 897 4444 
L 1041 4444 
z
" transform="scale(0.015625)"/>
      <path id="TimesNewRomanPSMT-70" d="M -6 2578 
L 875 2934 
L 994 2934 
L 994 2266 
Q 1216 2644 1439 2795 
Q 1663 2947 1909 2947 
Q 2341 2947 2628 2609 
Q 2981 2197 2981 1534 
Q 2981 794 2556 309 
Q 2206 -88 1675 -88 
Q 1444 -88 1275 -22 
Q 1150 25 994 166 
L 994 -706 
Q 994 -1000 1030 -1079 
Q 1066 -1159 1155 -1206 
Q 1244 -1253 1478 -1253 
L 1478 -1369 
L -22 -1369 
L -22 -1253 
L 56 -1253 
Q 228 -1256 350 -1188 
Q 409 -1153 442 -1076 
Q 475 -1000 475 -688 
L 475 2019 
Q 475 2297 450 2372 
Q 425 2447 370 2484 
Q 316 2522 222 2522 
Q 147 2522 31 2478 
L -6 2578 
z
M 994 2081 
L 994 1013 
Q 994 666 1022 556 
Q 1066 375 1236 237 
Q 1406 100 1666 100 
Q 1978 100 2172 344 
Q 2425 663 2425 1241 
Q 2425 1897 2138 2250 
Q 1938 2494 1663 2494 
Q 1513 2494 1366 2419 
Q 1253 2363 994 2081 
z
" transform="scale(0.015625)"/>
     </defs>
     <use xlink:href="#TimesNewRomanPSMT-73"/>
     <use xlink:href="#TimesNewRomanPSMT-65" x="38.916016"/>
     <use xlink:href="#TimesNewRomanPSMT-61" x="83.300781"/>
     <use xlink:href="#TimesNewRomanPSMT-72" x="127.685547"/>
     <use xlink:href="#TimesNewRomanPSMT-63" x="160.986328"/>
     <use xlink:href="#TimesNewRomanPSMT-68" x="205.371094"/>
     <use xlink:href="#TimesNewRomanPSMT-20" x="255.371094"/>
     <use xlink:href="#TimesNewRomanPSMT-73" x="280.371094"/>
     <use xlink:href="#TimesNewRomanPSMT-70" x="319.287109"/>
     <use xlink:href="#TimesNewRomanPSMT-61" x="369.287109"/>
     <use xlink:href="#TimesNewRomanPSMT-63" x="413.671875"/>
     <use xlink:href="#TimesNewRomanPSMT-65" x="458.056641"/>
    </g>
   </g>
   <g id="text_3">
    <!-- 3) Load data -->
    <g transform="translate(192.625516 52.790121) scale(0.07 -0.07)">
     <defs>
      <path id="TimesNewRomanPSMT-33" d="M 325 3431 
Q 506 3859 782 4092 
Q 1059 4325 1472 4325 
Q 1981 4325 2253 3994 
Q 2459 3747 2459 3466 
Q 2459 3003 1878 2509 
Q 2269 2356 2469 2072 
Q 2669 1788 2669 1403 
Q 2669 853 2319 450 
Q 1863 -75 997 -75 
Q 569 -75 414 31 
Q 259 138 259 259 
Q 259 350 332 419 
Q 406 488 509 488 
Q 588 488 669 463 
Q 722 447 909 348 
Q 1097 250 1169 231 
Q 1284 197 1416 197 
Q 1734 197 1970 444 
Q 2206 691 2206 1028 
Q 2206 1275 2097 1509 
Q 2016 1684 1919 1775 
Q 1784 1900 1550 2001 
Q 1316 2103 1072 2103 
L 972 2103 
L 972 2197 
Q 1219 2228 1467 2375 
Q 1716 2522 1828 2728 
Q 1941 2934 1941 3181 
Q 1941 3503 1739 3701 
Q 1538 3900 1238 3900 
Q 753 3900 428 3381 
L 325 3431 
z
" transform="scale(0.015625)"/>
      <path id="TimesNewRomanPSMT-74" d="M 1031 3803 
L 1031 2863 
L 1700 2863 
L 1700 2644 
L 1031 2644 
L 1031 788 
Q 1031 509 1111 412 
Q 1191 316 1316 316 
Q 1419 316 1516 380 
Q 1613 444 1666 569 
L 1788 569 
Q 1678 263 1478 108 
Q 1278 -47 1066 -47 
Q 922 -47 784 33 
Q 647 113 581 261 
Q 516 409 516 719 
L 516 2644 
L 63 2644 
L 63 2747 
Q 234 2816 414 2980 
Q 594 3144 734 3369 
Q 806 3488 934 3803 
L 1031 3803 
z
" transform="scale(0.015625)"/>
     </defs>
     <use xlink:href="#TimesNewRomanPSMT-33"/>
     <use xlink:href="#TimesNewRomanPSMT-29" x="50"/>
     <use xlink:href="#TimesNewRomanPSMT-20" x="83.300781"/>
     <use xlink:href="#TimesNewRomanPSMT-4c" x="108.300781"/>
     <use xlink:href="#TimesNewRomanPSMT-6f" x="169.384766"/>
     <use xlink:href="#TimesNewRomanPSMT-61" x="219.384766"/>
     <use xlink:href="#TimesNewRomanPSMT-64" x="263.769531"/>
     <use xlink:href="#TimesNewRomanPSMT-20" x="313.769531"/>
     <use xlink:href="#TimesNewRomanPSMT-64" x="338.769531"/>
     <use xlink:href="#TimesNewRomanPSMT-61" x="388.769531"/>
     <use xlink:href="#TimesNewRomanPSMT-74" x="433.154297"/>
     <use xlink:href="#TimesNewRomanPSMT-61" x="460.9375"/>
    </g>
   </g>
   <g id="text_4">
    <!-- 4) Build model -->
    <g transform="translate(267.238953 52.790121) scale(0.07 -0.07)">
     <defs>
      <path id="TimesNewRomanPSMT-34" d="M 2978 1563 
L 2978 1119 
L 2409 1119 
L 2409 0 
L 1894 0 
L 1894 1119 
L 100 1119 
L 100 1519 
L 2066 4325 
L 2409 4325 
L 2409 1563 
L 2978 1563 
z
M 1894 1563 
L 1894 3666 
L 406 1563 
L 1894 1563 
z
" transform="scale(0.015625)"/>
      <path id="TimesNewRomanPSMT-42" d="M 2956 2163 
Q 3397 2069 3616 1863 
Q 3919 1575 3919 1159 
Q 3919 844 3719 555 
Q 3519 266 3170 133 
Q 2822 0 2106 0 
L 106 0 
L 106 116 
L 266 116 
Q 531 116 647 284 
Q 719 394 719 750 
L 719 3488 
Q 719 3881 628 3984 
Q 506 4122 266 4122 
L 106 4122 
L 106 4238 
L 1938 4238 
Q 2450 4238 2759 4163 
Q 3228 4050 3475 3764 
Q 3722 3478 3722 3106 
Q 3722 2788 3528 2536 
Q 3334 2284 2956 2163 
z
M 1319 2331 
Q 1434 2309 1582 2298 
Q 1731 2288 1909 2288 
Q 2366 2288 2595 2386 
Q 2825 2484 2947 2687 
Q 3069 2891 3069 3131 
Q 3069 3503 2766 3765 
Q 2463 4028 1881 4028 
Q 1569 4028 1319 3959 
L 1319 2331 
z
M 1319 306 
Q 1681 222 2034 222 
Q 2600 222 2897 476 
Q 3194 731 3194 1106 
Q 3194 1353 3059 1581 
Q 2925 1809 2622 1940 
Q 2319 2072 1872 2072 
Q 1678 2072 1540 2065 
Q 1403 2059 1319 2044 
L 1319 306 
z
" transform="scale(0.015625)"/>
      <path id="TimesNewRomanPSMT-75" d="M 2709 2863 
L 2709 1128 
Q 2709 631 2732 520 
Q 2756 409 2807 365 
Q 2859 322 2928 322 
Q 3025 322 3147 375 
L 3191 266 
L 2334 -88 
L 2194 -88 
L 2194 519 
Q 1825 119 1631 15 
Q 1438 -88 1222 -88 
Q 981 -88 804 51 
Q 628 191 559 409 
Q 491 628 491 1028 
L 491 2306 
Q 491 2509 447 2587 
Q 403 2666 317 2708 
Q 231 2750 6 2747 
L 6 2863 
L 1009 2863 
L 1009 947 
Q 1009 547 1148 422 
Q 1288 297 1484 297 
Q 1619 297 1789 381 
Q 1959 466 2194 703 
L 2194 2325 
Q 2194 2569 2105 2655 
Q 2016 2741 1734 2747 
L 1734 2863 
L 2709 2863 
z
" transform="scale(0.015625)"/>
      <path id="TimesNewRomanPSMT-69" d="M 928 4444 
Q 1059 4444 1151 4351 
Q 1244 4259 1244 4128 
Q 1244 3997 1151 3903 
Q 1059 3809 928 3809 
Q 797 3809 703 3903 
Q 609 3997 609 4128 
Q 609 4259 701 4351 
Q 794 4444 928 4444 
z
M 1188 2947 
L 1188 647 
Q 1188 378 1227 289 
Q 1266 200 1342 156 
Q 1419 113 1622 113 
L 1622 0 
L 231 0 
L 231 113 
Q 441 113 512 153 
Q 584 194 626 287 
Q 669 381 669 647 
L 669 1750 
Q 669 2216 641 2353 
Q 619 2453 572 2492 
Q 525 2531 444 2531 
Q 356 2531 231 2484 
L 188 2597 
L 1050 2947 
L 1188 2947 
z
" transform="scale(0.015625)"/>
      <path id="TimesNewRomanPSMT-6c" d="M 1184 4444 
L 1184 647 
Q 1184 378 1223 290 
Q 1263 203 1344 158 
Q 1425 113 1647 113 
L 1647 0 
L 244 0 
L 244 113 
Q 441 113 512 153 
Q 584 194 625 287 
Q 666 381 666 647 
L 666 3247 
Q 666 3731 644 3842 
Q 622 3953 573 3993 
Q 525 4034 450 4034 
Q 369 4034 244 3984 
L 191 4094 
L 1044 4444 
L 1184 4444 
z
" transform="scale(0.015625)"/>
      <path id="TimesNewRomanPSMT-6d" d="M 1050 2338 
Q 1363 2650 1419 2697 
Q 1559 2816 1721 2881 
Q 1884 2947 2044 2947 
Q 2313 2947 2506 2790 
Q 2700 2634 2766 2338 
Q 3088 2713 3309 2830 
Q 3531 2947 3766 2947 
Q 3994 2947 4170 2830 
Q 4347 2713 4450 2447 
Q 4519 2266 4519 1878 
L 4519 647 
Q 4519 378 4559 278 
Q 4591 209 4675 161 
Q 4759 113 4950 113 
L 4950 0 
L 3538 0 
L 3538 113 
L 3597 113 
Q 3781 113 3884 184 
Q 3956 234 3988 344 
Q 4000 397 4000 647 
L 4000 1878 
Q 4000 2228 3916 2372 
Q 3794 2572 3525 2572 
Q 3359 2572 3192 2489 
Q 3025 2406 2788 2181 
L 2781 2147 
L 2788 2013 
L 2788 647 
Q 2788 353 2820 281 
Q 2853 209 2943 161 
Q 3034 113 3253 113 
L 3253 0 
L 1806 0 
L 1806 113 
Q 2044 113 2133 169 
Q 2222 225 2256 338 
Q 2272 391 2272 647 
L 2272 1878 
Q 2272 2228 2169 2381 
Q 2031 2581 1784 2581 
Q 1616 2581 1450 2491 
Q 1191 2353 1050 2181 
L 1050 647 
Q 1050 366 1089 281 
Q 1128 197 1204 155 
Q 1281 113 1516 113 
L 1516 0 
L 100 0 
L 100 113 
Q 297 113 375 155 
Q 453 197 493 289 
Q 534 381 534 647 
L 534 1741 
Q 534 2213 506 2350 
Q 484 2453 437 2492 
Q 391 2531 309 2531 
Q 222 2531 100 2484 
L 53 2597 
L 916 2947 
L 1050 2947 
L 1050 2338 
z
" transform="scale(0.015625)"/>
     </defs>
     <use xlink:href="#TimesNewRomanPSMT-34"/>
     <use xlink:href="#TimesNewRomanPSMT-29" x="50"/>
     <use xlink:href="#TimesNewRomanPSMT-20" x="83.300781"/>
     <use xlink:href="#TimesNewRomanPSMT-42" x="108.300781"/>
     <use xlink:href="#TimesNewRomanPSMT-75" x="175"/>
     <use xlink:href="#TimesNewRomanPSMT-69" x="225"/>
     <use xlink:href="#TimesNewRomanPSMT-6c" x="252.783203"/>
     <use xlink:href="#TimesNewRomanPSMT-64" x="280.566406"/>
     <use xlink:href="#TimesNewRomanPSMT-20" x="330.566406"/>
     <use xlink:href="#TimesNewRomanPSMT-6d" x="355.566406"/>
     <use xlink:href="#TimesNewRomanPSMT-6f" x="433.349609"/>
     <use xlink:href="#TimesNewRomanPSMT-64" x="483.349609"/>
     <use xlink:href="#TimesNewRomanPSMT-65" x="533.349609"/>
     <use xlink:href="#TimesNewRomanPSMT-6c" x="577.734375"/>
    </g>
   </g>
   <g id="text_5">
    <!-- 5) Train &amp; eval -->
    <g transform="translate(337.252187 49.118511) scale(0.07 -0.07)">
     <defs>
      <path id="TimesNewRomanPSMT-35" d="M 2778 4238 
L 2534 3706 
L 1259 3706 
L 981 3138 
Q 1809 3016 2294 2522 
Q 2709 2097 2709 1522 
Q 2709 1188 2573 903 
Q 2438 619 2231 419 
Q 2025 219 1772 97 
Q 1413 -75 1034 -75 
Q 653 -75 479 54 
Q 306 184 306 341 
Q 306 428 378 495 
Q 450 563 559 563 
Q 641 563 702 538 
Q 763 513 909 409 
Q 1144 247 1384 247 
Q 1750 247 2026 523 
Q 2303 800 2303 1197 
Q 2303 1581 2056 1914 
Q 1809 2247 1375 2428 
Q 1034 2569 447 2591 
L 1259 4238 
L 2778 4238 
z
" transform="scale(0.015625)"/>
      <path id="TimesNewRomanPSMT-54" d="M 3703 4238 
L 3750 3244 
L 3631 3244 
Q 3597 3506 3538 3619 
Q 3441 3800 3280 3886 
Q 3119 3972 2856 3972 
L 2259 3972 
L 2259 734 
Q 2259 344 2344 247 
Q 2463 116 2709 116 
L 2856 116 
L 2856 0 
L 1059 0 
L 1059 116 
L 1209 116 
Q 1478 116 1591 278 
Q 1659 378 1659 734 
L 1659 3972 
L 1150 3972 
Q 853 3972 728 3928 
Q 566 3869 450 3700 
Q 334 3531 313 3244 
L 194 3244 
L 244 4238 
L 3703 4238 
z
" transform="scale(0.015625)"/>
      <path id="TimesNewRomanPSMT-6e" d="M 1034 2341 
Q 1538 2947 1994 2947 
Q 2228 2947 2397 2830 
Q 2566 2713 2666 2444 
Q 2734 2256 2734 1869 
L 2734 647 
Q 2734 375 2778 278 
Q 2813 200 2889 156 
Q 2966 113 3172 113 
L 3172 0 
L 1756 0 
L 1756 113 
L 1816 113 
Q 2016 113 2095 173 
Q 2175 234 2206 353 
Q 2219 400 2219 647 
L 2219 1819 
Q 2219 2209 2117 2386 
Q 2016 2563 1775 2563 
Q 1403 2563 1034 2156 
L 1034 647 
Q 1034 356 1069 288 
Q 1113 197 1189 155 
Q 1266 113 1500 113 
L 1500 0 
L 84 0 
L 84 113 
L 147 113 
Q 366 113 442 223 
Q 519 334 519 647 
L 519 1709 
Q 519 2225 495 2337 
Q 472 2450 423 2490 
Q 375 2531 294 2531 
Q 206 2531 84 2484 
L 38 2597 
L 900 2947 
L 1034 2947 
L 1034 2341 
z
" transform="scale(0.015625)"/>
      <path id="TimesNewRomanPSMT-26" d="M 3266 2728 
L 4578 2728 
L 4578 2613 
Q 4306 2591 4176 2492 
Q 4047 2394 3772 1897 
Q 3497 1400 3153 969 
Q 3431 644 3650 514 
Q 3869 384 4091 384 
Q 4306 384 4456 501 
Q 4606 619 4669 847 
L 4784 763 
Q 4669 322 4412 112 
Q 4156 -97 3816 -97 
Q 3559 -97 3295 42 
Q 3031 181 2719 513 
Q 2331 169 2020 36 
Q 1709 -97 1356 -97 
Q 841 -97 537 178 
Q 234 453 234 834 
Q 234 1213 506 1589 
Q 778 1966 1528 2369 
Q 1381 2694 1328 2901 
Q 1275 3109 1275 3300 
Q 1275 3834 1669 4116 
Q 1975 4334 2366 4334 
Q 2738 4334 2972 4114 
Q 3206 3894 3206 3572 
Q 3206 3241 2979 2991 
Q 2753 2741 2178 2444 
Q 2575 1738 3006 1150 
Q 3556 1806 3556 2256 
Q 3556 2400 3463 2513 
Q 3394 2597 3266 2613 
L 3266 2728 
z
M 2072 2647 
Q 2459 2831 2651 3065 
Q 2844 3300 2844 3588 
Q 2844 3813 2705 3959 
Q 2566 4106 2359 4106 
Q 2088 4106 1948 3917 
Q 1809 3728 1809 3547 
Q 1809 3394 1862 3205 
Q 1916 3016 2072 2647 
z
M 2556 694 
Q 2144 1256 1984 1515 
Q 1825 1775 1634 2159 
Q 1259 1944 1070 1684 
Q 881 1425 881 1122 
Q 881 788 1097 534 
Q 1313 281 1678 281 
Q 1875 281 2058 359 
Q 2241 438 2556 694 
z
" transform="scale(0.015625)"/>
      <path id="TimesNewRomanPSMT-76" d="M 53 2863 
L 1400 2863 
L 1400 2747 
L 1313 2747 
Q 1191 2747 1127 2687 
Q 1063 2628 1063 2528 
Q 1063 2419 1128 2269 
L 1794 688 
L 2463 2328 
Q 2534 2503 2534 2594 
Q 2534 2638 2509 2666 
Q 2475 2713 2422 2730 
Q 2369 2747 2206 2747 
L 2206 2863 
L 3141 2863 
L 3141 2747 
Q 2978 2734 2916 2681 
Q 2806 2588 2719 2369 
L 1703 -88 
L 1575 -88 
L 553 2328 
Q 484 2497 421 2570 
Q 359 2644 263 2694 
Q 209 2722 53 2747 
L 53 2863 
z
" transform="scale(0.015625)"/>
     </defs>
     <use xlink:href="#TimesNewRomanPSMT-35"/>
     <use xlink:href="#TimesNewRomanPSMT-29" x="50"/>
     <use xlink:href="#TimesNewRomanPSMT-20" x="83.300781"/>
     <use xlink:href="#TimesNewRomanPSMT-54" x="106.550781"/>
     <use xlink:href="#TimesNewRomanPSMT-72" x="164.134766"/>
     <use xlink:href="#TimesNewRomanPSMT-61" x="197.435547"/>
     <use xlink:href="#TimesNewRomanPSMT-69" x="241.820312"/>
     <use xlink:href="#TimesNewRomanPSMT-6e" x="269.603516"/>
     <use xlink:href="#TimesNewRomanPSMT-20" x="319.603516"/>
     <use xlink:href="#TimesNewRomanPSMT-26" x="344.603516"/>
     <use xlink:href="#TimesNewRomanPSMT-20" x="422.386719"/>
     <use xlink:href="#TimesNewRomanPSMT-65" x="447.386719"/>
     <use xlink:href="#TimesNewRomanPSMT-76" x="491.771484"/>
     <use xlink:href="#TimesNewRomanPSMT-61" x="541.771484"/>
     <use xlink:href="#TimesNewRomanPSMT-6c" x="586.15625"/>
    </g>
    <!-- per config -->
    <g transform="translate(344.454531 56.448605) scale(0.07 -0.07)">
     <defs>
      <path id="TimesNewRomanPSMT-66" d="M 1319 2638 
L 1319 756 
Q 1319 356 1406 250 
Q 1522 113 1716 113 
L 1975 113 
L 1975 0 
L 266 0 
L 266 113 
L 394 113 
Q 519 113 622 175 
Q 725 238 764 344 
Q 803 450 803 756 
L 803 2638 
L 247 2638 
L 247 2863 
L 803 2863 
L 803 3050 
Q 803 3478 940 3775 
Q 1078 4072 1361 4255 
Q 1644 4438 1997 4438 
Q 2325 4438 2600 4225 
Q 2781 4084 2781 3909 
Q 2781 3816 2700 3733 
Q 2619 3650 2525 3650 
Q 2453 3650 2373 3701 
Q 2294 3753 2178 3923 
Q 2063 4094 1966 4153 
Q 1869 4213 1750 4213 
Q 1606 4213 1506 4136 
Q 1406 4059 1362 3898 
Q 1319 3738 1319 3069 
L 1319 2863 
L 2056 2863 
L 2056 2638 
L 1319 2638 
z
" transform="scale(0.015625)"/>
     </defs>
     <use xlink:href="#TimesNewRomanPSMT-70"/>
     <use xlink:href="#TimesNewRomanPSMT-65" x="50"/>
     <use xlink:href="#TimesNewRomanPSMT-72" x="94.384766"/>
     <use xlink:href="#TimesNewRomanPSMT-20" x="127.685547"/>
     <use xlink:href="#TimesNewRomanPSMT-63" x="152.685547"/>
     <use xlink:href="#TimesNewRomanPSMT-6f" x="197.070312"/>
     <use xlink:href="#TimesNewRomanPSMT-6e" x="247.070312"/>
     <use xlink:href="#TimesNewRomanPSMT-66" x="297.070312"/>
     <use xlink:href="#TimesNewRomanPSMT-69" x="330.371094"/>
     <use xlink:href="#TimesNewRomanPSMT-67" x="358.154297"/>
    </g>
   </g>
   <g id="text_6">
    <!-- 6) Select best config -->
    <g transform="translate(60.553891 104.995469) scale(0.07 -0.07)">
     <defs>
      <path id="TimesNewRomanPSMT-36" d="M 2869 4325 
L 2869 4209 
Q 2456 4169 2195 4045 
Q 1934 3922 1679 3669 
Q 1425 3416 1258 3105 
Q 1091 2794 978 2366 
Q 1428 2675 1881 2675 
Q 2316 2675 2634 2325 
Q 2953 1975 2953 1425 
Q 2953 894 2631 456 
Q 2244 -75 1606 -75 
Q 1172 -75 869 213 
Q 275 772 275 1663 
Q 275 2231 503 2743 
Q 731 3256 1154 3653 
Q 1578 4050 1965 4187 
Q 2353 4325 2688 4325 
L 2869 4325 
z
M 925 2138 
Q 869 1716 869 1456 
Q 869 1156 980 804 
Q 1091 453 1309 247 
Q 1469 100 1697 100 
Q 1969 100 2183 356 
Q 2397 613 2397 1088 
Q 2397 1622 2184 2012 
Q 1972 2403 1581 2403 
Q 1463 2403 1327 2353 
Q 1191 2303 925 2138 
z
" transform="scale(0.015625)"/>
      <path id="TimesNewRomanPSMT-53" d="M 2934 4334 
L 2934 2869 
L 2819 2869 
Q 2763 3291 2617 3541 
Q 2472 3791 2203 3937 
Q 1934 4084 1647 4084 
Q 1322 4084 1109 3886 
Q 897 3688 897 3434 
Q 897 3241 1031 3081 
Q 1225 2847 1953 2456 
Q 2547 2138 2764 1967 
Q 2981 1797 3098 1565 
Q 3216 1334 3216 1081 
Q 3216 600 2842 251 
Q 2469 -97 1881 -97 
Q 1697 -97 1534 -69 
Q 1438 -53 1133 45 
Q 828 144 747 144 
Q 669 144 623 97 
Q 578 50 556 -97 
L 441 -97 
L 441 1356 
L 556 1356 
Q 638 900 775 673 
Q 913 447 1195 297 
Q 1478 147 1816 147 
Q 2206 147 2432 353 
Q 2659 559 2659 841 
Q 2659 997 2573 1156 
Q 2488 1316 2306 1453 
Q 2184 1547 1640 1851 
Q 1097 2156 867 2337 
Q 638 2519 519 2737 
Q 400 2956 400 3219 
Q 400 3675 750 4004 
Q 1100 4334 1641 4334 
Q 1978 4334 2356 4169 
Q 2531 4091 2603 4091 
Q 2684 4091 2736 4139 
Q 2788 4188 2819 4334 
L 2934 4334 
z
" transform="scale(0.015625)"/>
      <path id="TimesNewRomanPSMT-62" d="M 984 2369 
Q 1400 2947 1881 2947 
Q 2322 2947 2650 2570 
Q 2978 2194 2978 1541 
Q 2978 778 2472 313 
Q 2038 -88 1503 -88 
Q 1253 -88 995 3 
Q 738 94 469 275 
L 469 3241 
Q 469 3728 445 3840 
Q 422 3953 372 3993 
Q 322 4034 247 4034 
Q 159 4034 28 3984 
L -16 4094 
L 844 4444 
L 984 4444 
L 984 2369 
z
M 984 2169 
L 984 456 
Q 1144 300 1314 220 
Q 1484 141 1663 141 
Q 1947 141 2192 453 
Q 2438 766 2438 1363 
Q 2438 1913 2192 2208 
Q 1947 2503 1634 2503 
Q 1469 2503 1303 2419 
Q 1178 2356 984 2169 
z
" transform="scale(0.015625)"/>
     </defs>
     <use xlink:href="#TimesNewRomanPSMT-36"/>
     <use xlink:href="#TimesNewRomanPSMT-29" x="50"/>
     <use xlink:href="#TimesNewRomanPSMT-20" x="83.300781"/>
     <use xlink:href="#TimesNewRomanPSMT-53" x="108.300781"/>
     <use xlink:href="#TimesNewRomanPSMT-65" x="163.916016"/>
     <use xlink:href="#TimesNewRomanPSMT-6c" x="208.300781"/>
     <use xlink:href="#TimesNewRomanPSMT-65" x="236.083984"/>
     <use xlink:href="#TimesNewRomanPSMT-63" x="280.46875"/>
     <use xlink:href="#TimesNewRomanPSMT-74" x="324.853516"/>
     <use xlink:href="#TimesNewRomanPSMT-20" x="352.636719"/>
     <use xlink:href="#TimesNewRomanPSMT-62" x="377.636719"/>
     <use xlink:href="#TimesNewRomanPSMT-65" x="427.636719"/>
     <use xlink:href="#TimesNewRomanPSMT-73" x="472.021484"/>
     <use xlink:href="#TimesNewRomanPSMT-74" x="510.9375"/>
     <use xlink:href="#TimesNewRomanPSMT-20" x="538.720703"/>
     <use xlink:href="#TimesNewRomanPSMT-63" x="563.720703"/>
     <use xlink:href="#TimesNewRomanPSMT-6f" x="608.105469"/>
     <use xlink:href="#TimesNewRomanPSMT-6e" x="658.105469"/>
     <use xlink:href="#TimesNewRomanPSMT-66" x="708.105469"/>
     <use xlink:href="#TimesNewRomanPSMT-69" x="741.40625"/>
     <use xlink:href="#TimesNewRomanPSMT-67" x="769.189453"/>
    </g>
    <!-- by Recall@20 -->
    <g transform="translate(69.187406 112.338688) scale(0.07 -0.07)">
     <defs>
      <path id="TimesNewRomanPSMT-79" d="M 38 2863 
L 1372 2863 
L 1372 2747 
L 1306 2747 
Q 1166 2747 1095 2686 
Q 1025 2625 1025 2534 
Q 1025 2413 1128 2197 
L 1825 753 
L 2466 2334 
Q 2519 2463 2519 2588 
Q 2519 2644 2497 2672 
Q 2472 2706 2419 2726 
Q 2366 2747 2231 2747 
L 2231 2863 
L 3163 2863 
L 3163 2747 
Q 3047 2734 2984 2696 
Q 2922 2659 2847 2556 
Q 2819 2513 2741 2316 
L 1575 -541 
Q 1406 -956 1132 -1168 
Q 859 -1381 606 -1381 
Q 422 -1381 303 -1275 
Q 184 -1169 184 -1031 
Q 184 -900 270 -820 
Q 356 -741 506 -741 
Q 609 -741 788 -809 
Q 913 -856 944 -856 
Q 1038 -856 1148 -759 
Q 1259 -663 1372 -384 
L 1575 113 
L 547 2272 
Q 500 2369 397 2513 
Q 319 2622 269 2659 
Q 197 2709 38 2747 
L 38 2863 
z
" transform="scale(0.015625)"/>
      <path id="TimesNewRomanPSMT-52" d="M 4325 0 
L 3194 0 
L 1759 1981 
Q 1600 1975 1500 1975 
Q 1459 1975 1412 1976 
Q 1366 1978 1316 1981 
L 1316 750 
Q 1316 350 1403 253 
Q 1522 116 1759 116 
L 1925 116 
L 1925 0 
L 109 0 
L 109 116 
L 269 116 
Q 538 116 653 291 
Q 719 388 719 750 
L 719 3488 
Q 719 3888 631 3984 
Q 509 4122 269 4122 
L 109 4122 
L 109 4238 
L 1653 4238 
Q 2328 4238 2648 4139 
Q 2969 4041 3192 3777 
Q 3416 3513 3416 3147 
Q 3416 2756 3161 2468 
Q 2906 2181 2372 2063 
L 3247 847 
Q 3547 428 3762 290 
Q 3978 153 4325 116 
L 4325 0 
z
M 1316 2178 
Q 1375 2178 1419 2176 
Q 1463 2175 1491 2175 
Q 2097 2175 2405 2437 
Q 2713 2700 2713 3106 
Q 2713 3503 2464 3751 
Q 2216 4000 1806 4000 
Q 1625 4000 1316 3941 
L 1316 2178 
z
" transform="scale(0.015625)"/>
      <path id="TimesNewRomanPSMT-40" d="M 4400 2994 
L 4034 1747 
Q 3831 1047 3787 859 
Q 3744 672 3744 559 
Q 3744 459 3811 390 
Q 3878 322 3978 322 
Q 4206 322 4526 550 
Q 4847 778 5075 1290 
Q 5303 1803 5303 2359 
Q 5303 2894 5045 3347 
Q 4788 3800 4317 4042 
Q 3847 4284 3278 4284 
Q 2556 4284 1937 3901 
Q 1319 3519 958 2800 
Q 597 2081 597 1306 
Q 597 588 914 0 
Q 1231 -588 1806 -889 
Q 2381 -1191 3044 -1191 
Q 3866 -1191 4530 -750 
Q 5194 -309 5556 538 
L 5738 538 
Q 5456 -319 4715 -850 
Q 3975 -1381 3028 -1381 
Q 2284 -1381 1646 -1029 
Q 1009 -678 656 -32 
Q 303 613 303 1388 
Q 303 2213 690 2927 
Q 1078 3641 1776 4042 
Q 2475 4444 3259 4444 
Q 3906 4444 4426 4176 
Q 4947 3909 5219 3395 
Q 5491 2881 5491 2303 
Q 5491 1731 5236 1170 
Q 4981 609 4587 353 
Q 4194 97 3766 97 
Q 3528 97 3408 209 
Q 3288 322 3288 525 
Q 3288 700 3344 984 
Q 2881 425 2603 259 
Q 2325 94 2113 94 
Q 1891 94 1719 292 
Q 1547 491 1547 822 
Q 1547 1275 1842 1837 
Q 2138 2400 2625 2753 
Q 2984 3013 3269 3013 
Q 3478 3013 3617 2905 
Q 3756 2797 3806 2581 
L 3909 2925 
L 4400 2994 
z
M 3303 2866 
Q 3069 2866 2828 2619 
Q 2475 2256 2225 1641 
Q 2041 1191 2041 916 
Q 2041 719 2152 595 
Q 2263 472 2400 472 
Q 2581 472 2781 609 
Q 2981 747 3200 1033 
Q 3419 1319 3519 1606 
Q 3694 2103 3694 2416 
Q 3694 2622 3580 2744 
Q 3466 2866 3303 2866 
z
" transform="scale(0.015625)"/>
      <path id="TimesNewRomanPSMT-30" d="M 231 2094 
Q 231 2819 450 3342 
Q 669 3866 1031 4122 
Q 1313 4325 1613 4325 
Q 2100 4325 2488 3828 
Q 2972 3213 2972 2159 
Q 2972 1422 2759 906 
Q 2547 391 2217 158 
Q 1888 -75 1581 -75 
Q 975 -75 572 641 
Q 231 1244 231 2094 
z
M 844 2016 
Q 844 1141 1059 588 
Q 1238 122 1591 122 
Q 1759 122 1940 273 
Q 2122 425 2216 781 
Q 2359 1319 2359 2297 
Q 2359 3022 2209 3506 
Q 2097 3866 1919 4016 
Q 1791 4119 1609 4119 
Q 1397 4119 1231 3928 
Q 1006 3669 925 3112 
Q 844 2556 844 2016 
z
" transform="scale(0.015625)"/>
     </defs>
     <use xlink:href="#TimesNewRomanPSMT-62"/>
     <use xlink:href="#TimesNewRomanPSMT-79" x="50"/>
     <use xlink:href="#TimesNewRomanPSMT-20" x="100"/>
     <use xlink:href="#TimesNewRomanPSMT-52" x="125"/>
     <use xlink:href="#TimesNewRomanPSMT-65" x="191.699219"/>
     <use xlink:href="#TimesNewRomanPSMT-63" x="236.083984"/>
     <use xlink:href="#TimesNewRomanPSMT-61" x="280.46875"/>
     <use xlink:href="#TimesNewRomanPSMT-6c" x="324.853516"/>
     <use xlink:href="#TimesNewRomanPSMT-6c" x="352.636719"/>
     <use xlink:href="#TimesNewRomanPSMT-40" x="380.419922"/>
     <use xlink:href="#TimesNewRomanPSMT-32" x="472.509766"/>
     <use xlink:href="#TimesNewRomanPSMT-30" x="522.509766"/>
    </g>
   </g>
   <g id="text_7">
    <!-- 7) Save best metrics -->
    <g transform="translate(178.121625 105.008594) scale(0.07 -0.07)">
     <defs>
      <path id="TimesNewRomanPSMT-37" d="M 644 4238 
L 2916 4238 
L 2916 4119 
L 1503 -88 
L 1153 -88 
L 2419 3728 
L 1253 3728 
Q 900 3728 750 3644 
Q 488 3500 328 3200 
L 238 3234 
L 644 4238 
z
" transform="scale(0.015625)"/>
     </defs>
     <use xlink:href="#TimesNewRomanPSMT-37"/>
     <use xlink:href="#TimesNewRomanPSMT-29" x="50"/>
     <use xlink:href="#TimesNewRomanPSMT-20" x="83.300781"/>
     <use xlink:href="#TimesNewRomanPSMT-53" x="108.300781"/>
     <use xlink:href="#TimesNewRomanPSMT-61" x="163.916016"/>
     <use xlink:href="#TimesNewRomanPSMT-76" x="208.300781"/>
     <use xlink:href="#TimesNewRomanPSMT-65" x="258.300781"/>
     <use xlink:href="#TimesNewRomanPSMT-20" x="302.685547"/>
     <use xlink:href="#TimesNewRomanPSMT-62" x="327.685547"/>
     <use xlink:href="#TimesNewRomanPSMT-65" x="377.685547"/>
     <use xlink:href="#TimesNewRomanPSMT-73" x="422.070312"/>
     <use xlink:href="#TimesNewRomanPSMT-74" x="460.986328"/>
     <use xlink:href="#TimesNewRomanPSMT-20" x="488.769531"/>
     <use xlink:href="#TimesNewRomanPSMT-6d" x="513.769531"/>
     <use xlink:href="#TimesNewRomanPSMT-65" x="591.552734"/>
     <use xlink:href="#TimesNewRomanPSMT-74" x="635.9375"/>
     <use xlink:href="#TimesNewRomanPSMT-72" x="663.720703"/>
     <use xlink:href="#TimesNewRomanPSMT-69" x="697.021484"/>
     <use xlink:href="#TimesNewRomanPSMT-63" x="724.804688"/>
     <use xlink:href="#TimesNewRomanPSMT-73" x="769.189453"/>
    </g>
    <!-- and parameters -->
    <g transform="translate(185.124906 112.338688) scale(0.07 -0.07)">
     <use xlink:href="#TimesNewRomanPSMT-61"/>
     <use xlink:href="#TimesNewRomanPSMT-6e" x="44.384766"/>
     <use xlink:href="#TimesNewRomanPSMT-64" x="94.384766"/>
     <use xlink:href="#TimesNewRomanPSMT-20" x="144.384766"/>
     <use xlink:href="#TimesNewRomanPSMT-70" x="169.384766"/>
     <use xlink:href="#TimesNewRomanPSMT-61" x="219.384766"/>
     <use xlink:href="#TimesNewRomanPSMT-72" x="263.769531"/>
     <use xlink:href="#TimesNewRomanPSMT-61" x="297.070312"/>
     <use xlink:href="#TimesNewRomanPSMT-6d" x="341.455078"/>
     <use xlink:href="#TimesNewRomanPSMT-65" x="419.238281"/>
     <use xlink:href="#TimesNewRomanPSMT-74" x="463.623047"/>
     <use xlink:href="#TimesNewRomanPSMT-65" x="491.40625"/>
     <use xlink:href="#TimesNewRomanPSMT-72" x="535.791016"/>
     <use xlink:href="#TimesNewRomanPSMT-73" x="569.091797"/>
    </g>
   </g>
   <g id="text_8">
    <!-- 8) Write log file -->
    <g transform="translate(297.237344 104.995469) scale(0.07 -0.07)">
     <defs>
      <path id="TimesNewRomanPSMT-38" d="M 1228 2134 
Q 725 2547 579 2797 
Q 434 3047 434 3316 
Q 434 3728 753 4026 
Q 1072 4325 1600 4325 
Q 2113 4325 2425 4047 
Q 2738 3769 2738 3413 
Q 2738 3175 2569 2928 
Q 2400 2681 1866 2347 
Q 2416 1922 2594 1678 
Q 2831 1359 2831 1006 
Q 2831 559 2490 242 
Q 2150 -75 1597 -75 
Q 994 -75 656 303 
Q 388 606 388 966 
Q 388 1247 577 1523 
Q 766 1800 1228 2134 
z
M 1719 2469 
Q 2094 2806 2194 3001 
Q 2294 3197 2294 3444 
Q 2294 3772 2109 3958 
Q 1925 4144 1606 4144 
Q 1288 4144 1088 3959 
Q 888 3775 888 3528 
Q 888 3366 970 3203 
Q 1053 3041 1206 2894 
L 1719 2469 
z
M 1375 2016 
Q 1116 1797 991 1539 
Q 866 1281 866 981 
Q 866 578 1086 336 
Q 1306 94 1647 94 
Q 1984 94 2187 284 
Q 2391 475 2391 747 
Q 2391 972 2272 1150 
Q 2050 1481 1375 2016 
z
" transform="scale(0.015625)"/>
      <path id="TimesNewRomanPSMT-57" d="M 5991 4238 
L 5991 4122 
Q 5825 4122 5722 4062 
Q 5619 4003 5525 3841 
Q 5463 3731 5328 3319 
L 4147 -97 
L 4022 -97 
L 3056 2613 
L 2097 -97 
L 1984 -97 
L 725 3422 
Q 584 3816 547 3888 
Q 484 4006 376 4064 
Q 269 4122 84 4122 
L 84 4238 
L 1653 4238 
L 1653 4122 
L 1578 4122 
Q 1413 4122 1325 4047 
Q 1238 3972 1238 3866 
Q 1238 3756 1375 3363 
L 2209 984 
L 2913 3006 
L 2788 3363 
L 2688 3647 
Q 2622 3803 2541 3922 
Q 2500 3981 2441 4022 
Q 2363 4078 2284 4103 
Q 2225 4122 2097 4122 
L 2097 4238 
L 3747 4238 
L 3747 4122 
L 3634 4122 
Q 3459 4122 3378 4047 
Q 3297 3972 3297 3844 
Q 3297 3684 3438 3288 
L 4250 984 
L 5056 3319 
Q 5194 3706 5194 3856 
Q 5194 3928 5148 3990 
Q 5103 4053 5034 4078 
Q 4916 4122 4725 4122 
L 4725 4238 
L 5991 4238 
z
" transform="scale(0.015625)"/>
     </defs>
     <use xlink:href="#TimesNewRomanPSMT-38"/>
     <use xlink:href="#TimesNewRomanPSMT-29" x="50"/>
     <use xlink:href="#TimesNewRomanPSMT-20" x="83.300781"/>
     <use xlink:href="#TimesNewRomanPSMT-57" x="106.550781"/>
     <use xlink:href="#TimesNewRomanPSMT-72" x="196.935547"/>
     <use xlink:href="#TimesNewRomanPSMT-69" x="230.236328"/>
     <use xlink:href="#TimesNewRomanPSMT-74" x="258.019531"/>
     <use xlink:href="#TimesNewRomanPSMT-65" x="285.802734"/>
     <use xlink:href="#TimesNewRomanPSMT-20" x="330.1875"/>
     <use xlink:href="#TimesNewRomanPSMT-6c" x="355.1875"/>
     <use xlink:href="#TimesNewRomanPSMT-6f" x="382.970703"/>
     <use xlink:href="#TimesNewRomanPSMT-67" x="432.970703"/>
     <use xlink:href="#TimesNewRomanPSMT-20" x="482.970703"/>
     <use xlink:href="#TimesNewRomanPSMT-66" x="507.970703"/>
     <use xlink:href="#TimesNewRomanPSMT-69" x="541.271484"/>
     <use xlink:href="#TimesNewRomanPSMT-6c" x="569.054688"/>
     <use xlink:href="#TimesNewRomanPSMT-65" x="596.837891"/>
    </g>
    <!-- log/{Model}_{Dataset}.log -->
    <g transform="translate(280.784063 112.338688) scale(0.07 -0.07)">
     <defs>
      <path id="TimesNewRomanPSMT-2f" d="M 1794 4444 
L 259 -88 
L 9 -88 
L 1544 4444 
L 1794 4444 
z
" transform="scale(0.015625)"/>
      <path id="TimesNewRomanPSMT-7b" d="M 2628 -1272 
L 2628 -1381 
Q 2106 -1309 1779 -957 
Q 1453 -606 1453 -178 
Q 1453 47 1525 345 
Q 1597 644 1597 809 
Q 1597 1034 1408 1229 
Q 1219 1425 884 1469 
L 884 1597 
Q 1219 1641 1408 1834 
Q 1597 2028 1597 2256 
Q 1597 2422 1525 2719 
Q 1453 3016 1453 3244 
Q 1453 3669 1779 4022 
Q 2106 4375 2628 4444 
L 2628 4334 
Q 2263 4247 2092 4048 
Q 1922 3850 1922 3613 
Q 1922 3428 1992 3126 
Q 2063 2825 2063 2613 
Q 2063 2297 1831 2000 
Q 1600 1703 1141 1541 
Q 1591 1375 1827 1072 
Q 2063 769 2063 453 
Q 2063 241 1992 -61 
Q 1922 -363 1922 -547 
Q 1922 -784 2092 -982 
Q 2263 -1181 2628 -1272 
z
" transform="scale(0.015625)"/>
      <path id="TimesNewRomanPSMT-7d" d="M 553 4334 
L 553 4444 
Q 1075 4375 1401 4023 
Q 1728 3672 1728 3241 
Q 1728 3016 1656 2719 
Q 1584 2422 1584 2256 
Q 1584 2031 1773 1836 
Q 1963 1641 2297 1597 
L 2297 1469 
Q 1963 1425 1773 1229 
Q 1584 1034 1584 809 
Q 1584 644 1656 345 
Q 1728 47 1728 -178 
Q 1728 -603 1401 -956 
Q 1075 -1309 553 -1381 
L 553 -1272 
Q 919 -1181 1089 -984 
Q 1259 -788 1259 -547 
Q 1259 -363 1187 -61 
Q 1116 241 1116 450 
Q 1116 769 1348 1066 
Q 1581 1363 2041 1525 
Q 1591 1691 1353 1994 
Q 1116 2297 1116 2613 
Q 1116 2825 1187 3126 
Q 1259 3428 1259 3613 
Q 1259 3850 1089 4048 
Q 919 4247 553 4334 
z
" transform="scale(0.015625)"/>
      <path id="TimesNewRomanPSMT-5f" d="M 3256 -1381 
L -53 -1381 
L -53 -1119 
L 3256 -1119 
L 3256 -1381 
z
" transform="scale(0.015625)"/>
      <path id="TimesNewRomanPSMT-44" d="M 109 0 
L 109 116 
L 269 116 
Q 538 116 650 288 
Q 719 391 719 750 
L 719 3488 
Q 719 3884 631 3984 
Q 509 4122 269 4122 
L 109 4122 
L 109 4238 
L 1834 4238 
Q 2784 4238 3279 4022 
Q 3775 3806 4076 3303 
Q 4378 2800 4378 2141 
Q 4378 1256 3841 663 
Q 3238 0 2003 0 
L 109 0 
z
M 1319 306 
Q 1716 219 1984 219 
Q 2709 219 3187 728 
Q 3666 1238 3666 2109 
Q 3666 2988 3187 3494 
Q 2709 4000 1959 4000 
Q 1678 4000 1319 3909 
L 1319 306 
z
" transform="scale(0.015625)"/>
      <path id="TimesNewRomanPSMT-2e" d="M 800 606 
Q 947 606 1047 504 
Q 1147 403 1147 259 
Q 1147 116 1045 14 
Q 944 -88 800 -88 
Q 656 -88 554 14 
Q 453 116 453 259 
Q 453 406 554 506 
Q 656 606 800 606 
z
" transform="scale(0.015625)"/>
     </defs>
     <use xlink:href="#TimesNewRomanPSMT-6c"/>
     <use xlink:href="#TimesNewRomanPSMT-6f" x="27.783203"/>
     <use xlink:href="#TimesNewRomanPSMT-67" x="77.783203"/>
     <use xlink:href="#TimesNewRomanPSMT-2f" x="127.783203"/>
     <use xlink:href="#TimesNewRomanPSMT-7b" x="155.566406"/>
     <use xlink:href="#TimesNewRomanPSMT-4d" x="203.564453"/>
     <use xlink:href="#TimesNewRomanPSMT-6f" x="292.480469"/>
     <use xlink:href="#TimesNewRomanPSMT-64" x="342.480469"/>
     <use xlink:href="#TimesNewRomanPSMT-65" x="392.480469"/>
     <use xlink:href="#TimesNewRomanPSMT-6c" x="436.865234"/>
     <use xlink:href="#TimesNewRomanPSMT-7d" x="464.648438"/>
     <use xlink:href="#TimesNewRomanPSMT-5f" x="512.646484"/>
     <use xlink:href="#TimesNewRomanPSMT-7b" x="562.646484"/>
     <use xlink:href="#TimesNewRomanPSMT-44" x="610.644531"/>
     <use xlink:href="#TimesNewRomanPSMT-61" x="682.861328"/>
     <use xlink:href="#TimesNewRomanPSMT-74" x="727.246094"/>
     <use xlink:href="#TimesNewRomanPSMT-61" x="755.029297"/>
     <use xlink:href="#TimesNewRomanPSMT-73" x="799.414062"/>
     <use xlink:href="#TimesNewRomanPSMT-65" x="838.330078"/>
     <use xlink:href="#TimesNewRomanPSMT-74" x="882.714844"/>
     <use xlink:href="#TimesNewRomanPSMT-7d" x="910.498047"/>
     <use xlink:href="#TimesNewRomanPSMT-2e" x="958.496094"/>
     <use xlink:href="#TimesNewRomanPSMT-6c" x="983.496094"/>
     <use xlink:href="#TimesNewRomanPSMT-6f" x="1011.279297"/>
     <use xlink:href="#TimesNewRomanPSMT-67" x="1061.279297"/>
    </g>
   </g>
   <g id="text_9">
    <!-- Model branches in train_and_evaluate.py: -->
    <g transform="translate(47.634375 157.369326) scale(0.068 -0.068)">
     <defs>
      <path id="TimesNewRomanPSMT-3a" d="M 903 2950 
Q 1047 2950 1148 2848 
Q 1250 2747 1250 2603 
Q 1250 2459 1148 2357 
Q 1047 2256 903 2256 
Q 759 2256 657 2357 
Q 556 2459 556 2603 
Q 556 2747 657 2848 
Q 759 2950 903 2950 
z
M 897 609 
Q 1044 609 1145 506 
Q 1247 403 1247 259 
Q 1247 116 1144 14 
Q 1041 -88 897 -88 
Q 753 -88 651 14 
Q 550 116 550 259 
Q 550 403 651 506 
Q 753 609 897 609 
z
" transform="scale(0.015625)"/>
     </defs>
     <use xlink:href="#TimesNewRomanPSMT-4d"/>
     <use xlink:href="#TimesNewRomanPSMT-6f" x="88.916016"/>
     <use xlink:href="#TimesNewRomanPSMT-64" x="138.916016"/>
     <use xlink:href="#TimesNewRomanPSMT-65" x="188.916016"/>
     <use xlink:href="#TimesNewRomanPSMT-6c" x="233.300781"/>
     <use xlink:href="#TimesNewRomanPSMT-20" x="261.083984"/>
     <use xlink:href="#TimesNewRomanPSMT-62" x="286.083984"/>
     <use xlink:href="#TimesNewRomanPSMT-72" x="336.083984"/>
     <use xlink:href="#TimesNewRomanPSMT-61" x="369.384766"/>
     <use xlink:href="#TimesNewRomanPSMT-6e" x="413.769531"/>
     <use xlink:href="#TimesNewRomanPSMT-63" x="463.769531"/>
     <use xlink:href="#TimesNewRomanPSMT-68" x="508.154297"/>
     <use xlink:href="#TimesNewRomanPSMT-65" x="558.154297"/>
     <use xlink:href="#TimesNewRomanPSMT-73" x="602.539062"/>
     <use xlink:href="#TimesNewRomanPSMT-20" x="641.455078"/>
     <use xlink:href="#TimesNewRomanPSMT-69" x="666.455078"/>
     <use xlink:href="#TimesNewRomanPSMT-6e" x="694.238281"/>
     <use xlink:href="#TimesNewRomanPSMT-20" x="744.238281"/>
     <use xlink:href="#TimesNewRomanPSMT-74" x="769.238281"/>
     <use xlink:href="#TimesNewRomanPSMT-72" x="797.021484"/>
     <use xlink:href="#TimesNewRomanPSMT-61" x="830.322266"/>
     <use xlink:href="#TimesNewRomanPSMT-69" x="874.707031"/>
     <use xlink:href="#TimesNewRomanPSMT-6e" x="902.490234"/>
     <use xlink:href="#TimesNewRomanPSMT-5f" x="952.490234"/>
     <use xlink:href="#TimesNewRomanPSMT-61" x="1002.490234"/>
     <use xlink:href="#TimesNewRomanPSMT-6e" x="1046.875"/>
     <use xlink:href="#TimesNewRomanPSMT-64" x="1096.875"/>
     <use xlink:href="#TimesNewRomanPSMT-5f" x="1146.875"/>
     <use xlink:href="#TimesNewRomanPSMT-65" x="1196.875"/>
     <use xlink:href="#TimesNewRomanPSMT-76" x="1241.259766"/>
     <use xlink:href="#TimesNewRomanPSMT-61" x="1291.259766"/>
     <use xlink:href="#TimesNewRomanPSMT-6c" x="1335.644531"/>
     <use xlink:href="#TimesNewRomanPSMT-75" x="1363.427734"/>
     <use xlink:href="#TimesNewRomanPSMT-61" x="1413.427734"/>
     <use xlink:href="#TimesNewRomanPSMT-74" x="1457.8125"/>
     <use xlink:href="#TimesNewRomanPSMT-65" x="1485.595703"/>
     <use xlink:href="#TimesNewRomanPSMT-2e" x="1529.980469"/>
     <use xlink:href="#TimesNewRomanPSMT-70" x="1554.980469"/>
     <use xlink:href="#TimesNewRomanPSMT-79" x="1604.980469"/>
     <use xlink:href="#TimesNewRomanPSMT-3a" x="1654.980469"/>
    </g>
    <!-- standard / LightGT / DiffMM / DiffRec / -->
    <g transform="translate(49.222281 164.502739) scale(0.068 -0.068)">
     <defs>
      <path id="TimesNewRomanPSMT-47" d="M 3928 4334 
L 4038 2997 
L 3928 2997 
Q 3763 3497 3500 3750 
Q 3122 4116 2528 4116 
Q 1719 4116 1297 3475 
Q 944 2934 944 2188 
Q 944 1581 1178 1081 
Q 1413 581 1792 348 
Q 2172 116 2572 116 
Q 2806 116 3025 175 
Q 3244 234 3447 350 
L 3447 1575 
Q 3447 1894 3398 1992 
Q 3350 2091 3248 2142 
Q 3147 2194 2891 2194 
L 2891 2313 
L 4531 2313 
L 4531 2194 
L 4453 2194 
Q 4209 2194 4119 2031 
Q 4056 1916 4056 1575 
L 4056 278 
Q 3697 84 3347 -6 
Q 2997 -97 2569 -97 
Q 1341 -97 703 691 
Q 225 1281 225 2053 
Q 225 2613 494 3125 
Q 813 3734 1369 4063 
Q 1834 4334 2469 4334 
Q 2700 4334 2889 4296 
Q 3078 4259 3425 4131 
Q 3600 4066 3659 4066 
Q 3719 4066 3761 4120 
Q 3803 4175 3813 4334 
L 3928 4334 
z
" transform="scale(0.015625)"/>
     </defs>
     <use xlink:href="#TimesNewRomanPSMT-73"/>
     <use xlink:href="#TimesNewRomanPSMT-74" x="38.916016"/>
     <use xlink:href="#TimesNewRomanPSMT-61" x="66.699219"/>
     <use xlink:href="#TimesNewRomanPSMT-6e" x="111.083984"/>
     <use xlink:href="#TimesNewRomanPSMT-64" x="161.083984"/>
     <use xlink:href="#TimesNewRomanPSMT-61" x="211.083984"/>
     <use xlink:href="#TimesNewRomanPSMT-72" x="255.46875"/>
     <use xlink:href="#TimesNewRomanPSMT-64" x="288.769531"/>
     <use xlink:href="#TimesNewRomanPSMT-20" x="338.769531"/>
     <use xlink:href="#TimesNewRomanPSMT-2f" x="363.769531"/>
     <use xlink:href="#TimesNewRomanPSMT-20" x="391.552734"/>
     <use xlink:href="#TimesNewRomanPSMT-4c" x="416.552734"/>
     <use xlink:href="#TimesNewRomanPSMT-69" x="477.636719"/>
     <use xlink:href="#TimesNewRomanPSMT-67" x="505.419922"/>
     <use xlink:href="#TimesNewRomanPSMT-68" x="555.419922"/>
     <use xlink:href="#TimesNewRomanPSMT-74" x="605.419922"/>
     <use xlink:href="#TimesNewRomanPSMT-47" x="633.203125"/>
     <use xlink:href="#TimesNewRomanPSMT-54" x="705.419922"/>
     <use xlink:href="#TimesNewRomanPSMT-20" x="764.753906"/>
     <use xlink:href="#TimesNewRomanPSMT-2f" x="789.753906"/>
     <use xlink:href="#TimesNewRomanPSMT-20" x="817.537109"/>
     <use xlink:href="#TimesNewRomanPSMT-44" x="842.537109"/>
     <use xlink:href="#TimesNewRomanPSMT-69" x="914.753906"/>
     <use xlink:href="#TimesNewRomanPSMT-66" x="942.537109"/>
     <use xlink:href="#TimesNewRomanPSMT-66" x="974.087891"/>
     <use xlink:href="#TimesNewRomanPSMT-4d" x="1007.388672"/>
     <use xlink:href="#TimesNewRomanPSMT-4d" x="1096.304688"/>
     <use xlink:href="#TimesNewRomanPSMT-20" x="1185.220703"/>
     <use xlink:href="#TimesNewRomanPSMT-2f" x="1210.220703"/>
     <use xlink:href="#TimesNewRomanPSMT-20" x="1238.003906"/>
     <use xlink:href="#TimesNewRomanPSMT-44" x="1263.003906"/>
     <use xlink:href="#TimesNewRomanPSMT-69" x="1335.220703"/>
     <use xlink:href="#TimesNewRomanPSMT-66" x="1363.003906"/>
     <use xlink:href="#TimesNewRomanPSMT-66" x="1394.554688"/>
     <use xlink:href="#TimesNewRomanPSMT-52" x="1427.855469"/>
     <use xlink:href="#TimesNewRomanPSMT-65" x="1494.554688"/>
     <use xlink:href="#TimesNewRomanPSMT-63" x="1538.939453"/>
     <use xlink:href="#TimesNewRomanPSMT-20" x="1583.324219"/>
     <use xlink:href="#TimesNewRomanPSMT-2f" x="1608.324219"/>
    </g>
    <!-- CF_Diff / MHRec -->
    <g transform="translate(79.976875 171.636151) scale(0.068 -0.068)">
     <defs>
      <path id="TimesNewRomanPSMT-43" d="M 3853 4334 
L 3950 2894 
L 3853 2894 
Q 3659 3541 3300 3825 
Q 2941 4109 2438 4109 
Q 2016 4109 1675 3895 
Q 1334 3681 1139 3212 
Q 944 2744 944 2047 
Q 944 1472 1128 1050 
Q 1313 628 1683 403 
Q 2053 178 2528 178 
Q 2941 178 3256 354 
Q 3572 531 3950 1056 
L 4047 994 
Q 3728 428 3303 165 
Q 2878 -97 2294 -97 
Q 1241 -97 663 684 
Q 231 1266 231 2053 
Q 231 2688 515 3219 
Q 800 3750 1298 4042 
Q 1797 4334 2388 4334 
Q 2847 4334 3294 4109 
Q 3425 4041 3481 4041 
Q 3566 4041 3628 4100 
Q 3709 4184 3744 4334 
L 3853 4334 
z
" transform="scale(0.015625)"/>
      <path id="TimesNewRomanPSMT-46" d="M 1309 4006 
L 1309 2341 
L 2081 2341 
Q 2347 2341 2470 2458 
Q 2594 2575 2634 2922 
L 2750 2922 
L 2750 1488 
L 2634 1488 
Q 2631 1734 2570 1850 
Q 2509 1966 2401 2023 
Q 2294 2081 2081 2081 
L 1309 2081 
L 1309 750 
Q 1309 428 1350 325 
Q 1381 247 1481 191 
Q 1619 116 1769 116 
L 1922 116 
L 1922 0 
L 103 0 
L 103 116 
L 253 116 
Q 516 116 634 269 
Q 709 369 709 750 
L 709 3488 
Q 709 3809 669 3913 
Q 638 3991 541 4047 
Q 406 4122 253 4122 
L 103 4122 
L 103 4238 
L 3256 4238 
L 3297 3306 
L 3188 3306 
Q 3106 3603 2998 3742 
Q 2891 3881 2733 3943 
Q 2575 4006 2244 4006 
L 1309 4006 
z
" transform="scale(0.015625)"/>
      <path id="TimesNewRomanPSMT-48" d="M 1316 2272 
L 3284 2272 
L 3284 3484 
Q 3284 3809 3244 3913 
Q 3213 3991 3113 4047 
Q 2978 4122 2828 4122 
L 2678 4122 
L 2678 4238 
L 4491 4238 
L 4491 4122 
L 4341 4122 
Q 4191 4122 4056 4050 
Q 3956 4000 3920 3898 
Q 3884 3797 3884 3484 
L 3884 750 
Q 3884 428 3925 325 
Q 3956 247 4053 191 
Q 4191 116 4341 116 
L 4491 116 
L 4491 0 
L 2678 0 
L 2678 116 
L 2828 116 
Q 3088 116 3206 269 
Q 3284 369 3284 750 
L 3284 2041 
L 1316 2041 
L 1316 750 
Q 1316 428 1356 325 
Q 1388 247 1488 191 
Q 1622 116 1772 116 
L 1925 116 
L 1925 0 
L 109 0 
L 109 116 
L 259 116 
Q 522 116 641 269 
Q 716 369 716 750 
L 716 3484 
Q 716 3809 675 3913 
Q 644 3991 547 4047 
Q 409 4122 259 4122 
L 109 4122 
L 109 4238 
L 1925 4238 
L 1925 4122 
L 1772 4122 
Q 1622 4122 1488 4050 
Q 1391 4000 1353 3898 
Q 1316 3797 1316 3484 
L 1316 2272 
z
" transform="scale(0.015625)"/>
     </defs>
     <use xlink:href="#TimesNewRomanPSMT-43"/>
     <use xlink:href="#TimesNewRomanPSMT-46" x="66.699219"/>
     <use xlink:href="#TimesNewRomanPSMT-5f" x="122.314453"/>
     <use xlink:href="#TimesNewRomanPSMT-44" x="172.314453"/>
     <use xlink:href="#TimesNewRomanPSMT-69" x="244.53125"/>
     <use xlink:href="#TimesNewRomanPSMT-66" x="272.314453"/>
     <use xlink:href="#TimesNewRomanPSMT-66" x="303.865234"/>
     <use xlink:href="#TimesNewRomanPSMT-20" x="337.166016"/>
     <use xlink:href="#TimesNewRomanPSMT-2f" x="362.166016"/>
     <use xlink:href="#TimesNewRomanPSMT-20" x="389.949219"/>
     <use xlink:href="#TimesNewRomanPSMT-4d" x="414.949219"/>
     <use xlink:href="#TimesNewRomanPSMT-48" x="503.865234"/>
     <use xlink:href="#TimesNewRomanPSMT-52" x="576.082031"/>
     <use xlink:href="#TimesNewRomanPSMT-65" x="642.78125"/>
     <use xlink:href="#TimesNewRomanPSMT-63" x="687.166016"/>
    </g>
   </g>
   <g id="text_10">
    <!-- Optional preprocessing: -->
    <g transform="translate(265.62075 157.369326) scale(0.068 -0.068)">
     <defs>
      <path id="TimesNewRomanPSMT-4f" d="M 2341 4334 
Q 3166 4334 3770 3707 
Q 4375 3081 4375 2144 
Q 4375 1178 3765 540 
Q 3156 -97 2291 -97 
Q 1416 -97 820 525 
Q 225 1147 225 2134 
Q 225 3144 913 3781 
Q 1509 4334 2341 4334 
z
M 2281 4106 
Q 1713 4106 1369 3684 
Q 941 3159 941 2147 
Q 941 1109 1384 550 
Q 1725 125 2284 125 
Q 2881 125 3270 590 
Q 3659 1056 3659 2059 
Q 3659 3147 3231 3681 
Q 2888 4106 2281 4106 
z
" transform="scale(0.015625)"/>
     </defs>
     <use xlink:href="#TimesNewRomanPSMT-4f"/>
     <use xlink:href="#TimesNewRomanPSMT-70" x="72.216797"/>
     <use xlink:href="#TimesNewRomanPSMT-74" x="122.216797"/>
     <use xlink:href="#TimesNewRomanPSMT-69" x="150"/>
     <use xlink:href="#TimesNewRomanPSMT-6f" x="177.783203"/>
     <use xlink:href="#TimesNewRomanPSMT-6e" x="227.783203"/>
     <use xlink:href="#TimesNewRomanPSMT-61" x="277.783203"/>
     <use xlink:href="#TimesNewRomanPSMT-6c" x="322.167969"/>
     <use xlink:href="#TimesNewRomanPSMT-20" x="349.951172"/>
     <use xlink:href="#TimesNewRomanPSMT-70" x="374.951172"/>
     <use xlink:href="#TimesNewRomanPSMT-72" x="424.951172"/>
     <use xlink:href="#TimesNewRomanPSMT-65" x="458.251953"/>
     <use xlink:href="#TimesNewRomanPSMT-70" x="502.636719"/>
     <use xlink:href="#TimesNewRomanPSMT-72" x="552.636719"/>
     <use xlink:href="#TimesNewRomanPSMT-6f" x="585.9375"/>
     <use xlink:href="#TimesNewRomanPSMT-63" x="635.9375"/>
     <use xlink:href="#TimesNewRomanPSMT-65" x="680.322266"/>
     <use xlink:href="#TimesNewRomanPSMT-73" x="724.707031"/>
     <use xlink:href="#TimesNewRomanPSMT-73" x="763.623047"/>
     <use xlink:href="#TimesNewRomanPSMT-69" x="802.539062"/>
     <use xlink:href="#TimesNewRomanPSMT-6e" x="830.322266"/>
     <use xlink:href="#TimesNewRomanPSMT-67" x="880.322266"/>
     <use xlink:href="#TimesNewRomanPSMT-3a" x="930.322266"/>
    </g>
    <!-- - dualgnn-gen-u-u-matrix.py -->
    <g transform="translate(259.298344 164.502739) scale(0.068 -0.068)">
     <defs>
      <path id="TimesNewRomanPSMT-2d" d="M 259 1672 
L 1875 1672 
L 1875 1200 
L 259 1200 
L 259 1672 
z
" transform="scale(0.015625)"/>
      <path id="TimesNewRomanPSMT-78" d="M 84 2863 
L 1431 2863 
L 1431 2747 
Q 1303 2747 1251 2703 
Q 1200 2659 1200 2588 
Q 1200 2513 1309 2356 
Q 1344 2306 1413 2200 
L 1616 1875 
L 1850 2200 
Q 2075 2509 2075 2591 
Q 2075 2656 2022 2701 
Q 1969 2747 1850 2747 
L 1850 2863 
L 2819 2863 
L 2819 2747 
Q 2666 2738 2553 2663 
Q 2400 2556 2134 2200 
L 1744 1678 
L 2456 653 
Q 2719 275 2831 198 
Q 2944 122 3122 113 
L 3122 0 
L 1772 0 
L 1772 113 
Q 1913 113 1991 175 
Q 2050 219 2050 291 
Q 2050 363 1850 653 
L 1431 1266 
L 972 653 
Q 759 369 759 316 
Q 759 241 829 180 
Q 900 119 1041 113 
L 1041 0 
L 106 0 
L 106 113 
Q 219 128 303 191 
Q 422 281 703 653 
L 1303 1450 
L 759 2238 
Q 528 2575 401 2661 
Q 275 2747 84 2747 
L 84 2863 
z
" transform="scale(0.015625)"/>
     </defs>
     <use xlink:href="#TimesNewRomanPSMT-2d"/>
     <use xlink:href="#TimesNewRomanPSMT-20" x="33.300781"/>
     <use xlink:href="#TimesNewRomanPSMT-64" x="58.300781"/>
     <use xlink:href="#TimesNewRomanPSMT-75" x="108.300781"/>
     <use xlink:href="#TimesNewRomanPSMT-61" x="158.300781"/>
     <use xlink:href="#TimesNewRomanPSMT-6c" x="202.685547"/>
     <use xlink:href="#TimesNewRomanPSMT-67" x="230.46875"/>
     <use xlink:href="#TimesNewRomanPSMT-6e" x="280.46875"/>
     <use xlink:href="#TimesNewRomanPSMT-6e" x="330.46875"/>
     <use xlink:href="#TimesNewRomanPSMT-2d" x="380.46875"/>
     <use xlink:href="#TimesNewRomanPSMT-67" x="413.769531"/>
     <use xlink:href="#TimesNewRomanPSMT-65" x="463.769531"/>
     <use xlink:href="#TimesNewRomanPSMT-6e" x="508.154297"/>
     <use xlink:href="#TimesNewRomanPSMT-2d" x="558.154297"/>
     <use xlink:href="#TimesNewRomanPSMT-75" x="591.455078"/>
     <use xlink:href="#TimesNewRomanPSMT-2d" x="641.455078"/>
     <use xlink:href="#TimesNewRomanPSMT-75" x="674.755859"/>
     <use xlink:href="#TimesNewRomanPSMT-2d" x="724.755859"/>
     <use xlink:href="#TimesNewRomanPSMT-6d" x="758.056641"/>
     <use xlink:href="#TimesNewRomanPSMT-61" x="835.839844"/>
     <use xlink:href="#TimesNewRomanPSMT-74" x="880.224609"/>
     <use xlink:href="#TimesNewRomanPSMT-72" x="908.007812"/>
     <use xlink:href="#TimesNewRomanPSMT-69" x="941.308594"/>
     <use xlink:href="#TimesNewRomanPSMT-78" x="969.091797"/>
     <use xlink:href="#TimesNewRomanPSMT-2e" x="1019.091797"/>
     <use xlink:href="#TimesNewRomanPSMT-70" x="1044.091797"/>
     <use xlink:href="#TimesNewRomanPSMT-79" x="1094.091797"/>
    </g>
    <!-- - gen_hypergraph_u_i.py -->
    <g transform="translate(263.887812 171.636151) scale(0.068 -0.068)">
     <use xlink:href="#TimesNewRomanPSMT-2d"/>
     <use xlink:href="#TimesNewRomanPSMT-20" x="33.300781"/>
     <use xlink:href="#TimesNewRomanPSMT-67" x="58.300781"/>
     <use xlink:href="#TimesNewRomanPSMT-65" x="108.300781"/>
     <use xlink:href="#TimesNewRomanPSMT-6e" x="152.685547"/>
     <use xlink:href="#TimesNewRomanPSMT-5f" x="202.685547"/>
     <use xlink:href="#TimesNewRomanPSMT-68" x="252.685547"/>
     <use xlink:href="#TimesNewRomanPSMT-79" x="302.685547"/>
     <use xlink:href="#TimesNewRomanPSMT-70" x="352.685547"/>
     <use xlink:href="#TimesNewRomanPSMT-65" x="402.685547"/>
     <use xlink:href="#TimesNewRomanPSMT-72" x="447.070312"/>
     <use xlink:href="#TimesNewRomanPSMT-67" x="478.621094"/>
     <use xlink:href="#TimesNewRomanPSMT-72" x="528.621094"/>
     <use xlink:href="#TimesNewRomanPSMT-61" x="561.921875"/>
     <use xlink:href="#TimesNewRomanPSMT-70" x="606.306641"/>
     <use xlink:href="#TimesNewRomanPSMT-68" x="656.306641"/>
     <use xlink:href="#TimesNewRomanPSMT-5f" x="706.306641"/>
     <use xlink:href="#TimesNewRomanPSMT-75" x="756.306641"/>
     <use xlink:href="#TimesNewRomanPSMT-5f" x="806.306641"/>
     <use xlink:href="#TimesNewRomanPSMT-69" x="856.306641"/>
     <use xlink:href="#TimesNewRomanPSMT-2e" x="884.089844"/>
     <use xlink:href="#TimesNewRomanPSMT-70" x="909.089844"/>
     <use xlink:href="#TimesNewRomanPSMT-79" x="959.089844"/>
    </g>
   </g>
   <g id="patch_12">
    <path d="M 85.416315 51.10848 
Q 87.275539 51.10848 88.016729 51.10848 
" style="fill: none; stroke: #334155; stroke-linecap: round"/>
    <path d="M 85.016729 49.60848 
L 88.016729 51.10848 
L 85.016729 52.60848 
L 85.016729 49.60848 
z
" style="fill: #334155; stroke: #334155; stroke-linecap: round"/>
   </g>
   <g id="patch_13">
    <path d="M 167.442315 51.10848 
Q 169.301539 51.10848 170.042729 51.10848 
" style="fill: none; stroke: #334155; stroke-linecap: round"/>
    <path d="M 167.042729 49.60848 
L 170.042729 51.10848 
L 167.042729 52.60848 
L 167.042729 49.60848 
z
" style="fill: #334155; stroke: #334155; stroke-linecap: round"/>
   </g>
   <g id="patch_14">
    <path d="M 249.468315 51.10848 
Q 251.327539 51.10848 252.068729 51.10848 
" style="fill: none; stroke: #334155; stroke-linecap: round"/>
    <path d="M 249.068729 49.60848 
L 252.068729 51.10848 
L 249.068729 52.60848 
L 249.068729 49.60848 
z
" style="fill: #334155; stroke: #334155; stroke-linecap: round"/>
   </g>
   <g id="patch_15">
    <path d="M 323.682315 51.10848 
Q 325.541539 51.10848 326.282729 51.10848 
" style="fill: none; stroke: #334155; stroke-linecap: round"/>
    <path d="M 323.282729 49.60848 
L 326.282729 51.10848 
L 323.282729 52.60848 
L 323.282729 49.60848 
z
" style="fill: #334155; stroke: #334155; stroke-linecap: round"/>
   </g>
   <g id="patch_16">
    <path d="M 358.74 71.078574 
Q 358.74 75.061002 358.74 77.925395 
" style="fill: none; stroke: #334155; stroke-linecap: round"/>
    <path d="M 360.24 74.925395 
L 358.74 77.925395 
L 357.24 74.925395 
L 360.24 74.925395 
z
" style="fill: #334155; stroke: #334155; stroke-linecap: round"/>
   </g>
   <g id="patch_17">
    <path d="M 354.738996 83.04192 
Q 222.029503 83.04192 90.438044 83.04192 
" style="fill: none; stroke: #334155; stroke-linecap: round"/>
    <path d="M 93.438044 84.54192 
L 90.438044 83.04192 
L 93.438044 81.54192 
L 93.438044 84.54192 
z
" style="fill: #334155; stroke: #334155; stroke-linecap: round"/>
   </g>
   <g id="patch_18">
    <path d="M 85.32 87.045294 
Q 85.32 89.035287 85.32 89.907246 
" style="fill: none; stroke: #334155; stroke-linecap: round"/>
    <path d="M 86.82 86.907246 
L 85.32 89.907246 
L 83.82 86.907246 
L 86.82 86.907246 
z
" style="fill: #334155; stroke: #334155; stroke-linecap: round"/>
   </g>
   <g id="patch_19">
    <path d="M 147.911361 106.992 
Q 151.723621 106.992 154.417846 106.992 
" style="fill: none; stroke: #334155; stroke-linecap: round"/>
    <path d="M 151.417846 105.492 
L 154.417846 106.992 
L 151.417846 108.492 
L 151.417846 105.492 
z
" style="fill: #334155; stroke: #334155; stroke-linecap: round"/>
   </g>
   <g id="patch_20">
    <path d="M 257.279361 106.992 
Q 261.091621 106.992 263.785846 106.992 
" style="fill: none; stroke: #334155; stroke-linecap: round"/>
    <path d="M 260.785846 105.492 
L 263.785846 106.992 
L 260.785846 108.492 
L 260.785846 105.492 
z
" style="fill: #334155; stroke: #334155; stroke-linecap: round"/>
   </g>
   <g id="text_11">
    <!-- grid search: repeat steps (3-5) for each hyperparameter combination -->
    <g transform="translate(115.6045 28.77116) scale(0.064 -0.064)">
     <defs>
      <path id="TimesNewRomanPSMT-28" d="M 1988 -1253 
L 1988 -1369 
Q 1516 -1131 1200 -813 
Q 750 -359 506 256 
Q 263 872 263 1534 
Q 263 2503 741 3301 
Q 1219 4100 1988 4444 
L 1988 4313 
Q 1603 4100 1356 3731 
Q 1109 3363 987 2797 
Q 866 2231 866 1616 
Q 866 947 969 400 
Q 1050 -31 1165 -292 
Q 1281 -553 1476 -793 
Q 1672 -1034 1988 -1253 
z
" transform="scale(0.015625)"/>
     </defs>
     <use xlink:href="#TimesNewRomanPSMT-67"/>
     <use xlink:href="#TimesNewRomanPSMT-72" x="50"/>
     <use xlink:href="#TimesNewRomanPSMT-69" x="83.300781"/>
     <use xlink:href="#TimesNewRomanPSMT-64" x="111.083984"/>
     <use xlink:href="#TimesNewRomanPSMT-20" x="161.083984"/>
     <use xlink:href="#TimesNewRomanPSMT-73" x="186.083984"/>
     <use xlink:href="#TimesNewRomanPSMT-65" x="225"/>
     <use xlink:href="#TimesNewRomanPSMT-61" x="269.384766"/>
     <use xlink:href="#TimesNewRomanPSMT-72" x="313.769531"/>
     <use xlink:href="#TimesNewRomanPSMT-63" x="347.070312"/>
     <use xlink:href="#TimesNewRomanPSMT-68" x="391.455078"/>
     <use xlink:href="#TimesNewRomanPSMT-3a" x="441.455078"/>
     <use xlink:href="#TimesNewRomanPSMT-20" x="469.238281"/>
     <use xlink:href="#TimesNewRomanPSMT-72" x="494.238281"/>
     <use xlink:href="#TimesNewRomanPSMT-65" x="527.539062"/>
     <use xlink:href="#TimesNewRomanPSMT-70" x="571.923828"/>
     <use xlink:href="#TimesNewRomanPSMT-65" x="621.923828"/>
     <use xlink:href="#TimesNewRomanPSMT-61" x="666.308594"/>
     <use xlink:href="#TimesNewRomanPSMT-74" x="710.693359"/>
     <use xlink:href="#TimesNewRomanPSMT-20" x="738.476562"/>
     <use xlink:href="#TimesNewRomanPSMT-73" x="763.476562"/>
     <use xlink:href="#TimesNewRomanPSMT-74" x="802.392578"/>
     <use xlink:href="#TimesNewRomanPSMT-65" x="830.175781"/>
     <use xlink:href="#TimesNewRomanPSMT-70" x="874.560547"/>
     <use xlink:href="#TimesNewRomanPSMT-73" x="924.560547"/>
     <use xlink:href="#TimesNewRomanPSMT-20" x="963.476562"/>
     <use xlink:href="#TimesNewRomanPSMT-28" x="988.476562"/>
     <use xlink:href="#TimesNewRomanPSMT-33" x="1021.777344"/>
     <use xlink:href="#TimesNewRomanPSMT-2d" x="1071.777344"/>
     <use xlink:href="#TimesNewRomanPSMT-35" x="1105.078125"/>
     <use xlink:href="#TimesNewRomanPSMT-29" x="1155.078125"/>
     <use xlink:href="#TimesNewRomanPSMT-20" x="1188.378906"/>
     <use xlink:href="#TimesNewRomanPSMT-66" x="1213.378906"/>
     <use xlink:href="#TimesNewRomanPSMT-6f" x="1246.679688"/>
     <use xlink:href="#TimesNewRomanPSMT-72" x="1296.679688"/>
     <use xlink:href="#TimesNewRomanPSMT-20" x="1329.980469"/>
     <use xlink:href="#TimesNewRomanPSMT-65" x="1354.980469"/>
     <use xlink:href="#TimesNewRomanPSMT-61" x="1399.365234"/>
     <use xlink:href="#TimesNewRomanPSMT-63" x="1443.75"/>
     <use xlink:href="#TimesNewRomanPSMT-68" x="1488.134766"/>
     <use xlink:href="#TimesNewRomanPSMT-20" x="1538.134766"/>
     <use xlink:href="#TimesNewRomanPSMT-68" x="1563.134766"/>
     <use xlink:href="#TimesNewRomanPSMT-79" x="1613.134766"/>
     <use xlink:href="#TimesNewRomanPSMT-70" x="1663.134766"/>
     <use xlink:href="#TimesNewRomanPSMT-65" x="1713.134766"/>
     <use xlink:href="#TimesNewRomanPSMT-72" x="1757.519531"/>
     <use xlink:href="#TimesNewRomanPSMT-70" x="1790.820312"/>
     <use xlink:href="#TimesNewRomanPSMT-61" x="1840.820312"/>
     <use xlink:href="#TimesNewRomanPSMT-72" x="1885.205078"/>
     <use xlink:href="#TimesNewRomanPSMT-61" x="1918.505859"/>
     <use xlink:href="#TimesNewRomanPSMT-6d" x="1962.890625"/>
     <use xlink:href="#TimesNewRomanPSMT-65" x="2040.673828"/>
     <use xlink:href="#TimesNewRomanPSMT-74" x="2085.058594"/>
     <use xlink:href="#TimesNewRomanPSMT-65" x="2112.841797"/>
     <use xlink:href="#TimesNewRomanPSMT-72" x="2157.226562"/>
     <use xlink:href="#TimesNewRomanPSMT-20" x="2190.527344"/>
     <use xlink:href="#TimesNewRomanPSMT-63" x="2215.527344"/>
     <use xlink:href="#TimesNewRomanPSMT-6f" x="2259.912109"/>
     <use xlink:href="#TimesNewRomanPSMT-6d" x="2309.912109"/>
     <use xlink:href="#TimesNewRomanPSMT-62" x="2387.695312"/>
     <use xlink:href="#TimesNewRomanPSMT-69" x="2437.695312"/>
     <use xlink:href="#TimesNewRomanPSMT-6e" x="2465.478516"/>
     <use xlink:href="#TimesNewRomanPSMT-61" x="2515.478516"/>
     <use xlink:href="#TimesNewRomanPSMT-74" x="2559.863281"/>
     <use xlink:href="#TimesNewRomanPSMT-69" x="2587.646484"/>
     <use xlink:href="#TimesNewRomanPSMT-6f" x="2615.429688"/>
     <use xlink:href="#TimesNewRomanPSMT-6e" x="2665.429688"/>
    </g>
   </g>
   <g id="text_12">
    <!-- Figure 2. ChaoRec training pipeline -->
    <g transform="translate(137.528125 19.946846) scale(0.085 -0.085)">
     <defs>
      <path id="TimesNewRomanPS-BoldMT-46" d="M 1759 3994 
L 1759 2253 
L 1881 2253 
Q 2163 2253 2341 2337 
Q 2519 2422 2642 2622 
Q 2766 2822 2803 3163 
L 2913 3163 
L 2913 1034 
L 2803 1034 
Q 2744 1638 2480 1830 
Q 2216 2022 1881 2022 
L 1759 2022 
L 1759 725 
Q 1759 400 1795 319 
Q 1831 238 1936 177 
Q 2041 116 2219 116 
L 2359 116 
L 2359 0 
L 144 0 
L 144 116 
L 284 116 
Q 469 116 581 181 
Q 663 225 706 331 
Q 741 406 741 725 
L 741 3513 
Q 741 3838 706 3919 
Q 672 4000 567 4061 
Q 463 4122 284 4122 
L 144 4122 
L 144 4238 
L 3719 4238 
L 3719 3022 
L 3591 3022 
Q 3547 3450 3367 3656 
Q 3188 3863 2847 3947 
Q 2659 3994 2153 3994 
L 1759 3994 
z
" transform="scale(0.015625)"/>
      <path id="TimesNewRomanPS-BoldMT-69" d="M 919 4338 
Q 1122 4338 1262 4195 
Q 1403 4053 1403 3853 
Q 1403 3653 1261 3512 
Q 1119 3372 919 3372 
Q 719 3372 578 3512 
Q 438 3653 438 3853 
Q 438 4053 578 4195 
Q 719 4338 919 4338 
z
M 1356 2922 
L 1356 606 
Q 1356 297 1428 211 
Q 1500 125 1709 113 
L 1709 0 
L 131 0 
L 131 113 
Q 325 119 419 225 
Q 481 297 481 606 
L 481 2313 
Q 481 2622 409 2708 
Q 338 2794 131 2806 
L 131 2922 
L 1356 2922 
z
" transform="scale(0.015625)"/>
      <path id="TimesNewRomanPS-BoldMT-67" d="M 2091 2888 
L 3075 2888 
L 3075 2544 
L 2516 2544 
Q 2669 2391 2728 2266 
Q 2803 2097 2803 1913 
Q 2803 1600 2629 1370 
Q 2456 1141 2157 1011 
Q 1859 881 1628 881 
Q 1609 881 1253 897 
Q 1113 897 1017 805 
Q 922 713 922 584 
Q 922 472 1008 400 
Q 1094 328 1288 328 
L 1828 334 
Q 2484 334 2731 191 
Q 3084 -9 3084 -425 
Q 3084 -691 2921 -908 
Q 2759 -1125 2494 -1228 
Q 2091 -1381 1566 -1381 
Q 1172 -1381 847 -1304 
Q 522 -1228 381 -1092 
Q 241 -956 241 -806 
Q 241 -663 348 -548 
Q 456 -434 750 -356 
Q 344 -156 344 200 
Q 344 416 509 619 
Q 675 822 1034 972 
Q 616 1125 428 1375 
Q 241 1625 241 1953 
Q 241 2381 591 2695 
Q 941 3009 1491 3009 
Q 1781 3009 2091 2888 
z
M 1550 2816 
Q 1369 2816 1244 2633 
Q 1119 2450 1119 1875 
Q 1119 1409 1242 1236 
Q 1366 1063 1534 1063 
Q 1722 1063 1847 1234 
Q 1972 1406 1972 1903 
Q 1972 2463 1831 2666 
Q 1731 2816 1550 2816 
z
M 1366 -431 
Q 1047 -431 944 -484 
Q 766 -581 766 -747 
Q 766 -906 950 -1036 
Q 1134 -1166 1644 -1166 
Q 2078 -1166 2326 -1050 
Q 2575 -934 2575 -725 
Q 2575 -647 2528 -594 
Q 2444 -500 2273 -465 
Q 2103 -431 1366 -431 
z
" transform="scale(0.015625)"/>
      <path id="TimesNewRomanPS-BoldMT-75" d="M 3038 2922 
L 3038 634 
Q 3038 300 3100 217 
Q 3163 134 3353 113 
L 3353 0 
L 2163 0 
L 2163 391 
Q 1953 141 1743 26 
Q 1534 -88 1275 -88 
Q 1028 -88 836 64 
Q 644 216 578 419 
Q 513 622 513 1128 
L 513 2288 
Q 513 2619 452 2700 
Q 391 2781 197 2806 
L 197 2922 
L 1388 2922 
L 1388 925 
Q 1388 613 1417 522 
Q 1447 431 1511 384 
Q 1575 338 1659 338 
Q 1772 338 1863 397 
Q 1988 478 2163 725 
L 2163 2288 
Q 2163 2619 2102 2700 
Q 2041 2781 1847 2806 
L 1847 2922 
L 3038 2922 
z
" transform="scale(0.015625)"/>
      <path id="TimesNewRomanPS-BoldMT-72" d="M 1428 2922 
L 1428 2259 
Q 1719 2713 1937 2861 
Q 2156 3009 2359 3009 
Q 2534 3009 2639 2901 
Q 2744 2794 2744 2597 
Q 2744 2388 2642 2272 
Q 2541 2156 2397 2156 
Q 2231 2156 2109 2262 
Q 1988 2369 1966 2381 
Q 1934 2400 1894 2400 
Q 1803 2400 1722 2331 
Q 1594 2225 1528 2028 
Q 1428 1725 1428 1359 
L 1428 688 
L 1431 513 
Q 1431 334 1453 284 
Q 1491 200 1564 161 
Q 1638 122 1813 113 
L 1813 0 
L 234 0 
L 234 113 
Q 425 128 492 217 
Q 559 306 559 688 
L 559 2303 
Q 559 2553 534 2622 
Q 503 2709 443 2750 
Q 384 2791 234 2806 
L 234 2922 
L 1428 2922 
z
" transform="scale(0.015625)"/>
      <path id="TimesNewRomanPS-BoldMT-65" d="M 2691 1566 
L 1088 1566 
Q 1116 984 1397 647 
Q 1613 388 1916 388 
Q 2103 388 2256 492 
Q 2409 597 2584 869 
L 2691 800 
Q 2453 316 2165 114 
Q 1878 -88 1500 -88 
Q 850 -88 516 413 
Q 247 816 247 1413 
Q 247 2144 642 2576 
Q 1038 3009 1569 3009 
Q 2013 3009 2339 2645 
Q 2666 2281 2691 1566 
z
M 1922 1775 
Q 1922 2278 1867 2465 
Q 1813 2653 1697 2750 
Q 1631 2806 1522 2806 
Q 1359 2806 1256 2647 
Q 1072 2369 1072 1884 
L 1072 1775 
L 1922 1775 
z
" transform="scale(0.015625)"/>
      <path id="TimesNewRomanPS-BoldMT-20" transform="scale(0.015625)"/>
      <path id="TimesNewRomanPS-BoldMT-32" d="M 2650 0 
L 156 0 
L 156 69 
Q 1303 1434 1548 1906 
Q 1794 2378 1794 2828 
Q 1794 3156 1591 3373 
Q 1388 3591 1094 3591 
Q 613 3591 347 3109 
L 231 3150 
Q 400 3750 744 4037 
Q 1088 4325 1538 4325 
Q 1859 4325 2125 4175 
Q 2391 4025 2541 3764 
Q 2691 3503 2691 3275 
Q 2691 2859 2459 2431 
Q 2144 1853 1081 819 
L 1997 819 
Q 2334 819 2436 847 
Q 2538 875 2603 942 
Q 2669 1009 2775 1225 
L 2888 1225 
L 2650 0 
z
" transform="scale(0.015625)"/>
      <path id="TimesNewRomanPS-BoldMT-2e" d="M 800 963 
Q 1019 963 1170 809 
Q 1322 656 1322 441 
Q 1322 225 1169 73 
Q 1016 -78 800 -78 
Q 584 -78 432 73 
Q 281 225 281 441 
Q 281 656 432 809 
Q 584 963 800 963 
z
" transform="scale(0.015625)"/>
      <path id="TimesNewRomanPS-BoldMT-43" d="M 4272 4334 
L 4272 2866 
L 4150 2866 
Q 4013 3441 3638 3747 
Q 3263 4053 2788 4053 
Q 2391 4053 2059 3825 
Q 1728 3597 1575 3228 
Q 1378 2756 1378 2178 
Q 1378 1609 1522 1142 
Q 1666 675 1972 436 
Q 2278 197 2766 197 
Q 3166 197 3498 372 
Q 3831 547 4200 975 
L 4200 609 
Q 3844 238 3458 70 
Q 3072 -97 2556 -97 
Q 1878 -97 1351 175 
Q 825 447 539 956 
Q 253 1466 253 2041 
Q 253 2647 570 3190 
Q 888 3734 1427 4034 
Q 1966 4334 2572 4334 
Q 3019 4334 3516 4141 
Q 3803 4028 3881 4028 
Q 3981 4028 4054 4101 
Q 4128 4175 4150 4334 
L 4272 4334 
z
" transform="scale(0.015625)"/>
      <path id="TimesNewRomanPS-BoldMT-68" d="M 1409 4238 
L 1409 2547 
Q 1650 2800 1850 2904 
Q 2050 3009 2266 3009 
Q 2541 3009 2736 2853 
Q 2931 2697 2995 2486 
Q 3059 2275 3059 1775 
L 3059 634 
Q 3059 300 3121 217 
Q 3184 134 3375 113 
L 3375 0 
L 1894 0 
L 1894 113 
Q 2050 134 2128 238 
Q 2184 319 2184 634 
L 2184 1938 
Q 2184 2300 2156 2392 
Q 2128 2484 2061 2536 
Q 1994 2588 1909 2588 
Q 1784 2588 1665 2502 
Q 1547 2416 1409 2200 
L 1409 634 
Q 1409 322 1456 244 
Q 1516 138 1700 113 
L 1700 0 
L 219 0 
L 219 113 
Q 403 131 481 231 
Q 534 300 534 634 
L 534 3603 
Q 534 3934 473 4015 
Q 413 4097 219 4122 
L 219 4238 
L 1409 4238 
z
" transform="scale(0.015625)"/>
      <path id="TimesNewRomanPS-BoldMT-61" d="M 1828 431 
Q 1294 -41 869 -41 
Q 619 -41 453 123 
Q 288 288 288 534 
Q 288 869 575 1136 
Q 863 1403 1828 1847 
L 1828 2141 
Q 1828 2472 1792 2558 
Q 1756 2644 1656 2708 
Q 1556 2772 1431 2772 
Q 1228 2772 1097 2681 
Q 1016 2625 1016 2550 
Q 1016 2484 1103 2388 
Q 1222 2253 1222 2128 
Q 1222 1975 1108 1867 
Q 994 1759 809 1759 
Q 613 1759 480 1878 
Q 347 1997 347 2156 
Q 347 2381 525 2586 
Q 703 2791 1022 2900 
Q 1341 3009 1684 3009 
Q 2100 3009 2342 2832 
Q 2584 2656 2656 2450 
Q 2700 2319 2700 1847 
L 2700 713 
Q 2700 513 2715 461 
Q 2731 409 2762 384 
Q 2794 359 2834 359 
Q 2916 359 3000 475 
L 3094 400 
Q 2938 169 2770 64 
Q 2603 -41 2391 -41 
Q 2141 -41 2000 76 
Q 1859 194 1828 431 
z
M 1828 659 
L 1828 1638 
Q 1450 1416 1266 1163 
Q 1144 994 1144 822 
Q 1144 678 1247 569 
Q 1325 484 1466 484 
Q 1622 484 1828 659 
z
" transform="scale(0.015625)"/>
      <path id="TimesNewRomanPS-BoldMT-6f" d="M 1594 3009 
Q 1975 3009 2303 2812 
Q 2631 2616 2801 2253 
Q 2972 1891 2972 1459 
Q 2972 838 2656 419 
Q 2275 -88 1603 -88 
Q 944 -88 587 375 
Q 231 838 231 1447 
Q 231 2075 595 2542 
Q 959 3009 1594 3009 
z
M 1606 2788 
Q 1447 2788 1333 2667 
Q 1219 2547 1183 2192 
Q 1147 1838 1147 1206 
Q 1147 872 1191 581 
Q 1225 359 1337 243 
Q 1450 128 1594 128 
Q 1734 128 1828 206 
Q 1950 313 1991 503 
Q 2053 800 2053 1703 
Q 2053 2234 1993 2432 
Q 1934 2631 1819 2722 
Q 1738 2788 1606 2788 
z
" transform="scale(0.015625)"/>
      <path id="TimesNewRomanPS-BoldMT-52" d="M 1700 1931 
L 1700 744 
Q 1700 400 1742 311 
Q 1784 222 1890 169 
Q 1997 116 2288 116 
L 2288 0 
L 119 0 
L 119 116 
Q 413 116 517 170 
Q 622 225 664 312 
Q 706 400 706 744 
L 706 3494 
Q 706 3838 664 3927 
Q 622 4016 515 4069 
Q 409 4122 119 4122 
L 119 4238 
L 2088 4238 
Q 2856 4238 3212 4131 
Q 3569 4025 3794 3739 
Q 4019 3453 4019 3069 
Q 4019 2600 3681 2294 
Q 3466 2100 3078 2003 
L 4097 569 
Q 4297 291 4381 222 
Q 4509 125 4678 116 
L 4678 0 
L 3344 0 
L 1978 1931 
L 1700 1931 
z
M 1700 4009 
L 1700 2153 
L 1878 2153 
Q 2313 2153 2528 2233 
Q 2744 2313 2867 2520 
Q 2991 2728 2991 3063 
Q 2991 3547 2764 3778 
Q 2538 4009 2034 4009 
L 1700 4009 
z
" transform="scale(0.015625)"/>
      <path id="TimesNewRomanPS-BoldMT-63" d="M 2600 753 
L 2697 678 
Q 2491 291 2183 101 
Q 1875 -88 1528 -88 
Q 944 -88 594 353 
Q 244 794 244 1413 
Q 244 2009 563 2463 
Q 947 3009 1622 3009 
Q 2075 3009 2342 2781 
Q 2609 2553 2609 2272 
Q 2609 2094 2501 1987 
Q 2394 1881 2219 1881 
Q 2034 1881 1914 2003 
Q 1794 2125 1766 2438 
Q 1747 2634 1675 2713 
Q 1603 2791 1506 2791 
Q 1356 2791 1250 2631 
Q 1088 2391 1088 1894 
Q 1088 1481 1219 1104 
Q 1350 728 1578 544 
Q 1750 409 1984 409 
Q 2138 409 2275 481 
Q 2413 553 2600 753 
z
" transform="scale(0.015625)"/>
      <path id="TimesNewRomanPS-BoldMT-74" d="M 1375 3991 
L 1375 2922 
L 2069 2922 
L 2069 2613 
L 1375 2613 
L 1375 809 
Q 1375 556 1398 482 
Q 1422 409 1481 364 
Q 1541 319 1591 319 
Q 1794 319 1975 628 
L 2069 559 
Q 1816 -41 1247 -41 
Q 969 -41 776 114 
Q 584 269 531 459 
Q 500 566 500 1034 
L 500 2613 
L 119 2613 
L 119 2722 
Q 513 3000 789 3306 
Q 1066 3613 1272 3991 
L 1375 3991 
z
" transform="scale(0.015625)"/>
      <path id="TimesNewRomanPS-BoldMT-6e" d="M 1409 2922 
L 1409 2544 
Q 1634 2788 1840 2898 
Q 2047 3009 2284 3009 
Q 2569 3009 2756 2851 
Q 2944 2694 3006 2459 
Q 3056 2281 3056 1775 
L 3056 638 
Q 3056 300 3117 217 
Q 3178 134 3372 113 
L 3372 0 
L 1894 0 
L 1894 113 
Q 2059 134 2131 250 
Q 2181 328 2181 638 
L 2181 1938 
Q 2181 2297 2153 2390 
Q 2125 2484 2058 2536 
Q 1991 2588 1909 2588 
Q 1641 2588 1409 2203 
L 1409 638 
Q 1409 309 1470 221 
Q 1531 134 1697 113 
L 1697 0 
L 219 0 
L 219 113 
Q 403 131 481 231 
Q 534 300 534 638 
L 534 2288 
Q 534 2619 473 2700 
Q 413 2781 219 2806 
L 219 2922 
L 1409 2922 
z
" transform="scale(0.015625)"/>
      <path id="TimesNewRomanPS-BoldMT-70" d="M 1347 297 
L 1347 -791 
Q 1347 -1016 1383 -1097 
Q 1419 -1178 1494 -1215 
Q 1569 -1253 1788 -1253 
L 1788 -1369 
L 122 -1369 
L 122 -1253 
Q 316 -1247 409 -1144 
Q 472 -1072 472 -772 
L 472 2313 
Q 472 2622 400 2708 
Q 328 2794 122 2806 
L 122 2922 
L 1347 2922 
L 1347 2538 
Q 1500 2763 1659 2863 
Q 1888 3009 2156 3009 
Q 2478 3009 2742 2806 
Q 3006 2603 3143 2245 
Q 3281 1888 3281 1475 
Q 3281 1031 3139 664 
Q 2997 297 2726 104 
Q 2456 -88 2125 -88 
Q 1884 -88 1675 19 
Q 1519 100 1347 297 
z
M 1347 613 
Q 1616 231 1922 231 
Q 2091 231 2200 409 
Q 2363 672 2363 1409 
Q 2363 2166 2184 2444 
Q 2066 2628 1866 2628 
Q 1550 2628 1347 2172 
L 1347 613 
z
" transform="scale(0.015625)"/>
      <path id="TimesNewRomanPS-BoldMT-6c" d="M 1359 4238 
L 1359 606 
Q 1359 297 1431 211 
Q 1503 125 1713 113 
L 1713 0 
L 134 0 
L 134 113 
Q 328 119 422 225 
Q 484 297 484 606 
L 484 3631 
Q 484 3938 412 4023 
Q 341 4109 134 4122 
L 134 4238 
L 1359 4238 
z
" transform="scale(0.015625)"/>
     </defs>
     <use xlink:href="#TimesNewRomanPS-BoldMT-46"/>
     <use xlink:href="#TimesNewRomanPS-BoldMT-69" x="61.083984"/>
     <use xlink:href="#TimesNewRomanPS-BoldMT-67" x="88.867188"/>
     <use xlink:href="#TimesNewRomanPS-BoldMT-75" x="138.867188"/>
     <use xlink:href="#TimesNewRomanPS-BoldMT-72" x="194.482422"/>
     <use xlink:href="#TimesNewRomanPS-BoldMT-65" x="237.117188"/>
     <use xlink:href="#TimesNewRomanPS-BoldMT-20" x="281.501953"/>
     <use xlink:href="#TimesNewRomanPS-BoldMT-32" x="306.501953"/>
     <use xlink:href="#TimesNewRomanPS-BoldMT-2e" x="356.501953"/>
     <use xlink:href="#TimesNewRomanPS-BoldMT-20" x="381.501953"/>
     <use xlink:href="#TimesNewRomanPS-BoldMT-43" x="406.501953"/>
     <use xlink:href="#TimesNewRomanPS-BoldMT-68" x="478.71875"/>
     <use xlink:href="#TimesNewRomanPS-BoldMT-61" x="534.333984"/>
     <use xlink:href="#TimesNewRomanPS-BoldMT-6f" x="584.333984"/>
     <use xlink:href="#TimesNewRomanPS-BoldMT-52" x="634.333984"/>
     <use xlink:href="#TimesNewRomanPS-BoldMT-65" x="706.550781"/>
     <use xlink:href="#TimesNewRomanPS-BoldMT-63" x="750.935547"/>
     <use xlink:href="#TimesNewRomanPS-BoldMT-20" x="795.320312"/>
     <use xlink:href="#TimesNewRomanPS-BoldMT-74" x="820.320312"/>
     <use xlink:href="#TimesNewRomanPS-BoldMT-72" x="853.621094"/>
     <use xlink:href="#TimesNewRomanPS-BoldMT-61" x="898.005859"/>
     <use xlink:href="#TimesNewRomanPS-BoldMT-69" x="948.005859"/>
     <use xlink:href="#TimesNewRomanPS-BoldMT-6e" x="975.789062"/>
     <use xlink:href="#TimesNewRomanPS-BoldMT-69" x="1031.404297"/>
     <use xlink:href="#TimesNewRomanPS-BoldMT-6e" x="1059.1875"/>
     <use xlink:href="#TimesNewRomanPS-BoldMT-67" x="1114.802734"/>
     <use xlink:href="#TimesNewRomanPS-BoldMT-20" x="1164.802734"/>
     <use xlink:href="#TimesNewRomanPS-BoldMT-70" x="1189.802734"/>
     <use xlink:href="#TimesNewRomanPS-BoldMT-69" x="1245.417969"/>
     <use xlink:href="#TimesNewRomanPS-BoldMT-70" x="1273.201172"/>
     <use xlink:href="#TimesNewRomanPS-BoldMT-65" x="1328.816406"/>
     <use xlink:href="#TimesNewRomanPS-BoldMT-6c" x="1373.201172"/>
     <use xlink:href="#TimesNewRomanPS-BoldMT-69" x="1400.984375"/>
     <use xlink:href="#TimesNewRomanPS-BoldMT-6e" x="1428.767578"/>
     <use xlink:href="#TimesNewRomanPS-BoldMT-65" x="1484.382812"/>
    </g>
   </g>
  </g>
 </g>
 <defs>
  <clipPath id="p72597413e4">
   <rect x="7.2" y="7.2" width="390.6" height="199.584"/>
  </clipPath>
 </defs>
</svg>
