<?xml version="1.0" encoding="utf-8" standalone="no"?>
<!DOCTYPE svg PUBLIC "-//W3C//DTD SVG 1.1//EN"
  "http://www.w3.org/Graphics/SVG/1.1/DTD/svg11.dtd">
<svg xmlns:xlink="http://www.w3.org/1999/xlink" width="405pt" height="236.16pt" viewBox="0 0 405 236.16" xmlns="http://www.w3.org/2000/svg" version="1.1">
 <metadata>
  <rdf:RDF xmlns:dc="http://purl.org/dc/elements/1.1/" xmlns:cc="http://creativecommons.org/ns#" xmlns:rdf="http://www.w3.org/1999/02/22-rdf-syntax-ns#">
   <cc:Work>
    <dc:type rdf:resource="http://purl.org/dc/dcmitype/StillImage"/>
    <dc:date>2026-03-13T14:09:10.668569</dc:date>
    <dc:format>image/svg+xml</dc:format>
    <dc:creator>
     <cc:Agent>
      <dc:title>Matplotlib v3.6.2, https://matplotlib.org/</dc:title>
     </cc:Agent>
    </dc:creator>
   </cc:Work>
  </rdf:RDF>
 </metadata>
 <defs>
  <style type="text/css">*{stroke-linejoin: round; stroke-linecap: butt}</style>
 </defs>
 <g id="figure_1">
  <g id="patch_1">
   <path d="M 0 236.16 
L 405 236.16 
L 405 0 
L 0 0 
z
" style="fill: #ffffff"/>
  </g>
  <g id="axes_1">
   <g id="patch_2">
    <path d="M 18.918 200.1312 
L 77.508 200.1312 
Q 85.32 200.1312 85.32 195.696 
L 85.32 40.464 
Q 85.32 36.0288 77.508 36.0288 
L 18.918 36.0288 
Q 11.106 36.0288 11.106 40.464 
L 11.106 195.696 
Q 11.106 200.1312 18.918 200.1312 
z
" clip-path="url(#pccda1713b8)" style="fill: #ecfdf5; stroke-dasharray: 3.33,1.44; stroke-dashoffset: 0; stroke: #0f766e; stroke-width: 0.9; stroke-linejoin: miter"/>
   </g>
   <g id="patch_3">
    <path d="M 93.132 200.1312 
L 147.816 200.1312 
Q 155.628 200.1312 155.628 195.696 
L 155.628 40.464 
Q 155.628 36.0288 147.816 36.0288 
L 93.132 36.0288 
Q 85.32 36.0288 85.32 40.464 
L 85.32 195.696 
Q 85.32 200.1312 93.132 200.1312 
z
" clip-path="url(#pccda1713b8)" style="fill: #eef2ff; stroke-dasharray: 3.33,1.44; stroke-dashoffset: 0; stroke: #1d4ed8; stroke-width: 0.9; stroke-linejoin: miter"/>
   </g>
   <g id="patch_4">
    <path d="M 163.44 200.1312 
L 253.278 200.1312 
Q 261.09 200.1312 261.09 195.696 
L 261.09 40.464 
Q 261.09 36.0288 253.278 36.0288 
L 163.44 36.0288 
Q 155.628 36.0288 155.628 40.464 
L 155.628 195.696 
Q 155.628 200.1312 163.44 200.1312 
z
" clip-path="url(#pccda1713b8)" style="fill: #fff7ed; stroke-dasharray: 3.33,1.44; stroke-dashoffset: 0; stroke: #b45309; stroke-width: 0.9; stroke-linejoin: miter"/>
   </g>
   <g id="patch_5">
    <path d="M 268.902 200.1312 
L 347.022 200.1312 
Q 354.834 200.1312 354.834 195.696 
L 354.834 40.464 
Q 354.834 36.0288 347.022 36.0288 
L 268.902 36.0288 
Q 261.09 36.0288 261.09 40.464 
L 261.09 195.696 
Q 261.09 200.1312 268.902 200.1312 
z
" clip-path="url(#pccda1713b8)" style="fill: #f5f3ff; stroke-dasharray: 3.33,1.44; stroke-dashoffset: 0; stroke: #6d28d9; stroke-width: 0.9; stroke-linejoin: miter"/>
   </g>
   <g id="patch_6">
    <path d="M 362.646 200.1312 
L 386.082 200.1312 
Q 393.894 200.1312 393.894 195.696 
L 393.894 40.464 
Q 393.894 36.0288 386.082 36.0288 
L 362.646 36.0288 
Q 354.834 36.0288 354.834 40.464 
L 354.834 195.696 
Q 354.834 200.1312 362.646 200.1312 
z
" clip-path="url(#pccda1713b8)" style="fill: #fff1f2; stroke-dasharray: 3.33,1.44; stroke-dashoffset: 0; stroke: #be123c; stroke-width: 0.9; stroke-linejoin: miter"/>
   </g>
   <g id="patch_7">
    <path d="M 26.73 109.2096 
L 69.696 109.2096 
Q 77.508 109.2096 77.508 104.7744 
L 77.508 55.9872 
Q 77.508 51.552 69.696 51.552 
L 26.73 51.552 
Q 18.918 51.552 18.918 55.9872 
L 18.918 104.7744 
Q 18.918 109.2096 26.73 109.2096 
z
" clip-path="url(#pccda1713b8)" style="fill: #ffffff; stroke: #0f766e; stroke-width: 0.9; stroke-linejoin: miter"/>
   </g>
   <g id="patch_8">
    <path d="M 26.73 177.9552 
L 69.696 177.9552 
Q 77.508 177.9552 77.508 173.52 
L 77.508 129.168 
Q 77.508 124.7328 69.696 124.7328 
L 26.73 124.7328 
Q 18.918 124.7328 18.918 129.168 
L 18.918 173.52 
Q 18.918 177.9552 26.73 177.9552 
z
" clip-path="url(#pccda1713b8)" style="fill: #ffffff; stroke: #0f766e; stroke-width: 0.9; stroke-linejoin: miter"/>
   </g>
   <g id="patch_9">
    <path d="M 100.944 109.2096 
L 140.004 109.2096 
Q 147.816 109.2096 147.816 104.7744 
L 147.816 55.9872 
Q 147.816 51.552 140.004 51.552 
L 100.944 51.552 
Q 93.132 51.552 93.132 55.9872 
L 93.132 104.7744 
Q 93.132 109.2096 100.944 109.2096 
z
" clip-path="url(#pccda1713b8)" style="fill: #ffffff; stroke: #1d4ed8; stroke-width: 0.9; stroke-linejoin: miter"/>
   </g>
   <g id="patch_10">
    <path d="M 100.944 177.9552 
L 140.004 177.9552 
Q 147.816 177.9552 147.816 173.52 
L 147.816 129.168 
Q 147.816 124.7328 140.004 124.7328 
L 100.944 124.7328 
Q 93.132 124.7328 93.132 129.168 
L 93.132 173.52 
Q 93.132 177.9552 100.944 177.9552 
z
" clip-path="url(#pccda1713b8)" style="fill: #ffffff; stroke: #1d4ed8; stroke-width: 0.9; stroke-linejoin: miter"/>
   </g>
   <g id="patch_11">
    <path d="M 171.252 98.1216 
L 245.466 98.1216 
Q 253.278 98.1216 253.278 93.6864 
L 253.278 58.2048 
Q 253.278 53.7696 245.466 53.7696 
L 171.252 53.7696 
Q 163.44 53.7696 163.44 58.2048 
L 163.44 93.6864 
Q 163.44 98.1216 171.252 98.1216 
z
" clip-path="url(#pccda1713b8)" style="fill: #ffffff; stroke: #b45309; stroke-width: 0.9; stroke-linejoin: miter"/>
   </g>
   <g id="patch_12">
    <path d="M 171.252 142.4736 
L 245.466 142.4736 
Q 253.278 142.4736 253.278 138.0384 
L 253.278 109.2096 
Q 253.278 104.7744 245.466 104.7744 
L 171.252 104.7744 
Q 163.44 104.7744 163.44 109.2096 
L 163.44 138.0384 
Q 163.44 142.4736 171.252 142.4736 
z
" clip-path="url(#pccda1713b8)" style="fill: #ffffff; stroke: #b45309; stroke-width: 0.9; stroke-linejoin: miter"/>
   </g>
   <g id="patch_13">
    <path d="M 171.252 184.608 
L 245.466 184.608 
Q 253.278 184.608 253.278 180.1728 
L 253.278 153.5616 
Q 253.278 149.1264 245.466 149.1264 
L 171.252 149.1264 
Q 163.44 149.1264 163.44 153.5616 
L 163.44 180.1728 
Q 163.44 184.608 171.252 184.608 
z
" clip-path="url(#pccda1713b8)" style="fill: #ffffff; stroke: #b45309; stroke-width: 0.9; stroke-linejoin: miter"/>
   </g>
   <g id="patch_14">
    <path d="M 276.714 93.6864 
L 339.21 93.6864 
Q 347.022 93.6864 347.022 89.2512 
L 347.022 58.2048 
Q 347.022 53.7696 339.21 53.7696 
L 276.714 53.7696 
Q 268.902 53.7696 268.902 58.2048 
L 268.902 89.2512 
Q 268.902 93.6864 276.714 93.6864 
z
" clip-path="url(#pccda1713b8)" style="fill: #ffffff; stroke: #6d28d9; stroke-width: 0.9; stroke-linejoin: miter"/>
   </g>
   <g id="patch_15">
    <path d="M 276.714 138.0384 
L 339.21 138.0384 
Q 347.022 138.0384 347.022 133.6032 
L 347.022 102.5568 
Q 347.022 98.1216 339.21 98.1216 
L 276.714 98.1216 
Q 268.902 98.1216 268.902 102.5568 
L 268.902 133.6032 
Q 268.902 138.0384 276.714 138.0384 
z
" clip-path="url(#pccda1713b8)" style="fill: #ffffff; stroke: #6d28d9; stroke-width: 0.9; stroke-linejoin: miter"/>
   </g>
   <g id="patch_16">
    <path d="M 276.714 182.3904 
L 339.21 182.3904 
Q 347.022 182.3904 347.022 177.9552 
L 347.022 146.9088 
Q 347.022 142.4736 339.21 142.4736 
L 276.714 142.4736 
Q 268.902 142.4736 268.902 146.9088 
L 268.902 177.9552 
Q 268.902 182.3904 276.714 182.3904 
z
" clip-path="url(#pccda1713b8)" style="fill: #ffffff; stroke: #6d28d9; stroke-width: 0.9; stroke-linejoin: miter"/>
   </g>
   <g id="patch_17">
    <path d="M 368.505 98.1216 
L 380.223 98.1216 
Q 388.035 98.1216 388.035 93.6864 
L 388.035 58.2048 
Q 388.035 53.7696 380.223 53.7696 
L 368.505 53.7696 
Q 360.693 53.7696 360.693 58.2048 
L 360.693 93.6864 
Q 360.693 98.1216 368.505 98.1216 
z
" clip-path="url(#pccda1713b8)" style="fill: #ffffff; stroke: #be123c; stroke-width: 0.9; stroke-linejoin: miter"/>
   </g>
   <g id="patch_18">
    <path d="M 368.505 142.4736 
L 380.223 142.4736 
Q 388.035 142.4736 388.035 138.0384 
L 388.035 106.992 
Q 388.035 102.5568 380.223 102.5568 
L 368.505 102.5568 
Q 360.693 102.5568 360.693 106.992 
L 360.693 138.0384 
Q 360.693 142.4736 368.505 142.4736 
z
" clip-path="url(#pccda1713b8)" style="fill: #ffffff; stroke: #be123c; stroke-width: 0.9; stroke-linejoin: miter"/>
   </g>
   <g id="patch_19">
    <path d="M 368.505 182.3904 
L 380.223 182.3904 
Q 388.035 182.3904 388.035 177.9552 
L 388.035 151.344 
Q 388.035 146.9088 380.223 146.9088 
L 368.505 146.9088 
Q 360.693 146.9088 360.693 151.344 
L 360.693 177.9552 
Q 360.693 182.3904 368.505 182.3904 
z
" clip-path="url(#pccda1713b8)" style="fill: #ffffff; stroke: #be123c; stroke-width: 0.9; stroke-linejoin: miter"/>
   </g>
   <g id="text_1">
    <!-- Data -->
    <g style="fill: #0f766e" transform="translate(39.992375 44.474725) scale(0.08 -0.08)">
     <defs>
      <path id="TimesNewRomanPS-BoldMT-44" d="M 84 0 
L 84 116 
L 225 116 
Q 409 116 507 173 
Q 606 231 653 331 
Q 681 397 681 725 
L 681 3513 
Q 681 3838 647 3919 
Q 613 4000 508 4061 
Q 403 4122 225 4122 
L 84 4122 
L 84 4238 
L 1981 4238 
Q 2741 4238 3203 4031 
Q 3769 3778 4061 3265 
Q 4353 2753 4353 2106 
Q 4353 1659 4209 1282 
Q 4066 906 3837 661 
Q 3609 416 3311 267 
Q 3013 119 2581 38 
Q 2391 0 1981 0 
L 84 0 
z
M 1700 3997 
L 1700 691 
Q 1700 428 1725 368 
Q 1750 309 1809 278 
Q 1894 231 2053 231 
Q 2575 231 2850 588 
Q 3225 1069 3225 2081 
Q 3225 2897 2969 3384 
Q 2766 3766 2447 3903 
Q 2222 4000 1700 3997 
z
" transform="scale(0.015625)"/>
      <path id="TimesNewRomanPS-BoldMT-61" d="M 1828 431 
Q 1294 -41 869 -41 
Q 619 -41 453 123 
Q 288 288 288 534 
Q 288 869 575 1136 
Q 863 1403 1828 1847 
L 1828 2141 
Q 1828 2472 1792 2558 
Q 1756 2644 1656 2708 
Q 1556 2772 1431 2772 
Q 1228 2772 1097 2681 
Q 1016 2625 1016 2550 
Q 1016 2484 1103 2388 
Q 1222 2253 1222 2128 
Q 1222 1975 1108 1867 
Q 994 1759 809 1759 
Q 613 1759 480 1878 
Q 347 1997 347 2156 
Q 347 2381 525 2586 
Q 703 2791 1022 2900 
Q 1341 3009 1684 3009 
Q 2100 3009 2342 2832 
Q 2584 2656 2656 2450 
Q 2700 2319 2700 1847 
L 2700 713 
Q 2700 513 2715 461 
Q 2731 409 2762 384 
Q 2794 359 2834 359 
Q 2916 359 3000 475 
L 3094 400 
Q 2938 169 2770 64 
Q 2603 -41 2391 -41 
Q 2141 -41 2000 76 
Q 1859 194 1828 431 
z
M 1828 659 
L 1828 1638 
Q 1450 1416 1266 1163 
Q 1144 994 1144 822 
Q 1144 678 1247 569 
Q 1325 484 1466 484 
Q 1622 484 1828 659 
z
" transform="scale(0.015625)"/>
      <path id="TimesNewRomanPS-BoldMT-74" d="M 1375 3991 
L 1375 2922 
L 2069 2922 
L 2069 2613 
L 1375 2613 
L 1375 809 
Q 1375 556 1398 482 
Q 1422 409 1481 364 
Q 1541 319 1591 319 
Q 1794 319 1975 628 
L 2069 559 
Q 1816 -41 1247 -41 
Q 969 -41 776 114 
Q 584 269 531 459 
Q 500 566 500 1034 
L 500 2613 
L 119 2613 
L 119 2722 
Q 513 3000 789 3306 
Q 1066 3613 1272 3991 
L 1375 3991 
z
" transform="scale(0.015625)"/>
     </defs>
     <use xlink:href="#TimesNewRomanPS-BoldMT-44"/>
     <use xlink:href="#TimesNewRomanPS-BoldMT-61" x="72.216797"/>
     <use xlink:href="#TimesNewRomanPS-BoldMT-74" x="122.216797"/>
     <use xlink:href="#TimesNewRomanPS-BoldMT-61" x="155.517578"/>
    </g>
   </g>
   <g id="text_2">
    <!-- Config -->
    <g style="fill: #1d4ed8" transform="translate(108.91775 44.529725) scale(0.08 -0.08)">
     <defs>
      <path id="TimesNewRomanPS-BoldMT-43" d="M 4272 4334 
L 4272 2866 
L 4150 2866 
Q 4013 3441 3638 3747 
Q 3263 4053 2788 4053 
Q 2391 4053 2059 3825 
Q 1728 3597 1575 3228 
Q 1378 2756 1378 2178 
Q 1378 1609 1522 1142 
Q 1666 675 1972 436 
Q 2278 197 2766 197 
Q 3166 197 3498 372 
Q 3831 547 4200 975 
L 4200 609 
Q 3844 238 3458 70 
Q 3072 -97 2556 -97 
Q 1878 -97 1351 175 
Q 825 447 539 956 
Q 253 1466 253 2041 
Q 253 2647 570 3190 
Q 888 3734 1427 4034 
Q 1966 4334 2572 4334 
Q 3019 4334 3516 4141 
Q 3803 4028 3881 4028 
Q 3981 4028 4054 4101 
Q 4128 4175 4150 4334 
L 4272 4334 
z
" transform="scale(0.015625)"/>
      <path id="TimesNewRomanPS-BoldMT-6f" d="M 1594 3009 
Q 1975 3009 2303 2812 
Q 2631 2616 2801 2253 
Q 2972 1891 2972 1459 
Q 2972 838 2656 419 
Q 2275 -88 1603 -88 
Q 944 -88 587 375 
Q 231 838 231 1447 
Q 231 2075 595 2542 
Q 959 3009 1594 3009 
z
M 1606 2788 
Q 1447 2788 1333 2667 
Q 1219 2547 1183 2192 
Q 1147 1838 1147 1206 
Q 1147 872 1191 581 
Q 1225 359 1337 243 
Q 1450 128 1594 128 
Q 1734 128 1828 206 
Q 1950 313 1991 503 
Q 2053 800 2053 1703 
Q 2053 2234 1993 2432 
Q 1934 2631 1819 2722 
Q 1738 2788 1606 2788 
z
" transform="scale(0.015625)"/>
      <path id="TimesNewRomanPS-BoldMT-6e" d="M 1409 2922 
L 1409 2544 
Q 1634 2788 1840 2898 
Q 2047 3009 2284 3009 
Q 2569 3009 2756 2851 
Q 2944 2694 3006 2459 
Q 3056 2281 3056 1775 
L 3056 638 
Q 3056 300 3117 217 
Q 3178 134 3372 113 
L 3372 0 
L 1894 0 
L 1894 113 
Q 2059 134 2131 250 
Q 2181 328 2181 638 
L 2181 1938 
Q 2181 2297 2153 2390 
Q 2125 2484 2058 2536 
Q 1991 2588 1909 2588 
Q 1641 2588 1409 2203 
L 1409 638 
Q 1409 309 1470 221 
Q 1531 134 1697 113 
L 1697 0 
L 219 0 
L 219 113 
Q 403 131 481 231 
Q 534 300 534 638 
L 534 2288 
Q 534 2619 473 2700 
Q 413 2781 219 2806 
L 219 2922 
L 1409 2922 
z
" transform="scale(0.015625)"/>
      <path id="TimesNewRomanPS-BoldMT-66" d="M 1497 2616 
L 1497 588 
Q 1497 294 1559 219 
Q 1659 103 1928 113 
L 1928 0 
L 206 0 
L 206 113 
Q 403 116 486 158 
Q 569 200 600 275 
Q 631 350 631 588 
L 631 2616 
L 206 2616 
L 206 2922 
L 631 2922 
L 631 3138 
L 628 3284 
Q 628 3734 958 4034 
Q 1288 4334 1850 4334 
Q 2234 4334 2420 4190 
Q 2606 4047 2606 3872 
Q 2606 3731 2490 3628 
Q 2375 3525 2184 3525 
Q 2022 3525 1926 3609 
Q 1831 3694 1831 3797 
Q 1831 3825 1850 3913 
Q 1863 3966 1863 4013 
Q 1863 4078 1825 4109 
Q 1775 4156 1703 4156 
Q 1613 4156 1552 4081 
Q 1491 4006 1491 3841 
L 1497 3294 
L 1497 2922 
L 1928 2922 
L 1928 2616 
L 1497 2616 
z
" transform="scale(0.015625)"/>
      <path id="TimesNewRomanPS-BoldMT-69" d="M 919 4338 
Q 1122 4338 1262 4195 
Q 1403 4053 1403 3853 
Q 1403 3653 1261 3512 
Q 1119 3372 919 3372 
Q 719 3372 578 3512 
Q 438 3653 438 3853 
Q 438 4053 578 4195 
Q 719 4338 919 4338 
z
M 1356 2922 
L 1356 606 
Q 1356 297 1428 211 
Q 1500 125 1709 113 
L 1709 0 
L 131 0 
L 131 113 
Q 325 119 419 225 
Q 481 297 481 606 
L 481 2313 
Q 481 2622 409 2708 
Q 338 2794 131 2806 
L 131 2922 
L 1356 2922 
z
" transform="scale(0.015625)"/>
      <path id="TimesNewRomanPS-BoldMT-67" d="M 2091 2888 
L 3075 2888 
L 3075 2544 
L 2516 2544 
Q 2669 2391 2728 2266 
Q 2803 2097 2803 1913 
Q 2803 1600 2629 1370 
Q 2456 1141 2157 1011 
Q 1859 881 1628 881 
Q 1609 881 1253 897 
Q 1113 897 1017 805 
Q 922 713 922 584 
Q 922 472 1008 400 
Q 1094 328 1288 328 
L 1828 334 
Q 2484 334 2731 191 
Q 3084 -9 3084 -425 
Q 3084 -691 2921 -908 
Q 2759 -1125 2494 -1228 
Q 2091 -1381 1566 -1381 
Q 1172 -1381 847 -1304 
Q 522 -1228 381 -1092 
Q 241 -956 241 -806 
Q 241 -663 348 -548 
Q 456 -434 750 -356 
Q 344 -156 344 200 
Q 344 416 509 619 
Q 675 822 1034 972 
Q 616 1125 428 1375 
Q 241 1625 241 1953 
Q 241 2381 591 2695 
Q 941 3009 1491 3009 
Q 1781 3009 2091 2888 
z
M 1550 2816 
Q 1369 2816 1244 2633 
Q 1119 2450 1119 1875 
Q 1119 1409 1242 1236 
Q 1366 1063 1534 1063 
Q 1722 1063 1847 1234 
Q 1972 1406 1972 1903 
Q 1972 2463 1831 2666 
Q 1731 2816 1550 2816 
z
M 1366 -431 
Q 1047 -431 944 -484 
Q 766 -581 766 -747 
Q 766 -906 950 -1036 
Q 1134 -1166 1644 -1166 
Q 2078 -1166 2326 -1050 
Q 2575 -934 2575 -725 
Q 2575 -647 2528 -594 
Q 2444 -500 2273 -465 
Q 2103 -431 1366 -431 
z
" transform="scale(0.015625)"/>
     </defs>
     <use xlink:href="#TimesNewRomanPS-BoldMT-43"/>
     <use xlink:href="#TimesNewRomanPS-BoldMT-6f" x="72.216797"/>
     <use xlink:href="#TimesNewRomanPS-BoldMT-6e" x="122.216797"/>
     <use xlink:href="#TimesNewRomanPS-BoldMT-66" x="177.832031"/>
     <use xlink:href="#TimesNewRomanPS-BoldMT-69" x="211.132812"/>
     <use xlink:href="#TimesNewRomanPS-BoldMT-67" x="238.916016"/>
    </g>
   </g>
   <g id="text_3">
    <!-- Execution -->
    <g style="fill: #b45309" transform="translate(191.24775 44.474725) scale(0.08 -0.08)">
     <defs>
      <path id="TimesNewRomanPS-BoldMT-45" d="M 1744 3994 
L 1744 2269 
L 1828 2269 
Q 2231 2269 2412 2522 
Q 2594 2775 2644 3269 
L 2763 3269 
L 2763 1050 
L 2644 1050 
Q 2606 1413 2486 1644 
Q 2366 1875 2206 1954 
Q 2047 2034 1744 2034 
L 1744 841 
Q 1744 491 1773 412 
Q 1803 334 1884 284 
Q 1966 234 2147 234 
L 2400 234 
Q 2994 234 3351 509 
Q 3709 784 3866 1347 
L 3981 1347 
L 3791 0 
L 128 0 
L 128 116 
L 269 116 
Q 453 116 566 181 
Q 647 225 691 331 
Q 725 406 725 725 
L 725 3513 
Q 725 3800 709 3866 
Q 678 3975 594 4034 
Q 475 4122 269 4122 
L 128 4122 
L 128 4238 
L 3675 4238 
L 3675 2984 
L 3556 2984 
Q 3466 3444 3302 3644 
Q 3138 3844 2838 3938 
Q 2663 3994 2181 3994 
L 1744 3994 
z
" transform="scale(0.015625)"/>
      <path id="TimesNewRomanPS-BoldMT-78" d="M 1944 1791 
L 2450 828 
Q 2713 325 2866 191 
Q 2950 119 3097 113 
L 3097 0 
L 1469 0 
L 1469 113 
Q 1659 128 1704 162 
Q 1750 197 1750 256 
Q 1750 344 1650 531 
L 1397 1006 
L 1181 691 
Q 1034 475 1016 434 
Q 991 375 991 328 
Q 991 256 1020 207 
Q 1050 159 1101 136 
Q 1153 113 1291 113 
L 1291 0 
L 147 0 
L 147 113 
Q 359 113 536 230 
Q 713 347 1050 844 
L 1291 1200 
L 788 2131 
Q 541 2588 419 2691 
Q 297 2794 147 2806 
L 147 2922 
L 1766 2922 
L 1766 2806 
L 1681 2803 
L 1519 2747 
Q 1494 2725 1494 2675 
Q 1494 2628 1509 2578 
Q 1519 2556 1597 2409 
L 1825 1984 
L 1944 2153 
Q 2194 2497 2194 2634 
Q 2194 2700 2139 2745 
Q 2084 2791 1944 2806 
L 1944 2922 
L 2978 2922 
L 2978 2806 
Q 2788 2800 2622 2689 
Q 2456 2578 2250 2259 
L 1944 1791 
z
" transform="scale(0.015625)"/>
      <path id="TimesNewRomanPS-BoldMT-65" d="M 2691 1566 
L 1088 1566 
Q 1116 984 1397 647 
Q 1613 388 1916 388 
Q 2103 388 2256 492 
Q 2409 597 2584 869 
L 2691 800 
Q 2453 316 2165 114 
Q 1878 -88 1500 -88 
Q 850 -88 516 413 
Q 247 816 247 1413 
Q 247 2144 642 2576 
Q 1038 3009 1569 3009 
Q 2013 3009 2339 2645 
Q 2666 2281 2691 1566 
z
M 1922 1775 
Q 1922 2278 1867 2465 
Q 1813 2653 1697 2750 
Q 1631 2806 1522 2806 
Q 1359 2806 1256 2647 
Q 1072 2369 1072 1884 
L 1072 1775 
L 1922 1775 
z
" transform="scale(0.015625)"/>
      <path id="TimesNewRomanPS-BoldMT-63" d="M 2600 753 
L 2697 678 
Q 2491 291 2183 101 
Q 1875 -88 1528 -88 
Q 944 -88 594 353 
Q 244 794 244 1413 
Q 244 2009 563 2463 
Q 947 3009 1622 3009 
Q 2075 3009 2342 2781 
Q 2609 2553 2609 2272 
Q 2609 2094 2501 1987 
Q 2394 1881 2219 1881 
Q 2034 1881 1914 2003 
Q 1794 2125 1766 2438 
Q 1747 2634 1675 2713 
Q 1603 2791 1506 2791 
Q 1356 2791 1250 2631 
Q 1088 2391 1088 1894 
Q 1088 1481 1219 1104 
Q 1350 728 1578 544 
Q 1750 409 1984 409 
Q 2138 409 2275 481 
Q 2413 553 2600 753 
z
" transform="scale(0.015625)"/>
      <path id="TimesNewRomanPS-BoldMT-75" d="M 3038 2922 
L 3038 634 
Q 3038 300 3100 217 
Q 3163 134 3353 113 
L 3353 0 
L 2163 0 
L 2163 391 
Q 1953 141 1743 26 
Q 1534 -88 1275 -88 
Q 1028 -88 836 64 
Q 644 216 578 419 
Q 513 622 513 1128 
L 513 2288 
Q 513 2619 452 2700 
Q 391 2781 197 2806 
L 197 2922 
L 1388 2922 
L 1388 925 
Q 1388 613 1417 522 
Q 1447 431 1511 384 
Q 1575 338 1659 338 
Q 1772 338 1863 397 
Q 1988 478 2163 725 
L 2163 2288 
Q 2163 2619 2102 2700 
Q 2041 2781 1847 2806 
L 1847 2922 
L 3038 2922 
z
" transform="scale(0.015625)"/>
     </defs>
     <use xlink:href="#TimesNewRomanPS-BoldMT-45"/>
     <use xlink:href="#TimesNewRomanPS-BoldMT-78" x="66.699219"/>
     <use xlink:href="#TimesNewRomanPS-BoldMT-65" x="116.699219"/>
     <use xlink:href="#TimesNewRomanPS-BoldMT-63" x="161.083984"/>
     <use xlink:href="#TimesNewRomanPS-BoldMT-75" x="205.46875"/>
     <use xlink:href="#TimesNewRomanPS-BoldMT-74" x="261.083984"/>
     <use xlink:href="#TimesNewRomanPS-BoldMT-69" x="294.384766"/>
     <use xlink:href="#TimesNewRomanPS-BoldMT-6f" x="322.167969"/>
     <use xlink:href="#TimesNewRomanPS-BoldMT-6e" x="372.167969"/>
    </g>
   </g>
   <g id="text_4">
    <!-- Model Families -->
    <g style="fill: #6d28d9" transform="translate(281.633875 44.474725) scale(0.08 -0.08)">
     <defs>
      <path id="TimesNewRomanPS-BoldMT-4d" d="M 3050 1444 
L 4200 4238 
L 5925 4238 
L 5925 4122 
L 5788 4122 
Q 5600 4122 5488 4056 
Q 5409 4013 5363 3909 
Q 5328 3834 5328 3519 
L 5328 725 
Q 5328 400 5362 319 
Q 5397 238 5503 177 
Q 5609 116 5788 116 
L 5925 116 
L 5925 0 
L 3713 0 
L 3713 116 
L 3850 116 
Q 4038 116 4150 181 
Q 4228 225 4275 331 
Q 4309 406 4309 725 
L 4309 3866 
L 2684 0 
L 2609 0 
L 959 3838 
L 959 853 
Q 959 541 975 469 
Q 1016 313 1152 214 
Q 1288 116 1578 116 
L 1578 0 
L 128 0 
L 128 116 
L 172 116 
Q 313 113 434 161 
Q 556 209 618 290 
Q 681 372 716 519 
Q 722 553 722 838 
L 722 3519 
Q 722 3841 687 3920 
Q 653 4000 547 4061 
Q 441 4122 263 4122 
L 128 4122 
L 128 4238 
L 1859 4238 
L 3050 1444 
z
" transform="scale(0.015625)"/>
      <path id="TimesNewRomanPS-BoldMT-64" d="M 3056 4238 
L 3056 875 
Q 3056 534 3075 472 
Q 3100 369 3170 319 
Q 3241 269 3416 256 
L 3416 153 
L 2181 -88 
L 2181 375 
Q 1959 106 1786 9 
Q 1613 -88 1394 -88 
Q 834 -88 509 413 
Q 247 819 247 1409 
Q 247 1881 409 2254 
Q 572 2628 855 2818 
Q 1138 3009 1463 3009 
Q 1672 3009 1834 2928 
Q 1997 2847 2181 2644 
L 2181 3525 
Q 2181 3859 2153 3928 
Q 2116 4019 2041 4062 
Q 1966 4106 1759 4106 
L 1759 4238 
L 3056 4238 
z
M 2181 2256 
Q 1950 2700 1616 2700 
Q 1500 2700 1425 2638 
Q 1309 2541 1236 2297 
Q 1163 2053 1163 1550 
Q 1163 997 1244 731 
Q 1325 466 1466 347 
Q 1538 288 1663 288 
Q 1938 288 2181 719 
L 2181 2256 
z
" transform="scale(0.015625)"/>
      <path id="TimesNewRomanPS-BoldMT-6c" d="M 1359 4238 
L 1359 606 
Q 1359 297 1431 211 
Q 1503 125 1713 113 
L 1713 0 
L 134 0 
L 134 113 
Q 328 119 422 225 
Q 484 297 484 606 
L 484 3631 
Q 484 3938 412 4023 
Q 341 4109 134 4122 
L 134 4238 
L 1359 4238 
z
" transform="scale(0.015625)"/>
      <path id="TimesNewRomanPS-BoldMT-20" transform="scale(0.015625)"/>
      <path id="TimesNewRomanPS-BoldMT-46" d="M 1759 3994 
L 1759 2253 
L 1881 2253 
Q 2163 2253 2341 2337 
Q 2519 2422 2642 2622 
Q 2766 2822 2803 3163 
L 2913 3163 
L 2913 1034 
L 2803 1034 
Q 2744 1638 2480 1830 
Q 2216 2022 1881 2022 
L 1759 2022 
L 1759 725 
Q 1759 400 1795 319 
Q 1831 238 1936 177 
Q 2041 116 2219 116 
L 2359 116 
L 2359 0 
L 144 0 
L 144 116 
L 284 116 
Q 469 116 581 181 
Q 663 225 706 331 
Q 741 406 741 725 
L 741 3513 
Q 741 3838 706 3919 
Q 672 4000 567 4061 
Q 463 4122 284 4122 
L 144 4122 
L 144 4238 
L 3719 4238 
L 3719 3022 
L 3591 3022 
Q 3547 3450 3367 3656 
Q 3188 3863 2847 3947 
Q 2659 3994 2153 3994 
L 1759 3994 
z
" transform="scale(0.015625)"/>
      <path id="TimesNewRomanPS-BoldMT-6d" d="M 1428 2922 
L 1428 2538 
Q 1669 2800 1873 2904 
Q 2078 3009 2322 3009 
Q 2603 3009 2793 2878 
Q 2984 2747 3088 2478 
Q 3338 2759 3567 2884 
Q 3797 3009 4047 3009 
Q 4350 3009 4529 2870 
Q 4709 2731 4779 2517 
Q 4850 2303 4850 1834 
L 4850 638 
Q 4850 300 4911 219 
Q 4972 138 5166 113 
L 5166 0 
L 3656 0 
L 3656 113 
Q 3834 128 3919 250 
Q 3975 334 3975 638 
L 3975 1894 
Q 3975 2284 3944 2390 
Q 3913 2497 3845 2548 
Q 3778 2600 3688 2600 
Q 3553 2600 3415 2501 
Q 3278 2403 3138 2206 
L 3138 638 
Q 3138 322 3191 241 
Q 3263 125 3466 113 
L 3466 0 
L 1953 0 
L 1953 113 
Q 2075 119 2145 173 
Q 2216 228 2239 304 
Q 2263 381 2263 638 
L 2263 1894 
Q 2263 2291 2231 2391 
Q 2200 2491 2126 2547 
Q 2053 2603 1969 2603 
Q 1844 2603 1741 2538 
Q 1594 2441 1428 2206 
L 1428 638 
Q 1428 328 1489 229 
Q 1550 131 1744 113 
L 1744 0 
L 238 0 
L 238 113 
Q 422 131 500 231 
Q 553 300 553 638 
L 553 2288 
Q 553 2619 492 2700 
Q 431 2781 238 2806 
L 238 2922 
L 1428 2922 
z
" transform="scale(0.015625)"/>
      <path id="TimesNewRomanPS-BoldMT-73" d="M 2063 3003 
L 2109 2006 
L 2003 2006 
Q 1813 2450 1608 2612 
Q 1403 2775 1200 2775 
Q 1072 2775 981 2689 
Q 891 2603 891 2491 
Q 891 2406 953 2328 
Q 1053 2200 1512 1889 
Q 1972 1578 2117 1361 
Q 2263 1144 2263 875 
Q 2263 631 2141 397 
Q 2019 163 1797 37 
Q 1575 -88 1306 -88 
Q 1097 -88 747 44 
Q 653 78 619 78 
Q 516 78 447 -78 
L 344 -78 
L 294 972 
L 400 972 
Q 541 559 786 353 
Q 1031 147 1250 147 
Q 1400 147 1495 239 
Q 1591 331 1591 463 
Q 1591 613 1497 722 
Q 1403 831 1078 1053 
Q 600 1384 459 1559 
Q 253 1816 253 2125 
Q 253 2463 486 2736 
Q 719 3009 1159 3009 
Q 1397 3009 1619 2894 
Q 1703 2847 1756 2847 
Q 1813 2847 1847 2870 
Q 1881 2894 1956 3003 
L 2063 3003 
z
" transform="scale(0.015625)"/>
     </defs>
     <use xlink:href="#TimesNewRomanPS-BoldMT-4d"/>
     <use xlink:href="#TimesNewRomanPS-BoldMT-6f" x="94.384766"/>
     <use xlink:href="#TimesNewRomanPS-BoldMT-64" x="144.384766"/>
     <use xlink:href="#TimesNewRomanPS-BoldMT-65" x="200"/>
     <use xlink:href="#TimesNewRomanPS-BoldMT-6c" x="244.384766"/>
     <use xlink:href="#TimesNewRomanPS-BoldMT-20" x="272.167969"/>
     <use xlink:href="#TimesNewRomanPS-BoldMT-46" x="297.167969"/>
     <use xlink:href="#TimesNewRomanPS-BoldMT-61" x="358.251953"/>
     <use xlink:href="#TimesNewRomanPS-BoldMT-6d" x="408.251953"/>
     <use xlink:href="#TimesNewRomanPS-BoldMT-69" x="491.552734"/>
     <use xlink:href="#TimesNewRomanPS-BoldMT-6c" x="519.335938"/>
     <use xlink:href="#TimesNewRomanPS-BoldMT-69" x="547.119141"/>
     <use xlink:href="#TimesNewRomanPS-BoldMT-65" x="574.902344"/>
     <use xlink:href="#TimesNewRomanPS-BoldMT-73" x="619.287109"/>
    </g>
   </g>
   <g id="text_5">
    <!-- Outputs -->
    <g style="fill: #be123c" transform="translate(360.359 44.534725) scale(0.08 -0.08)">
     <defs>
      <path id="TimesNewRomanPS-BoldMT-4f" d="M 2472 4297 
Q 3484 4334 4117 3706 
Q 4750 3078 4750 2134 
Q 4750 1328 4278 716 
Q 3653 -97 2513 -97 
Q 1369 -97 744 678 
Q 250 1291 250 2131 
Q 250 3075 892 3704 
Q 1534 4334 2472 4297 
z
M 2509 4097 
Q 1928 4097 1625 3503 
Q 1378 3016 1378 2103 
Q 1378 1019 1759 500 
Q 2025 138 2503 138 
Q 2825 138 3041 294 
Q 3316 494 3469 933 
Q 3622 1372 3622 2078 
Q 3622 2919 3465 3336 
Q 3309 3753 3067 3925 
Q 2825 4097 2509 4097 
z
" transform="scale(0.015625)"/>
      <path id="TimesNewRomanPS-BoldMT-70" d="M 1347 297 
L 1347 -791 
Q 1347 -1016 1383 -1097 
Q 1419 -1178 1494 -1215 
Q 1569 -1253 1788 -1253 
L 1788 -1369 
L 122 -1369 
L 122 -1253 
Q 316 -1247 409 -1144 
Q 472 -1072 472 -772 
L 472 2313 
Q 472 2622 400 2708 
Q 328 2794 122 2806 
L 122 2922 
L 1347 2922 
L 1347 2538 
Q 1500 2763 1659 2863 
Q 1888 3009 2156 3009 
Q 2478 3009 2742 2806 
Q 3006 2603 3143 2245 
Q 3281 1888 3281 1475 
Q 3281 1031 3139 664 
Q 2997 297 2726 104 
Q 2456 -88 2125 -88 
Q 1884 -88 1675 19 
Q 1519 100 1347 297 
z
M 1347 613 
Q 1616 231 1922 231 
Q 2091 231 2200 409 
Q 2363 672 2363 1409 
Q 2363 2166 2184 2444 
Q 2066 2628 1866 2628 
Q 1550 2628 1347 2172 
L 1347 613 
z
" transform="scale(0.015625)"/>
     </defs>
     <use xlink:href="#TimesNewRomanPS-BoldMT-4f"/>
     <use xlink:href="#TimesNewRomanPS-BoldMT-75" x="77.783203"/>
     <use xlink:href="#TimesNewRomanPS-BoldMT-74" x="133.398438"/>
     <use xlink:href="#TimesNewRomanPS-BoldMT-70" x="166.699219"/>
     <use xlink:href="#TimesNewRomanPS-BoldMT-75" x="222.314453"/>
     <use xlink:href="#TimesNewRomanPS-BoldMT-74" x="277.929688"/>
     <use xlink:href="#TimesNewRomanPS-BoldMT-73" x="311.230469"/>
    </g>
   </g>
   <g id="text_6">
    <!-- Data/* -->
    <g transform="translate(38.61675 74.570962) scale(0.072 -0.072)">
     <defs>
      <path id="TimesNewRomanPSMT-44" d="M 109 0 
L 109 116 
L 269 116 
Q 538 116 650 288 
Q 719 391 719 750 
L 719 3488 
Q 719 3884 631 3984 
Q 509 4122 269 4122 
L 109 4122 
L 109 4238 
L 1834 4238 
Q 2784 4238 3279 4022 
Q 3775 3806 4076 3303 
Q 4378 2800 4378 2141 
Q 4378 1256 3841 663 
Q 3238 0 2003 0 
L 109 0 
z
M 1319 306 
Q 1716 219 1984 219 
Q 2709 219 3187 728 
Q 3666 1238 3666 2109 
Q 3666 2988 3187 3494 
Q 2709 4000 1959 4000 
Q 1678 4000 1319 3909 
L 1319 306 
z
" transform="scale(0.015625)"/>
      <path id="TimesNewRomanPSMT-61" d="M 1822 413 
Q 1381 72 1269 19 
Q 1100 -59 909 -59 
Q 613 -59 420 144 
Q 228 347 228 678 
Q 228 888 322 1041 
Q 450 1253 767 1440 
Q 1084 1628 1822 1897 
L 1822 2009 
Q 1822 2438 1686 2597 
Q 1550 2756 1291 2756 
Q 1094 2756 978 2650 
Q 859 2544 859 2406 
L 866 2225 
Q 866 2081 792 2003 
Q 719 1925 600 1925 
Q 484 1925 411 2006 
Q 338 2088 338 2228 
Q 338 2497 613 2722 
Q 888 2947 1384 2947 
Q 1766 2947 2009 2819 
Q 2194 2722 2281 2516 
Q 2338 2381 2338 1966 
L 2338 994 
Q 2338 584 2353 492 
Q 2369 400 2405 369 
Q 2441 338 2488 338 
Q 2538 338 2575 359 
Q 2641 400 2828 588 
L 2828 413 
Q 2478 -56 2159 -56 
Q 2006 -56 1915 50 
Q 1825 156 1822 413 
z
M 1822 616 
L 1822 1706 
Q 1350 1519 1213 1441 
Q 966 1303 859 1153 
Q 753 1003 753 825 
Q 753 600 887 451 
Q 1022 303 1197 303 
Q 1434 303 1822 616 
z
" transform="scale(0.015625)"/>
      <path id="TimesNewRomanPSMT-74" d="M 1031 3803 
L 1031 2863 
L 1700 2863 
L 1700 2644 
L 1031 2644 
L 1031 788 
Q 1031 509 1111 412 
Q 1191 316 1316 316 
Q 1419 316 1516 380 
Q 1613 444 1666 569 
L 1788 569 
Q 1678 263 1478 108 
Q 1278 -47 1066 -47 
Q 922 -47 784 33 
Q 647 113 581 261 
Q 516 409 516 719 
L 516 2644 
L 63 2644 
L 63 2747 
Q 234 2816 414 2980 
Q 594 3144 734 3369 
Q 806 3488 934 3803 
L 1031 3803 
z
" transform="scale(0.015625)"/>
      <path id="TimesNewRomanPSMT-2f" d="M 1794 4444 
L 259 -88 
L 9 -88 
L 1544 4444 
L 1794 4444 
z
" transform="scale(0.015625)"/>
      <path id="TimesNewRomanPSMT-2a" d="M 1544 3263 
Q 1531 3478 1456 3691 
Q 1350 3997 1350 4113 
Q 1350 4275 1426 4359 
Q 1503 4444 1616 4444 
Q 1713 4444 1784 4359 
Q 1856 4275 1856 4119 
Q 1856 3978 1773 3726 
Q 1691 3475 1672 3263 
Q 1844 3372 1981 3528 
Q 2194 3775 2297 3834 
Q 2400 3894 2506 3894 
Q 2609 3894 2679 3823 
Q 2750 3753 2750 3656 
Q 2750 3541 2647 3450 
Q 2544 3359 2131 3269 
Q 1891 3216 1731 3147 
Q 1894 3063 2128 3019 
Q 2506 2950 2623 2847 
Q 2741 2744 2741 2622 
Q 2741 2528 2670 2459 
Q 2600 2391 2506 2391 
Q 2413 2391 2298 2456 
Q 2184 2522 1991 2750 
Q 1863 2903 1672 3038 
Q 1678 2859 1744 2650 
Q 1856 2281 1856 2147 
Q 1856 2022 1781 1936 
Q 1706 1850 1622 1850 
Q 1506 1850 1413 1941 
Q 1347 2006 1347 2150 
Q 1347 2300 1419 2511 
Q 1491 2722 1509 2801 
Q 1528 2881 1544 3038 
Q 1359 2916 1222 2766 
Q 994 2509 878 2441 
Q 797 2391 709 2391 
Q 603 2391 528 2462 
Q 453 2534 453 2622 
Q 453 2700 517 2786 
Q 581 2872 709 2928 
Q 794 2966 1094 3028 
Q 1288 3069 1472 3147 
Q 1303 3231 1069 3278 
Q 684 3359 594 3425 
Q 453 3528 453 3675 
Q 453 3759 523 3829 
Q 594 3900 688 3900 
Q 791 3900 906 3834 
Q 1022 3769 1194 3570 
Q 1366 3372 1544 3263 
z
" transform="scale(0.015625)"/>
     </defs>
     <use xlink:href="#TimesNewRomanPSMT-44"/>
     <use xlink:href="#TimesNewRomanPSMT-61" x="72.216797"/>
     <use xlink:href="#TimesNewRomanPSMT-74" x="116.601562"/>
     <use xlink:href="#TimesNewRomanPSMT-61" x="144.384766"/>
     <use xlink:href="#TimesNewRomanPSMT-2f" x="188.769531"/>
     <use xlink:href="#TimesNewRomanPSMT-2a" x="216.552734"/>
    </g>
    <!-- 7 datasets -->
    <g transform="translate(34.116187 82.110488) scale(0.072 -0.072)">
     <defs>
      <path id="TimesNewRomanPSMT-37" d="M 644 4238 
L 2916 4238 
L 2916 4119 
L 1503 -88 
L 1153 -88 
L 2419 3728 
L 1253 3728 
Q 900 3728 750 3644 
Q 488 3500 328 3200 
L 238 3234 
L 644 4238 
z
" transform="scale(0.015625)"/>
      <path id="TimesNewRomanPSMT-20" transform="scale(0.015625)"/>
      <path id="TimesNewRomanPSMT-64" d="M 2222 322 
Q 2013 103 1813 7 
Q 1613 -88 1381 -88 
Q 913 -88 563 304 
Q 213 697 213 1313 
Q 213 1928 600 2439 
Q 988 2950 1597 2950 
Q 1975 2950 2222 2709 
L 2222 3238 
Q 2222 3728 2198 3840 
Q 2175 3953 2125 3993 
Q 2075 4034 2000 4034 
Q 1919 4034 1784 3984 
L 1744 4094 
L 2597 4444 
L 2738 4444 
L 2738 1134 
Q 2738 631 2761 520 
Q 2784 409 2836 365 
Q 2888 322 2956 322 
Q 3041 322 3181 375 
L 3216 266 
L 2366 -88 
L 2222 -88 
L 2222 322 
z
M 2222 541 
L 2222 2016 
Q 2203 2228 2109 2403 
Q 2016 2578 1861 2667 
Q 1706 2756 1559 2756 
Q 1284 2756 1069 2509 
Q 784 2184 784 1559 
Q 784 928 1059 592 
Q 1334 256 1672 256 
Q 1956 256 2222 541 
z
" transform="scale(0.015625)"/>
      <path id="TimesNewRomanPSMT-73" d="M 2050 2947 
L 2050 1972 
L 1947 1972 
Q 1828 2431 1642 2597 
Q 1456 2763 1169 2763 
Q 950 2763 815 2647 
Q 681 2531 681 2391 
Q 681 2216 781 2091 
Q 878 1963 1175 1819 
L 1631 1597 
Q 2266 1288 2266 781 
Q 2266 391 1970 151 
Q 1675 -88 1309 -88 
Q 1047 -88 709 6 
Q 606 38 541 38 
Q 469 38 428 -44 
L 325 -44 
L 325 978 
L 428 978 
Q 516 541 762 319 
Q 1009 97 1316 97 
Q 1531 97 1667 223 
Q 1803 350 1803 528 
Q 1803 744 1651 891 
Q 1500 1038 1047 1263 
Q 594 1488 453 1669 
Q 313 1847 313 2119 
Q 313 2472 555 2709 
Q 797 2947 1181 2947 
Q 1350 2947 1591 2875 
Q 1750 2828 1803 2828 
Q 1853 2828 1881 2850 
Q 1909 2872 1947 2947 
L 2050 2947 
z
" transform="scale(0.015625)"/>
      <path id="TimesNewRomanPSMT-65" d="M 681 1784 
Q 678 1147 991 784 
Q 1303 422 1725 422 
Q 2006 422 2214 576 
Q 2422 731 2563 1106 
L 2659 1044 
Q 2594 616 2278 264 
Q 1963 -88 1488 -88 
Q 972 -88 605 314 
Q 238 716 238 1394 
Q 238 2128 614 2539 
Q 991 2950 1559 2950 
Q 2041 2950 2350 2633 
Q 2659 2316 2659 1784 
L 681 1784 
z
M 681 1966 
L 2006 1966 
Q 1991 2241 1941 2353 
Q 1863 2528 1708 2628 
Q 1553 2728 1384 2728 
Q 1125 2728 920 2526 
Q 716 2325 681 1966 
z
" transform="scale(0.015625)"/>
     </defs>
     <use xlink:href="#TimesNewRomanPSMT-37"/>
     <use xlink:href="#TimesNewRomanPSMT-20" x="50"/>
     <use xlink:href="#TimesNewRomanPSMT-64" x="75"/>
     <use xlink:href="#TimesNewRomanPSMT-61" x="125"/>
     <use xlink:href="#TimesNewRomanPSMT-74" x="169.384766"/>
     <use xlink:href="#TimesNewRomanPSMT-61" x="197.167969"/>
     <use xlink:href="#TimesNewRomanPSMT-73" x="241.552734"/>
     <use xlink:href="#TimesNewRomanPSMT-65" x="280.46875"/>
     <use xlink:href="#TimesNewRomanPSMT-74" x="324.853516"/>
     <use xlink:href="#TimesNewRomanPSMT-73" x="352.636719"/>
    </g>
    <!-- + features -->
    <g transform="translate(33.890062 89.650013) scale(0.072 -0.072)">
     <defs>
      <path id="TimesNewRomanPSMT-2b" d="M 1672 441 
L 1672 2000 
L 116 2000 
L 116 2256 
L 1672 2256 
L 1672 3809 
L 1922 3809 
L 1922 2256 
L 3484 2256 
L 3484 2000 
L 1922 2000 
L 1922 441 
L 1672 441 
z
" transform="scale(0.015625)"/>
      <path id="TimesNewRomanPSMT-66" d="M 1319 2638 
L 1319 756 
Q 1319 356 1406 250 
Q 1522 113 1716 113 
L 1975 113 
L 1975 0 
L 266 0 
L 266 113 
L 394 113 
Q 519 113 622 175 
Q 725 238 764 344 
Q 803 450 803 756 
L 803 2638 
L 247 2638 
L 247 2863 
L 803 2863 
L 803 3050 
Q 803 3478 940 3775 
Q 1078 4072 1361 4255 
Q 1644 4438 1997 4438 
Q 2325 4438 2600 4225 
Q 2781 4084 2781 3909 
Q 2781 3816 2700 3733 
Q 2619 3650 2525 3650 
Q 2453 3650 2373 3701 
Q 2294 3753 2178 3923 
Q 2063 4094 1966 4153 
Q 1869 4213 1750 4213 
Q 1606 4213 1506 4136 
Q 1406 4059 1362 3898 
Q 1319 3738 1319 3069 
L 1319 2863 
L 2056 2863 
L 2056 2638 
L 1319 2638 
z
" transform="scale(0.015625)"/>
      <path id="TimesNewRomanPSMT-75" d="M 2709 2863 
L 2709 1128 
Q 2709 631 2732 520 
Q 2756 409 2807 365 
Q 2859 322 2928 322 
Q 3025 322 3147 375 
L 3191 266 
L 2334 -88 
L 2194 -88 
L 2194 519 
Q 1825 119 1631 15 
Q 1438 -88 1222 -88 
Q 981 -88 804 51 
Q 628 191 559 409 
Q 491 628 491 1028 
L 491 2306 
Q 491 2509 447 2587 
Q 403 2666 317 2708 
Q 231 2750 6 2747 
L 6 2863 
L 1009 2863 
L 1009 947 
Q 1009 547 1148 422 
Q 1288 297 1484 297 
Q 1619 297 1789 381 
Q 1959 466 2194 703 
L 2194 2325 
Q 2194 2569 2105 2655 
Q 2016 2741 1734 2747 
L 1734 2863 
L 2709 2863 
z
" transform="scale(0.015625)"/>
      <path id="TimesNewRomanPSMT-72" d="M 1038 2947 
L 1038 2303 
Q 1397 2947 1775 2947 
Q 1947 2947 2059 2842 
Q 2172 2738 2172 2600 
Q 2172 2478 2090 2393 
Q 2009 2309 1897 2309 
Q 1788 2309 1652 2417 
Q 1516 2525 1450 2525 
Q 1394 2525 1328 2463 
Q 1188 2334 1038 2041 
L 1038 669 
Q 1038 431 1097 309 
Q 1138 225 1241 169 
Q 1344 113 1538 113 
L 1538 0 
L 72 0 
L 72 113 
Q 291 113 397 181 
Q 475 231 506 341 
Q 522 394 522 644 
L 522 1753 
Q 522 2253 501 2348 
Q 481 2444 426 2487 
Q 372 2531 291 2531 
Q 194 2531 72 2484 
L 41 2597 
L 906 2947 
L 1038 2947 
z
" transform="scale(0.015625)"/>
     </defs>
     <use xlink:href="#TimesNewRomanPSMT-2b"/>
     <use xlink:href="#TimesNewRomanPSMT-20" x="56.396484"/>
     <use xlink:href="#TimesNewRomanPSMT-66" x="81.396484"/>
     <use xlink:href="#TimesNewRomanPSMT-65" x="114.697266"/>
     <use xlink:href="#TimesNewRomanPSMT-61" x="159.082031"/>
     <use xlink:href="#TimesNewRomanPSMT-74" x="203.466797"/>
     <use xlink:href="#TimesNewRomanPSMT-75" x="231.25"/>
     <use xlink:href="#TimesNewRomanPSMT-72" x="281.25"/>
     <use xlink:href="#TimesNewRomanPSMT-65" x="314.550781"/>
     <use xlink:href="#TimesNewRomanPSMT-73" x="358.935547"/>
    </g>
   </g>
   <g id="text_7">
    <!-- train/val/test -->
    <g transform="translate(31.217781 145.844181) scale(0.068 -0.068)">
     <defs>
      <path id="TimesNewRomanPSMT-69" d="M 928 4444 
Q 1059 4444 1151 4351 
Q 1244 4259 1244 4128 
Q 1244 3997 1151 3903 
Q 1059 3809 928 3809 
Q 797 3809 703 3903 
Q 609 3997 609 4128 
Q 609 4259 701 4351 
Q 794 4444 928 4444 
z
M 1188 2947 
L 1188 647 
Q 1188 378 1227 289 
Q 1266 200 1342 156 
Q 1419 113 1622 113 
L 1622 0 
L 231 0 
L 231 113 
Q 441 113 512 153 
Q 584 194 626 287 
Q 669 381 669 647 
L 669 1750 
Q 669 2216 641 2353 
Q 619 2453 572 2492 
Q 525 2531 444 2531 
Q 356 2531 231 2484 
L 188 2597 
L 1050 2947 
L 1188 2947 
z
" transform="scale(0.015625)"/>
      <path id="TimesNewRomanPSMT-6e" d="M 1034 2341 
Q 1538 2947 1994 2947 
Q 2228 2947 2397 2830 
Q 2566 2713 2666 2444 
Q 2734 2256 2734 1869 
L 2734 647 
Q 2734 375 2778 278 
Q 2813 200 2889 156 
Q 2966 113 3172 113 
L 3172 0 
L 1756 0 
L 1756 113 
L 1816 113 
Q 2016 113 2095 173 
Q 2175 234 2206 353 
Q 2219 400 2219 647 
L 2219 1819 
Q 2219 2209 2117 2386 
Q 2016 2563 1775 2563 
Q 1403 2563 1034 2156 
L 1034 647 
Q 1034 356 1069 288 
Q 1113 197 1189 155 
Q 1266 113 1500 113 
L 1500 0 
L 84 0 
L 84 113 
L 147 113 
Q 366 113 442 223 
Q 519 334 519 647 
L 519 1709 
Q 519 2225 495 2337 
Q 472 2450 423 2490 
Q 375 2531 294 2531 
Q 206 2531 84 2484 
L 38 2597 
L 900 2947 
L 1034 2947 
L 1034 2341 
z
" transform="scale(0.015625)"/>
      <path id="TimesNewRomanPSMT-76" d="M 53 2863 
L 1400 2863 
L 1400 2747 
L 1313 2747 
Q 1191 2747 1127 2687 
Q 1063 2628 1063 2528 
Q 1063 2419 1128 2269 
L 1794 688 
L 2463 2328 
Q 2534 2503 2534 2594 
Q 2534 2638 2509 2666 
Q 2475 2713 2422 2730 
Q 2369 2747 2206 2747 
L 2206 2863 
L 3141 2863 
L 3141 2747 
Q 2978 2734 2916 2681 
Q 2806 2588 2719 2369 
L 1703 -88 
L 1575 -88 
L 553 2328 
Q 484 2497 421 2570 
Q 359 2644 263 2694 
Q 209 2722 53 2747 
L 53 2863 
z
" transform="scale(0.015625)"/>
      <path id="TimesNewRomanPSMT-6c" d="M 1184 4444 
L 1184 647 
Q 1184 378 1223 290 
Q 1263 203 1344 158 
Q 1425 113 1647 113 
L 1647 0 
L 244 0 
L 244 113 
Q 441 113 512 153 
Q 584 194 625 287 
Q 666 381 666 647 
L 666 3247 
Q 666 3731 644 3842 
Q 622 3953 573 3993 
Q 525 4034 450 4034 
Q 369 4034 244 3984 
L 191 4094 
L 1044 4444 
L 1184 4444 
z
" transform="scale(0.015625)"/>
     </defs>
     <use xlink:href="#TimesNewRomanPSMT-74"/>
     <use xlink:href="#TimesNewRomanPSMT-72" x="27.783203"/>
     <use xlink:href="#TimesNewRomanPSMT-61" x="61.083984"/>
     <use xlink:href="#TimesNewRomanPSMT-69" x="105.46875"/>
     <use xlink:href="#TimesNewRomanPSMT-6e" x="133.251953"/>
     <use xlink:href="#TimesNewRomanPSMT-2f" x="183.251953"/>
     <use xlink:href="#TimesNewRomanPSMT-76" x="211.035156"/>
     <use xlink:href="#TimesNewRomanPSMT-61" x="261.035156"/>
     <use xlink:href="#TimesNewRomanPSMT-6c" x="305.419922"/>
     <use xlink:href="#TimesNewRomanPSMT-2f" x="333.203125"/>
     <use xlink:href="#TimesNewRomanPSMT-74" x="360.986328"/>
     <use xlink:href="#TimesNewRomanPSMT-65" x="388.769531"/>
     <use xlink:href="#TimesNewRomanPSMT-73" x="433.154297"/>
     <use xlink:href="#TimesNewRomanPSMT-74" x="472.070312"/>
    </g>
    <!-- user_item_dict -->
    <g transform="translate(28.006906 152.964844) scale(0.068 -0.068)">
     <defs>
      <path id="TimesNewRomanPSMT-5f" d="M 3256 -1381 
L -53 -1381 
L -53 -1119 
L 3256 -1119 
L 3256 -1381 
z
" transform="scale(0.015625)"/>
      <path id="TimesNewRomanPSMT-6d" d="M 1050 2338 
Q 1363 2650 1419 2697 
Q 1559 2816 1721 2881 
Q 1884 2947 2044 2947 
Q 2313 2947 2506 2790 
Q 2700 2634 2766 2338 
Q 3088 2713 3309 2830 
Q 3531 2947 3766 2947 
Q 3994 2947 4170 2830 
Q 4347 2713 4450 2447 
Q 4519 2266 4519 1878 
L 4519 647 
Q 4519 378 4559 278 
Q 4591 209 4675 161 
Q 4759 113 4950 113 
L 4950 0 
L 3538 0 
L 3538 113 
L 3597 113 
Q 3781 113 3884 184 
Q 3956 234 3988 344 
Q 4000 397 4000 647 
L 4000 1878 
Q 4000 2228 3916 2372 
Q 3794 2572 3525 2572 
Q 3359 2572 3192 2489 
Q 3025 2406 2788 2181 
L 2781 2147 
L 2788 2013 
L 2788 647 
Q 2788 353 2820 281 
Q 2853 209 2943 161 
Q 3034 113 3253 113 
L 3253 0 
L 1806 0 
L 1806 113 
Q 2044 113 2133 169 
Q 2222 225 2256 338 
Q 2272 391 2272 647 
L 2272 1878 
Q 2272 2228 2169 2381 
Q 2031 2581 1784 2581 
Q 1616 2581 1450 2491 
Q 1191 2353 1050 2181 
L 1050 647 
Q 1050 366 1089 281 
Q 1128 197 1204 155 
Q 1281 113 1516 113 
L 1516 0 
L 100 0 
L 100 113 
Q 297 113 375 155 
Q 453 197 493 289 
Q 534 381 534 647 
L 534 1741 
Q 534 2213 506 2350 
Q 484 2453 437 2492 
Q 391 2531 309 2531 
Q 222 2531 100 2484 
L 53 2597 
L 916 2947 
L 1050 2947 
L 1050 2338 
z
" transform="scale(0.015625)"/>
      <path id="TimesNewRomanPSMT-63" d="M 2631 1088 
Q 2516 522 2178 217 
Q 1841 -88 1431 -88 
Q 944 -88 581 321 
Q 219 731 219 1428 
Q 219 2103 620 2525 
Q 1022 2947 1584 2947 
Q 2006 2947 2278 2723 
Q 2550 2500 2550 2259 
Q 2550 2141 2473 2067 
Q 2397 1994 2259 1994 
Q 2075 1994 1981 2113 
Q 1928 2178 1911 2362 
Q 1894 2547 1784 2644 
Q 1675 2738 1481 2738 
Q 1169 2738 978 2506 
Q 725 2200 725 1697 
Q 725 1184 976 792 
Q 1228 400 1656 400 
Q 1963 400 2206 609 
Q 2378 753 2541 1131 
L 2631 1088 
z
" transform="scale(0.015625)"/>
     </defs>
     <use xlink:href="#TimesNewRomanPSMT-75"/>
     <use xlink:href="#TimesNewRomanPSMT-73" x="50"/>
     <use xlink:href="#TimesNewRomanPSMT-65" x="88.916016"/>
     <use xlink:href="#TimesNewRomanPSMT-72" x="133.300781"/>
     <use xlink:href="#TimesNewRomanPSMT-5f" x="166.601562"/>
     <use xlink:href="#TimesNewRomanPSMT-69" x="216.601562"/>
     <use xlink:href="#TimesNewRomanPSMT-74" x="244.384766"/>
     <use xlink:href="#TimesNewRomanPSMT-65" x="272.167969"/>
     <use xlink:href="#TimesNewRomanPSMT-6d" x="316.552734"/>
     <use xlink:href="#TimesNewRomanPSMT-5f" x="394.335938"/>
     <use xlink:href="#TimesNewRomanPSMT-64" x="444.335938"/>
     <use xlink:href="#TimesNewRomanPSMT-69" x="494.335938"/>
     <use xlink:href="#TimesNewRomanPSMT-63" x="522.119141"/>
     <use xlink:href="#TimesNewRomanPSMT-74" x="566.503906"/>
    </g>
    <!-- v_feat/t_feat -->
    <g transform="translate(31.033437 160.098256) scale(0.068 -0.068)">
     <use xlink:href="#TimesNewRomanPSMT-76"/>
     <use xlink:href="#TimesNewRomanPSMT-5f" x="50"/>
     <use xlink:href="#TimesNewRomanPSMT-66" x="100"/>
     <use xlink:href="#TimesNewRomanPSMT-65" x="133.300781"/>
     <use xlink:href="#TimesNewRomanPSMT-61" x="177.685547"/>
     <use xlink:href="#TimesNewRomanPSMT-74" x="222.070312"/>
     <use xlink:href="#TimesNewRomanPSMT-2f" x="249.853516"/>
     <use xlink:href="#TimesNewRomanPSMT-74" x="277.636719"/>
     <use xlink:href="#TimesNewRomanPSMT-5f" x="305.419922"/>
     <use xlink:href="#TimesNewRomanPSMT-66" x="355.419922"/>
     <use xlink:href="#TimesNewRomanPSMT-65" x="388.720703"/>
     <use xlink:href="#TimesNewRomanPSMT-61" x="433.105469"/>
     <use xlink:href="#TimesNewRomanPSMT-74" x="477.490234"/>
    </g>
   </g>
   <g id="text_8">
    <!-- arg_parser.py -->
    <g transform="translate(101.043563 78.320475) scale(0.072 -0.072)">
     <defs>
      <path id="TimesNewRomanPSMT-67" d="M 966 1044 
Q 703 1172 562 1401 
Q 422 1631 422 1909 
Q 422 2334 742 2640 
Q 1063 2947 1563 2947 
Q 1972 2947 2272 2747 
L 2878 2747 
Q 3013 2747 3034 2739 
Q 3056 2731 3066 2713 
Q 3084 2684 3084 2613 
Q 3084 2531 3069 2500 
Q 3059 2484 3036 2475 
Q 3013 2466 2878 2466 
L 2506 2466 
Q 2681 2241 2681 1891 
Q 2681 1491 2375 1206 
Q 2069 922 1553 922 
Q 1341 922 1119 984 
Q 981 866 932 777 
Q 884 688 884 625 
Q 884 572 936 522 
Q 988 472 1138 450 
Q 1225 438 1575 428 
Q 2219 413 2409 384 
Q 2700 344 2873 169 
Q 3047 -6 3047 -263 
Q 3047 -616 2716 -925 
Q 2228 -1381 1444 -1381 
Q 841 -1381 425 -1109 
Q 191 -953 191 -784 
Q 191 -709 225 -634 
Q 278 -519 444 -313 
Q 466 -284 763 25 
Q 600 122 533 198 
Q 466 275 466 372 
Q 466 481 555 628 
Q 644 775 966 1044 
z
M 1509 2797 
Q 1278 2797 1122 2612 
Q 966 2428 966 2047 
Q 966 1553 1178 1281 
Q 1341 1075 1591 1075 
Q 1828 1075 1981 1253 
Q 2134 1431 2134 1813 
Q 2134 2309 1919 2591 
Q 1759 2797 1509 2797 
z
M 934 0 
Q 788 -159 713 -296 
Q 638 -434 638 -550 
Q 638 -700 819 -813 
Q 1131 -1006 1722 -1006 
Q 2284 -1006 2551 -807 
Q 2819 -609 2819 -384 
Q 2819 -222 2659 -153 
Q 2497 -84 2016 -72 
Q 1313 -53 934 0 
z
" transform="scale(0.015625)"/>
      <path id="TimesNewRomanPSMT-70" d="M -6 2578 
L 875 2934 
L 994 2934 
L 994 2266 
Q 1216 2644 1439 2795 
Q 1663 2947 1909 2947 
Q 2341 2947 2628 2609 
Q 2981 2197 2981 1534 
Q 2981 794 2556 309 
Q 2206 -88 1675 -88 
Q 1444 -88 1275 -22 
Q 1150 25 994 166 
L 994 -706 
Q 994 -1000 1030 -1079 
Q 1066 -1159 1155 -1206 
Q 1244 -1253 1478 -1253 
L 1478 -1369 
L -22 -1369 
L -22 -1253 
L 56 -1253 
Q 228 -1256 350 -1188 
Q 409 -1153 442 -1076 
Q 475 -1000 475 -688 
L 475 2019 
Q 475 2297 450 2372 
Q 425 2447 370 2484 
Q 316 2522 222 2522 
Q 147 2522 31 2478 
L -6 2578 
z
M 994 2081 
L 994 1013 
Q 994 666 1022 556 
Q 1066 375 1236 237 
Q 1406 100 1666 100 
Q 1978 100 2172 344 
Q 2425 663 2425 1241 
Q 2425 1897 2138 2250 
Q 1938 2494 1663 2494 
Q 1513 2494 1366 2419 
Q 1253 2363 994 2081 
z
" transform="scale(0.015625)"/>
      <path id="TimesNewRomanPSMT-2e" d="M 800 606 
Q 947 606 1047 504 
Q 1147 403 1147 259 
Q 1147 116 1045 14 
Q 944 -88 800 -88 
Q 656 -88 554 14 
Q 453 116 453 259 
Q 453 406 554 506 
Q 656 606 800 606 
z
" transform="scale(0.015625)"/>
      <path id="TimesNewRomanPSMT-79" d="M 38 2863 
L 1372 2863 
L 1372 2747 
L 1306 2747 
Q 1166 2747 1095 2686 
Q 1025 2625 1025 2534 
Q 1025 2413 1128 2197 
L 1825 753 
L 2466 2334 
Q 2519 2463 2519 2588 
Q 2519 2644 2497 2672 
Q 2472 2706 2419 2726 
Q 2366 2747 2231 2747 
L 2231 2863 
L 3163 2863 
L 3163 2747 
Q 3047 2734 2984 2696 
Q 2922 2659 2847 2556 
Q 2819 2513 2741 2316 
L 1575 -541 
Q 1406 -956 1132 -1168 
Q 859 -1381 606 -1381 
Q 422 -1381 303 -1275 
Q 184 -1169 184 -1031 
Q 184 -900 270 -820 
Q 356 -741 506 -741 
Q 609 -741 788 -809 
Q 913 -856 944 -856 
Q 1038 -856 1148 -759 
Q 1259 -663 1372 -384 
L 1575 113 
L 547 2272 
Q 500 2369 397 2513 
Q 319 2622 269 2659 
Q 197 2709 38 2747 
L 38 2863 
z
" transform="scale(0.015625)"/>
     </defs>
     <use xlink:href="#TimesNewRomanPSMT-61"/>
     <use xlink:href="#TimesNewRomanPSMT-72" x="44.384766"/>
     <use xlink:href="#TimesNewRomanPSMT-67" x="75.935547"/>
     <use xlink:href="#TimesNewRomanPSMT-5f" x="125.935547"/>
     <use xlink:href="#TimesNewRomanPSMT-70" x="175.935547"/>
     <use xlink:href="#TimesNewRomanPSMT-61" x="225.935547"/>
     <use xlink:href="#TimesNewRomanPSMT-72" x="270.320312"/>
     <use xlink:href="#TimesNewRomanPSMT-73" x="303.621094"/>
     <use xlink:href="#TimesNewRomanPSMT-65" x="342.537109"/>
     <use xlink:href="#TimesNewRomanPSMT-72" x="386.921875"/>
     <use xlink:href="#TimesNewRomanPSMT-2e" x="414.722656"/>
     <use xlink:href="#TimesNewRomanPSMT-70" x="439.722656"/>
     <use xlink:href="#TimesNewRomanPSMT-79" x="489.722656"/>
    </g>
    <!-- CLI args -->
    <g transform="translate(107.84025 85.8735) scale(0.072 -0.072)">
     <defs>
      <path id="TimesNewRomanPSMT-43" d="M 3853 4334 
L 3950 2894 
L 3853 2894 
Q 3659 3541 3300 3825 
Q 2941 4109 2438 4109 
Q 2016 4109 1675 3895 
Q 1334 3681 1139 3212 
Q 944 2744 944 2047 
Q 944 1472 1128 1050 
Q 1313 628 1683 403 
Q 2053 178 2528 178 
Q 2941 178 3256 354 
Q 3572 531 3950 1056 
L 4047 994 
Q 3728 428 3303 165 
Q 2878 -97 2294 -97 
Q 1241 -97 663 684 
Q 231 1266 231 2053 
Q 231 2688 515 3219 
Q 800 3750 1298 4042 
Q 1797 4334 2388 4334 
Q 2847 4334 3294 4109 
Q 3425 4041 3481 4041 
Q 3566 4041 3628 4100 
Q 3709 4184 3744 4334 
L 3853 4334 
z
" transform="scale(0.015625)"/>
      <path id="TimesNewRomanPSMT-4c" d="M 3669 1172 
L 3772 1150 
L 3409 0 
L 128 0 
L 128 116 
L 288 116 
Q 556 116 672 291 
Q 738 391 738 753 
L 738 3488 
Q 738 3884 650 3984 
Q 528 4122 288 4122 
L 128 4122 
L 128 4238 
L 2047 4238 
L 2047 4122 
Q 1709 4125 1573 4059 
Q 1438 3994 1388 3894 
Q 1338 3794 1338 3416 
L 1338 753 
Q 1338 494 1388 397 
Q 1425 331 1503 300 
Q 1581 269 1991 269 
L 2300 269 
Q 2788 269 2984 341 
Q 3181 413 3343 595 
Q 3506 778 3669 1172 
z
" transform="scale(0.015625)"/>
      <path id="TimesNewRomanPSMT-49" d="M 1975 116 
L 1975 0 
L 159 0 
L 159 116 
L 309 116 
Q 572 116 691 269 
Q 766 369 766 750 
L 766 3488 
Q 766 3809 725 3913 
Q 694 3991 597 4047 
Q 459 4122 309 4122 
L 159 4122 
L 159 4238 
L 1975 4238 
L 1975 4122 
L 1822 4122 
Q 1563 4122 1444 3969 
Q 1366 3869 1366 3488 
L 1366 750 
Q 1366 428 1406 325 
Q 1438 247 1538 191 
Q 1672 116 1822 116 
L 1975 116 
z
" transform="scale(0.015625)"/>
     </defs>
     <use xlink:href="#TimesNewRomanPSMT-43"/>
     <use xlink:href="#TimesNewRomanPSMT-4c" x="66.699219"/>
     <use xlink:href="#TimesNewRomanPSMT-49" x="127.783203"/>
     <use xlink:href="#TimesNewRomanPSMT-20" x="161.083984"/>
     <use xlink:href="#TimesNewRomanPSMT-61" x="186.083984"/>
     <use xlink:href="#TimesNewRomanPSMT-72" x="230.46875"/>
     <use xlink:href="#TimesNewRomanPSMT-67" x="262.019531"/>
     <use xlink:href="#TimesNewRomanPSMT-73" x="312.019531"/>
    </g>
   </g>
   <g id="text_9">
    <!-- Model_YAML/* -->
    <g transform="translate(96.27525 149.297175) scale(0.072 -0.072)">
     <defs>
      <path id="TimesNewRomanPSMT-4d" d="M 2619 0 
L 981 3566 
L 981 734 
Q 981 344 1066 247 
Q 1181 116 1431 116 
L 1581 116 
L 1581 0 
L 106 0 
L 106 116 
L 256 116 
Q 525 116 638 278 
Q 706 378 706 734 
L 706 3503 
Q 706 3784 644 3909 
Q 600 4000 483 4061 
Q 366 4122 106 4122 
L 106 4238 
L 1306 4238 
L 2844 922 
L 4356 4238 
L 5556 4238 
L 5556 4122 
L 5409 4122 
Q 5138 4122 5025 3959 
Q 4956 3859 4956 3503 
L 4956 734 
Q 4956 344 5044 247 
Q 5159 116 5409 116 
L 5556 116 
L 5556 0 
L 3756 0 
L 3756 116 
L 3906 116 
Q 4178 116 4288 278 
Q 4356 378 4356 734 
L 4356 3566 
L 2722 0 
L 2619 0 
z
" transform="scale(0.015625)"/>
      <path id="TimesNewRomanPSMT-6f" d="M 1600 2947 
Q 2250 2947 2644 2453 
Q 2978 2031 2978 1484 
Q 2978 1100 2793 706 
Q 2609 313 2286 112 
Q 1963 -88 1566 -88 
Q 919 -88 538 428 
Q 216 863 216 1403 
Q 216 1797 411 2186 
Q 606 2575 925 2761 
Q 1244 2947 1600 2947 
z
M 1503 2744 
Q 1338 2744 1170 2645 
Q 1003 2547 900 2300 
Q 797 2053 797 1666 
Q 797 1041 1045 587 
Q 1294 134 1700 134 
Q 2003 134 2200 384 
Q 2397 634 2397 1244 
Q 2397 2006 2069 2444 
Q 1847 2744 1503 2744 
z
" transform="scale(0.015625)"/>
      <path id="TimesNewRomanPSMT-59" d="M 3050 4238 
L 4528 4238 
L 4528 4122 
L 4447 4122 
Q 4366 4122 4209 4050 
Q 4053 3978 3925 3843 
Q 3797 3709 3609 3406 
L 2588 1797 
L 2588 734 
Q 2588 344 2675 247 
Q 2794 116 3050 116 
L 3188 116 
L 3188 0 
L 1388 0 
L 1388 116 
L 1538 116 
Q 1806 116 1919 278 
Q 1988 378 1988 734 
L 1988 1738 
L 825 3513 
Q 619 3825 545 3903 
Q 472 3981 241 4091 
Q 178 4122 59 4122 
L 59 4238 
L 1872 4238 
L 1872 4122 
L 1778 4122 
Q 1631 4122 1507 4053 
Q 1384 3984 1384 3847 
Q 1384 3734 1575 3441 
L 2459 2075 
L 3291 3381 
Q 3478 3675 3478 3819 
Q 3478 3906 3433 3975 
Q 3388 4044 3303 4083 
Q 3219 4122 3050 4122 
L 3050 4238 
z
" transform="scale(0.015625)"/>
      <path id="TimesNewRomanPSMT-41" d="M 2928 1419 
L 1288 1419 
L 1000 750 
Q 894 503 894 381 
Q 894 284 986 211 
Q 1078 138 1384 116 
L 1384 0 
L 50 0 
L 50 116 
Q 316 163 394 238 
Q 553 388 747 847 
L 2238 4334 
L 2347 4334 
L 3822 809 
Q 4000 384 4145 257 
Q 4291 131 4550 116 
L 4550 0 
L 2878 0 
L 2878 116 
Q 3131 128 3220 200 
Q 3309 272 3309 375 
Q 3309 513 3184 809 
L 2928 1419 
z
M 2841 1650 
L 2122 3363 
L 1384 1650 
L 2841 1650 
z
" transform="scale(0.015625)"/>
     </defs>
     <use xlink:href="#TimesNewRomanPSMT-4d"/>
     <use xlink:href="#TimesNewRomanPSMT-6f" x="88.916016"/>
     <use xlink:href="#TimesNewRomanPSMT-64" x="138.916016"/>
     <use xlink:href="#TimesNewRomanPSMT-65" x="188.916016"/>
     <use xlink:href="#TimesNewRomanPSMT-6c" x="233.300781"/>
     <use xlink:href="#TimesNewRomanPSMT-5f" x="261.083984"/>
     <use xlink:href="#TimesNewRomanPSMT-59" x="311.083984"/>
     <use xlink:href="#TimesNewRomanPSMT-41" x="372.175781"/>
     <use xlink:href="#TimesNewRomanPSMT-4d" x="444.392578"/>
     <use xlink:href="#TimesNewRomanPSMT-4c" x="533.308594"/>
     <use xlink:href="#TimesNewRomanPSMT-2f" x="594.392578"/>
     <use xlink:href="#TimesNewRomanPSMT-2a" x="622.175781"/>
    </g>
    <!-- search space -->
    <g transform="translate(102.384563 156.8502) scale(0.072 -0.072)">
     <defs>
      <path id="TimesNewRomanPSMT-68" d="M 1041 4444 
L 1041 2350 
Q 1388 2731 1591 2839 
Q 1794 2947 1997 2947 
Q 2241 2947 2416 2812 
Q 2591 2678 2675 2391 
Q 2734 2191 2734 1659 
L 2734 647 
Q 2734 375 2778 275 
Q 2809 200 2884 156 
Q 2959 113 3159 113 
L 3159 0 
L 1753 0 
L 1753 113 
L 1819 113 
Q 2019 113 2097 173 
Q 2175 234 2206 353 
Q 2216 403 2216 647 
L 2216 1659 
Q 2216 2128 2167 2275 
Q 2119 2422 2012 2495 
Q 1906 2569 1756 2569 
Q 1603 2569 1437 2487 
Q 1272 2406 1041 2159 
L 1041 647 
Q 1041 353 1073 281 
Q 1106 209 1195 161 
Q 1284 113 1503 113 
L 1503 0 
L 84 0 
L 84 113 
Q 275 113 384 172 
Q 447 203 484 290 
Q 522 378 522 647 
L 522 3238 
Q 522 3728 498 3840 
Q 475 3953 426 3993 
Q 378 4034 297 4034 
Q 231 4034 84 3984 
L 41 4094 
L 897 4444 
L 1041 4444 
z
" transform="scale(0.015625)"/>
     </defs>
     <use xlink:href="#TimesNewRomanPSMT-73"/>
     <use xlink:href="#TimesNewRomanPSMT-65" x="38.916016"/>
     <use xlink:href="#TimesNewRomanPSMT-61" x="83.300781"/>
     <use xlink:href="#TimesNewRomanPSMT-72" x="127.685547"/>
     <use xlink:href="#TimesNewRomanPSMT-63" x="160.986328"/>
     <use xlink:href="#TimesNewRomanPSMT-68" x="205.371094"/>
     <use xlink:href="#TimesNewRomanPSMT-20" x="255.371094"/>
     <use xlink:href="#TimesNewRomanPSMT-73" x="280.371094"/>
     <use xlink:href="#TimesNewRomanPSMT-70" x="319.287109"/>
     <use xlink:href="#TimesNewRomanPSMT-61" x="369.287109"/>
     <use xlink:href="#TimesNewRomanPSMT-63" x="413.671875"/>
     <use xlink:href="#TimesNewRomanPSMT-65" x="458.056641"/>
    </g>
   </g>
   <g id="text_10">
    <!-- main.py -->
    <g transform="translate(196.335734 73.834981) scale(0.074 -0.074)">
     <use xlink:href="#TimesNewRomanPSMT-6d"/>
     <use xlink:href="#TimesNewRomanPSMT-61" x="77.783203"/>
     <use xlink:href="#TimesNewRomanPSMT-69" x="122.167969"/>
     <use xlink:href="#TimesNewRomanPSMT-6e" x="149.951172"/>
     <use xlink:href="#TimesNewRomanPSMT-2e" x="199.951172"/>
     <use xlink:href="#TimesNewRomanPSMT-70" x="224.951172"/>
     <use xlink:href="#TimesNewRomanPSMT-79" x="274.951172"/>
    </g>
    <!-- entrypoint -->
    <g transform="translate(193.150844 81.597813) scale(0.074 -0.074)">
     <use xlink:href="#TimesNewRomanPSMT-65"/>
     <use xlink:href="#TimesNewRomanPSMT-6e" x="44.384766"/>
     <use xlink:href="#TimesNewRomanPSMT-74" x="94.384766"/>
     <use xlink:href="#TimesNewRomanPSMT-72" x="122.167969"/>
     <use xlink:href="#TimesNewRomanPSMT-79" x="155.46875"/>
     <use xlink:href="#TimesNewRomanPSMT-70" x="205.46875"/>
     <use xlink:href="#TimesNewRomanPSMT-6f" x="255.46875"/>
     <use xlink:href="#TimesNewRomanPSMT-69" x="305.46875"/>
     <use xlink:href="#TimesNewRomanPSMT-6e" x="333.251953"/>
     <use xlink:href="#TimesNewRomanPSMT-74" x="383.251953"/>
    </g>
   </g>
   <g id="text_11">
    <!-- dataload.py -->
    <g transform="translate(191.200828 125.394797) scale(0.074 -0.074)">
     <use xlink:href="#TimesNewRomanPSMT-64"/>
     <use xlink:href="#TimesNewRomanPSMT-61" x="50"/>
     <use xlink:href="#TimesNewRomanPSMT-74" x="94.384766"/>
     <use xlink:href="#TimesNewRomanPSMT-61" x="122.167969"/>
     <use xlink:href="#TimesNewRomanPSMT-6c" x="166.552734"/>
     <use xlink:href="#TimesNewRomanPSMT-6f" x="194.335938"/>
     <use xlink:href="#TimesNewRomanPSMT-61" x="244.335938"/>
     <use xlink:href="#TimesNewRomanPSMT-64" x="288.720703"/>
     <use xlink:href="#TimesNewRomanPSMT-2e" x="338.720703"/>
     <use xlink:href="#TimesNewRomanPSMT-70" x="363.720703"/>
     <use xlink:href="#TimesNewRomanPSMT-79" x="413.720703"/>
    </g>
   </g>
   <g id="text_12">
    <!-- train_and_evaluate.py -->
    <g transform="translate(177.800086 164.899191) scale(0.069 -0.069)">
     <use xlink:href="#TimesNewRomanPSMT-74"/>
     <use xlink:href="#TimesNewRomanPSMT-72" x="27.783203"/>
     <use xlink:href="#TimesNewRomanPSMT-61" x="61.083984"/>
     <use xlink:href="#TimesNewRomanPSMT-69" x="105.46875"/>
     <use xlink:href="#TimesNewRomanPSMT-6e" x="133.251953"/>
     <use xlink:href="#TimesNewRomanPSMT-5f" x="183.251953"/>
     <use xlink:href="#TimesNewRomanPSMT-61" x="233.251953"/>
     <use xlink:href="#TimesNewRomanPSMT-6e" x="277.636719"/>
     <use xlink:href="#TimesNewRomanPSMT-64" x="327.636719"/>
     <use xlink:href="#TimesNewRomanPSMT-5f" x="377.636719"/>
     <use xlink:href="#TimesNewRomanPSMT-65" x="427.636719"/>
     <use xlink:href="#TimesNewRomanPSMT-76" x="472.021484"/>
     <use xlink:href="#TimesNewRomanPSMT-61" x="522.021484"/>
     <use xlink:href="#TimesNewRomanPSMT-6c" x="566.40625"/>
     <use xlink:href="#TimesNewRomanPSMT-75" x="594.189453"/>
     <use xlink:href="#TimesNewRomanPSMT-61" x="644.189453"/>
     <use xlink:href="#TimesNewRomanPSMT-74" x="688.574219"/>
     <use xlink:href="#TimesNewRomanPSMT-65" x="716.357422"/>
     <use xlink:href="#TimesNewRomanPSMT-2e" x="760.742188"/>
     <use xlink:href="#TimesNewRomanPSMT-70" x="785.742188"/>
     <use xlink:href="#TimesNewRomanPSMT-79" x="835.742188"/>
    </g>
    <!-- + metrics.py / utils.py -->
    <g transform="translate(178.144547 172.137506) scale(0.069 -0.069)">
     <use xlink:href="#TimesNewRomanPSMT-2b"/>
     <use xlink:href="#TimesNewRomanPSMT-20" x="56.396484"/>
     <use xlink:href="#TimesNewRomanPSMT-6d" x="81.396484"/>
     <use xlink:href="#TimesNewRomanPSMT-65" x="159.179688"/>
     <use xlink:href="#TimesNewRomanPSMT-74" x="203.564453"/>
     <use xlink:href="#TimesNewRomanPSMT-72" x="231.347656"/>
     <use xlink:href="#TimesNewRomanPSMT-69" x="264.648438"/>
     <use xlink:href="#TimesNewRomanPSMT-63" x="292.431641"/>
     <use xlink:href="#TimesNewRomanPSMT-73" x="336.816406"/>
     <use xlink:href="#TimesNewRomanPSMT-2e" x="375.732422"/>
     <use xlink:href="#TimesNewRomanPSMT-70" x="400.732422"/>
     <use xlink:href="#TimesNewRomanPSMT-79" x="450.732422"/>
     <use xlink:href="#TimesNewRomanPSMT-20" x="500.732422"/>
     <use xlink:href="#TimesNewRomanPSMT-2f" x="525.732422"/>
     <use xlink:href="#TimesNewRomanPSMT-20" x="553.515625"/>
     <use xlink:href="#TimesNewRomanPSMT-75" x="578.515625"/>
     <use xlink:href="#TimesNewRomanPSMT-74" x="628.515625"/>
     <use xlink:href="#TimesNewRomanPSMT-69" x="656.298828"/>
     <use xlink:href="#TimesNewRomanPSMT-6c" x="684.082031"/>
     <use xlink:href="#TimesNewRomanPSMT-73" x="711.865234"/>
     <use xlink:href="#TimesNewRomanPSMT-2e" x="750.78125"/>
     <use xlink:href="#TimesNewRomanPSMT-70" x="775.78125"/>
     <use xlink:href="#TimesNewRomanPSMT-79" x="825.78125"/>
    </g>
   </g>
   <g id="text_13">
    <!-- General CF/GNN -->
    <g transform="translate(283.528453 71.766459) scale(0.069 -0.069)">
     <defs>
      <path id="TimesNewRomanPSMT-47" d="M 3928 4334 
L 4038 2997 
L 3928 2997 
Q 3763 3497 3500 3750 
Q 3122 4116 2528 4116 
Q 1719 4116 1297 3475 
Q 944 2934 944 2188 
Q 944 1581 1178 1081 
Q 1413 581 1792 348 
Q 2172 116 2572 116 
Q 2806 116 3025 175 
Q 3244 234 3447 350 
L 3447 1575 
Q 3447 1894 3398 1992 
Q 3350 2091 3248 2142 
Q 3147 2194 2891 2194 
L 2891 2313 
L 4531 2313 
L 4531 2194 
L 4453 2194 
Q 4209 2194 4119 2031 
Q 4056 1916 4056 1575 
L 4056 278 
Q 3697 84 3347 -6 
Q 2997 -97 2569 -97 
Q 1341 -97 703 691 
Q 225 1281 225 2053 
Q 225 2613 494 3125 
Q 813 3734 1369 4063 
Q 1834 4334 2469 4334 
Q 2700 4334 2889 4296 
Q 3078 4259 3425 4131 
Q 3600 4066 3659 4066 
Q 3719 4066 3761 4120 
Q 3803 4175 3813 4334 
L 3928 4334 
z
" transform="scale(0.015625)"/>
      <path id="TimesNewRomanPSMT-46" d="M 1309 4006 
L 1309 2341 
L 2081 2341 
Q 2347 2341 2470 2458 
Q 2594 2575 2634 2922 
L 2750 2922 
L 2750 1488 
L 2634 1488 
Q 2631 1734 2570 1850 
Q 2509 1966 2401 2023 
Q 2294 2081 2081 2081 
L 1309 2081 
L 1309 750 
Q 1309 428 1350 325 
Q 1381 247 1481 191 
Q 1619 116 1769 116 
L 1922 116 
L 1922 0 
L 103 0 
L 103 116 
L 253 116 
Q 516 116 634 269 
Q 709 369 709 750 
L 709 3488 
Q 709 3809 669 3913 
Q 638 3991 541 4047 
Q 406 4122 253 4122 
L 103 4122 
L 103 4238 
L 3256 4238 
L 3297 3306 
L 3188 3306 
Q 3106 3603 2998 3742 
Q 2891 3881 2733 3943 
Q 2575 4006 2244 4006 
L 1309 4006 
z
" transform="scale(0.015625)"/>
      <path id="TimesNewRomanPSMT-4e" d="M -84 4238 
L 1066 4238 
L 3656 1059 
L 3656 3503 
Q 3656 3894 3569 3991 
Q 3453 4122 3203 4122 
L 3056 4122 
L 3056 4238 
L 4531 4238 
L 4531 4122 
L 4381 4122 
Q 4113 4122 4000 3959 
Q 3931 3859 3931 3503 
L 3931 -69 
L 3819 -69 
L 1025 3344 
L 1025 734 
Q 1025 344 1109 247 
Q 1228 116 1475 116 
L 1625 116 
L 1625 0 
L 150 0 
L 150 116 
L 297 116 
Q 569 116 681 278 
Q 750 378 750 734 
L 750 3681 
Q 566 3897 470 3965 
Q 375 4034 191 4094 
Q 100 4122 -84 4122 
L -84 4238 
z
" transform="scale(0.015625)"/>
     </defs>
     <use xlink:href="#TimesNewRomanPSMT-47"/>
     <use xlink:href="#TimesNewRomanPSMT-65" x="72.216797"/>
     <use xlink:href="#TimesNewRomanPSMT-6e" x="116.601562"/>
     <use xlink:href="#TimesNewRomanPSMT-65" x="166.601562"/>
     <use xlink:href="#TimesNewRomanPSMT-72" x="210.986328"/>
     <use xlink:href="#TimesNewRomanPSMT-61" x="244.287109"/>
     <use xlink:href="#TimesNewRomanPSMT-6c" x="288.671875"/>
     <use xlink:href="#TimesNewRomanPSMT-20" x="316.455078"/>
     <use xlink:href="#TimesNewRomanPSMT-43" x="341.455078"/>
     <use xlink:href="#TimesNewRomanPSMT-46" x="408.154297"/>
     <use xlink:href="#TimesNewRomanPSMT-2f" x="463.769531"/>
     <use xlink:href="#TimesNewRomanPSMT-47" x="491.552734"/>
     <use xlink:href="#TimesNewRomanPSMT-4e" x="563.769531"/>
     <use xlink:href="#TimesNewRomanPSMT-4e" x="635.986328"/>
    </g>
    <!-- (BPR, LightGCN, NCL, ...) -->
    <g transform="translate(269.722523 78.991838) scale(0.069 -0.069)">
     <defs>
      <path id="TimesNewRomanPSMT-28" d="M 1988 -1253 
L 1988 -1369 
Q 1516 -1131 1200 -813 
Q 750 -359 506 256 
Q 263 872 263 1534 
Q 263 2503 741 3301 
Q 1219 4100 1988 4444 
L 1988 4313 
Q 1603 4100 1356 3731 
Q 1109 3363 987 2797 
Q 866 2231 866 1616 
Q 866 947 969 400 
Q 1050 -31 1165 -292 
Q 1281 -553 1476 -793 
Q 1672 -1034 1988 -1253 
z
" transform="scale(0.015625)"/>
      <path id="TimesNewRomanPSMT-42" d="M 2956 2163 
Q 3397 2069 3616 1863 
Q 3919 1575 3919 1159 
Q 3919 844 3719 555 
Q 3519 266 3170 133 
Q 2822 0 2106 0 
L 106 0 
L 106 116 
L 266 116 
Q 531 116 647 284 
Q 719 394 719 750 
L 719 3488 
Q 719 3881 628 3984 
Q 506 4122 266 4122 
L 106 4122 
L 106 4238 
L 1938 4238 
Q 2450 4238 2759 4163 
Q 3228 4050 3475 3764 
Q 3722 3478 3722 3106 
Q 3722 2788 3528 2536 
Q 3334 2284 2956 2163 
z
M 1319 2331 
Q 1434 2309 1582 2298 
Q 1731 2288 1909 2288 
Q 2366 2288 2595 2386 
Q 2825 2484 2947 2687 
Q 3069 2891 3069 3131 
Q 3069 3503 2766 3765 
Q 2463 4028 1881 4028 
Q 1569 4028 1319 3959 
L 1319 2331 
z
M 1319 306 
Q 1681 222 2034 222 
Q 2600 222 2897 476 
Q 3194 731 3194 1106 
Q 3194 1353 3059 1581 
Q 2925 1809 2622 1940 
Q 2319 2072 1872 2072 
Q 1678 2072 1540 2065 
Q 1403 2059 1319 2044 
L 1319 306 
z
" transform="scale(0.015625)"/>
      <path id="TimesNewRomanPSMT-50" d="M 1313 1984 
L 1313 750 
Q 1313 350 1400 253 
Q 1519 116 1759 116 
L 1922 116 
L 1922 0 
L 106 0 
L 106 116 
L 266 116 
Q 534 116 650 291 
Q 713 388 713 750 
L 713 3488 
Q 713 3888 628 3984 
Q 506 4122 266 4122 
L 106 4122 
L 106 4238 
L 1659 4238 
Q 2228 4238 2556 4120 
Q 2884 4003 3109 3725 
Q 3334 3447 3334 3066 
Q 3334 2547 2992 2222 
Q 2650 1897 2025 1897 
Q 1872 1897 1694 1919 
Q 1516 1941 1313 1984 
z
M 1313 2163 
Q 1478 2131 1606 2115 
Q 1734 2100 1825 2100 
Q 2150 2100 2386 2351 
Q 2622 2603 2622 3003 
Q 2622 3278 2509 3514 
Q 2397 3750 2190 3867 
Q 1984 3984 1722 3984 
Q 1563 3984 1313 3925 
L 1313 2163 
z
" transform="scale(0.015625)"/>
      <path id="TimesNewRomanPSMT-52" d="M 4325 0 
L 3194 0 
L 1759 1981 
Q 1600 1975 1500 1975 
Q 1459 1975 1412 1976 
Q 1366 1978 1316 1981 
L 1316 750 
Q 1316 350 1403 253 
Q 1522 116 1759 116 
L 1925 116 
L 1925 0 
L 109 0 
L 109 116 
L 269 116 
Q 538 116 653 291 
Q 719 388 719 750 
L 719 3488 
Q 719 3888 631 3984 
Q 509 4122 269 4122 
L 109 4122 
L 109 4238 
L 1653 4238 
Q 2328 4238 2648 4139 
Q 2969 4041 3192 3777 
Q 3416 3513 3416 3147 
Q 3416 2756 3161 2468 
Q 2906 2181 2372 2063 
L 3247 847 
Q 3547 428 3762 290 
Q 3978 153 4325 116 
L 4325 0 
z
M 1316 2178 
Q 1375 2178 1419 2176 
Q 1463 2175 1491 2175 
Q 2097 2175 2405 2437 
Q 2713 2700 2713 3106 
Q 2713 3503 2464 3751 
Q 2216 4000 1806 4000 
Q 1625 4000 1316 3941 
L 1316 2178 
z
" transform="scale(0.015625)"/>
      <path id="TimesNewRomanPSMT-2c" d="M 344 -1066 
L 344 -928 
Q 666 -822 842 -598 
Q 1019 -375 1019 -125 
Q 1019 -66 991 -25 
Q 969 3 947 3 
Q 913 3 797 -59 
Q 741 -88 678 -88 
Q 525 -88 434 3 
Q 344 94 344 253 
Q 344 406 461 515 
Q 578 625 747 625 
Q 953 625 1114 445 
Q 1275 266 1275 -31 
Q 1275 -353 1051 -629 
Q 828 -906 344 -1066 
z
" transform="scale(0.015625)"/>
      <path id="TimesNewRomanPSMT-29" d="M 144 4313 
L 144 4444 
Q 619 4209 934 3891 
Q 1381 3434 1625 2820 
Q 1869 2206 1869 1541 
Q 1869 572 1392 -226 
Q 916 -1025 144 -1369 
L 144 -1253 
Q 528 -1038 776 -670 
Q 1025 -303 1145 264 
Q 1266 831 1266 1447 
Q 1266 2113 1163 2663 
Q 1084 3094 967 3353 
Q 850 3613 656 3853 
Q 463 4094 144 4313 
z
" transform="scale(0.015625)"/>
     </defs>
     <use xlink:href="#TimesNewRomanPSMT-28"/>
     <use xlink:href="#TimesNewRomanPSMT-42" x="33.300781"/>
     <use xlink:href="#TimesNewRomanPSMT-50" x="100"/>
     <use xlink:href="#TimesNewRomanPSMT-52" x="155.615234"/>
     <use xlink:href="#TimesNewRomanPSMT-2c" x="222.314453"/>
     <use xlink:href="#TimesNewRomanPSMT-20" x="247.314453"/>
     <use xlink:href="#TimesNewRomanPSMT-4c" x="272.314453"/>
     <use xlink:href="#TimesNewRomanPSMT-69" x="333.398438"/>
     <use xlink:href="#TimesNewRomanPSMT-67" x="361.181641"/>
     <use xlink:href="#TimesNewRomanPSMT-68" x="411.181641"/>
     <use xlink:href="#TimesNewRomanPSMT-74" x="461.181641"/>
     <use xlink:href="#TimesNewRomanPSMT-47" x="488.964844"/>
     <use xlink:href="#TimesNewRomanPSMT-43" x="561.181641"/>
     <use xlink:href="#TimesNewRomanPSMT-4e" x="627.880859"/>
     <use xlink:href="#TimesNewRomanPSMT-2c" x="700.097656"/>
     <use xlink:href="#TimesNewRomanPSMT-20" x="725.097656"/>
     <use xlink:href="#TimesNewRomanPSMT-4e" x="750.097656"/>
     <use xlink:href="#TimesNewRomanPSMT-43" x="822.314453"/>
     <use xlink:href="#TimesNewRomanPSMT-4c" x="889.013672"/>
     <use xlink:href="#TimesNewRomanPSMT-2c" x="950.097656"/>
     <use xlink:href="#TimesNewRomanPSMT-20" x="975.097656"/>
     <use xlink:href="#TimesNewRomanPSMT-2e" x="1000.097656"/>
     <use xlink:href="#TimesNewRomanPSMT-2e" x="1025.097656"/>
     <use xlink:href="#TimesNewRomanPSMT-2e" x="1050.097656"/>
     <use xlink:href="#TimesNewRomanPSMT-29" x="1075.097656"/>
    </g>
   </g>
   <g id="text_14">
    <!-- Multimodal -->
    <g transform="translate(292.142672 112.673623) scale(0.067 -0.067)">
     <use xlink:href="#TimesNewRomanPSMT-4d"/>
     <use xlink:href="#TimesNewRomanPSMT-75" x="88.916016"/>
     <use xlink:href="#TimesNewRomanPSMT-6c" x="138.916016"/>
     <use xlink:href="#TimesNewRomanPSMT-74" x="166.699219"/>
     <use xlink:href="#TimesNewRomanPSMT-69" x="194.482422"/>
     <use xlink:href="#TimesNewRomanPSMT-6d" x="222.265625"/>
     <use xlink:href="#TimesNewRomanPSMT-6f" x="300.048828"/>
     <use xlink:href="#TimesNewRomanPSMT-64" x="350.048828"/>
     <use xlink:href="#TimesNewRomanPSMT-61" x="400.048828"/>
     <use xlink:href="#TimesNewRomanPSMT-6c" x="444.433594"/>
    </g>
    <!-- (MMGCN, COHESION, -->
    <g transform="translate(274.366734 119.68957) scale(0.067 -0.067)">
     <defs>
      <path id="TimesNewRomanPSMT-4f" d="M 2341 4334 
Q 3166 4334 3770 3707 
Q 4375 3081 4375 2144 
Q 4375 1178 3765 540 
Q 3156 -97 2291 -97 
Q 1416 -97 820 525 
Q 225 1147 225 2134 
Q 225 3144 913 3781 
Q 1509 4334 2341 4334 
z
M 2281 4106 
Q 1713 4106 1369 3684 
Q 941 3159 941 2147 
Q 941 1109 1384 550 
Q 1725 125 2284 125 
Q 2881 125 3270 590 
Q 3659 1056 3659 2059 
Q 3659 3147 3231 3681 
Q 2888 4106 2281 4106 
z
" transform="scale(0.015625)"/>
      <path id="TimesNewRomanPSMT-48" d="M 1316 2272 
L 3284 2272 
L 3284 3484 
Q 3284 3809 3244 3913 
Q 3213 3991 3113 4047 
Q 2978 4122 2828 4122 
L 2678 4122 
L 2678 4238 
L 4491 4238 
L 4491 4122 
L 4341 4122 
Q 4191 4122 4056 4050 
Q 3956 4000 3920 3898 
Q 3884 3797 3884 3484 
L 3884 750 
Q 3884 428 3925 325 
Q 3956 247 4053 191 
Q 4191 116 4341 116 
L 4491 116 
L 4491 0 
L 2678 0 
L 2678 116 
L 2828 116 
Q 3088 116 3206 269 
Q 3284 369 3284 750 
L 3284 2041 
L 1316 2041 
L 1316 750 
Q 1316 428 1356 325 
Q 1388 247 1488 191 
Q 1622 116 1772 116 
L 1925 116 
L 1925 0 
L 109 0 
L 109 116 
L 259 116 
Q 522 116 641 269 
Q 716 369 716 750 
L 716 3484 
Q 716 3809 675 3913 
Q 644 3991 547 4047 
Q 409 4122 259 4122 
L 109 4122 
L 109 4238 
L 1925 4238 
L 1925 4122 
L 1772 4122 
Q 1622 4122 1488 4050 
Q 1391 4000 1353 3898 
Q 1316 3797 1316 3484 
L 1316 2272 
z
" transform="scale(0.015625)"/>
      <path id="TimesNewRomanPSMT-45" d="M 1338 4006 
L 1338 2331 
L 2269 2331 
Q 2631 2331 2753 2441 
Q 2916 2584 2934 2947 
L 3050 2947 
L 3050 1472 
L 2934 1472 
Q 2891 1781 2847 1869 
Q 2791 1978 2662 2040 
Q 2534 2103 2269 2103 
L 1338 2103 
L 1338 706 
Q 1338 425 1363 364 
Q 1388 303 1450 267 
Q 1513 231 1688 231 
L 2406 231 
Q 2766 231 2928 281 
Q 3091 331 3241 478 
Q 3434 672 3638 1063 
L 3763 1063 
L 3397 0 
L 131 0 
L 131 116 
L 281 116 
Q 431 116 566 188 
Q 666 238 702 338 
Q 738 438 738 747 
L 738 3500 
Q 738 3903 656 3997 
Q 544 4122 281 4122 
L 131 4122 
L 131 4238 
L 3397 4238 
L 3444 3309 
L 3322 3309 
Q 3256 3644 3176 3769 
Q 3097 3894 2941 3959 
Q 2816 4006 2500 4006 
L 1338 4006 
z
" transform="scale(0.015625)"/>
      <path id="TimesNewRomanPSMT-53" d="M 2934 4334 
L 2934 2869 
L 2819 2869 
Q 2763 3291 2617 3541 
Q 2472 3791 2203 3937 
Q 1934 4084 1647 4084 
Q 1322 4084 1109 3886 
Q 897 3688 897 3434 
Q 897 3241 1031 3081 
Q 1225 2847 1953 2456 
Q 2547 2138 2764 1967 
Q 2981 1797 3098 1565 
Q 3216 1334 3216 1081 
Q 3216 600 2842 251 
Q 2469 -97 1881 -97 
Q 1697 -97 1534 -69 
Q 1438 -53 1133 45 
Q 828 144 747 144 
Q 669 144 623 97 
Q 578 50 556 -97 
L 441 -97 
L 441 1356 
L 556 1356 
Q 638 900 775 673 
Q 913 447 1195 297 
Q 1478 147 1816 147 
Q 2206 147 2432 353 
Q 2659 559 2659 841 
Q 2659 997 2573 1156 
Q 2488 1316 2306 1453 
Q 2184 1547 1640 1851 
Q 1097 2156 867 2337 
Q 638 2519 519 2737 
Q 400 2956 400 3219 
Q 400 3675 750 4004 
Q 1100 4334 1641 4334 
Q 1978 4334 2356 4169 
Q 2531 4091 2603 4091 
Q 2684 4091 2736 4139 
Q 2788 4188 2819 4334 
L 2934 4334 
z
" transform="scale(0.015625)"/>
     </defs>
     <use xlink:href="#TimesNewRomanPSMT-28"/>
     <use xlink:href="#TimesNewRomanPSMT-4d" x="33.300781"/>
     <use xlink:href="#TimesNewRomanPSMT-4d" x="122.216797"/>
     <use xlink:href="#TimesNewRomanPSMT-47" x="211.132812"/>
     <use xlink:href="#TimesNewRomanPSMT-43" x="283.349609"/>
     <use xlink:href="#TimesNewRomanPSMT-4e" x="350.048828"/>
     <use xlink:href="#TimesNewRomanPSMT-2c" x="422.265625"/>
     <use xlink:href="#TimesNewRomanPSMT-20" x="447.265625"/>
     <use xlink:href="#TimesNewRomanPSMT-43" x="472.265625"/>
     <use xlink:href="#TimesNewRomanPSMT-4f" x="538.964844"/>
     <use xlink:href="#TimesNewRomanPSMT-48" x="611.181641"/>
     <use xlink:href="#TimesNewRomanPSMT-45" x="683.398438"/>
     <use xlink:href="#TimesNewRomanPSMT-53" x="744.482422"/>
     <use xlink:href="#TimesNewRomanPSMT-49" x="800.097656"/>
     <use xlink:href="#TimesNewRomanPSMT-4f" x="833.398438"/>
     <use xlink:href="#TimesNewRomanPSMT-4e" x="905.615234"/>
     <use xlink:href="#TimesNewRomanPSMT-2c" x="977.832031"/>
    </g>
    <!-- DDRec, Grade, GUME, ...) -->
    <g transform="translate(271.21407 126.705517) scale(0.067 -0.067)">
     <defs>
      <path id="TimesNewRomanPSMT-55" d="M 3053 4122 
L 3053 4238 
L 4553 4238 
L 4553 4122 
L 4394 4122 
Q 4144 4122 4009 3913 
Q 3944 3816 3944 3463 
L 3944 1744 
Q 3944 1106 3817 754 
Q 3691 403 3320 151 
Q 2950 -100 2313 -100 
Q 1619 -100 1259 140 
Q 900 381 750 788 
Q 650 1066 650 1831 
L 650 3488 
Q 650 3878 542 4000 
Q 434 4122 194 4122 
L 34 4122 
L 34 4238 
L 1866 4238 
L 1866 4122 
L 1703 4122 
Q 1441 4122 1328 3956 
Q 1250 3844 1250 3488 
L 1250 1641 
Q 1250 1394 1295 1075 
Q 1341 756 1459 578 
Q 1578 400 1801 284 
Q 2025 169 2350 169 
Q 2766 169 3094 350 
Q 3422 531 3542 814 
Q 3663 1097 3663 1772 
L 3663 3488 
Q 3663 3884 3575 3984 
Q 3453 4122 3213 4122 
L 3053 4122 
z
" transform="scale(0.015625)"/>
     </defs>
     <use xlink:href="#TimesNewRomanPSMT-44"/>
     <use xlink:href="#TimesNewRomanPSMT-44" x="72.216797"/>
     <use xlink:href="#TimesNewRomanPSMT-52" x="144.433594"/>
     <use xlink:href="#TimesNewRomanPSMT-65" x="211.132812"/>
     <use xlink:href="#TimesNewRomanPSMT-63" x="255.517578"/>
     <use xlink:href="#TimesNewRomanPSMT-2c" x="299.902344"/>
     <use xlink:href="#TimesNewRomanPSMT-20" x="324.902344"/>
     <use xlink:href="#TimesNewRomanPSMT-47" x="349.902344"/>
     <use xlink:href="#TimesNewRomanPSMT-72" x="422.119141"/>
     <use xlink:href="#TimesNewRomanPSMT-61" x="455.419922"/>
     <use xlink:href="#TimesNewRomanPSMT-64" x="499.804688"/>
     <use xlink:href="#TimesNewRomanPSMT-65" x="549.804688"/>
     <use xlink:href="#TimesNewRomanPSMT-2c" x="594.189453"/>
     <use xlink:href="#TimesNewRomanPSMT-20" x="619.189453"/>
     <use xlink:href="#TimesNewRomanPSMT-47" x="644.189453"/>
     <use xlink:href="#TimesNewRomanPSMT-55" x="716.40625"/>
     <use xlink:href="#TimesNewRomanPSMT-4d" x="788.623047"/>
     <use xlink:href="#TimesNewRomanPSMT-45" x="877.539062"/>
     <use xlink:href="#TimesNewRomanPSMT-2c" x="938.623047"/>
     <use xlink:href="#TimesNewRomanPSMT-20" x="963.623047"/>
     <use xlink:href="#TimesNewRomanPSMT-2e" x="988.623047"/>
     <use xlink:href="#TimesNewRomanPSMT-2e" x="1013.623047"/>
     <use xlink:href="#TimesNewRomanPSMT-2e" x="1038.623047"/>
     <use xlink:href="#TimesNewRomanPSMT-29" x="1063.623047"/>
    </g>
   </g>
   <g id="text_15">
    <!-- Diffusion/Transformer -->
    <g transform="translate(278.077922 157.100128) scale(0.066 -0.066)">
     <defs>
      <path id="TimesNewRomanPSMT-54" d="M 3703 4238 
L 3750 3244 
L 3631 3244 
Q 3597 3506 3538 3619 
Q 3441 3800 3280 3886 
Q 3119 3972 2856 3972 
L 2259 3972 
L 2259 734 
Q 2259 344 2344 247 
Q 2463 116 2709 116 
L 2856 116 
L 2856 0 
L 1059 0 
L 1059 116 
L 1209 116 
Q 1478 116 1591 278 
Q 1659 378 1659 734 
L 1659 3972 
L 1150 3972 
Q 853 3972 728 3928 
Q 566 3869 450 3700 
Q 334 3531 313 3244 
L 194 3244 
L 244 4238 
L 3703 4238 
z
" transform="scale(0.015625)"/>
     </defs>
     <use xlink:href="#TimesNewRomanPSMT-44"/>
     <use xlink:href="#TimesNewRomanPSMT-69" x="72.216797"/>
     <use xlink:href="#TimesNewRomanPSMT-66" x="100"/>
     <use xlink:href="#TimesNewRomanPSMT-66" x="131.550781"/>
     <use xlink:href="#TimesNewRomanPSMT-75" x="164.851562"/>
     <use xlink:href="#TimesNewRomanPSMT-73" x="214.851562"/>
     <use xlink:href="#TimesNewRomanPSMT-69" x="253.767578"/>
     <use xlink:href="#TimesNewRomanPSMT-6f" x="281.550781"/>
     <use xlink:href="#TimesNewRomanPSMT-6e" x="331.550781"/>
     <use xlink:href="#TimesNewRomanPSMT-2f" x="381.550781"/>
     <use xlink:href="#TimesNewRomanPSMT-54" x="409.333984"/>
     <use xlink:href="#TimesNewRomanPSMT-72" x="466.917969"/>
     <use xlink:href="#TimesNewRomanPSMT-61" x="500.21875"/>
     <use xlink:href="#TimesNewRomanPSMT-6e" x="544.603516"/>
     <use xlink:href="#TimesNewRomanPSMT-73" x="594.603516"/>
     <use xlink:href="#TimesNewRomanPSMT-66" x="633.519531"/>
     <use xlink:href="#TimesNewRomanPSMT-6f" x="666.820312"/>
     <use xlink:href="#TimesNewRomanPSMT-72" x="716.820312"/>
     <use xlink:href="#TimesNewRomanPSMT-6d" x="750.121094"/>
     <use xlink:href="#TimesNewRomanPSMT-65" x="827.904297"/>
     <use xlink:href="#TimesNewRomanPSMT-72" x="872.289062"/>
    </g>
    <!-- (DiffRec, CF_Diff, -->
    <g transform="translate(282.691219 164.011359) scale(0.066 -0.066)">
     <use xlink:href="#TimesNewRomanPSMT-28"/>
     <use xlink:href="#TimesNewRomanPSMT-44" x="33.300781"/>
     <use xlink:href="#TimesNewRomanPSMT-69" x="105.517578"/>
     <use xlink:href="#TimesNewRomanPSMT-66" x="133.300781"/>
     <use xlink:href="#TimesNewRomanPSMT-66" x="164.851562"/>
     <use xlink:href="#TimesNewRomanPSMT-52" x="198.152344"/>
     <use xlink:href="#TimesNewRomanPSMT-65" x="264.851562"/>
     <use xlink:href="#TimesNewRomanPSMT-63" x="309.236328"/>
     <use xlink:href="#TimesNewRomanPSMT-2c" x="353.621094"/>
     <use xlink:href="#TimesNewRomanPSMT-20" x="378.621094"/>
     <use xlink:href="#TimesNewRomanPSMT-43" x="403.621094"/>
     <use xlink:href="#TimesNewRomanPSMT-46" x="470.320312"/>
     <use xlink:href="#TimesNewRomanPSMT-5f" x="525.935547"/>
     <use xlink:href="#TimesNewRomanPSMT-44" x="575.935547"/>
     <use xlink:href="#TimesNewRomanPSMT-69" x="648.152344"/>
     <use xlink:href="#TimesNewRomanPSMT-66" x="675.935547"/>
     <use xlink:href="#TimesNewRomanPSMT-66" x="707.486328"/>
     <use xlink:href="#TimesNewRomanPSMT-2c" x="740.787109"/>
    </g>
    <!-- DiffMM, GFormer, ...) -->
    <g transform="translate(277.813922 170.934966) scale(0.066 -0.066)">
     <use xlink:href="#TimesNewRomanPSMT-44"/>
     <use xlink:href="#TimesNewRomanPSMT-69" x="72.216797"/>
     <use xlink:href="#TimesNewRomanPSMT-66" x="100"/>
     <use xlink:href="#TimesNewRomanPSMT-66" x="131.550781"/>
     <use xlink:href="#TimesNewRomanPSMT-4d" x="164.851562"/>
     <use xlink:href="#TimesNewRomanPSMT-4d" x="253.767578"/>
     <use xlink:href="#TimesNewRomanPSMT-2c" x="342.683594"/>
     <use xlink:href="#TimesNewRomanPSMT-20" x="367.683594"/>
     <use xlink:href="#TimesNewRomanPSMT-47" x="392.683594"/>
     <use xlink:href="#TimesNewRomanPSMT-46" x="464.900391"/>
     <use xlink:href="#TimesNewRomanPSMT-6f" x="520.515625"/>
     <use xlink:href="#TimesNewRomanPSMT-72" x="570.515625"/>
     <use xlink:href="#TimesNewRomanPSMT-6d" x="603.816406"/>
     <use xlink:href="#TimesNewRomanPSMT-65" x="681.599609"/>
     <use xlink:href="#TimesNewRomanPSMT-72" x="725.984375"/>
     <use xlink:href="#TimesNewRomanPSMT-2c" x="755.285156"/>
     <use xlink:href="#TimesNewRomanPSMT-20" x="780.285156"/>
     <use xlink:href="#TimesNewRomanPSMT-2e" x="805.285156"/>
     <use xlink:href="#TimesNewRomanPSMT-2e" x="830.285156"/>
     <use xlink:href="#TimesNewRomanPSMT-2e" x="855.285156"/>
     <use xlink:href="#TimesNewRomanPSMT-29" x="880.285156"/>
    </g>
   </g>
   <g id="text_16">
    <!-- log -->
    <g transform="translate(369.763875 77.668538) scale(0.072 -0.072)">
     <use xlink:href="#TimesNewRomanPSMT-6c"/>
     <use xlink:href="#TimesNewRomanPSMT-6f" x="27.783203"/>
     <use xlink:href="#TimesNewRomanPSMT-67" x="77.783203"/>
    </g>
   </g>
   <g id="text_17">
    <!-- best -->
    <g transform="translate(368.886813 120.588462) scale(0.068 -0.068)">
     <defs>
      <path id="TimesNewRomanPSMT-62" d="M 984 2369 
Q 1400 2947 1881 2947 
Q 2322 2947 2650 2570 
Q 2978 2194 2978 1541 
Q 2978 778 2472 313 
Q 2038 -88 1503 -88 
Q 1253 -88 995 3 
Q 738 94 469 275 
L 469 3241 
Q 469 3728 445 3840 
Q 422 3953 372 3993 
Q 322 4034 247 4034 
Q 159 4034 28 3984 
L -16 4094 
L 844 4444 
L 984 4444 
L 984 2369 
z
M 984 2169 
L 984 456 
Q 1144 300 1314 220 
Q 1484 141 1663 141 
Q 1947 141 2192 453 
Q 2438 766 2438 1363 
Q 2438 1913 2192 2208 
Q 1947 2503 1634 2503 
Q 1469 2503 1303 2419 
Q 1178 2356 984 2169 
z
" transform="scale(0.015625)"/>
     </defs>
     <use xlink:href="#TimesNewRomanPSMT-62"/>
     <use xlink:href="#TimesNewRomanPSMT-65" x="50"/>
     <use xlink:href="#TimesNewRomanPSMT-73" x="94.384766"/>
     <use xlink:href="#TimesNewRomanPSMT-74" x="133.300781"/>
    </g>
    <!-- metrics -->
    <g transform="translate(364.356313 127.709125) scale(0.068 -0.068)">
     <use xlink:href="#TimesNewRomanPSMT-6d"/>
     <use xlink:href="#TimesNewRomanPSMT-65" x="77.783203"/>
     <use xlink:href="#TimesNewRomanPSMT-74" x="122.167969"/>
     <use xlink:href="#TimesNewRomanPSMT-72" x="149.951172"/>
     <use xlink:href="#TimesNewRomanPSMT-69" x="183.251953"/>
     <use xlink:href="#TimesNewRomanPSMT-63" x="211.035156"/>
     <use xlink:href="#TimesNewRomanPSMT-73" x="255.419922"/>
    </g>
   </g>
   <g id="text_18">
    <!-- best -->
    <g transform="translate(368.886813 162.722862) scale(0.068 -0.068)">
     <use xlink:href="#TimesNewRomanPSMT-62"/>
     <use xlink:href="#TimesNewRomanPSMT-65" x="50"/>
     <use xlink:href="#TimesNewRomanPSMT-73" x="94.384766"/>
     <use xlink:href="#TimesNewRomanPSMT-74" x="133.300781"/>
    </g>
    <!-- params -->
    <g transform="translate(364.545438 169.843525) scale(0.068 -0.068)">
     <use xlink:href="#TimesNewRomanPSMT-70"/>
     <use xlink:href="#TimesNewRomanPSMT-61" x="50"/>
     <use xlink:href="#TimesNewRomanPSMT-72" x="94.384766"/>
     <use xlink:href="#TimesNewRomanPSMT-61" x="127.685547"/>
     <use xlink:href="#TimesNewRomanPSMT-6d" x="172.070312"/>
     <use xlink:href="#TimesNewRomanPSMT-73" x="249.853516"/>
    </g>
   </g>
   <g id="patch_20">
    <path d="M 77.604315 80.3808 
Q 85.321329 80.3808 91.920309 80.3808 
" style="fill: none; stroke: #334155; stroke-linecap: round"/>
    <path d="M 88.920309 78.8808 
L 91.920309 80.3808 
L 88.920309 81.8808 
L 88.920309 78.8808 
z
" style="fill: #334155; stroke: #334155; stroke-linecap: round"/>
   </g>
   <g id="patch_21">
    <path d="M 77.604315 151.344 
Q 85.321329 151.344 91.920309 151.344 
" style="fill: none; stroke: #334155; stroke-linecap: round"/>
    <path d="M 88.920309 149.844 
L 91.920309 151.344 
L 88.920309 152.844 
L 88.920309 149.844 
z
" style="fill: #334155; stroke: #334155; stroke-linecap: round"/>
   </g>
   <g id="patch_22">
    <path d="M 147.837933 79.637449 
Q 155.627348 78.163323 162.318228 76.897092 
" style="fill: none; stroke: #334155; stroke-linecap: round"/>
    <path d="M 159.091628 75.981093 
L 162.318228 76.897092 
L 159.649468 78.928773 
L 159.091628 75.981093 
z
" style="fill: #334155; stroke: #334155; stroke-linecap: round"/>
   </g>
   <g id="patch_23">
    <path d="M 146.4304 148.243637 
Q 155.625655 136.932484 164.115659 126.488867 
" style="fill: none; stroke: #334155; stroke-linecap: round"/>
    <path d="M 161.059346 127.870516 
L 164.115659 126.488867 
L 163.38719 129.762906 
L 161.059346 127.870516 
z
" style="fill: #334155; stroke: #334155; stroke-linecap: round"/>
   </g>
   <g id="patch_24">
    <path d="M 210.312 99.902285 
Q 210.312 101.447968 210.312 101.875616 
" style="fill: none; stroke: #334155; stroke-linecap: round"/>
    <path d="M 211.812 98.875616 
L 210.312 101.875616 
L 208.812 98.875616 
L 211.812 98.875616 
z
" style="fill: #334155; stroke: #334155; stroke-linecap: round"/>
   </g>
   <g id="patch_25">
    <path d="M 210.312 144.254285 
Q 210.312 145.799968 210.312 146.227616 
" style="fill: none; stroke: #334155; stroke-linecap: round"/>
    <path d="M 211.812 143.227616 
L 210.312 146.227616 
L 208.812 143.227616 
L 211.812 143.227616 
z
" style="fill: #334155; stroke: #334155; stroke-linecap: round"/>
   </g>
   <g id="patch_26">
    <path d="M 253.374315 75.9456 
Q 261.091329 75.9456 267.690309 75.9456 
" style="fill: none; stroke: #334155; stroke-linecap: round"/>
    <path d="M 264.690309 74.4456 
L 267.690309 75.9456 
L 264.690309 77.4456 
L 264.690309 74.4456 
z
" style="fill: #334155; stroke: #334155; stroke-linecap: round"/>
   </g>
   <g id="patch_27">
    <path d="M 253.299933 121.771849 
Q 261.089348 120.297723 267.780228 119.031492 
" style="fill: none; stroke: #334155; stroke-linecap: round"/>
    <path d="M 264.553628 118.115493 
L 267.780228 119.031492 
L 265.111468 121.063173 
L 264.553628 118.115493 
z
" style="fill: #334155; stroke: #334155; stroke-linecap: round"/>
   </g>
   <g id="patch_28">
    <path d="M 253.299933 166.123849 
Q 261.089348 164.649723 267.780228 163.383492 
" style="fill: none; stroke: #334155; stroke-linecap: round"/>
    <path d="M 264.553628 162.467493 
L 267.780228 163.383492 
L 265.111468 165.415173 
L 264.553628 162.467493 
z
" style="fill: #334155; stroke: #334155; stroke-linecap: round"/>
   </g>
   <g id="patch_29">
    <path d="M 347.094236 74.138657 
Q 353.857246 74.836774 359.508132 75.420091 
" style="fill: none; stroke: #334155; stroke-linecap: round"/>
    <path d="M 356.678009 73.619979 
L 359.508132 75.420091 
L 356.369968 76.604122 
L 356.678009 73.619979 
z
" style="fill: #334155; stroke: #334155; stroke-linecap: round"/>
   </g>
   <g id="patch_30">
    <path d="M 347.031298 118.88832 
Q 353.857225 120.297543 359.588209 121.480714 
" style="fill: none; stroke: #334155; stroke-linecap: round"/>
    <path d="M 356.953451 119.405131 
L 359.588209 121.480714 
L 356.346887 122.343171 
L 356.953451 119.405131 
z
" style="fill: #334155; stroke: #334155; stroke-linecap: round"/>
   </g>
   <g id="patch_31">
    <path d="M 347.094236 162.842657 
Q 353.857246 163.540774 359.508132 164.124091 
" style="fill: none; stroke: #334155; stroke-linecap: round"/>
    <path d="M 356.678009 162.323979 
L 359.508132 164.124091 
L 356.369968 165.308122 
L 356.678009 162.323979 
z
" style="fill: #334155; stroke: #334155; stroke-linecap: round"/>
   </g>
   <g id="text_19">
    <!-- Figure 1. ChaoRec architecture -->
    <g transform="translate(145.602461 20.723006) scale(0.085 -0.085)">
     <defs>
      <path id="TimesNewRomanPS-BoldMT-72" d="M 1428 2922 
L 1428 2259 
Q 1719 2713 1937 2861 
Q 2156 3009 2359 3009 
Q 2534 3009 2639 2901 
Q 2744 2794 2744 2597 
Q 2744 2388 2642 2272 
Q 2541 2156 2397 2156 
Q 2231 2156 2109 2262 
Q 1988 2369 1966 2381 
Q 1934 2400 1894 2400 
Q 1803 2400 1722 2331 
Q 1594 2225 1528 2028 
Q 1428 1725 1428 1359 
L 1428 688 
L 1431 513 
Q 1431 334 1453 284 
Q 1491 200 1564 161 
Q 1638 122 1813 113 
L 1813 0 
L 234 0 
L 234 113 
Q 425 128 492 217 
Q 559 306 559 688 
L 559 2303 
Q 559 2553 534 2622 
Q 503 2709 443 2750 
Q 384 2791 234 2806 
L 234 2922 
L 1428 2922 
z
" transform="scale(0.015625)"/>
      <path id="TimesNewRomanPS-BoldMT-31" d="M 2084 4325 
L 2084 859 
Q 2084 469 2118 361 
Q 2153 253 2262 184 
Q 2372 116 2613 116 
L 2709 116 
L 2709 0 
L 478 0 
L 478 116 
L 591 116 
Q 863 116 978 178 
Q 1094 241 1134 350 
Q 1175 459 1175 859 
L 1175 3056 
Q 1175 3350 1147 3423 
Q 1119 3497 1042 3548 
Q 966 3600 866 3600 
Q 706 3600 478 3500 
L 422 3613 
L 1981 4325 
L 2084 4325 
z
" transform="scale(0.015625)"/>
      <path id="TimesNewRomanPS-BoldMT-2e" d="M 800 963 
Q 1019 963 1170 809 
Q 1322 656 1322 441 
Q 1322 225 1169 73 
Q 1016 -78 800 -78 
Q 584 -78 432 73 
Q 281 225 281 441 
Q 281 656 432 809 
Q 584 963 800 963 
z
" transform="scale(0.015625)"/>
      <path id="TimesNewRomanPS-BoldMT-68" d="M 1409 4238 
L 1409 2547 
Q 1650 2800 1850 2904 
Q 2050 3009 2266 3009 
Q 2541 3009 2736 2853 
Q 2931 2697 2995 2486 
Q 3059 2275 3059 1775 
L 3059 634 
Q 3059 300 3121 217 
Q 3184 134 3375 113 
L 3375 0 
L 1894 0 
L 1894 113 
Q 2050 134 2128 238 
Q 2184 319 2184 634 
L 2184 1938 
Q 2184 2300 2156 2392 
Q 2128 2484 2061 2536 
Q 1994 2588 1909 2588 
Q 1784 2588 1665 2502 
Q 1547 2416 1409 2200 
L 1409 634 
Q 1409 322 1456 244 
Q 1516 138 1700 113 
L 1700 0 
L 219 0 
L 219 113 
Q 403 131 481 231 
Q 534 300 534 634 
L 534 3603 
Q 534 3934 473 4015 
Q 413 4097 219 4122 
L 219 4238 
L 1409 4238 
z
" transform="scale(0.015625)"/>
      <path id="TimesNewRomanPS-BoldMT-52" d="M 1700 1931 
L 1700 744 
Q 1700 400 1742 311 
Q 1784 222 1890 169 
Q 1997 116 2288 116 
L 2288 0 
L 119 0 
L 119 116 
Q 413 116 517 170 
Q 622 225 664 312 
Q 706 400 706 744 
L 706 3494 
Q 706 3838 664 3927 
Q 622 4016 515 4069 
Q 409 4122 119 4122 
L 119 4238 
L 2088 4238 
Q 2856 4238 3212 4131 
Q 3569 4025 3794 3739 
Q 4019 3453 4019 3069 
Q 4019 2600 3681 2294 
Q 3466 2100 3078 2003 
L 4097 569 
Q 4297 291 4381 222 
Q 4509 125 4678 116 
L 4678 0 
L 3344 0 
L 1978 1931 
L 1700 1931 
z
M 1700 4009 
L 1700 2153 
L 1878 2153 
Q 2313 2153 2528 2233 
Q 2744 2313 2867 2520 
Q 2991 2728 2991 3063 
Q 2991 3547 2764 3778 
Q 2538 4009 2034 4009 
L 1700 4009 
z
" transform="scale(0.015625)"/>
     </defs>
     <use xlink:href="#TimesNewRomanPS-BoldMT-46"/>
     <use xlink:href="#TimesNewRomanPS-BoldMT-69" x="61.083984"/>
     <use xlink:href="#TimesNewRomanPS-BoldMT-67" x="88.867188"/>
     <use xlink:href="#TimesNewRomanPS-BoldMT-75" x="138.867188"/>
     <use xlink:href="#TimesNewRomanPS-BoldMT-72" x="194.482422"/>
     <use xlink:href="#TimesNewRomanPS-BoldMT-65" x="237.117188"/>
     <use xlink:href="#TimesNewRomanPS-BoldMT-20" x="281.501953"/>
     <use xlink:href="#TimesNewRomanPS-BoldMT-31" x="306.501953"/>
     <use xlink:href="#TimesNewRomanPS-BoldMT-2e" x="356.501953"/>
     <use xlink:href="#TimesNewRomanPS-BoldMT-20" x="381.501953"/>
     <use xlink:href="#TimesNewRomanPS-BoldMT-43" x="406.501953"/>
     <use xlink:href="#TimesNewRomanPS-BoldMT-68" x="478.71875"/>
     <use xlink:href="#TimesNewRomanPS-BoldMT-61" x="534.333984"/>
     <use xlink:href="#TimesNewRomanPS-BoldMT-6f" x="584.333984"/>
     <use xlink:href="#TimesNewRomanPS-BoldMT-52" x="634.333984"/>
     <use xlink:href="#TimesNewRomanPS-BoldMT-65" x="706.550781"/>
     <use xlink:href="#TimesNewRomanPS-BoldMT-63" x="750.935547"/>
     <use xlink:href="#TimesNewRomanPS-BoldMT-20" x="795.320312"/>
     <use xlink:href="#TimesNewRomanPS-BoldMT-61" x="820.320312"/>
     <use xlink:href="#TimesNewRomanPS-BoldMT-72" x="870.320312"/>
     <use xlink:href="#TimesNewRomanPS-BoldMT-63" x="912.955078"/>
     <use xlink:href="#TimesNewRomanPS-BoldMT-68" x="957.339844"/>
     <use xlink:href="#TimesNewRomanPS-BoldMT-69" x="1012.955078"/>
     <use xlink:href="#TimesNewRomanPS-BoldMT-74" x="1040.738281"/>
     <use xlink:href="#TimesNewRomanPS-BoldMT-65" x="1074.039062"/>
     <use xlink:href="#TimesNewRomanPS-BoldMT-63" x="1118.423828"/>
     <use xlink:href="#TimesNewRomanPS-BoldMT-74" x="1162.808594"/>
     <use xlink:href="#TimesNewRomanPS-BoldMT-75" x="1196.109375"/>
     <use xlink:href="#TimesNewRomanPS-BoldMT-72" x="1251.724609"/>
     <use xlink:href="#TimesNewRomanPS-BoldMT-65" x="1294.359375"/>
    </g>
   </g>
  </g>
 </g>
 <defs>
  <clipPath id="pccda1713b8">
   <rect x="7.2" y="7.2" width="390.6" height="221.76"/>
  </clipPath>
 </defs>
</svg>
